G04 MADE WITH FRITZING*
G04 WWW.FRITZING.ORG*
G04 DOUBLE SIDED*
G04 HOLES PLATED*
G04 CONTOUR ON CENTER OF CONTOUR VECTOR*
%ASAXBY*%
%FSLAX23Y23*%
%MOIN*%
%OFA0B0*%
%SFA1.0B1.0*%
%ADD10R,1.732280X2.165350X1.716280X2.149350*%
%ADD11C,0.008000*%
%ADD12C,0.010000*%
%ADD13C,0.005000*%
%ADD14R,0.001000X0.001000*%
%LNSILK1*%
G90*
G70*
G54D11*
X4Y2161D02*
X1728Y2161D01*
X1728Y4D01*
X4Y4D01*
X4Y2161D01*
D02*
G54D12*
X1484Y871D02*
X1484Y661D01*
D02*
X1484Y661D02*
X1700Y661D01*
D02*
X1700Y661D02*
X1700Y871D01*
D02*
X1700Y871D02*
X1484Y871D01*
G54D13*
D02*
X1660Y661D02*
X1660Y871D01*
G54D12*
D02*
X1117Y1328D02*
X1427Y1328D01*
D02*
X1427Y1328D02*
X1427Y1544D01*
D02*
X1427Y1544D02*
X1117Y1544D01*
D02*
X1117Y1544D02*
X1117Y1328D01*
G54D13*
D02*
X1427Y1504D02*
X1117Y1504D01*
G54D12*
D02*
X1427Y904D02*
X1117Y904D01*
D02*
X1117Y904D02*
X1117Y688D01*
D02*
X1117Y688D02*
X1427Y688D01*
D02*
X1427Y688D02*
X1427Y904D01*
G54D13*
D02*
X1117Y728D02*
X1427Y728D01*
G54D12*
D02*
X510Y1761D02*
X510Y1971D01*
D02*
X510Y1971D02*
X294Y1971D01*
D02*
X294Y1971D02*
X294Y1761D01*
D02*
X294Y1761D02*
X510Y1761D01*
G54D13*
D02*
X334Y1971D02*
X334Y1761D01*
G54D12*
D02*
X360Y161D02*
X360Y371D01*
D02*
X360Y371D02*
X144Y371D01*
D02*
X144Y371D02*
X144Y161D01*
D02*
X144Y161D02*
X360Y161D01*
G54D13*
D02*
X184Y371D02*
X184Y161D01*
G54D12*
D02*
X977Y904D02*
X467Y904D01*
D02*
X467Y904D02*
X467Y688D01*
D02*
X467Y688D02*
X977Y688D01*
D02*
X977Y688D02*
X977Y904D01*
G54D13*
D02*
X467Y728D02*
X977Y728D01*
G54D12*
D02*
X467Y1328D02*
X977Y1328D01*
D02*
X977Y1328D02*
X977Y1544D01*
D02*
X977Y1544D02*
X467Y1544D01*
D02*
X467Y1544D02*
X467Y1328D01*
G54D13*
D02*
X977Y1504D02*
X467Y1504D01*
G54D12*
D02*
X1384Y1971D02*
X1384Y1761D01*
D02*
X1384Y1761D02*
X1600Y1761D01*
D02*
X1600Y1761D02*
X1600Y1971D01*
D02*
X1600Y1971D02*
X1384Y1971D01*
G54D13*
D02*
X1560Y1761D02*
X1560Y1971D01*
G54D14*
X1429Y1686D02*
X1431Y1686D01*
X1455Y1686D02*
X1460Y1686D01*
X1428Y1685D02*
X1432Y1685D01*
X1454Y1685D02*
X1462Y1685D01*
X1427Y1684D02*
X1433Y1684D01*
X1453Y1684D02*
X1462Y1684D01*
X1427Y1683D02*
X1433Y1683D01*
X1453Y1683D02*
X1462Y1683D01*
X1427Y1682D02*
X1433Y1682D01*
X1453Y1682D02*
X1462Y1682D01*
X1427Y1681D02*
X1433Y1681D01*
X1453Y1681D02*
X1462Y1681D01*
X1427Y1680D02*
X1433Y1680D01*
X1453Y1680D02*
X1461Y1680D01*
X1427Y1679D02*
X1433Y1679D01*
X1453Y1679D02*
X1459Y1679D01*
X1427Y1678D02*
X1433Y1678D01*
X1453Y1678D02*
X1459Y1678D01*
X1427Y1677D02*
X1433Y1677D01*
X1453Y1677D02*
X1459Y1677D01*
X1427Y1676D02*
X1433Y1676D01*
X1453Y1676D02*
X1459Y1676D01*
X1427Y1675D02*
X1433Y1675D01*
X1453Y1675D02*
X1459Y1675D01*
X1427Y1674D02*
X1433Y1674D01*
X1453Y1674D02*
X1459Y1674D01*
X1427Y1673D02*
X1433Y1673D01*
X1453Y1673D02*
X1459Y1673D01*
X1427Y1672D02*
X1433Y1672D01*
X1453Y1672D02*
X1459Y1672D01*
X1427Y1671D02*
X1433Y1671D01*
X1453Y1671D02*
X1459Y1671D01*
X1427Y1670D02*
X1433Y1670D01*
X1453Y1670D02*
X1459Y1670D01*
X1427Y1669D02*
X1433Y1669D01*
X1453Y1669D02*
X1459Y1669D01*
X1427Y1668D02*
X1433Y1668D01*
X1453Y1668D02*
X1459Y1668D01*
X1427Y1667D02*
X1433Y1667D01*
X1453Y1667D02*
X1459Y1667D01*
X1427Y1666D02*
X1433Y1666D01*
X1453Y1666D02*
X1459Y1666D01*
X1427Y1665D02*
X1433Y1665D01*
X1453Y1665D02*
X1459Y1665D01*
X1427Y1664D02*
X1433Y1664D01*
X1453Y1664D02*
X1459Y1664D01*
X1427Y1663D02*
X1433Y1663D01*
X1453Y1663D02*
X1459Y1663D01*
X1427Y1662D02*
X1433Y1662D01*
X1453Y1662D02*
X1459Y1662D01*
X1427Y1661D02*
X1433Y1661D01*
X1453Y1661D02*
X1459Y1661D01*
X1427Y1660D02*
X1433Y1660D01*
X1453Y1660D02*
X1459Y1660D01*
X1427Y1659D02*
X1433Y1659D01*
X1453Y1659D02*
X1459Y1659D01*
X1427Y1658D02*
X1433Y1658D01*
X1453Y1658D02*
X1459Y1658D01*
X1427Y1657D02*
X1433Y1657D01*
X1453Y1657D02*
X1459Y1657D01*
X1407Y1656D02*
X1411Y1656D01*
X1427Y1656D02*
X1433Y1656D01*
X1453Y1656D02*
X1485Y1656D01*
X1407Y1655D02*
X1412Y1655D01*
X1427Y1655D02*
X1433Y1655D01*
X1453Y1655D02*
X1486Y1655D01*
X1406Y1654D02*
X1412Y1654D01*
X1427Y1654D02*
X1433Y1654D01*
X1453Y1654D02*
X1486Y1654D01*
X1406Y1653D02*
X1412Y1653D01*
X1427Y1653D02*
X1433Y1653D01*
X1453Y1653D02*
X1486Y1653D01*
X1406Y1652D02*
X1412Y1652D01*
X1427Y1652D02*
X1433Y1652D01*
X1453Y1652D02*
X1486Y1652D01*
X1406Y1651D02*
X1412Y1651D01*
X1427Y1651D02*
X1433Y1651D01*
X1453Y1651D02*
X1486Y1651D01*
X1406Y1650D02*
X1412Y1650D01*
X1427Y1650D02*
X1433Y1650D01*
X1453Y1650D02*
X1486Y1650D01*
X1406Y1649D02*
X1412Y1649D01*
X1427Y1649D02*
X1433Y1649D01*
X1453Y1649D02*
X1459Y1649D01*
X1480Y1649D02*
X1486Y1649D01*
X1406Y1648D02*
X1412Y1648D01*
X1427Y1648D02*
X1433Y1648D01*
X1453Y1648D02*
X1459Y1648D01*
X1480Y1648D02*
X1486Y1648D01*
X1406Y1647D02*
X1412Y1647D01*
X1427Y1647D02*
X1433Y1647D01*
X1453Y1647D02*
X1459Y1647D01*
X1480Y1647D02*
X1486Y1647D01*
X1406Y1646D02*
X1412Y1646D01*
X1427Y1646D02*
X1433Y1646D01*
X1453Y1646D02*
X1459Y1646D01*
X1480Y1646D02*
X1486Y1646D01*
X1406Y1645D02*
X1412Y1645D01*
X1427Y1645D02*
X1433Y1645D01*
X1453Y1645D02*
X1459Y1645D01*
X1480Y1645D02*
X1486Y1645D01*
X1406Y1644D02*
X1412Y1644D01*
X1427Y1644D02*
X1433Y1644D01*
X1453Y1644D02*
X1459Y1644D01*
X1480Y1644D02*
X1486Y1644D01*
X1406Y1643D02*
X1412Y1643D01*
X1427Y1643D02*
X1433Y1643D01*
X1453Y1643D02*
X1459Y1643D01*
X1480Y1643D02*
X1486Y1643D01*
X1406Y1642D02*
X1412Y1642D01*
X1427Y1642D02*
X1433Y1642D01*
X1453Y1642D02*
X1459Y1642D01*
X1480Y1642D02*
X1486Y1642D01*
X1406Y1641D02*
X1413Y1641D01*
X1426Y1641D02*
X1433Y1641D01*
X1453Y1641D02*
X1459Y1641D01*
X1480Y1641D02*
X1486Y1641D01*
X1406Y1640D02*
X1414Y1640D01*
X1425Y1640D02*
X1432Y1640D01*
X1453Y1640D02*
X1459Y1640D01*
X1480Y1640D02*
X1486Y1640D01*
X1407Y1639D02*
X1432Y1639D01*
X1453Y1639D02*
X1486Y1639D01*
X1407Y1638D02*
X1432Y1638D01*
X1453Y1638D02*
X1486Y1638D01*
X1408Y1637D02*
X1431Y1637D01*
X1453Y1637D02*
X1486Y1637D01*
X1409Y1636D02*
X1430Y1636D01*
X1453Y1636D02*
X1486Y1636D01*
X1410Y1635D02*
X1429Y1635D01*
X1453Y1635D02*
X1486Y1635D01*
X1411Y1634D02*
X1428Y1634D01*
X1453Y1634D02*
X1486Y1634D01*
X1413Y1633D02*
X1426Y1633D01*
X1454Y1633D02*
X1485Y1633D01*
X1439Y1046D02*
X1441Y1046D01*
X1465Y1046D02*
X1492Y1046D01*
X1437Y1045D02*
X1442Y1045D01*
X1464Y1045D02*
X1494Y1045D01*
X1437Y1044D02*
X1443Y1044D01*
X1463Y1044D02*
X1495Y1044D01*
X1437Y1043D02*
X1443Y1043D01*
X1463Y1043D02*
X1495Y1043D01*
X1437Y1042D02*
X1443Y1042D01*
X1463Y1042D02*
X1496Y1042D01*
X1437Y1041D02*
X1443Y1041D01*
X1464Y1041D02*
X1496Y1041D01*
X1437Y1040D02*
X1443Y1040D01*
X1465Y1040D02*
X1496Y1040D01*
X1437Y1039D02*
X1443Y1039D01*
X1490Y1039D02*
X1496Y1039D01*
X1437Y1038D02*
X1443Y1038D01*
X1490Y1038D02*
X1496Y1038D01*
X1437Y1037D02*
X1443Y1037D01*
X1490Y1037D02*
X1496Y1037D01*
X1437Y1036D02*
X1443Y1036D01*
X1490Y1036D02*
X1496Y1036D01*
X1437Y1035D02*
X1443Y1035D01*
X1490Y1035D02*
X1496Y1035D01*
X1437Y1034D02*
X1443Y1034D01*
X1490Y1034D02*
X1496Y1034D01*
X1437Y1033D02*
X1443Y1033D01*
X1490Y1033D02*
X1496Y1033D01*
X1437Y1032D02*
X1443Y1032D01*
X1490Y1032D02*
X1496Y1032D01*
X1437Y1031D02*
X1443Y1031D01*
X1490Y1031D02*
X1496Y1031D01*
X1437Y1030D02*
X1443Y1030D01*
X1490Y1030D02*
X1496Y1030D01*
X1437Y1029D02*
X1443Y1029D01*
X1490Y1029D02*
X1496Y1029D01*
X1437Y1028D02*
X1443Y1028D01*
X1490Y1028D02*
X1496Y1028D01*
X1437Y1027D02*
X1443Y1027D01*
X1490Y1027D02*
X1496Y1027D01*
X1437Y1026D02*
X1443Y1026D01*
X1490Y1026D02*
X1496Y1026D01*
X1437Y1025D02*
X1443Y1025D01*
X1490Y1025D02*
X1496Y1025D01*
X1437Y1024D02*
X1443Y1024D01*
X1489Y1024D02*
X1496Y1024D01*
X1437Y1023D02*
X1443Y1023D01*
X1487Y1023D02*
X1496Y1023D01*
X1437Y1022D02*
X1443Y1022D01*
X1471Y1022D02*
X1495Y1022D01*
X1437Y1021D02*
X1443Y1021D01*
X1470Y1021D02*
X1495Y1021D01*
X1437Y1020D02*
X1443Y1020D01*
X1470Y1020D02*
X1494Y1020D01*
X1437Y1019D02*
X1443Y1019D01*
X1470Y1019D02*
X1494Y1019D01*
X1437Y1018D02*
X1443Y1018D01*
X1470Y1018D02*
X1495Y1018D01*
X1419Y1017D02*
X1419Y1017D01*
X1437Y1017D02*
X1443Y1017D01*
X1471Y1017D02*
X1495Y1017D01*
X1417Y1016D02*
X1421Y1016D01*
X1437Y1016D02*
X1443Y1016D01*
X1473Y1016D02*
X1496Y1016D01*
X1416Y1015D02*
X1422Y1015D01*
X1437Y1015D02*
X1443Y1015D01*
X1489Y1015D02*
X1496Y1015D01*
X1416Y1014D02*
X1422Y1014D01*
X1437Y1014D02*
X1443Y1014D01*
X1490Y1014D02*
X1496Y1014D01*
X1416Y1013D02*
X1422Y1013D01*
X1437Y1013D02*
X1443Y1013D01*
X1490Y1013D02*
X1496Y1013D01*
X1416Y1012D02*
X1422Y1012D01*
X1437Y1012D02*
X1443Y1012D01*
X1490Y1012D02*
X1496Y1012D01*
X1416Y1011D02*
X1422Y1011D01*
X1437Y1011D02*
X1443Y1011D01*
X1490Y1011D02*
X1496Y1011D01*
X1416Y1010D02*
X1422Y1010D01*
X1437Y1010D02*
X1443Y1010D01*
X1490Y1010D02*
X1496Y1010D01*
X1416Y1009D02*
X1422Y1009D01*
X1437Y1009D02*
X1443Y1009D01*
X1490Y1009D02*
X1496Y1009D01*
X1416Y1008D02*
X1422Y1008D01*
X1437Y1008D02*
X1443Y1008D01*
X1490Y1008D02*
X1496Y1008D01*
X1416Y1007D02*
X1422Y1007D01*
X1437Y1007D02*
X1443Y1007D01*
X1490Y1007D02*
X1496Y1007D01*
X1416Y1006D02*
X1422Y1006D01*
X1437Y1006D02*
X1443Y1006D01*
X1490Y1006D02*
X1496Y1006D01*
X1416Y1005D02*
X1422Y1005D01*
X1437Y1005D02*
X1443Y1005D01*
X1490Y1005D02*
X1496Y1005D01*
X1416Y1004D02*
X1422Y1004D01*
X1437Y1004D02*
X1443Y1004D01*
X1490Y1004D02*
X1496Y1004D01*
X1416Y1003D02*
X1422Y1003D01*
X1437Y1003D02*
X1443Y1003D01*
X1490Y1003D02*
X1496Y1003D01*
X1416Y1002D02*
X1422Y1002D01*
X1437Y1002D02*
X1443Y1002D01*
X1490Y1002D02*
X1496Y1002D01*
X1416Y1001D02*
X1423Y1001D01*
X1436Y1001D02*
X1443Y1001D01*
X1490Y1001D02*
X1496Y1001D01*
X1417Y1000D02*
X1424Y1000D01*
X1435Y1000D02*
X1442Y1000D01*
X1490Y1000D02*
X1496Y1000D01*
X1417Y999D02*
X1442Y999D01*
X1465Y999D02*
X1496Y999D01*
X1417Y998D02*
X1442Y998D01*
X1464Y998D02*
X1496Y998D01*
X1418Y997D02*
X1441Y997D01*
X1463Y997D02*
X1496Y997D01*
X1419Y996D02*
X1440Y996D01*
X1463Y996D02*
X1496Y996D01*
X1420Y995D02*
X1439Y995D01*
X1463Y995D02*
X1495Y995D01*
X1421Y994D02*
X1438Y994D01*
X1463Y994D02*
X1494Y994D01*
X1423Y993D02*
X1436Y993D01*
X1464Y993D02*
X1492Y993D01*
X414Y461D02*
X416Y461D01*
X440Y461D02*
X467Y461D01*
X413Y460D02*
X417Y460D01*
X439Y460D02*
X469Y460D01*
X412Y459D02*
X418Y459D01*
X438Y459D02*
X470Y459D01*
X412Y458D02*
X418Y458D01*
X438Y458D02*
X471Y458D01*
X412Y457D02*
X418Y457D01*
X438Y457D02*
X471Y457D01*
X412Y456D02*
X418Y456D01*
X439Y456D02*
X471Y456D01*
X412Y455D02*
X418Y455D01*
X440Y455D02*
X472Y455D01*
X412Y454D02*
X418Y454D01*
X466Y454D02*
X472Y454D01*
X412Y453D02*
X418Y453D01*
X466Y453D02*
X472Y453D01*
X412Y452D02*
X418Y452D01*
X466Y452D02*
X472Y452D01*
X412Y451D02*
X418Y451D01*
X466Y451D02*
X472Y451D01*
X412Y450D02*
X418Y450D01*
X466Y450D02*
X472Y450D01*
X412Y449D02*
X418Y449D01*
X466Y449D02*
X472Y449D01*
X412Y448D02*
X418Y448D01*
X466Y448D02*
X472Y448D01*
X412Y447D02*
X418Y447D01*
X466Y447D02*
X472Y447D01*
X412Y446D02*
X418Y446D01*
X466Y446D02*
X472Y446D01*
X412Y445D02*
X418Y445D01*
X466Y445D02*
X472Y445D01*
X412Y444D02*
X418Y444D01*
X466Y444D02*
X472Y444D01*
X412Y443D02*
X418Y443D01*
X466Y443D02*
X472Y443D01*
X412Y442D02*
X418Y442D01*
X466Y442D02*
X472Y442D01*
X412Y441D02*
X418Y441D01*
X466Y441D02*
X472Y441D01*
X412Y440D02*
X418Y440D01*
X466Y440D02*
X472Y440D01*
X412Y439D02*
X418Y439D01*
X466Y439D02*
X472Y439D01*
X412Y438D02*
X418Y438D01*
X465Y438D02*
X472Y438D01*
X412Y437D02*
X418Y437D01*
X442Y437D02*
X472Y437D01*
X412Y436D02*
X418Y436D01*
X440Y436D02*
X471Y436D01*
X412Y435D02*
X418Y435D01*
X439Y435D02*
X471Y435D01*
X412Y434D02*
X418Y434D01*
X439Y434D02*
X470Y434D01*
X412Y433D02*
X418Y433D01*
X438Y433D02*
X469Y433D01*
X394Y432D02*
X395Y432D01*
X412Y432D02*
X418Y432D01*
X438Y432D02*
X468Y432D01*
X392Y431D02*
X396Y431D01*
X412Y431D02*
X418Y431D01*
X438Y431D02*
X444Y431D01*
X392Y430D02*
X397Y430D01*
X412Y430D02*
X418Y430D01*
X438Y430D02*
X444Y430D01*
X391Y429D02*
X397Y429D01*
X412Y429D02*
X418Y429D01*
X438Y429D02*
X444Y429D01*
X391Y428D02*
X397Y428D01*
X412Y428D02*
X418Y428D01*
X438Y428D02*
X444Y428D01*
X391Y427D02*
X397Y427D01*
X412Y427D02*
X418Y427D01*
X438Y427D02*
X444Y427D01*
X391Y426D02*
X397Y426D01*
X412Y426D02*
X418Y426D01*
X438Y426D02*
X444Y426D01*
X391Y425D02*
X397Y425D01*
X412Y425D02*
X418Y425D01*
X438Y425D02*
X444Y425D01*
X391Y424D02*
X397Y424D01*
X412Y424D02*
X418Y424D01*
X438Y424D02*
X444Y424D01*
X391Y423D02*
X397Y423D01*
X412Y423D02*
X418Y423D01*
X438Y423D02*
X444Y423D01*
X391Y422D02*
X397Y422D01*
X412Y422D02*
X418Y422D01*
X438Y422D02*
X444Y422D01*
X391Y421D02*
X397Y421D01*
X412Y421D02*
X418Y421D01*
X438Y421D02*
X444Y421D01*
X391Y420D02*
X397Y420D01*
X412Y420D02*
X418Y420D01*
X438Y420D02*
X444Y420D01*
X391Y419D02*
X397Y419D01*
X412Y419D02*
X418Y419D01*
X438Y419D02*
X444Y419D01*
X391Y418D02*
X397Y418D01*
X412Y418D02*
X418Y418D01*
X438Y418D02*
X444Y418D01*
X391Y417D02*
X397Y417D01*
X412Y417D02*
X418Y417D01*
X438Y417D02*
X444Y417D01*
X391Y416D02*
X398Y416D01*
X411Y416D02*
X418Y416D01*
X438Y416D02*
X444Y416D01*
X392Y415D02*
X399Y415D01*
X410Y415D02*
X418Y415D01*
X438Y415D02*
X444Y415D01*
X392Y414D02*
X417Y414D01*
X438Y414D02*
X470Y414D01*
X393Y413D02*
X417Y413D01*
X438Y413D02*
X471Y413D01*
X393Y412D02*
X416Y412D01*
X438Y412D02*
X471Y412D01*
X394Y411D02*
X415Y411D01*
X438Y411D02*
X472Y411D01*
X395Y410D02*
X414Y410D01*
X438Y410D02*
X471Y410D01*
X396Y409D02*
X413Y409D01*
X438Y409D02*
X471Y409D01*
X398Y408D02*
X411Y408D01*
X438Y408D02*
X470Y408D01*
D02*
G04 End of Silk1*
M02*