G04 MADE WITH FRITZING*
G04 WWW.FRITZING.ORG*
G04 DOUBLE SIDED*
G04 HOLES PLATED*
G04 CONTOUR ON CENTER OF CONTOUR VECTOR*
%ASAXBY*%
%FSLAX23Y23*%
%MOIN*%
%OFA0B0*%
%SFA1.0B1.0*%
%ADD10C,0.067559*%
%ADD11R,0.067559X0.067559*%
%ADD12C,0.024000*%
%LNCOPPER1*%
G90*
G70*
G54D10*
X1572Y816D03*
X1572Y716D03*
X1172Y1416D03*
X1272Y1416D03*
X1372Y1416D03*
X1372Y816D03*
X1272Y816D03*
X1172Y816D03*
X422Y1816D03*
X422Y1916D03*
X272Y216D03*
X272Y316D03*
X922Y816D03*
X822Y816D03*
X722Y816D03*
X622Y816D03*
X522Y816D03*
X522Y1416D03*
X622Y1416D03*
X722Y1416D03*
X822Y1416D03*
X922Y1416D03*
X1472Y1916D03*
X1472Y1816D03*
G54D11*
X1572Y816D03*
X1172Y1416D03*
X1372Y816D03*
X422Y1816D03*
X272Y216D03*
X922Y816D03*
X522Y1416D03*
X1472Y1916D03*
G54D12*
X372Y217D02*
X297Y216D01*
D02*
X1021Y815D02*
X947Y816D01*
D02*
X1122Y716D02*
X1021Y815D01*
D02*
X1372Y716D02*
X1122Y716D01*
D02*
X1372Y791D02*
X1372Y716D01*
D02*
X522Y1517D02*
X522Y1441D01*
D02*
X522Y1916D02*
X522Y1517D01*
D02*
X447Y1916D02*
X522Y1916D01*
D02*
X922Y716D02*
X372Y217D01*
D02*
X922Y791D02*
X922Y716D01*
D02*
X1372Y841D02*
X1372Y1391D01*
D02*
X1172Y1391D02*
X1172Y841D01*
D02*
X1572Y791D02*
X1572Y741D01*
D02*
X1272Y1391D02*
X1272Y841D01*
D02*
X1172Y1441D02*
X1171Y1517D01*
D02*
X121Y417D02*
X423Y815D01*
D02*
X1171Y1517D02*
X1323Y1517D01*
D02*
X1323Y1517D02*
X1473Y1517D01*
D02*
X423Y815D02*
X497Y816D01*
D02*
X1473Y1517D02*
X1473Y115D01*
D02*
X121Y115D02*
X121Y417D01*
D02*
X1473Y115D02*
X121Y115D01*
D02*
X922Y1517D02*
X573Y2017D01*
D02*
X573Y2017D02*
X271Y2017D01*
D02*
X922Y1441D02*
X922Y1517D01*
D02*
X271Y1817D02*
X397Y1816D01*
D02*
X271Y2017D02*
X271Y1817D01*
D02*
X372Y316D02*
X297Y316D01*
D02*
X522Y716D02*
X372Y316D01*
D02*
X522Y791D02*
X522Y716D01*
D02*
X622Y841D02*
X622Y1391D01*
D02*
X722Y1391D02*
X722Y841D01*
D02*
X822Y1391D02*
X822Y841D01*
D02*
X522Y841D02*
X522Y1391D01*
D02*
X922Y841D02*
X922Y1391D01*
D02*
X1171Y1916D02*
X1172Y1441D01*
D02*
X1447Y1916D02*
X1171Y1916D01*
D02*
X172Y2065D02*
X1572Y2065D01*
D02*
X172Y1817D02*
X172Y2065D01*
D02*
X1572Y2065D02*
X1572Y1817D01*
D02*
X397Y1816D02*
X172Y1817D01*
D02*
X1572Y1817D02*
X1497Y1816D01*
G04 End of Copper1*
M02*