; NON-PLATED HOLES START AT T1
; THROUGH (PLATED) HOLES START AT T100
M48
INCH
T1C0.125984
T100C0.027559
%
T1
X015714Y011663
X001720Y011663
T100
X007220Y014163
X011720Y014163
X015720Y008163
X009220Y008163
X014720Y019163
X008220Y008163
X013720Y008163
X012720Y008163
X006220Y008163
X002720Y003162
X005220Y008163
X004220Y019163
X009220Y014163
X015720Y007163
X008220Y014163
X013720Y014163
X014720Y018163
X012720Y014163
X006220Y014163
X002720Y002162
X005220Y014163
X007220Y008163
X004220Y018163
X011720Y008163
T00
M30
