G04 MADE WITH FRITZING*
G04 WWW.FRITZING.ORG*
G04 DOUBLE SIDED*
G04 HOLES PLATED*
G04 CONTOUR ON CENTER OF CONTOUR VECTOR*
%ASAXBY*%
%FSLAX23Y23*%
%MOIN*%
%OFA0B0*%
%SFA1.0B1.0*%
%ADD10C,0.135984*%
%ADD11C,0.093307*%
%ADD12C,0.085000*%
%ADD13R,0.093307X0.093307*%
%ADD14R,0.085000X0.085000*%
%ADD15R,0.001000X0.001000*%
%LNMASK0*%
G90*
G70*
G54D10*
X1631Y324D03*
G54D11*
X1431Y574D03*
X1331Y574D03*
X1231Y574D03*
X1131Y574D03*
X1031Y574D03*
X1031Y1274D03*
X1131Y1274D03*
X1231Y1274D03*
X1331Y1274D03*
X1431Y1274D03*
G54D12*
X481Y174D03*
X881Y174D03*
X481Y274D03*
X881Y274D03*
X281Y1274D03*
X181Y1274D03*
G54D13*
X1431Y574D03*
X1031Y1274D03*
G54D14*
X281Y1274D03*
G54D15*
X176Y315D02*
X184Y315D01*
X171Y314D02*
X190Y314D01*
X168Y313D02*
X193Y313D01*
X165Y312D02*
X196Y312D01*
X163Y311D02*
X198Y311D01*
X161Y310D02*
X200Y310D01*
X159Y309D02*
X201Y309D01*
X158Y308D02*
X203Y308D01*
X157Y307D02*
X204Y307D01*
X155Y306D02*
X206Y306D01*
X154Y305D02*
X207Y305D01*
X153Y304D02*
X208Y304D01*
X152Y303D02*
X209Y303D01*
X151Y302D02*
X210Y302D01*
X150Y301D02*
X211Y301D01*
X150Y300D02*
X211Y300D01*
X149Y299D02*
X212Y299D01*
X148Y298D02*
X213Y298D01*
X147Y297D02*
X213Y297D01*
X147Y296D02*
X214Y296D01*
X146Y295D02*
X215Y295D01*
X146Y294D02*
X215Y294D01*
X145Y293D02*
X216Y293D01*
X145Y292D02*
X216Y292D01*
X144Y291D02*
X217Y291D01*
X144Y290D02*
X217Y290D01*
X143Y289D02*
X217Y289D01*
X143Y288D02*
X218Y288D01*
X143Y287D02*
X218Y287D01*
X142Y286D02*
X218Y286D01*
X142Y285D02*
X219Y285D01*
X142Y284D02*
X219Y284D01*
X142Y283D02*
X219Y283D01*
X142Y282D02*
X219Y282D01*
X141Y281D02*
X219Y281D01*
X141Y280D02*
X220Y280D01*
X141Y279D02*
X220Y279D01*
X141Y278D02*
X220Y278D01*
X141Y277D02*
X220Y277D01*
X141Y276D02*
X220Y276D01*
X141Y275D02*
X220Y275D01*
X141Y274D02*
X220Y274D01*
X141Y273D02*
X220Y273D01*
X141Y272D02*
X220Y272D01*
X141Y271D02*
X220Y271D01*
X141Y270D02*
X219Y270D01*
X142Y269D02*
X219Y269D01*
X142Y268D02*
X219Y268D01*
X142Y267D02*
X219Y267D01*
X142Y266D02*
X219Y266D01*
X142Y265D02*
X218Y265D01*
X143Y264D02*
X218Y264D01*
X143Y263D02*
X218Y263D01*
X143Y262D02*
X218Y262D01*
X144Y261D02*
X217Y261D01*
X144Y260D02*
X217Y260D01*
X144Y259D02*
X216Y259D01*
X145Y258D02*
X216Y258D01*
X145Y257D02*
X215Y257D01*
X146Y256D02*
X215Y256D01*
X147Y255D02*
X214Y255D01*
X147Y254D02*
X214Y254D01*
X148Y253D02*
X213Y253D01*
X149Y252D02*
X212Y252D01*
X149Y251D02*
X212Y251D01*
X150Y250D02*
X211Y250D01*
X151Y249D02*
X210Y249D01*
X152Y248D02*
X209Y248D01*
X153Y247D02*
X208Y247D01*
X154Y246D02*
X207Y246D01*
X155Y245D02*
X206Y245D01*
X156Y244D02*
X205Y244D01*
X158Y243D02*
X203Y243D01*
X159Y242D02*
X202Y242D01*
X161Y241D02*
X200Y241D01*
X162Y240D02*
X199Y240D01*
X164Y239D02*
X196Y239D01*
X167Y238D02*
X194Y238D01*
X170Y237D02*
X191Y237D01*
X175Y236D02*
X186Y236D01*
X176Y215D02*
X185Y215D01*
X171Y214D02*
X190Y214D01*
X167Y213D02*
X193Y213D01*
X165Y212D02*
X196Y212D01*
X163Y211D02*
X198Y211D01*
X161Y210D02*
X200Y210D01*
X159Y209D02*
X201Y209D01*
X158Y208D02*
X203Y208D01*
X157Y207D02*
X204Y207D01*
X155Y206D02*
X206Y206D01*
X154Y205D02*
X207Y205D01*
X153Y204D02*
X208Y204D01*
X152Y203D02*
X209Y203D01*
X151Y202D02*
X210Y202D01*
X150Y201D02*
X211Y201D01*
X150Y200D02*
X211Y200D01*
X149Y199D02*
X212Y199D01*
X148Y198D02*
X213Y198D01*
X147Y197D02*
X213Y197D01*
X147Y196D02*
X214Y196D01*
X146Y195D02*
X215Y195D01*
X146Y194D02*
X215Y194D01*
X145Y193D02*
X216Y193D01*
X145Y192D02*
X216Y192D01*
X144Y191D02*
X217Y191D01*
X144Y190D02*
X217Y190D01*
X143Y189D02*
X217Y189D01*
X143Y188D02*
X218Y188D01*
X143Y187D02*
X218Y187D01*
X142Y186D02*
X218Y186D01*
X142Y185D02*
X219Y185D01*
X142Y184D02*
X219Y184D01*
X142Y183D02*
X219Y183D01*
X142Y182D02*
X219Y182D01*
X141Y181D02*
X219Y181D01*
X141Y180D02*
X220Y180D01*
X141Y179D02*
X220Y179D01*
X141Y178D02*
X220Y178D01*
X141Y177D02*
X220Y177D01*
X141Y176D02*
X220Y176D01*
X141Y175D02*
X220Y175D01*
X141Y174D02*
X220Y174D01*
X141Y173D02*
X220Y173D01*
X141Y172D02*
X220Y172D01*
X141Y171D02*
X220Y171D01*
X141Y170D02*
X219Y170D01*
X142Y169D02*
X219Y169D01*
X142Y168D02*
X219Y168D01*
X142Y167D02*
X219Y167D01*
X142Y166D02*
X219Y166D01*
X142Y165D02*
X218Y165D01*
X143Y164D02*
X218Y164D01*
X143Y163D02*
X218Y163D01*
X143Y162D02*
X218Y162D01*
X144Y161D02*
X217Y161D01*
X144Y160D02*
X217Y160D01*
X144Y159D02*
X216Y159D01*
X145Y158D02*
X216Y158D01*
X145Y157D02*
X215Y157D01*
X146Y156D02*
X215Y156D01*
X147Y155D02*
X214Y155D01*
X147Y154D02*
X214Y154D01*
X148Y153D02*
X213Y153D01*
X149Y152D02*
X212Y152D01*
X149Y151D02*
X211Y151D01*
X150Y150D02*
X211Y150D01*
X151Y149D02*
X210Y149D01*
X152Y148D02*
X209Y148D01*
X153Y147D02*
X208Y147D01*
X154Y146D02*
X207Y146D01*
X155Y145D02*
X206Y145D01*
X156Y144D02*
X205Y144D01*
X158Y143D02*
X203Y143D01*
X159Y142D02*
X202Y142D01*
X161Y141D02*
X200Y141D01*
X162Y140D02*
X198Y140D01*
X164Y139D02*
X196Y139D01*
X167Y138D02*
X194Y138D01*
X170Y137D02*
X191Y137D01*
X175Y136D02*
X186Y136D01*
D02*
G04 End of Mask0*
M02*