G04 MADE WITH FRITZING*
G04 WWW.FRITZING.ORG*
G04 DOUBLE SIDED*
G04 HOLES PLATED*
G04 CONTOUR ON CENTER OF CONTOUR VECTOR*
%ASAXBY*%
%FSLAX23Y23*%
%MOIN*%
%OFA0B0*%
%SFA1.0B1.0*%
%ADD10C,0.135984*%
%ADD11C,0.077559*%
%ADD12C,0.085000*%
%ADD13R,0.077559X0.077559*%
%ADD14R,0.085000X0.085000*%
%ADD15R,0.001000X0.001000*%
%LNMASK0*%
G90*
G70*
G54D10*
X172Y566D03*
G54D11*
X1572Y566D03*
X1472Y566D03*
X1372Y566D03*
X1272Y566D03*
X1172Y566D03*
X1172Y1266D03*
X1272Y1266D03*
X1372Y1266D03*
X1472Y1266D03*
X1572Y1266D03*
G54D12*
X622Y166D03*
X1022Y166D03*
X622Y266D03*
X1022Y266D03*
X422Y1266D03*
X322Y1266D03*
G54D13*
X1572Y566D03*
X1172Y1266D03*
G54D14*
X422Y1266D03*
G54D15*
X314Y306D02*
X329Y306D01*
X310Y305D02*
X333Y305D01*
X307Y304D02*
X336Y304D01*
X305Y303D02*
X338Y303D01*
X303Y302D02*
X340Y302D01*
X301Y301D02*
X342Y301D01*
X300Y300D02*
X344Y300D01*
X298Y299D02*
X345Y299D01*
X297Y298D02*
X346Y298D01*
X296Y297D02*
X347Y297D01*
X295Y296D02*
X349Y296D01*
X294Y295D02*
X350Y295D01*
X293Y294D02*
X351Y294D01*
X292Y293D02*
X351Y293D01*
X291Y292D02*
X352Y292D01*
X290Y291D02*
X353Y291D01*
X290Y290D02*
X354Y290D01*
X289Y289D02*
X354Y289D01*
X288Y288D02*
X355Y288D01*
X288Y287D02*
X356Y287D01*
X287Y286D02*
X356Y286D01*
X287Y285D02*
X357Y285D01*
X286Y284D02*
X357Y284D01*
X286Y283D02*
X358Y283D01*
X285Y282D02*
X358Y282D01*
X285Y281D02*
X359Y281D01*
X284Y280D02*
X359Y280D01*
X284Y279D02*
X359Y279D01*
X284Y278D02*
X360Y278D01*
X284Y277D02*
X360Y277D01*
X283Y276D02*
X360Y276D01*
X283Y275D02*
X360Y275D01*
X283Y274D02*
X360Y274D01*
X283Y273D02*
X361Y273D01*
X283Y272D02*
X361Y272D01*
X282Y271D02*
X361Y271D01*
X282Y270D02*
X361Y270D01*
X282Y269D02*
X361Y269D01*
X282Y268D02*
X361Y268D01*
X282Y267D02*
X361Y267D01*
X282Y266D02*
X361Y266D01*
X282Y265D02*
X361Y265D01*
X282Y264D02*
X361Y264D01*
X282Y263D02*
X361Y263D01*
X283Y262D02*
X361Y262D01*
X283Y261D02*
X361Y261D01*
X283Y260D02*
X360Y260D01*
X283Y259D02*
X360Y259D01*
X283Y258D02*
X360Y258D01*
X284Y257D02*
X360Y257D01*
X284Y256D02*
X360Y256D01*
X284Y255D02*
X359Y255D01*
X284Y254D02*
X359Y254D01*
X285Y253D02*
X359Y253D01*
X285Y252D02*
X358Y252D01*
X286Y251D02*
X358Y251D01*
X286Y250D02*
X357Y250D01*
X286Y249D02*
X357Y249D01*
X287Y248D02*
X356Y248D01*
X288Y247D02*
X356Y247D01*
X288Y246D02*
X355Y246D01*
X289Y245D02*
X355Y245D01*
X290Y244D02*
X354Y244D01*
X290Y243D02*
X353Y243D01*
X291Y242D02*
X352Y242D01*
X292Y241D02*
X352Y241D01*
X293Y240D02*
X351Y240D01*
X294Y239D02*
X350Y239D01*
X295Y238D02*
X349Y238D01*
X296Y237D02*
X348Y237D01*
X297Y236D02*
X346Y236D01*
X298Y235D02*
X345Y235D01*
X300Y234D02*
X344Y234D01*
X301Y233D02*
X342Y233D01*
X303Y232D02*
X341Y232D01*
X305Y231D02*
X339Y231D01*
X307Y230D02*
X336Y230D01*
X310Y229D02*
X334Y229D01*
X313Y228D02*
X330Y228D01*
X321Y227D02*
X322Y227D01*
X314Y206D02*
X329Y206D01*
X310Y205D02*
X333Y205D01*
X307Y204D02*
X336Y204D01*
X305Y203D02*
X338Y203D01*
X303Y202D02*
X340Y202D01*
X301Y201D02*
X342Y201D01*
X300Y200D02*
X344Y200D01*
X298Y199D02*
X345Y199D01*
X297Y198D02*
X346Y198D01*
X296Y197D02*
X347Y197D01*
X295Y196D02*
X349Y196D01*
X294Y195D02*
X350Y195D01*
X293Y194D02*
X351Y194D01*
X292Y193D02*
X351Y193D01*
X291Y192D02*
X352Y192D01*
X290Y191D02*
X353Y191D01*
X290Y190D02*
X354Y190D01*
X289Y189D02*
X354Y189D01*
X288Y188D02*
X355Y188D01*
X288Y187D02*
X356Y187D01*
X287Y186D02*
X356Y186D01*
X287Y185D02*
X357Y185D01*
X286Y184D02*
X357Y184D01*
X286Y183D02*
X358Y183D01*
X285Y182D02*
X358Y182D01*
X285Y181D02*
X359Y181D01*
X284Y180D02*
X359Y180D01*
X284Y179D02*
X359Y179D01*
X284Y178D02*
X360Y178D01*
X284Y177D02*
X360Y177D01*
X283Y176D02*
X360Y176D01*
X283Y175D02*
X360Y175D01*
X283Y174D02*
X360Y174D01*
X283Y173D02*
X361Y173D01*
X283Y172D02*
X361Y172D01*
X282Y171D02*
X361Y171D01*
X282Y170D02*
X361Y170D01*
X282Y169D02*
X361Y169D01*
X282Y168D02*
X361Y168D01*
X282Y167D02*
X361Y167D01*
X282Y166D02*
X361Y166D01*
X282Y165D02*
X361Y165D01*
X282Y164D02*
X361Y164D01*
X282Y163D02*
X361Y163D01*
X283Y162D02*
X361Y162D01*
X283Y161D02*
X361Y161D01*
X283Y160D02*
X360Y160D01*
X283Y159D02*
X360Y159D01*
X283Y158D02*
X360Y158D01*
X284Y157D02*
X360Y157D01*
X284Y156D02*
X360Y156D01*
X284Y155D02*
X359Y155D01*
X284Y154D02*
X359Y154D01*
X285Y153D02*
X359Y153D01*
X285Y152D02*
X358Y152D01*
X286Y151D02*
X358Y151D01*
X286Y150D02*
X357Y150D01*
X286Y149D02*
X357Y149D01*
X287Y148D02*
X356Y148D01*
X288Y147D02*
X356Y147D01*
X288Y146D02*
X355Y146D01*
X289Y145D02*
X355Y145D01*
X290Y144D02*
X354Y144D01*
X290Y143D02*
X353Y143D01*
X291Y142D02*
X352Y142D01*
X292Y141D02*
X352Y141D01*
X293Y140D02*
X351Y140D01*
X294Y139D02*
X350Y139D01*
X295Y138D02*
X349Y138D01*
X296Y137D02*
X348Y137D01*
X297Y136D02*
X346Y136D01*
X298Y135D02*
X345Y135D01*
X300Y134D02*
X344Y134D01*
X301Y133D02*
X342Y133D01*
X303Y132D02*
X341Y132D01*
X305Y131D02*
X339Y131D01*
X307Y130D02*
X336Y130D01*
X310Y129D02*
X334Y129D01*
X313Y128D02*
X330Y128D01*
X321Y127D02*
X322Y127D01*
D02*
G04 End of Mask0*
M02*