G04 MADE WITH FRITZING*
G04 WWW.FRITZING.ORG*
G04 DOUBLE SIDED*
G04 HOLES PLATED*
G04 CONTOUR ON CENTER OF CONTOUR VECTOR*
%ASAXBY*%
%FSLAX23Y23*%
%MOIN*%
%OFA0B0*%
%SFA1.0B1.0*%
%ADD10C,0.085000*%
%ADD11C,0.096614*%
%ADD12C,0.077559*%
%ADD13R,0.085000X0.085000*%
%ADD14R,0.077559X0.077559*%
%ADD15R,0.001000X0.001000*%
%LNMASK1*%
G90*
G70*
G54D10*
X622Y172D03*
X1022Y172D03*
X622Y272D03*
X1022Y272D03*
X422Y1272D03*
X322Y1272D03*
G54D11*
X122Y522D03*
G54D12*
X1172Y1272D03*
X1272Y1272D03*
X1372Y1272D03*
X1472Y1272D03*
X1572Y1272D03*
X1572Y572D03*
X1472Y572D03*
X1372Y572D03*
X1272Y572D03*
X1172Y572D03*
G54D13*
X422Y1272D03*
G54D14*
X1172Y1272D03*
X1572Y572D03*
G54D15*
X317Y313D02*
X326Y313D01*
X312Y312D02*
X331Y312D01*
X309Y311D02*
X334Y311D01*
X306Y310D02*
X337Y310D01*
X304Y309D02*
X339Y309D01*
X302Y308D02*
X341Y308D01*
X301Y307D02*
X343Y307D01*
X299Y306D02*
X344Y306D01*
X298Y305D02*
X345Y305D01*
X296Y304D02*
X347Y304D01*
X295Y303D02*
X348Y303D01*
X294Y302D02*
X349Y302D01*
X293Y301D02*
X350Y301D01*
X292Y300D02*
X351Y300D01*
X291Y299D02*
X352Y299D01*
X291Y298D02*
X352Y298D01*
X290Y297D02*
X353Y297D01*
X289Y296D02*
X354Y296D01*
X289Y295D02*
X355Y295D01*
X288Y294D02*
X355Y294D01*
X287Y293D02*
X356Y293D01*
X287Y292D02*
X356Y292D01*
X286Y291D02*
X357Y291D01*
X286Y290D02*
X357Y290D01*
X285Y289D02*
X358Y289D01*
X285Y288D02*
X358Y288D01*
X285Y287D02*
X359Y287D01*
X284Y286D02*
X359Y286D01*
X284Y285D02*
X359Y285D01*
X284Y284D02*
X359Y284D01*
X283Y283D02*
X360Y283D01*
X283Y282D02*
X360Y282D01*
X283Y281D02*
X360Y281D01*
X283Y280D02*
X360Y280D01*
X283Y279D02*
X361Y279D01*
X282Y278D02*
X361Y278D01*
X282Y277D02*
X361Y277D01*
X282Y276D02*
X361Y276D01*
X282Y275D02*
X361Y275D01*
X282Y274D02*
X361Y274D01*
X282Y273D02*
X361Y273D01*
X282Y272D02*
X361Y272D01*
X282Y271D02*
X361Y271D01*
X282Y270D02*
X361Y270D01*
X282Y269D02*
X361Y269D01*
X283Y268D02*
X361Y268D01*
X283Y267D02*
X360Y267D01*
X283Y266D02*
X360Y266D01*
X283Y265D02*
X360Y265D01*
X283Y264D02*
X360Y264D01*
X284Y263D02*
X360Y263D01*
X284Y262D02*
X359Y262D01*
X284Y261D02*
X359Y261D01*
X284Y260D02*
X359Y260D01*
X285Y259D02*
X358Y259D01*
X285Y258D02*
X358Y258D01*
X286Y257D02*
X357Y257D01*
X286Y256D02*
X357Y256D01*
X287Y255D02*
X357Y255D01*
X287Y254D02*
X356Y254D01*
X288Y253D02*
X355Y253D01*
X288Y252D02*
X355Y252D01*
X289Y251D02*
X354Y251D01*
X290Y250D02*
X353Y250D01*
X290Y249D02*
X353Y249D01*
X291Y248D02*
X352Y248D01*
X292Y247D02*
X351Y247D01*
X293Y246D02*
X350Y246D01*
X294Y245D02*
X349Y245D01*
X295Y244D02*
X348Y244D01*
X296Y243D02*
X347Y243D01*
X297Y242D02*
X346Y242D01*
X299Y241D02*
X344Y241D01*
X300Y240D02*
X343Y240D01*
X302Y239D02*
X341Y239D01*
X304Y238D02*
X340Y238D01*
X306Y237D02*
X338Y237D01*
X308Y236D02*
X335Y236D01*
X311Y235D02*
X332Y235D01*
X316Y234D02*
X327Y234D01*
X317Y213D02*
X326Y213D01*
X312Y212D02*
X331Y212D01*
X309Y211D02*
X335Y211D01*
X306Y210D02*
X337Y210D01*
X304Y209D02*
X339Y209D01*
X302Y208D02*
X341Y208D01*
X301Y207D02*
X343Y207D01*
X299Y206D02*
X344Y206D01*
X298Y205D02*
X345Y205D01*
X296Y204D02*
X347Y204D01*
X295Y203D02*
X348Y203D01*
X294Y202D02*
X349Y202D01*
X293Y201D02*
X350Y201D01*
X292Y200D02*
X351Y200D01*
X291Y199D02*
X352Y199D01*
X291Y198D02*
X352Y198D01*
X290Y197D02*
X353Y197D01*
X289Y196D02*
X354Y196D01*
X288Y195D02*
X355Y195D01*
X288Y194D02*
X355Y194D01*
X287Y193D02*
X356Y193D01*
X287Y192D02*
X356Y192D01*
X286Y191D02*
X357Y191D01*
X286Y190D02*
X357Y190D01*
X285Y189D02*
X358Y189D01*
X285Y188D02*
X358Y188D01*
X285Y187D02*
X359Y187D01*
X284Y186D02*
X359Y186D01*
X284Y185D02*
X359Y185D01*
X284Y184D02*
X360Y184D01*
X283Y183D02*
X360Y183D01*
X283Y182D02*
X360Y182D01*
X283Y181D02*
X360Y181D01*
X283Y180D02*
X360Y180D01*
X283Y179D02*
X361Y179D01*
X282Y178D02*
X361Y178D01*
X282Y177D02*
X361Y177D01*
X282Y176D02*
X361Y176D01*
X282Y175D02*
X361Y175D01*
X282Y174D02*
X361Y174D01*
X282Y173D02*
X361Y173D01*
X282Y172D02*
X361Y172D01*
X282Y171D02*
X361Y171D01*
X282Y170D02*
X361Y170D01*
X282Y169D02*
X361Y169D01*
X283Y168D02*
X361Y168D01*
X283Y167D02*
X360Y167D01*
X283Y166D02*
X360Y166D01*
X283Y165D02*
X360Y165D01*
X283Y164D02*
X360Y164D01*
X284Y163D02*
X360Y163D01*
X284Y162D02*
X359Y162D01*
X284Y161D02*
X359Y161D01*
X284Y160D02*
X359Y160D01*
X285Y159D02*
X358Y159D01*
X285Y158D02*
X358Y158D01*
X286Y157D02*
X357Y157D01*
X286Y156D02*
X357Y156D01*
X287Y155D02*
X356Y155D01*
X287Y154D02*
X356Y154D01*
X288Y153D02*
X355Y153D01*
X288Y152D02*
X355Y152D01*
X289Y151D02*
X354Y151D01*
X290Y150D02*
X353Y150D01*
X291Y149D02*
X353Y149D01*
X291Y148D02*
X352Y148D01*
X292Y147D02*
X351Y147D01*
X293Y146D02*
X350Y146D01*
X294Y145D02*
X349Y145D01*
X295Y144D02*
X348Y144D01*
X296Y143D02*
X347Y143D01*
X297Y142D02*
X346Y142D01*
X299Y141D02*
X344Y141D01*
X300Y140D02*
X343Y140D01*
X302Y139D02*
X341Y139D01*
X304Y138D02*
X339Y138D01*
X306Y137D02*
X337Y137D01*
X308Y136D02*
X335Y136D01*
X311Y135D02*
X332Y135D01*
X316Y134D02*
X327Y134D01*
D02*
G04 End of Mask1*
M02*