G04 MADE WITH FRITZING*
G04 WWW.FRITZING.ORG*
G04 DOUBLE SIDED*
G04 HOLES PLATED*
G04 CONTOUR ON CENTER OF CONTOUR VECTOR*
%ASAXBY*%
%FSLAX23Y23*%
%MOIN*%
%OFA0B0*%
%SFA1.0B1.0*%
%ADD10C,0.075000*%
%ADD11C,0.070000*%
%ADD12C,0.083307*%
%ADD13R,0.075000X0.075000*%
%ADD14R,0.083307X0.083307*%
%ADD15C,0.048000*%
%ADD16R,0.001000X0.001000*%
%LNCOPPER1*%
G90*
G70*
G54D10*
X481Y174D03*
X881Y174D03*
X481Y274D03*
X881Y274D03*
G54D11*
X181Y274D03*
X181Y174D03*
G54D10*
X281Y1274D03*
X181Y1274D03*
G54D12*
X1431Y574D03*
X1331Y574D03*
X1231Y574D03*
X1131Y574D03*
X1031Y574D03*
X1031Y1274D03*
X1131Y1274D03*
X1231Y1274D03*
X1331Y1274D03*
X1431Y1274D03*
G54D13*
X281Y1274D03*
G54D14*
X1431Y574D03*
X1031Y1274D03*
G54D15*
X1031Y599D02*
X1031Y1249D01*
D02*
X1131Y599D02*
X1131Y1249D01*
D02*
X1231Y599D02*
X1231Y1249D01*
D02*
X1331Y599D02*
X1331Y1249D01*
D02*
X1430Y1375D02*
X181Y1375D01*
D02*
X181Y1375D02*
X181Y1303D01*
D02*
X1431Y1315D02*
X1430Y1375D01*
D02*
X1131Y274D02*
X1131Y543D01*
D02*
X910Y274D02*
X1131Y274D01*
D02*
X1230Y174D02*
X1231Y543D01*
D02*
X910Y174D02*
X1230Y174D01*
D02*
X181Y1245D02*
X181Y300D01*
D02*
X481Y245D02*
X481Y203D01*
D02*
X452Y174D02*
X207Y174D01*
D02*
X1431Y599D02*
X1431Y1249D01*
D02*
X480Y1275D02*
X310Y1274D01*
D02*
X1006Y1274D02*
X310Y1274D01*
D02*
X481Y303D02*
X480Y1275D01*
G54D16*
X177Y310D02*
X184Y310D01*
X172Y309D02*
X189Y309D01*
X169Y308D02*
X192Y308D01*
X167Y307D02*
X194Y307D01*
X164Y306D02*
X196Y306D01*
X163Y305D02*
X198Y305D01*
X161Y304D02*
X200Y304D01*
X160Y303D02*
X201Y303D01*
X158Y302D02*
X203Y302D01*
X157Y301D02*
X204Y301D01*
X156Y300D02*
X205Y300D01*
X155Y299D02*
X206Y299D01*
X154Y298D02*
X207Y298D01*
X154Y297D02*
X207Y297D01*
X153Y296D02*
X208Y296D01*
X152Y295D02*
X209Y295D01*
X151Y294D02*
X209Y294D01*
X151Y293D02*
X210Y293D01*
X150Y292D02*
X211Y292D01*
X150Y291D02*
X211Y291D01*
X149Y290D02*
X176Y290D01*
X185Y290D02*
X211Y290D01*
X149Y289D02*
X173Y289D01*
X187Y289D02*
X212Y289D01*
X149Y288D02*
X172Y288D01*
X189Y288D02*
X212Y288D01*
X148Y287D02*
X171Y287D01*
X190Y287D02*
X213Y287D01*
X148Y286D02*
X169Y286D01*
X191Y286D02*
X213Y286D01*
X147Y285D02*
X168Y285D01*
X192Y285D02*
X213Y285D01*
X147Y284D02*
X168Y284D01*
X193Y284D02*
X214Y284D01*
X147Y283D02*
X167Y283D01*
X194Y283D02*
X214Y283D01*
X147Y282D02*
X166Y282D01*
X194Y282D02*
X214Y282D01*
X146Y281D02*
X166Y281D01*
X195Y281D02*
X214Y281D01*
X146Y280D02*
X166Y280D01*
X195Y280D02*
X215Y280D01*
X146Y279D02*
X165Y279D01*
X196Y279D02*
X215Y279D01*
X146Y278D02*
X165Y278D01*
X196Y278D02*
X215Y278D01*
X146Y277D02*
X165Y277D01*
X196Y277D02*
X215Y277D01*
X146Y276D02*
X165Y276D01*
X196Y276D02*
X215Y276D01*
X146Y275D02*
X165Y275D01*
X196Y275D02*
X215Y275D01*
X146Y274D02*
X165Y274D01*
X196Y274D02*
X215Y274D01*
X146Y273D02*
X165Y273D01*
X196Y273D02*
X215Y273D01*
X146Y272D02*
X165Y272D01*
X196Y272D02*
X215Y272D01*
X146Y271D02*
X165Y271D01*
X195Y271D02*
X215Y271D01*
X146Y270D02*
X166Y270D01*
X195Y270D02*
X214Y270D01*
X147Y269D02*
X166Y269D01*
X195Y269D02*
X214Y269D01*
X147Y268D02*
X167Y268D01*
X194Y268D02*
X214Y268D01*
X147Y267D02*
X167Y267D01*
X193Y267D02*
X214Y267D01*
X147Y266D02*
X168Y266D01*
X193Y266D02*
X213Y266D01*
X148Y265D02*
X169Y265D01*
X192Y265D02*
X213Y265D01*
X148Y264D02*
X170Y264D01*
X191Y264D02*
X213Y264D01*
X148Y263D02*
X171Y263D01*
X190Y263D02*
X212Y263D01*
X149Y262D02*
X173Y262D01*
X188Y262D02*
X212Y262D01*
X149Y261D02*
X175Y261D01*
X186Y261D02*
X212Y261D01*
X150Y260D02*
X211Y260D01*
X150Y259D02*
X211Y259D01*
X151Y258D02*
X210Y258D01*
X151Y257D02*
X210Y257D01*
X152Y256D02*
X209Y256D01*
X153Y255D02*
X208Y255D01*
X153Y254D02*
X208Y254D01*
X154Y253D02*
X207Y253D01*
X155Y252D02*
X206Y252D01*
X156Y251D02*
X205Y251D01*
X157Y250D02*
X204Y250D01*
X158Y249D02*
X203Y249D01*
X159Y248D02*
X202Y248D01*
X161Y247D02*
X200Y247D01*
X162Y246D02*
X199Y246D01*
X164Y245D02*
X197Y245D01*
X166Y244D02*
X195Y244D01*
X168Y243D02*
X193Y243D01*
X171Y242D02*
X190Y242D01*
X175Y241D02*
X186Y241D01*
X176Y210D02*
X184Y210D01*
X172Y209D02*
X189Y209D01*
X169Y208D02*
X192Y208D01*
X166Y207D02*
X194Y207D01*
X164Y206D02*
X197Y206D01*
X163Y205D02*
X198Y205D01*
X161Y204D02*
X200Y204D01*
X160Y203D02*
X201Y203D01*
X158Y202D02*
X203Y202D01*
X157Y201D02*
X204Y201D01*
X156Y200D02*
X205Y200D01*
X155Y199D02*
X206Y199D01*
X154Y198D02*
X207Y198D01*
X153Y197D02*
X207Y197D01*
X153Y196D02*
X208Y196D01*
X152Y195D02*
X209Y195D01*
X151Y194D02*
X209Y194D01*
X151Y193D02*
X210Y193D01*
X150Y192D02*
X211Y192D01*
X150Y191D02*
X211Y191D01*
X149Y190D02*
X176Y190D01*
X185Y190D02*
X211Y190D01*
X149Y189D02*
X173Y189D01*
X188Y189D02*
X212Y189D01*
X148Y188D02*
X172Y188D01*
X189Y188D02*
X212Y188D01*
X148Y187D02*
X170Y187D01*
X190Y187D02*
X213Y187D01*
X148Y186D02*
X169Y186D01*
X192Y186D02*
X213Y186D01*
X147Y185D02*
X168Y185D01*
X192Y185D02*
X213Y185D01*
X147Y184D02*
X168Y184D01*
X193Y184D02*
X214Y184D01*
X147Y183D02*
X167Y183D01*
X194Y183D02*
X214Y183D01*
X147Y182D02*
X166Y182D01*
X195Y182D02*
X214Y182D01*
X146Y181D02*
X166Y181D01*
X195Y181D02*
X214Y181D01*
X146Y180D02*
X166Y180D01*
X195Y180D02*
X215Y180D01*
X146Y179D02*
X165Y179D01*
X196Y179D02*
X215Y179D01*
X146Y178D02*
X165Y178D01*
X196Y178D02*
X215Y178D01*
X146Y177D02*
X165Y177D01*
X196Y177D02*
X215Y177D01*
X146Y176D02*
X165Y176D01*
X196Y176D02*
X215Y176D01*
X146Y175D02*
X165Y175D01*
X196Y175D02*
X215Y175D01*
X146Y174D02*
X165Y174D01*
X196Y174D02*
X215Y174D01*
X146Y173D02*
X165Y173D01*
X196Y173D02*
X215Y173D01*
X146Y172D02*
X165Y172D01*
X196Y172D02*
X215Y172D01*
X146Y171D02*
X165Y171D01*
X195Y171D02*
X215Y171D01*
X146Y170D02*
X166Y170D01*
X195Y170D02*
X214Y170D01*
X147Y169D02*
X166Y169D01*
X195Y169D02*
X214Y169D01*
X147Y168D02*
X167Y168D01*
X194Y168D02*
X214Y168D01*
X147Y167D02*
X167Y167D01*
X193Y167D02*
X214Y167D01*
X147Y166D02*
X168Y166D01*
X193Y166D02*
X213Y166D01*
X148Y165D02*
X169Y165D01*
X192Y165D02*
X213Y165D01*
X148Y164D02*
X170Y164D01*
X191Y164D02*
X213Y164D01*
X148Y163D02*
X171Y163D01*
X189Y163D02*
X212Y163D01*
X149Y162D02*
X173Y162D01*
X188Y162D02*
X212Y162D01*
X149Y161D02*
X175Y161D01*
X185Y161D02*
X212Y161D01*
X150Y160D02*
X211Y160D01*
X150Y159D02*
X211Y159D01*
X151Y158D02*
X210Y158D01*
X151Y157D02*
X209Y157D01*
X152Y156D02*
X209Y156D01*
X153Y155D02*
X208Y155D01*
X153Y154D02*
X207Y154D01*
X154Y153D02*
X207Y153D01*
X155Y152D02*
X206Y152D01*
X156Y151D02*
X205Y151D01*
X157Y150D02*
X204Y150D01*
X158Y149D02*
X203Y149D01*
X159Y148D02*
X202Y148D01*
X161Y147D02*
X200Y147D01*
X162Y146D02*
X199Y146D01*
X164Y145D02*
X197Y145D01*
X166Y144D02*
X195Y144D01*
X168Y143D02*
X192Y143D01*
X171Y142D02*
X190Y142D01*
X175Y141D02*
X185Y141D01*
D02*
G04 End of Copper1*
M02*