G04 MADE WITH FRITZING*
G04 WWW.FRITZING.ORG*
G04 DOUBLE SIDED*
G04 HOLES PLATED*
G04 CONTOUR ON CENTER OF CONTOUR VECTOR*
%ASAXBY*%
%FSLAX23Y23*%
%MOIN*%
%OFA0B0*%
%SFA1.0B1.0*%
%ADD10R,0.144999X0.295000X0.134999X0.285000*%
%ADD11C,0.005000*%
%ADD12C,0.010000*%
%ADD13R,0.001000X0.001000*%
%LNSILK1*%
G90*
G70*
G54D11*
X227Y361D02*
X367Y361D01*
X367Y71D01*
X227Y71D01*
X227Y361D01*
D02*
G54D12*
X1627Y654D02*
X1117Y654D01*
D02*
X1117Y654D02*
X1117Y438D01*
D02*
X1117Y438D02*
X1627Y438D01*
D02*
X1627Y438D02*
X1627Y654D01*
G54D11*
D02*
X1117Y478D02*
X1627Y478D01*
G54D12*
D02*
X1117Y1178D02*
X1627Y1178D01*
D02*
X1627Y1178D02*
X1627Y1394D01*
D02*
X1627Y1394D02*
X1117Y1394D01*
D02*
X1117Y1394D02*
X1117Y1178D01*
G54D11*
D02*
X1627Y1354D02*
X1117Y1354D01*
G54D12*
D02*
X732Y199D02*
X932Y199D01*
D02*
X932Y199D02*
X932Y133D01*
D02*
X932Y133D02*
X732Y133D01*
D02*
X732Y133D02*
X732Y199D01*
D02*
X732Y299D02*
X932Y299D01*
D02*
X932Y299D02*
X932Y233D01*
D02*
X932Y233D02*
X732Y233D01*
D02*
X732Y233D02*
X732Y299D01*
G54D13*
X0Y1496D02*
X1731Y1496D01*
X0Y1495D02*
X1731Y1495D01*
X0Y1494D02*
X1731Y1494D01*
X0Y1493D02*
X1731Y1493D01*
X0Y1492D02*
X1731Y1492D01*
X0Y1491D02*
X1731Y1491D01*
X0Y1490D02*
X1731Y1490D01*
X0Y1489D02*
X1731Y1489D01*
X0Y1488D02*
X7Y1488D01*
X1724Y1488D02*
X1731Y1488D01*
X0Y1487D02*
X7Y1487D01*
X1724Y1487D02*
X1731Y1487D01*
X0Y1486D02*
X7Y1486D01*
X1724Y1486D02*
X1731Y1486D01*
X0Y1485D02*
X7Y1485D01*
X1724Y1485D02*
X1731Y1485D01*
X0Y1484D02*
X7Y1484D01*
X1724Y1484D02*
X1731Y1484D01*
X0Y1483D02*
X7Y1483D01*
X1724Y1483D02*
X1731Y1483D01*
X0Y1482D02*
X7Y1482D01*
X1724Y1482D02*
X1731Y1482D01*
X0Y1481D02*
X7Y1481D01*
X1724Y1481D02*
X1731Y1481D01*
X0Y1480D02*
X7Y1480D01*
X1724Y1480D02*
X1731Y1480D01*
X0Y1479D02*
X7Y1479D01*
X1724Y1479D02*
X1731Y1479D01*
X0Y1478D02*
X7Y1478D01*
X1724Y1478D02*
X1731Y1478D01*
X0Y1477D02*
X7Y1477D01*
X1724Y1477D02*
X1731Y1477D01*
X0Y1476D02*
X7Y1476D01*
X1724Y1476D02*
X1731Y1476D01*
X0Y1475D02*
X7Y1475D01*
X1724Y1475D02*
X1731Y1475D01*
X0Y1474D02*
X7Y1474D01*
X1724Y1474D02*
X1731Y1474D01*
X0Y1473D02*
X7Y1473D01*
X1724Y1473D02*
X1731Y1473D01*
X0Y1472D02*
X7Y1472D01*
X1724Y1472D02*
X1731Y1472D01*
X0Y1471D02*
X7Y1471D01*
X1724Y1471D02*
X1731Y1471D01*
X0Y1470D02*
X7Y1470D01*
X1724Y1470D02*
X1731Y1470D01*
X0Y1469D02*
X7Y1469D01*
X1724Y1469D02*
X1731Y1469D01*
X0Y1468D02*
X7Y1468D01*
X1724Y1468D02*
X1731Y1468D01*
X0Y1467D02*
X7Y1467D01*
X1724Y1467D02*
X1731Y1467D01*
X0Y1466D02*
X7Y1466D01*
X1724Y1466D02*
X1731Y1466D01*
X0Y1465D02*
X7Y1465D01*
X1724Y1465D02*
X1731Y1465D01*
X0Y1464D02*
X7Y1464D01*
X1724Y1464D02*
X1731Y1464D01*
X0Y1463D02*
X7Y1463D01*
X1724Y1463D02*
X1731Y1463D01*
X0Y1462D02*
X7Y1462D01*
X1724Y1462D02*
X1731Y1462D01*
X0Y1461D02*
X7Y1461D01*
X1724Y1461D02*
X1731Y1461D01*
X0Y1460D02*
X7Y1460D01*
X1724Y1460D02*
X1731Y1460D01*
X0Y1459D02*
X7Y1459D01*
X1724Y1459D02*
X1731Y1459D01*
X0Y1458D02*
X7Y1458D01*
X1724Y1458D02*
X1731Y1458D01*
X0Y1457D02*
X7Y1457D01*
X1724Y1457D02*
X1731Y1457D01*
X0Y1456D02*
X7Y1456D01*
X1724Y1456D02*
X1731Y1456D01*
X0Y1455D02*
X7Y1455D01*
X1724Y1455D02*
X1731Y1455D01*
X0Y1454D02*
X7Y1454D01*
X1724Y1454D02*
X1731Y1454D01*
X0Y1453D02*
X7Y1453D01*
X1724Y1453D02*
X1731Y1453D01*
X0Y1452D02*
X7Y1452D01*
X1724Y1452D02*
X1731Y1452D01*
X0Y1451D02*
X7Y1451D01*
X1724Y1451D02*
X1731Y1451D01*
X0Y1450D02*
X7Y1450D01*
X1724Y1450D02*
X1731Y1450D01*
X0Y1449D02*
X7Y1449D01*
X1724Y1449D02*
X1731Y1449D01*
X0Y1448D02*
X7Y1448D01*
X1724Y1448D02*
X1731Y1448D01*
X0Y1447D02*
X7Y1447D01*
X1724Y1447D02*
X1731Y1447D01*
X0Y1446D02*
X7Y1446D01*
X1724Y1446D02*
X1731Y1446D01*
X0Y1445D02*
X7Y1445D01*
X1724Y1445D02*
X1731Y1445D01*
X0Y1444D02*
X7Y1444D01*
X1724Y1444D02*
X1731Y1444D01*
X0Y1443D02*
X7Y1443D01*
X1724Y1443D02*
X1731Y1443D01*
X0Y1442D02*
X7Y1442D01*
X1724Y1442D02*
X1731Y1442D01*
X0Y1441D02*
X7Y1441D01*
X1724Y1441D02*
X1731Y1441D01*
X0Y1440D02*
X7Y1440D01*
X1724Y1440D02*
X1731Y1440D01*
X0Y1439D02*
X7Y1439D01*
X1724Y1439D02*
X1731Y1439D01*
X0Y1438D02*
X7Y1438D01*
X1724Y1438D02*
X1731Y1438D01*
X0Y1437D02*
X7Y1437D01*
X1724Y1437D02*
X1731Y1437D01*
X0Y1436D02*
X7Y1436D01*
X1724Y1436D02*
X1731Y1436D01*
X0Y1435D02*
X7Y1435D01*
X1724Y1435D02*
X1731Y1435D01*
X0Y1434D02*
X7Y1434D01*
X1724Y1434D02*
X1731Y1434D01*
X0Y1433D02*
X7Y1433D01*
X1724Y1433D02*
X1731Y1433D01*
X0Y1432D02*
X7Y1432D01*
X1724Y1432D02*
X1731Y1432D01*
X0Y1431D02*
X7Y1431D01*
X1724Y1431D02*
X1731Y1431D01*
X0Y1430D02*
X7Y1430D01*
X1724Y1430D02*
X1731Y1430D01*
X0Y1429D02*
X7Y1429D01*
X1724Y1429D02*
X1731Y1429D01*
X0Y1428D02*
X7Y1428D01*
X1724Y1428D02*
X1731Y1428D01*
X0Y1427D02*
X7Y1427D01*
X1724Y1427D02*
X1731Y1427D01*
X0Y1426D02*
X7Y1426D01*
X1724Y1426D02*
X1731Y1426D01*
X0Y1425D02*
X7Y1425D01*
X1724Y1425D02*
X1731Y1425D01*
X0Y1424D02*
X7Y1424D01*
X1724Y1424D02*
X1731Y1424D01*
X0Y1423D02*
X7Y1423D01*
X1724Y1423D02*
X1731Y1423D01*
X0Y1422D02*
X7Y1422D01*
X1724Y1422D02*
X1731Y1422D01*
X0Y1421D02*
X7Y1421D01*
X1724Y1421D02*
X1731Y1421D01*
X0Y1420D02*
X7Y1420D01*
X1724Y1420D02*
X1731Y1420D01*
X0Y1419D02*
X7Y1419D01*
X1724Y1419D02*
X1731Y1419D01*
X0Y1418D02*
X7Y1418D01*
X1724Y1418D02*
X1731Y1418D01*
X0Y1417D02*
X7Y1417D01*
X1724Y1417D02*
X1731Y1417D01*
X0Y1416D02*
X7Y1416D01*
X1724Y1416D02*
X1731Y1416D01*
X0Y1415D02*
X7Y1415D01*
X1724Y1415D02*
X1731Y1415D01*
X0Y1414D02*
X7Y1414D01*
X1724Y1414D02*
X1731Y1414D01*
X0Y1413D02*
X7Y1413D01*
X1724Y1413D02*
X1731Y1413D01*
X0Y1412D02*
X7Y1412D01*
X1724Y1412D02*
X1731Y1412D01*
X0Y1411D02*
X7Y1411D01*
X1724Y1411D02*
X1731Y1411D01*
X0Y1410D02*
X7Y1410D01*
X1724Y1410D02*
X1731Y1410D01*
X0Y1409D02*
X7Y1409D01*
X1724Y1409D02*
X1731Y1409D01*
X0Y1408D02*
X7Y1408D01*
X1724Y1408D02*
X1731Y1408D01*
X0Y1407D02*
X7Y1407D01*
X1724Y1407D02*
X1731Y1407D01*
X0Y1406D02*
X7Y1406D01*
X1724Y1406D02*
X1731Y1406D01*
X0Y1405D02*
X7Y1405D01*
X1724Y1405D02*
X1731Y1405D01*
X0Y1404D02*
X7Y1404D01*
X1724Y1404D02*
X1731Y1404D01*
X0Y1403D02*
X7Y1403D01*
X1724Y1403D02*
X1731Y1403D01*
X0Y1402D02*
X7Y1402D01*
X1724Y1402D02*
X1731Y1402D01*
X0Y1401D02*
X7Y1401D01*
X1724Y1401D02*
X1731Y1401D01*
X0Y1400D02*
X7Y1400D01*
X1724Y1400D02*
X1731Y1400D01*
X0Y1399D02*
X7Y1399D01*
X1724Y1399D02*
X1731Y1399D01*
X0Y1398D02*
X7Y1398D01*
X1724Y1398D02*
X1731Y1398D01*
X0Y1397D02*
X7Y1397D01*
X1724Y1397D02*
X1731Y1397D01*
X0Y1396D02*
X7Y1396D01*
X1724Y1396D02*
X1731Y1396D01*
X0Y1395D02*
X7Y1395D01*
X1724Y1395D02*
X1731Y1395D01*
X0Y1394D02*
X7Y1394D01*
X1724Y1394D02*
X1731Y1394D01*
X0Y1393D02*
X7Y1393D01*
X1724Y1393D02*
X1731Y1393D01*
X0Y1392D02*
X7Y1392D01*
X1724Y1392D02*
X1731Y1392D01*
X0Y1391D02*
X7Y1391D01*
X1724Y1391D02*
X1731Y1391D01*
X0Y1390D02*
X7Y1390D01*
X1724Y1390D02*
X1731Y1390D01*
X0Y1389D02*
X7Y1389D01*
X1724Y1389D02*
X1731Y1389D01*
X0Y1388D02*
X7Y1388D01*
X1724Y1388D02*
X1731Y1388D01*
X0Y1387D02*
X7Y1387D01*
X1724Y1387D02*
X1731Y1387D01*
X0Y1386D02*
X7Y1386D01*
X1724Y1386D02*
X1731Y1386D01*
X0Y1385D02*
X7Y1385D01*
X1724Y1385D02*
X1731Y1385D01*
X0Y1384D02*
X7Y1384D01*
X1724Y1384D02*
X1731Y1384D01*
X0Y1383D02*
X7Y1383D01*
X1724Y1383D02*
X1731Y1383D01*
X0Y1382D02*
X7Y1382D01*
X1724Y1382D02*
X1731Y1382D01*
X0Y1381D02*
X7Y1381D01*
X1724Y1381D02*
X1731Y1381D01*
X0Y1380D02*
X7Y1380D01*
X1724Y1380D02*
X1731Y1380D01*
X0Y1379D02*
X7Y1379D01*
X1724Y1379D02*
X1731Y1379D01*
X0Y1378D02*
X7Y1378D01*
X1724Y1378D02*
X1731Y1378D01*
X0Y1377D02*
X7Y1377D01*
X1724Y1377D02*
X1731Y1377D01*
X0Y1376D02*
X7Y1376D01*
X1724Y1376D02*
X1731Y1376D01*
X0Y1375D02*
X7Y1375D01*
X1724Y1375D02*
X1731Y1375D01*
X0Y1374D02*
X7Y1374D01*
X1724Y1374D02*
X1731Y1374D01*
X0Y1373D02*
X7Y1373D01*
X1724Y1373D02*
X1731Y1373D01*
X0Y1372D02*
X7Y1372D01*
X1724Y1372D02*
X1731Y1372D01*
X0Y1371D02*
X7Y1371D01*
X359Y1371D02*
X384Y1371D01*
X1724Y1371D02*
X1731Y1371D01*
X0Y1370D02*
X7Y1370D01*
X353Y1370D02*
X391Y1370D01*
X1724Y1370D02*
X1731Y1370D01*
X0Y1369D02*
X7Y1369D01*
X348Y1369D02*
X395Y1369D01*
X1724Y1369D02*
X1731Y1369D01*
X0Y1368D02*
X7Y1368D01*
X344Y1368D02*
X399Y1368D01*
X1724Y1368D02*
X1731Y1368D01*
X0Y1367D02*
X7Y1367D01*
X341Y1367D02*
X403Y1367D01*
X1724Y1367D02*
X1731Y1367D01*
X0Y1366D02*
X7Y1366D01*
X338Y1366D02*
X406Y1366D01*
X1724Y1366D02*
X1731Y1366D01*
X0Y1365D02*
X7Y1365D01*
X335Y1365D02*
X408Y1365D01*
X1724Y1365D02*
X1731Y1365D01*
X0Y1364D02*
X7Y1364D01*
X332Y1364D02*
X411Y1364D01*
X1724Y1364D02*
X1731Y1364D01*
X0Y1363D02*
X7Y1363D01*
X330Y1363D02*
X413Y1363D01*
X1724Y1363D02*
X1731Y1363D01*
X0Y1362D02*
X7Y1362D01*
X328Y1362D02*
X415Y1362D01*
X1724Y1362D02*
X1731Y1362D01*
X0Y1361D02*
X7Y1361D01*
X326Y1361D02*
X358Y1361D01*
X385Y1361D02*
X417Y1361D01*
X1724Y1361D02*
X1731Y1361D01*
X0Y1360D02*
X7Y1360D01*
X324Y1360D02*
X352Y1360D01*
X391Y1360D02*
X419Y1360D01*
X1724Y1360D02*
X1731Y1360D01*
X0Y1359D02*
X7Y1359D01*
X322Y1359D02*
X348Y1359D01*
X396Y1359D02*
X421Y1359D01*
X1724Y1359D02*
X1731Y1359D01*
X0Y1358D02*
X7Y1358D01*
X320Y1358D02*
X344Y1358D01*
X399Y1358D02*
X423Y1358D01*
X1724Y1358D02*
X1731Y1358D01*
X0Y1357D02*
X7Y1357D01*
X319Y1357D02*
X341Y1357D01*
X402Y1357D02*
X425Y1357D01*
X1724Y1357D02*
X1731Y1357D01*
X0Y1356D02*
X7Y1356D01*
X317Y1356D02*
X338Y1356D01*
X405Y1356D02*
X426Y1356D01*
X1724Y1356D02*
X1731Y1356D01*
X0Y1355D02*
X7Y1355D01*
X315Y1355D02*
X335Y1355D01*
X408Y1355D02*
X428Y1355D01*
X1724Y1355D02*
X1731Y1355D01*
X0Y1354D02*
X7Y1354D01*
X314Y1354D02*
X333Y1354D01*
X410Y1354D02*
X430Y1354D01*
X1724Y1354D02*
X1731Y1354D01*
X0Y1353D02*
X7Y1353D01*
X312Y1353D02*
X331Y1353D01*
X412Y1353D02*
X431Y1353D01*
X1724Y1353D02*
X1731Y1353D01*
X0Y1352D02*
X7Y1352D01*
X311Y1352D02*
X329Y1352D01*
X414Y1352D02*
X432Y1352D01*
X1724Y1352D02*
X1731Y1352D01*
X0Y1351D02*
X7Y1351D01*
X310Y1351D02*
X327Y1351D01*
X416Y1351D02*
X434Y1351D01*
X1724Y1351D02*
X1731Y1351D01*
X0Y1350D02*
X7Y1350D01*
X308Y1350D02*
X325Y1350D01*
X418Y1350D02*
X435Y1350D01*
X1724Y1350D02*
X1731Y1350D01*
X0Y1349D02*
X7Y1349D01*
X307Y1349D02*
X323Y1349D01*
X420Y1349D02*
X436Y1349D01*
X1724Y1349D02*
X1731Y1349D01*
X0Y1348D02*
X7Y1348D01*
X306Y1348D02*
X322Y1348D01*
X422Y1348D02*
X438Y1348D01*
X1724Y1348D02*
X1731Y1348D01*
X0Y1347D02*
X7Y1347D01*
X304Y1347D02*
X320Y1347D01*
X423Y1347D02*
X439Y1347D01*
X1724Y1347D02*
X1731Y1347D01*
X0Y1346D02*
X7Y1346D01*
X303Y1346D02*
X318Y1346D01*
X425Y1346D02*
X440Y1346D01*
X1724Y1346D02*
X1731Y1346D01*
X0Y1345D02*
X7Y1345D01*
X302Y1345D02*
X317Y1345D01*
X426Y1345D02*
X441Y1345D01*
X1724Y1345D02*
X1731Y1345D01*
X0Y1344D02*
X7Y1344D01*
X301Y1344D02*
X316Y1344D01*
X428Y1344D02*
X442Y1344D01*
X1724Y1344D02*
X1731Y1344D01*
X0Y1343D02*
X7Y1343D01*
X300Y1343D02*
X314Y1343D01*
X429Y1343D02*
X443Y1343D01*
X1724Y1343D02*
X1731Y1343D01*
X0Y1342D02*
X7Y1342D01*
X299Y1342D02*
X313Y1342D01*
X430Y1342D02*
X444Y1342D01*
X1724Y1342D02*
X1731Y1342D01*
X0Y1341D02*
X7Y1341D01*
X298Y1341D02*
X312Y1341D01*
X432Y1341D02*
X446Y1341D01*
X1724Y1341D02*
X1731Y1341D01*
X0Y1340D02*
X7Y1340D01*
X297Y1340D02*
X310Y1340D01*
X433Y1340D02*
X446Y1340D01*
X1724Y1340D02*
X1731Y1340D01*
X0Y1339D02*
X7Y1339D01*
X296Y1339D02*
X309Y1339D01*
X434Y1339D02*
X447Y1339D01*
X1724Y1339D02*
X1731Y1339D01*
X0Y1338D02*
X7Y1338D01*
X295Y1338D02*
X308Y1338D01*
X435Y1338D02*
X448Y1338D01*
X1724Y1338D02*
X1731Y1338D01*
X0Y1337D02*
X7Y1337D01*
X294Y1337D02*
X307Y1337D01*
X436Y1337D02*
X449Y1337D01*
X1724Y1337D02*
X1731Y1337D01*
X0Y1336D02*
X7Y1336D01*
X293Y1336D02*
X306Y1336D01*
X437Y1336D02*
X450Y1336D01*
X1724Y1336D02*
X1731Y1336D01*
X0Y1335D02*
X7Y1335D01*
X292Y1335D02*
X305Y1335D01*
X438Y1335D02*
X451Y1335D01*
X1724Y1335D02*
X1731Y1335D01*
X0Y1334D02*
X7Y1334D01*
X291Y1334D02*
X304Y1334D01*
X439Y1334D02*
X452Y1334D01*
X1724Y1334D02*
X1731Y1334D01*
X0Y1333D02*
X7Y1333D01*
X291Y1333D02*
X303Y1333D01*
X440Y1333D02*
X453Y1333D01*
X1724Y1333D02*
X1731Y1333D01*
X0Y1332D02*
X7Y1332D01*
X290Y1332D02*
X302Y1332D01*
X441Y1332D02*
X453Y1332D01*
X1724Y1332D02*
X1731Y1332D01*
X0Y1331D02*
X7Y1331D01*
X289Y1331D02*
X301Y1331D01*
X442Y1331D02*
X454Y1331D01*
X1724Y1331D02*
X1731Y1331D01*
X0Y1330D02*
X7Y1330D01*
X288Y1330D02*
X300Y1330D01*
X443Y1330D02*
X455Y1330D01*
X1724Y1330D02*
X1731Y1330D01*
X0Y1329D02*
X7Y1329D01*
X288Y1329D02*
X299Y1329D01*
X444Y1329D02*
X456Y1329D01*
X1724Y1329D02*
X1731Y1329D01*
X0Y1328D02*
X7Y1328D01*
X287Y1328D02*
X298Y1328D01*
X445Y1328D02*
X456Y1328D01*
X1724Y1328D02*
X1731Y1328D01*
X0Y1327D02*
X7Y1327D01*
X286Y1327D02*
X298Y1327D01*
X405Y1327D02*
X438Y1327D01*
X446Y1327D02*
X457Y1327D01*
X1724Y1327D02*
X1731Y1327D01*
X0Y1326D02*
X7Y1326D01*
X285Y1326D02*
X297Y1326D01*
X404Y1326D02*
X440Y1326D01*
X446Y1326D02*
X458Y1326D01*
X1724Y1326D02*
X1731Y1326D01*
X0Y1325D02*
X7Y1325D01*
X285Y1325D02*
X296Y1325D01*
X403Y1325D02*
X441Y1325D01*
X447Y1325D02*
X459Y1325D01*
X1724Y1325D02*
X1731Y1325D01*
X0Y1324D02*
X7Y1324D01*
X284Y1324D02*
X295Y1324D01*
X402Y1324D02*
X441Y1324D01*
X448Y1324D02*
X459Y1324D01*
X1724Y1324D02*
X1731Y1324D01*
X0Y1323D02*
X7Y1323D01*
X284Y1323D02*
X295Y1323D01*
X402Y1323D02*
X441Y1323D01*
X449Y1323D02*
X460Y1323D01*
X1724Y1323D02*
X1731Y1323D01*
X0Y1322D02*
X7Y1322D01*
X283Y1322D02*
X294Y1322D01*
X402Y1322D02*
X442Y1322D01*
X449Y1322D02*
X460Y1322D01*
X1724Y1322D02*
X1731Y1322D01*
X0Y1321D02*
X7Y1321D01*
X282Y1321D02*
X293Y1321D01*
X402Y1321D02*
X441Y1321D01*
X450Y1321D02*
X461Y1321D01*
X1724Y1321D02*
X1731Y1321D01*
X0Y1320D02*
X7Y1320D01*
X282Y1320D02*
X292Y1320D01*
X402Y1320D02*
X441Y1320D01*
X451Y1320D02*
X462Y1320D01*
X1724Y1320D02*
X1731Y1320D01*
X0Y1319D02*
X7Y1319D01*
X281Y1319D02*
X292Y1319D01*
X403Y1319D02*
X441Y1319D01*
X452Y1319D02*
X462Y1319D01*
X1724Y1319D02*
X1731Y1319D01*
X0Y1318D02*
X7Y1318D01*
X281Y1318D02*
X291Y1318D01*
X403Y1318D02*
X440Y1318D01*
X452Y1318D02*
X463Y1318D01*
X1724Y1318D02*
X1731Y1318D01*
X0Y1317D02*
X7Y1317D01*
X280Y1317D02*
X290Y1317D01*
X405Y1317D02*
X439Y1317D01*
X453Y1317D02*
X463Y1317D01*
X1724Y1317D02*
X1731Y1317D01*
X0Y1316D02*
X7Y1316D01*
X279Y1316D02*
X290Y1316D01*
X453Y1316D02*
X464Y1316D01*
X1724Y1316D02*
X1731Y1316D01*
X0Y1315D02*
X7Y1315D01*
X279Y1315D02*
X289Y1315D01*
X454Y1315D02*
X464Y1315D01*
X1724Y1315D02*
X1731Y1315D01*
X0Y1314D02*
X7Y1314D01*
X279Y1314D02*
X289Y1314D01*
X455Y1314D02*
X465Y1314D01*
X1724Y1314D02*
X1731Y1314D01*
X0Y1313D02*
X7Y1313D01*
X278Y1313D02*
X288Y1313D01*
X455Y1313D02*
X465Y1313D01*
X1724Y1313D02*
X1731Y1313D01*
X0Y1312D02*
X7Y1312D01*
X278Y1312D02*
X287Y1312D01*
X456Y1312D02*
X466Y1312D01*
X1724Y1312D02*
X1731Y1312D01*
X0Y1311D02*
X7Y1311D01*
X277Y1311D02*
X287Y1311D01*
X456Y1311D02*
X466Y1311D01*
X1724Y1311D02*
X1731Y1311D01*
X0Y1310D02*
X7Y1310D01*
X277Y1310D02*
X286Y1310D01*
X457Y1310D02*
X467Y1310D01*
X1724Y1310D02*
X1731Y1310D01*
X0Y1309D02*
X7Y1309D01*
X276Y1309D02*
X286Y1309D01*
X465Y1309D02*
X467Y1309D01*
X1724Y1309D02*
X1731Y1309D01*
X0Y1308D02*
X7Y1308D01*
X276Y1308D02*
X286Y1308D01*
X465Y1308D02*
X468Y1308D01*
X1724Y1308D02*
X1731Y1308D01*
X0Y1307D02*
X7Y1307D01*
X275Y1307D02*
X285Y1307D01*
X465Y1307D02*
X468Y1307D01*
X1724Y1307D02*
X1731Y1307D01*
X0Y1306D02*
X7Y1306D01*
X275Y1306D02*
X285Y1306D01*
X465Y1306D02*
X468Y1306D01*
X1724Y1306D02*
X1731Y1306D01*
X0Y1305D02*
X7Y1305D01*
X274Y1305D02*
X284Y1305D01*
X465Y1305D02*
X469Y1305D01*
X1724Y1305D02*
X1731Y1305D01*
X0Y1304D02*
X7Y1304D01*
X274Y1304D02*
X284Y1304D01*
X465Y1304D02*
X469Y1304D01*
X1724Y1304D02*
X1731Y1304D01*
X0Y1303D02*
X7Y1303D01*
X274Y1303D02*
X283Y1303D01*
X465Y1303D02*
X470Y1303D01*
X1724Y1303D02*
X1731Y1303D01*
X0Y1302D02*
X7Y1302D01*
X273Y1302D02*
X283Y1302D01*
X465Y1302D02*
X470Y1302D01*
X1724Y1302D02*
X1731Y1302D01*
X0Y1301D02*
X7Y1301D01*
X273Y1301D02*
X282Y1301D01*
X465Y1301D02*
X470Y1301D01*
X1724Y1301D02*
X1731Y1301D01*
X0Y1300D02*
X7Y1300D01*
X273Y1300D02*
X282Y1300D01*
X465Y1300D02*
X471Y1300D01*
X1724Y1300D02*
X1731Y1300D01*
X0Y1299D02*
X7Y1299D01*
X272Y1299D02*
X282Y1299D01*
X465Y1299D02*
X471Y1299D01*
X1724Y1299D02*
X1731Y1299D01*
X0Y1298D02*
X7Y1298D01*
X272Y1298D02*
X281Y1298D01*
X465Y1298D02*
X471Y1298D01*
X1724Y1298D02*
X1731Y1298D01*
X0Y1297D02*
X7Y1297D01*
X272Y1297D02*
X281Y1297D01*
X465Y1297D02*
X472Y1297D01*
X1724Y1297D02*
X1731Y1297D01*
X0Y1296D02*
X7Y1296D01*
X271Y1296D02*
X281Y1296D01*
X465Y1296D02*
X472Y1296D01*
X1724Y1296D02*
X1731Y1296D01*
X0Y1295D02*
X7Y1295D01*
X271Y1295D02*
X280Y1295D01*
X465Y1295D02*
X472Y1295D01*
X1724Y1295D02*
X1731Y1295D01*
X0Y1294D02*
X7Y1294D01*
X271Y1294D02*
X280Y1294D01*
X465Y1294D02*
X473Y1294D01*
X1724Y1294D02*
X1731Y1294D01*
X0Y1293D02*
X7Y1293D01*
X271Y1293D02*
X280Y1293D01*
X465Y1293D02*
X473Y1293D01*
X1724Y1293D02*
X1731Y1293D01*
X0Y1292D02*
X7Y1292D01*
X270Y1292D02*
X279Y1292D01*
X465Y1292D02*
X473Y1292D01*
X1724Y1292D02*
X1731Y1292D01*
X0Y1291D02*
X7Y1291D01*
X270Y1291D02*
X279Y1291D01*
X465Y1291D02*
X473Y1291D01*
X1724Y1291D02*
X1731Y1291D01*
X0Y1290D02*
X7Y1290D01*
X270Y1290D02*
X279Y1290D01*
X465Y1290D02*
X473Y1290D01*
X1724Y1290D02*
X1731Y1290D01*
X0Y1289D02*
X7Y1289D01*
X270Y1289D02*
X279Y1289D01*
X465Y1289D02*
X474Y1289D01*
X1724Y1289D02*
X1731Y1289D01*
X0Y1288D02*
X7Y1288D01*
X269Y1288D02*
X278Y1288D01*
X465Y1288D02*
X474Y1288D01*
X1724Y1288D02*
X1731Y1288D01*
X0Y1287D02*
X7Y1287D01*
X269Y1287D02*
X278Y1287D01*
X465Y1287D02*
X474Y1287D01*
X1724Y1287D02*
X1731Y1287D01*
X0Y1286D02*
X7Y1286D01*
X269Y1286D02*
X278Y1286D01*
X465Y1286D02*
X474Y1286D01*
X1724Y1286D02*
X1731Y1286D01*
X0Y1285D02*
X7Y1285D01*
X269Y1285D02*
X278Y1285D01*
X465Y1285D02*
X475Y1285D01*
X1724Y1285D02*
X1731Y1285D01*
X0Y1284D02*
X7Y1284D01*
X269Y1284D02*
X278Y1284D01*
X466Y1284D02*
X475Y1284D01*
X1724Y1284D02*
X1731Y1284D01*
X0Y1283D02*
X7Y1283D01*
X268Y1283D02*
X278Y1283D01*
X466Y1283D02*
X475Y1283D01*
X1724Y1283D02*
X1731Y1283D01*
X0Y1282D02*
X7Y1282D01*
X268Y1282D02*
X277Y1282D01*
X466Y1282D02*
X475Y1282D01*
X1724Y1282D02*
X1731Y1282D01*
X0Y1281D02*
X7Y1281D01*
X268Y1281D02*
X277Y1281D01*
X466Y1281D02*
X475Y1281D01*
X1724Y1281D02*
X1731Y1281D01*
X0Y1280D02*
X7Y1280D01*
X268Y1280D02*
X277Y1280D01*
X466Y1280D02*
X475Y1280D01*
X1724Y1280D02*
X1731Y1280D01*
X0Y1279D02*
X7Y1279D01*
X268Y1279D02*
X277Y1279D01*
X466Y1279D02*
X475Y1279D01*
X1724Y1279D02*
X1731Y1279D01*
X0Y1278D02*
X7Y1278D01*
X268Y1278D02*
X277Y1278D01*
X467Y1278D02*
X476Y1278D01*
X1724Y1278D02*
X1731Y1278D01*
X0Y1277D02*
X7Y1277D01*
X268Y1277D02*
X277Y1277D01*
X467Y1277D02*
X476Y1277D01*
X1724Y1277D02*
X1731Y1277D01*
X0Y1276D02*
X7Y1276D01*
X268Y1276D02*
X277Y1276D01*
X467Y1276D02*
X476Y1276D01*
X1724Y1276D02*
X1731Y1276D01*
X0Y1275D02*
X7Y1275D01*
X268Y1275D02*
X277Y1275D01*
X467Y1275D02*
X476Y1275D01*
X1724Y1275D02*
X1731Y1275D01*
X0Y1274D02*
X7Y1274D01*
X267Y1274D02*
X276Y1274D01*
X467Y1274D02*
X476Y1274D01*
X1724Y1274D02*
X1731Y1274D01*
X0Y1273D02*
X7Y1273D01*
X267Y1273D02*
X276Y1273D01*
X467Y1273D02*
X476Y1273D01*
X1724Y1273D02*
X1731Y1273D01*
X0Y1272D02*
X7Y1272D01*
X267Y1272D02*
X276Y1272D01*
X467Y1272D02*
X476Y1272D01*
X1724Y1272D02*
X1731Y1272D01*
X0Y1271D02*
X7Y1271D01*
X267Y1271D02*
X276Y1271D01*
X467Y1271D02*
X476Y1271D01*
X1724Y1271D02*
X1731Y1271D01*
X0Y1270D02*
X7Y1270D01*
X267Y1270D02*
X276Y1270D01*
X467Y1270D02*
X476Y1270D01*
X1724Y1270D02*
X1731Y1270D01*
X0Y1269D02*
X7Y1269D01*
X267Y1269D02*
X276Y1269D01*
X467Y1269D02*
X476Y1269D01*
X1724Y1269D02*
X1731Y1269D01*
X0Y1268D02*
X7Y1268D01*
X267Y1268D02*
X276Y1268D01*
X467Y1268D02*
X476Y1268D01*
X1724Y1268D02*
X1731Y1268D01*
X0Y1267D02*
X7Y1267D01*
X267Y1267D02*
X276Y1267D01*
X467Y1267D02*
X476Y1267D01*
X1724Y1267D02*
X1731Y1267D01*
X0Y1266D02*
X7Y1266D01*
X267Y1266D02*
X276Y1266D01*
X467Y1266D02*
X476Y1266D01*
X1724Y1266D02*
X1731Y1266D01*
X0Y1265D02*
X7Y1265D01*
X267Y1265D02*
X276Y1265D01*
X467Y1265D02*
X476Y1265D01*
X1724Y1265D02*
X1731Y1265D01*
X0Y1264D02*
X7Y1264D01*
X267Y1264D02*
X276Y1264D01*
X467Y1264D02*
X476Y1264D01*
X1724Y1264D02*
X1731Y1264D01*
X0Y1263D02*
X7Y1263D01*
X267Y1263D02*
X276Y1263D01*
X467Y1263D02*
X476Y1263D01*
X1724Y1263D02*
X1731Y1263D01*
X0Y1262D02*
X7Y1262D01*
X267Y1262D02*
X276Y1262D01*
X467Y1262D02*
X476Y1262D01*
X1724Y1262D02*
X1731Y1262D01*
X0Y1261D02*
X7Y1261D01*
X267Y1261D02*
X276Y1261D01*
X467Y1261D02*
X476Y1261D01*
X1724Y1261D02*
X1731Y1261D01*
X0Y1260D02*
X7Y1260D01*
X267Y1260D02*
X276Y1260D01*
X467Y1260D02*
X476Y1260D01*
X1724Y1260D02*
X1731Y1260D01*
X0Y1259D02*
X7Y1259D01*
X268Y1259D02*
X277Y1259D01*
X467Y1259D02*
X476Y1259D01*
X1724Y1259D02*
X1731Y1259D01*
X0Y1258D02*
X7Y1258D01*
X268Y1258D02*
X277Y1258D01*
X467Y1258D02*
X476Y1258D01*
X1724Y1258D02*
X1731Y1258D01*
X0Y1257D02*
X7Y1257D01*
X268Y1257D02*
X277Y1257D01*
X467Y1257D02*
X476Y1257D01*
X1724Y1257D02*
X1731Y1257D01*
X0Y1256D02*
X7Y1256D01*
X268Y1256D02*
X277Y1256D01*
X467Y1256D02*
X476Y1256D01*
X1724Y1256D02*
X1731Y1256D01*
X0Y1255D02*
X7Y1255D01*
X268Y1255D02*
X277Y1255D01*
X466Y1255D02*
X475Y1255D01*
X1724Y1255D02*
X1731Y1255D01*
X0Y1254D02*
X7Y1254D01*
X268Y1254D02*
X277Y1254D01*
X466Y1254D02*
X475Y1254D01*
X1724Y1254D02*
X1731Y1254D01*
X0Y1253D02*
X7Y1253D01*
X268Y1253D02*
X277Y1253D01*
X466Y1253D02*
X475Y1253D01*
X1724Y1253D02*
X1731Y1253D01*
X0Y1252D02*
X7Y1252D01*
X268Y1252D02*
X277Y1252D01*
X466Y1252D02*
X475Y1252D01*
X1724Y1252D02*
X1731Y1252D01*
X0Y1251D02*
X7Y1251D01*
X268Y1251D02*
X277Y1251D01*
X466Y1251D02*
X475Y1251D01*
X1724Y1251D02*
X1731Y1251D01*
X0Y1250D02*
X7Y1250D01*
X269Y1250D02*
X278Y1250D01*
X466Y1250D02*
X475Y1250D01*
X1724Y1250D02*
X1731Y1250D01*
X0Y1249D02*
X7Y1249D01*
X269Y1249D02*
X278Y1249D01*
X465Y1249D02*
X475Y1249D01*
X1724Y1249D02*
X1731Y1249D01*
X0Y1248D02*
X7Y1248D01*
X269Y1248D02*
X278Y1248D01*
X465Y1248D02*
X474Y1248D01*
X1724Y1248D02*
X1731Y1248D01*
X0Y1247D02*
X7Y1247D01*
X269Y1247D02*
X278Y1247D01*
X465Y1247D02*
X474Y1247D01*
X1724Y1247D02*
X1731Y1247D01*
X0Y1246D02*
X7Y1246D01*
X269Y1246D02*
X278Y1246D01*
X465Y1246D02*
X474Y1246D01*
X1724Y1246D02*
X1731Y1246D01*
X0Y1245D02*
X7Y1245D01*
X270Y1245D02*
X279Y1245D01*
X465Y1245D02*
X474Y1245D01*
X1724Y1245D02*
X1731Y1245D01*
X0Y1244D02*
X7Y1244D01*
X270Y1244D02*
X279Y1244D01*
X465Y1244D02*
X474Y1244D01*
X1724Y1244D02*
X1731Y1244D01*
X0Y1243D02*
X7Y1243D01*
X270Y1243D02*
X279Y1243D01*
X465Y1243D02*
X473Y1243D01*
X1724Y1243D02*
X1731Y1243D01*
X0Y1242D02*
X7Y1242D01*
X270Y1242D02*
X279Y1242D01*
X465Y1242D02*
X473Y1242D01*
X1724Y1242D02*
X1731Y1242D01*
X0Y1241D02*
X7Y1241D01*
X270Y1241D02*
X280Y1241D01*
X465Y1241D02*
X473Y1241D01*
X1724Y1241D02*
X1731Y1241D01*
X0Y1240D02*
X7Y1240D01*
X271Y1240D02*
X280Y1240D01*
X465Y1240D02*
X473Y1240D01*
X1724Y1240D02*
X1731Y1240D01*
X0Y1239D02*
X7Y1239D01*
X271Y1239D02*
X280Y1239D01*
X465Y1239D02*
X472Y1239D01*
X1724Y1239D02*
X1731Y1239D01*
X0Y1238D02*
X7Y1238D01*
X271Y1238D02*
X281Y1238D01*
X465Y1238D02*
X472Y1238D01*
X1724Y1238D02*
X1731Y1238D01*
X0Y1237D02*
X7Y1237D01*
X272Y1237D02*
X281Y1237D01*
X465Y1237D02*
X472Y1237D01*
X1724Y1237D02*
X1731Y1237D01*
X0Y1236D02*
X7Y1236D01*
X272Y1236D02*
X281Y1236D01*
X465Y1236D02*
X471Y1236D01*
X1724Y1236D02*
X1731Y1236D01*
X0Y1235D02*
X7Y1235D01*
X272Y1235D02*
X282Y1235D01*
X465Y1235D02*
X471Y1235D01*
X1724Y1235D02*
X1731Y1235D01*
X0Y1234D02*
X7Y1234D01*
X273Y1234D02*
X282Y1234D01*
X465Y1234D02*
X471Y1234D01*
X1724Y1234D02*
X1731Y1234D01*
X0Y1233D02*
X7Y1233D01*
X273Y1233D02*
X282Y1233D01*
X465Y1233D02*
X470Y1233D01*
X1724Y1233D02*
X1731Y1233D01*
X0Y1232D02*
X7Y1232D01*
X273Y1232D02*
X283Y1232D01*
X465Y1232D02*
X470Y1232D01*
X1724Y1232D02*
X1731Y1232D01*
X0Y1231D02*
X7Y1231D01*
X274Y1231D02*
X283Y1231D01*
X465Y1231D02*
X470Y1231D01*
X1724Y1231D02*
X1731Y1231D01*
X0Y1230D02*
X7Y1230D01*
X274Y1230D02*
X284Y1230D01*
X465Y1230D02*
X469Y1230D01*
X1724Y1230D02*
X1731Y1230D01*
X0Y1229D02*
X7Y1229D01*
X274Y1229D02*
X284Y1229D01*
X465Y1229D02*
X469Y1229D01*
X1724Y1229D02*
X1731Y1229D01*
X0Y1228D02*
X7Y1228D01*
X275Y1228D02*
X284Y1228D01*
X465Y1228D02*
X469Y1228D01*
X1724Y1228D02*
X1731Y1228D01*
X0Y1227D02*
X7Y1227D01*
X275Y1227D02*
X285Y1227D01*
X465Y1227D02*
X468Y1227D01*
X1724Y1227D02*
X1731Y1227D01*
X0Y1226D02*
X7Y1226D01*
X276Y1226D02*
X285Y1226D01*
X465Y1226D02*
X468Y1226D01*
X1724Y1226D02*
X1731Y1226D01*
X0Y1225D02*
X7Y1225D01*
X276Y1225D02*
X286Y1225D01*
X465Y1225D02*
X467Y1225D01*
X1724Y1225D02*
X1731Y1225D01*
X0Y1224D02*
X7Y1224D01*
X277Y1224D02*
X286Y1224D01*
X457Y1224D02*
X467Y1224D01*
X1724Y1224D02*
X1731Y1224D01*
X0Y1223D02*
X7Y1223D01*
X277Y1223D02*
X287Y1223D01*
X456Y1223D02*
X466Y1223D01*
X1724Y1223D02*
X1731Y1223D01*
X0Y1222D02*
X7Y1222D01*
X277Y1222D02*
X287Y1222D01*
X456Y1222D02*
X466Y1222D01*
X1724Y1222D02*
X1731Y1222D01*
X0Y1221D02*
X7Y1221D01*
X278Y1221D02*
X288Y1221D01*
X455Y1221D02*
X465Y1221D01*
X1724Y1221D02*
X1731Y1221D01*
X0Y1220D02*
X7Y1220D01*
X278Y1220D02*
X289Y1220D01*
X455Y1220D02*
X465Y1220D01*
X1724Y1220D02*
X1731Y1220D01*
X0Y1219D02*
X7Y1219D01*
X279Y1219D02*
X289Y1219D01*
X454Y1219D02*
X464Y1219D01*
X1724Y1219D02*
X1731Y1219D01*
X0Y1218D02*
X7Y1218D01*
X279Y1218D02*
X290Y1218D01*
X454Y1218D02*
X464Y1218D01*
X1724Y1218D02*
X1731Y1218D01*
X0Y1217D02*
X7Y1217D01*
X280Y1217D02*
X290Y1217D01*
X405Y1217D02*
X438Y1217D01*
X453Y1217D02*
X463Y1217D01*
X1724Y1217D02*
X1731Y1217D01*
X0Y1216D02*
X7Y1216D01*
X280Y1216D02*
X291Y1216D01*
X404Y1216D02*
X440Y1216D01*
X452Y1216D02*
X463Y1216D01*
X1724Y1216D02*
X1731Y1216D01*
X0Y1215D02*
X7Y1215D01*
X281Y1215D02*
X292Y1215D01*
X403Y1215D02*
X441Y1215D01*
X452Y1215D02*
X462Y1215D01*
X1724Y1215D02*
X1731Y1215D01*
X0Y1214D02*
X7Y1214D01*
X282Y1214D02*
X292Y1214D01*
X402Y1214D02*
X441Y1214D01*
X451Y1214D02*
X462Y1214D01*
X1724Y1214D02*
X1731Y1214D01*
X0Y1213D02*
X7Y1213D01*
X282Y1213D02*
X293Y1213D01*
X402Y1213D02*
X441Y1213D01*
X450Y1213D02*
X461Y1213D01*
X1724Y1213D02*
X1731Y1213D01*
X0Y1212D02*
X7Y1212D01*
X283Y1212D02*
X294Y1212D01*
X402Y1212D02*
X442Y1212D01*
X450Y1212D02*
X460Y1212D01*
X1724Y1212D02*
X1731Y1212D01*
X0Y1211D02*
X7Y1211D01*
X283Y1211D02*
X294Y1211D01*
X402Y1211D02*
X441Y1211D01*
X449Y1211D02*
X460Y1211D01*
X1724Y1211D02*
X1731Y1211D01*
X0Y1210D02*
X7Y1210D01*
X284Y1210D02*
X295Y1210D01*
X402Y1210D02*
X441Y1210D01*
X448Y1210D02*
X459Y1210D01*
X1724Y1210D02*
X1731Y1210D01*
X0Y1209D02*
X7Y1209D01*
X285Y1209D02*
X296Y1209D01*
X403Y1209D02*
X441Y1209D01*
X447Y1209D02*
X459Y1209D01*
X1724Y1209D02*
X1731Y1209D01*
X0Y1208D02*
X7Y1208D01*
X285Y1208D02*
X297Y1208D01*
X403Y1208D02*
X440Y1208D01*
X447Y1208D02*
X458Y1208D01*
X1724Y1208D02*
X1731Y1208D01*
X0Y1207D02*
X7Y1207D01*
X286Y1207D02*
X297Y1207D01*
X405Y1207D02*
X439Y1207D01*
X446Y1207D02*
X457Y1207D01*
X1724Y1207D02*
X1731Y1207D01*
X0Y1206D02*
X7Y1206D01*
X287Y1206D02*
X298Y1206D01*
X445Y1206D02*
X457Y1206D01*
X1724Y1206D02*
X1731Y1206D01*
X0Y1205D02*
X7Y1205D01*
X288Y1205D02*
X299Y1205D01*
X444Y1205D02*
X456Y1205D01*
X1724Y1205D02*
X1731Y1205D01*
X0Y1204D02*
X7Y1204D01*
X288Y1204D02*
X300Y1204D01*
X443Y1204D02*
X455Y1204D01*
X1724Y1204D02*
X1731Y1204D01*
X0Y1203D02*
X7Y1203D01*
X289Y1203D02*
X301Y1203D01*
X442Y1203D02*
X454Y1203D01*
X1724Y1203D02*
X1731Y1203D01*
X0Y1202D02*
X7Y1202D01*
X290Y1202D02*
X302Y1202D01*
X441Y1202D02*
X454Y1202D01*
X1724Y1202D02*
X1731Y1202D01*
X0Y1201D02*
X7Y1201D01*
X291Y1201D02*
X303Y1201D01*
X440Y1201D02*
X453Y1201D01*
X1724Y1201D02*
X1731Y1201D01*
X0Y1200D02*
X7Y1200D01*
X291Y1200D02*
X304Y1200D01*
X440Y1200D02*
X452Y1200D01*
X1724Y1200D02*
X1731Y1200D01*
X0Y1199D02*
X7Y1199D01*
X292Y1199D02*
X305Y1199D01*
X439Y1199D02*
X451Y1199D01*
X1724Y1199D02*
X1731Y1199D01*
X0Y1198D02*
X7Y1198D01*
X293Y1198D02*
X306Y1198D01*
X437Y1198D02*
X450Y1198D01*
X1724Y1198D02*
X1731Y1198D01*
X0Y1197D02*
X7Y1197D01*
X294Y1197D02*
X307Y1197D01*
X436Y1197D02*
X449Y1197D01*
X1724Y1197D02*
X1731Y1197D01*
X0Y1196D02*
X7Y1196D01*
X295Y1196D02*
X308Y1196D01*
X435Y1196D02*
X448Y1196D01*
X1724Y1196D02*
X1731Y1196D01*
X0Y1195D02*
X7Y1195D01*
X296Y1195D02*
X309Y1195D01*
X434Y1195D02*
X448Y1195D01*
X1724Y1195D02*
X1731Y1195D01*
X0Y1194D02*
X7Y1194D01*
X297Y1194D02*
X310Y1194D01*
X433Y1194D02*
X447Y1194D01*
X1724Y1194D02*
X1731Y1194D01*
X0Y1193D02*
X7Y1193D01*
X298Y1193D02*
X311Y1193D01*
X432Y1193D02*
X446Y1193D01*
X1724Y1193D02*
X1731Y1193D01*
X0Y1192D02*
X7Y1192D01*
X299Y1192D02*
X313Y1192D01*
X430Y1192D02*
X445Y1192D01*
X1724Y1192D02*
X1731Y1192D01*
X0Y1191D02*
X7Y1191D01*
X300Y1191D02*
X314Y1191D01*
X429Y1191D02*
X444Y1191D01*
X1724Y1191D02*
X1731Y1191D01*
X0Y1190D02*
X7Y1190D01*
X301Y1190D02*
X315Y1190D01*
X428Y1190D02*
X442Y1190D01*
X1724Y1190D02*
X1731Y1190D01*
X0Y1189D02*
X7Y1189D01*
X302Y1189D02*
X317Y1189D01*
X427Y1189D02*
X441Y1189D01*
X1724Y1189D02*
X1731Y1189D01*
X0Y1188D02*
X7Y1188D01*
X303Y1188D02*
X318Y1188D01*
X425Y1188D02*
X440Y1188D01*
X1724Y1188D02*
X1731Y1188D01*
X0Y1187D02*
X7Y1187D01*
X304Y1187D02*
X320Y1187D01*
X424Y1187D02*
X439Y1187D01*
X1724Y1187D02*
X1731Y1187D01*
X0Y1186D02*
X7Y1186D01*
X305Y1186D02*
X321Y1186D01*
X422Y1186D02*
X438Y1186D01*
X1724Y1186D02*
X1731Y1186D01*
X0Y1185D02*
X7Y1185D01*
X307Y1185D02*
X323Y1185D01*
X420Y1185D02*
X437Y1185D01*
X1724Y1185D02*
X1731Y1185D01*
X0Y1184D02*
X7Y1184D01*
X308Y1184D02*
X325Y1184D01*
X419Y1184D02*
X435Y1184D01*
X1724Y1184D02*
X1731Y1184D01*
X0Y1183D02*
X7Y1183D01*
X309Y1183D02*
X326Y1183D01*
X417Y1183D02*
X434Y1183D01*
X1724Y1183D02*
X1731Y1183D01*
X0Y1182D02*
X7Y1182D01*
X311Y1182D02*
X329Y1182D01*
X415Y1182D02*
X433Y1182D01*
X1724Y1182D02*
X1731Y1182D01*
X0Y1181D02*
X7Y1181D01*
X312Y1181D02*
X331Y1181D01*
X413Y1181D02*
X431Y1181D01*
X1724Y1181D02*
X1731Y1181D01*
X0Y1180D02*
X7Y1180D01*
X313Y1180D02*
X333Y1180D01*
X411Y1180D02*
X430Y1180D01*
X1724Y1180D02*
X1731Y1180D01*
X0Y1179D02*
X7Y1179D01*
X315Y1179D02*
X335Y1179D01*
X408Y1179D02*
X428Y1179D01*
X1724Y1179D02*
X1731Y1179D01*
X0Y1178D02*
X7Y1178D01*
X317Y1178D02*
X338Y1178D01*
X406Y1178D02*
X427Y1178D01*
X1724Y1178D02*
X1731Y1178D01*
X0Y1177D02*
X7Y1177D01*
X318Y1177D02*
X340Y1177D01*
X403Y1177D02*
X425Y1177D01*
X1724Y1177D02*
X1731Y1177D01*
X0Y1176D02*
X7Y1176D01*
X320Y1176D02*
X343Y1176D01*
X400Y1176D02*
X423Y1176D01*
X1724Y1176D02*
X1731Y1176D01*
X0Y1175D02*
X7Y1175D01*
X322Y1175D02*
X347Y1175D01*
X397Y1175D02*
X422Y1175D01*
X1724Y1175D02*
X1731Y1175D01*
X0Y1174D02*
X7Y1174D01*
X324Y1174D02*
X351Y1174D01*
X392Y1174D02*
X420Y1174D01*
X1724Y1174D02*
X1731Y1174D01*
X0Y1173D02*
X7Y1173D01*
X326Y1173D02*
X356Y1173D01*
X387Y1173D02*
X418Y1173D01*
X1724Y1173D02*
X1731Y1173D01*
X0Y1172D02*
X7Y1172D01*
X328Y1172D02*
X367Y1172D01*
X376Y1172D02*
X416Y1172D01*
X1724Y1172D02*
X1731Y1172D01*
X0Y1171D02*
X7Y1171D01*
X330Y1171D02*
X414Y1171D01*
X1724Y1171D02*
X1731Y1171D01*
X0Y1170D02*
X7Y1170D01*
X332Y1170D02*
X411Y1170D01*
X1724Y1170D02*
X1731Y1170D01*
X0Y1169D02*
X7Y1169D01*
X334Y1169D02*
X409Y1169D01*
X1724Y1169D02*
X1731Y1169D01*
X0Y1168D02*
X7Y1168D01*
X337Y1168D02*
X406Y1168D01*
X1724Y1168D02*
X1731Y1168D01*
X0Y1167D02*
X7Y1167D01*
X340Y1167D02*
X403Y1167D01*
X1724Y1167D02*
X1731Y1167D01*
X0Y1166D02*
X7Y1166D01*
X343Y1166D02*
X400Y1166D01*
X1724Y1166D02*
X1731Y1166D01*
X0Y1165D02*
X7Y1165D01*
X347Y1165D02*
X396Y1165D01*
X1724Y1165D02*
X1731Y1165D01*
X0Y1164D02*
X7Y1164D01*
X352Y1164D02*
X392Y1164D01*
X1724Y1164D02*
X1731Y1164D01*
X0Y1163D02*
X7Y1163D01*
X357Y1163D02*
X386Y1163D01*
X1724Y1163D02*
X1731Y1163D01*
X0Y1162D02*
X7Y1162D01*
X369Y1162D02*
X375Y1162D01*
X1724Y1162D02*
X1731Y1162D01*
X0Y1161D02*
X7Y1161D01*
X1724Y1161D02*
X1731Y1161D01*
X0Y1160D02*
X7Y1160D01*
X1724Y1160D02*
X1731Y1160D01*
X0Y1159D02*
X7Y1159D01*
X1724Y1159D02*
X1731Y1159D01*
X0Y1158D02*
X7Y1158D01*
X1724Y1158D02*
X1731Y1158D01*
X0Y1157D02*
X7Y1157D01*
X1724Y1157D02*
X1731Y1157D01*
X0Y1156D02*
X7Y1156D01*
X1724Y1156D02*
X1731Y1156D01*
X0Y1155D02*
X7Y1155D01*
X1724Y1155D02*
X1731Y1155D01*
X0Y1154D02*
X7Y1154D01*
X1724Y1154D02*
X1731Y1154D01*
X0Y1153D02*
X7Y1153D01*
X1724Y1153D02*
X1731Y1153D01*
X0Y1152D02*
X7Y1152D01*
X1724Y1152D02*
X1731Y1152D01*
X0Y1151D02*
X7Y1151D01*
X1724Y1151D02*
X1731Y1151D01*
X0Y1150D02*
X7Y1150D01*
X1724Y1150D02*
X1731Y1150D01*
X0Y1149D02*
X7Y1149D01*
X1724Y1149D02*
X1731Y1149D01*
X0Y1148D02*
X7Y1148D01*
X1724Y1148D02*
X1731Y1148D01*
X0Y1147D02*
X7Y1147D01*
X1724Y1147D02*
X1731Y1147D01*
X0Y1146D02*
X7Y1146D01*
X1724Y1146D02*
X1731Y1146D01*
X0Y1145D02*
X7Y1145D01*
X1724Y1145D02*
X1731Y1145D01*
X0Y1144D02*
X7Y1144D01*
X1724Y1144D02*
X1731Y1144D01*
X0Y1143D02*
X7Y1143D01*
X1724Y1143D02*
X1731Y1143D01*
X0Y1142D02*
X7Y1142D01*
X1724Y1142D02*
X1731Y1142D01*
X0Y1141D02*
X7Y1141D01*
X1724Y1141D02*
X1731Y1141D01*
X0Y1140D02*
X7Y1140D01*
X1724Y1140D02*
X1731Y1140D01*
X0Y1139D02*
X7Y1139D01*
X1724Y1139D02*
X1731Y1139D01*
X0Y1138D02*
X7Y1138D01*
X1724Y1138D02*
X1731Y1138D01*
X0Y1137D02*
X7Y1137D01*
X1724Y1137D02*
X1731Y1137D01*
X0Y1136D02*
X7Y1136D01*
X1724Y1136D02*
X1731Y1136D01*
X0Y1135D02*
X7Y1135D01*
X1724Y1135D02*
X1731Y1135D01*
X0Y1134D02*
X7Y1134D01*
X1724Y1134D02*
X1731Y1134D01*
X0Y1133D02*
X7Y1133D01*
X1724Y1133D02*
X1731Y1133D01*
X0Y1132D02*
X7Y1132D01*
X1724Y1132D02*
X1731Y1132D01*
X0Y1131D02*
X7Y1131D01*
X1724Y1131D02*
X1731Y1131D01*
X0Y1130D02*
X7Y1130D01*
X1724Y1130D02*
X1731Y1130D01*
X0Y1129D02*
X7Y1129D01*
X1724Y1129D02*
X1731Y1129D01*
X0Y1128D02*
X7Y1128D01*
X1724Y1128D02*
X1731Y1128D01*
X0Y1127D02*
X7Y1127D01*
X1724Y1127D02*
X1731Y1127D01*
X0Y1126D02*
X7Y1126D01*
X1724Y1126D02*
X1731Y1126D01*
X0Y1125D02*
X7Y1125D01*
X1724Y1125D02*
X1731Y1125D01*
X0Y1124D02*
X7Y1124D01*
X1724Y1124D02*
X1731Y1124D01*
X0Y1123D02*
X7Y1123D01*
X1724Y1123D02*
X1731Y1123D01*
X0Y1122D02*
X7Y1122D01*
X1724Y1122D02*
X1731Y1122D01*
X0Y1121D02*
X7Y1121D01*
X1724Y1121D02*
X1731Y1121D01*
X0Y1120D02*
X7Y1120D01*
X1724Y1120D02*
X1731Y1120D01*
X0Y1119D02*
X7Y1119D01*
X1724Y1119D02*
X1731Y1119D01*
X0Y1118D02*
X7Y1118D01*
X1724Y1118D02*
X1731Y1118D01*
X0Y1117D02*
X7Y1117D01*
X1724Y1117D02*
X1731Y1117D01*
X0Y1116D02*
X7Y1116D01*
X1724Y1116D02*
X1731Y1116D01*
X0Y1115D02*
X7Y1115D01*
X1724Y1115D02*
X1731Y1115D01*
X0Y1114D02*
X7Y1114D01*
X1724Y1114D02*
X1731Y1114D01*
X0Y1113D02*
X7Y1113D01*
X1724Y1113D02*
X1731Y1113D01*
X0Y1112D02*
X7Y1112D01*
X1724Y1112D02*
X1731Y1112D01*
X0Y1111D02*
X7Y1111D01*
X1724Y1111D02*
X1731Y1111D01*
X0Y1110D02*
X7Y1110D01*
X1724Y1110D02*
X1731Y1110D01*
X0Y1109D02*
X7Y1109D01*
X1724Y1109D02*
X1731Y1109D01*
X0Y1108D02*
X7Y1108D01*
X1724Y1108D02*
X1731Y1108D01*
X0Y1107D02*
X7Y1107D01*
X1724Y1107D02*
X1731Y1107D01*
X0Y1106D02*
X7Y1106D01*
X1724Y1106D02*
X1731Y1106D01*
X0Y1105D02*
X7Y1105D01*
X1724Y1105D02*
X1731Y1105D01*
X0Y1104D02*
X7Y1104D01*
X1724Y1104D02*
X1731Y1104D01*
X0Y1103D02*
X7Y1103D01*
X1724Y1103D02*
X1731Y1103D01*
X0Y1102D02*
X7Y1102D01*
X1724Y1102D02*
X1731Y1102D01*
X0Y1101D02*
X7Y1101D01*
X1724Y1101D02*
X1731Y1101D01*
X0Y1100D02*
X7Y1100D01*
X1724Y1100D02*
X1731Y1100D01*
X0Y1099D02*
X7Y1099D01*
X1724Y1099D02*
X1731Y1099D01*
X0Y1098D02*
X7Y1098D01*
X1724Y1098D02*
X1731Y1098D01*
X0Y1097D02*
X7Y1097D01*
X1724Y1097D02*
X1731Y1097D01*
X0Y1096D02*
X7Y1096D01*
X1724Y1096D02*
X1731Y1096D01*
X0Y1095D02*
X7Y1095D01*
X1724Y1095D02*
X1731Y1095D01*
X0Y1094D02*
X7Y1094D01*
X1724Y1094D02*
X1731Y1094D01*
X0Y1093D02*
X7Y1093D01*
X1724Y1093D02*
X1731Y1093D01*
X0Y1092D02*
X7Y1092D01*
X1724Y1092D02*
X1731Y1092D01*
X0Y1091D02*
X7Y1091D01*
X1724Y1091D02*
X1731Y1091D01*
X0Y1090D02*
X7Y1090D01*
X1724Y1090D02*
X1731Y1090D01*
X0Y1089D02*
X7Y1089D01*
X1724Y1089D02*
X1731Y1089D01*
X0Y1088D02*
X7Y1088D01*
X1724Y1088D02*
X1731Y1088D01*
X0Y1087D02*
X7Y1087D01*
X1724Y1087D02*
X1731Y1087D01*
X0Y1086D02*
X7Y1086D01*
X1724Y1086D02*
X1731Y1086D01*
X0Y1085D02*
X7Y1085D01*
X1724Y1085D02*
X1731Y1085D01*
X0Y1084D02*
X7Y1084D01*
X1724Y1084D02*
X1731Y1084D01*
X0Y1083D02*
X7Y1083D01*
X1724Y1083D02*
X1731Y1083D01*
X0Y1082D02*
X7Y1082D01*
X1724Y1082D02*
X1731Y1082D01*
X0Y1081D02*
X7Y1081D01*
X1724Y1081D02*
X1731Y1081D01*
X0Y1080D02*
X7Y1080D01*
X1724Y1080D02*
X1731Y1080D01*
X0Y1079D02*
X7Y1079D01*
X1724Y1079D02*
X1731Y1079D01*
X0Y1078D02*
X7Y1078D01*
X1724Y1078D02*
X1731Y1078D01*
X0Y1077D02*
X7Y1077D01*
X1724Y1077D02*
X1731Y1077D01*
X0Y1076D02*
X7Y1076D01*
X1724Y1076D02*
X1731Y1076D01*
X0Y1075D02*
X7Y1075D01*
X1724Y1075D02*
X1731Y1075D01*
X0Y1074D02*
X7Y1074D01*
X1724Y1074D02*
X1731Y1074D01*
X0Y1073D02*
X7Y1073D01*
X1724Y1073D02*
X1731Y1073D01*
X0Y1072D02*
X7Y1072D01*
X1724Y1072D02*
X1731Y1072D01*
X0Y1071D02*
X7Y1071D01*
X1724Y1071D02*
X1731Y1071D01*
X0Y1070D02*
X7Y1070D01*
X1724Y1070D02*
X1731Y1070D01*
X0Y1069D02*
X7Y1069D01*
X1724Y1069D02*
X1731Y1069D01*
X0Y1068D02*
X7Y1068D01*
X1724Y1068D02*
X1731Y1068D01*
X0Y1067D02*
X7Y1067D01*
X1724Y1067D02*
X1731Y1067D01*
X0Y1066D02*
X7Y1066D01*
X1724Y1066D02*
X1731Y1066D01*
X0Y1065D02*
X7Y1065D01*
X1724Y1065D02*
X1731Y1065D01*
X0Y1064D02*
X7Y1064D01*
X1724Y1064D02*
X1731Y1064D01*
X0Y1063D02*
X7Y1063D01*
X1724Y1063D02*
X1731Y1063D01*
X0Y1062D02*
X7Y1062D01*
X1724Y1062D02*
X1731Y1062D01*
X0Y1061D02*
X7Y1061D01*
X1724Y1061D02*
X1731Y1061D01*
X0Y1060D02*
X7Y1060D01*
X1724Y1060D02*
X1731Y1060D01*
X0Y1059D02*
X7Y1059D01*
X1724Y1059D02*
X1731Y1059D01*
X0Y1058D02*
X7Y1058D01*
X1724Y1058D02*
X1731Y1058D01*
X0Y1057D02*
X7Y1057D01*
X1724Y1057D02*
X1731Y1057D01*
X0Y1056D02*
X7Y1056D01*
X1724Y1056D02*
X1731Y1056D01*
X0Y1055D02*
X7Y1055D01*
X1724Y1055D02*
X1731Y1055D01*
X0Y1054D02*
X7Y1054D01*
X1724Y1054D02*
X1731Y1054D01*
X0Y1053D02*
X7Y1053D01*
X1724Y1053D02*
X1731Y1053D01*
X0Y1052D02*
X7Y1052D01*
X1724Y1052D02*
X1731Y1052D01*
X0Y1051D02*
X7Y1051D01*
X1724Y1051D02*
X1731Y1051D01*
X0Y1050D02*
X7Y1050D01*
X1724Y1050D02*
X1731Y1050D01*
X0Y1049D02*
X7Y1049D01*
X1724Y1049D02*
X1731Y1049D01*
X0Y1048D02*
X7Y1048D01*
X1724Y1048D02*
X1731Y1048D01*
X0Y1047D02*
X7Y1047D01*
X1724Y1047D02*
X1731Y1047D01*
X0Y1046D02*
X7Y1046D01*
X1724Y1046D02*
X1731Y1046D01*
X0Y1045D02*
X7Y1045D01*
X1724Y1045D02*
X1731Y1045D01*
X0Y1044D02*
X7Y1044D01*
X1724Y1044D02*
X1731Y1044D01*
X0Y1043D02*
X7Y1043D01*
X1724Y1043D02*
X1731Y1043D01*
X0Y1042D02*
X7Y1042D01*
X1724Y1042D02*
X1731Y1042D01*
X0Y1041D02*
X7Y1041D01*
X1724Y1041D02*
X1731Y1041D01*
X0Y1040D02*
X7Y1040D01*
X1724Y1040D02*
X1731Y1040D01*
X0Y1039D02*
X7Y1039D01*
X1724Y1039D02*
X1731Y1039D01*
X0Y1038D02*
X7Y1038D01*
X1724Y1038D02*
X1731Y1038D01*
X0Y1037D02*
X7Y1037D01*
X1724Y1037D02*
X1731Y1037D01*
X0Y1036D02*
X7Y1036D01*
X1724Y1036D02*
X1731Y1036D01*
X0Y1035D02*
X7Y1035D01*
X1724Y1035D02*
X1731Y1035D01*
X0Y1034D02*
X7Y1034D01*
X1724Y1034D02*
X1731Y1034D01*
X0Y1033D02*
X7Y1033D01*
X1724Y1033D02*
X1731Y1033D01*
X0Y1032D02*
X7Y1032D01*
X1724Y1032D02*
X1731Y1032D01*
X0Y1031D02*
X7Y1031D01*
X1724Y1031D02*
X1731Y1031D01*
X0Y1030D02*
X7Y1030D01*
X1724Y1030D02*
X1731Y1030D01*
X0Y1029D02*
X7Y1029D01*
X1724Y1029D02*
X1731Y1029D01*
X0Y1028D02*
X7Y1028D01*
X1724Y1028D02*
X1731Y1028D01*
X0Y1027D02*
X7Y1027D01*
X1724Y1027D02*
X1731Y1027D01*
X0Y1026D02*
X7Y1026D01*
X1724Y1026D02*
X1731Y1026D01*
X0Y1025D02*
X7Y1025D01*
X1724Y1025D02*
X1731Y1025D01*
X0Y1024D02*
X7Y1024D01*
X1724Y1024D02*
X1731Y1024D01*
X0Y1023D02*
X7Y1023D01*
X1724Y1023D02*
X1731Y1023D01*
X0Y1022D02*
X7Y1022D01*
X1724Y1022D02*
X1731Y1022D01*
X0Y1021D02*
X7Y1021D01*
X1724Y1021D02*
X1731Y1021D01*
X0Y1020D02*
X7Y1020D01*
X1724Y1020D02*
X1731Y1020D01*
X0Y1019D02*
X7Y1019D01*
X1724Y1019D02*
X1731Y1019D01*
X0Y1018D02*
X7Y1018D01*
X1724Y1018D02*
X1731Y1018D01*
X0Y1017D02*
X7Y1017D01*
X1724Y1017D02*
X1731Y1017D01*
X0Y1016D02*
X7Y1016D01*
X1724Y1016D02*
X1731Y1016D01*
X0Y1015D02*
X7Y1015D01*
X1724Y1015D02*
X1731Y1015D01*
X0Y1014D02*
X7Y1014D01*
X1724Y1014D02*
X1731Y1014D01*
X0Y1013D02*
X7Y1013D01*
X1724Y1013D02*
X1731Y1013D01*
X0Y1012D02*
X7Y1012D01*
X1724Y1012D02*
X1731Y1012D01*
X0Y1011D02*
X7Y1011D01*
X1724Y1011D02*
X1731Y1011D01*
X0Y1010D02*
X7Y1010D01*
X1724Y1010D02*
X1731Y1010D01*
X0Y1009D02*
X7Y1009D01*
X1724Y1009D02*
X1731Y1009D01*
X0Y1008D02*
X7Y1008D01*
X1724Y1008D02*
X1731Y1008D01*
X0Y1007D02*
X7Y1007D01*
X1724Y1007D02*
X1731Y1007D01*
X0Y1006D02*
X7Y1006D01*
X1724Y1006D02*
X1731Y1006D01*
X0Y1005D02*
X7Y1005D01*
X1724Y1005D02*
X1731Y1005D01*
X0Y1004D02*
X7Y1004D01*
X1724Y1004D02*
X1731Y1004D01*
X0Y1003D02*
X7Y1003D01*
X1724Y1003D02*
X1731Y1003D01*
X0Y1002D02*
X7Y1002D01*
X1724Y1002D02*
X1731Y1002D01*
X0Y1001D02*
X7Y1001D01*
X1724Y1001D02*
X1731Y1001D01*
X0Y1000D02*
X7Y1000D01*
X1724Y1000D02*
X1731Y1000D01*
X0Y999D02*
X7Y999D01*
X1724Y999D02*
X1731Y999D01*
X0Y998D02*
X7Y998D01*
X1724Y998D02*
X1731Y998D01*
X0Y997D02*
X7Y997D01*
X1724Y997D02*
X1731Y997D01*
X0Y996D02*
X7Y996D01*
X1724Y996D02*
X1731Y996D01*
X0Y995D02*
X7Y995D01*
X1724Y995D02*
X1731Y995D01*
X0Y994D02*
X7Y994D01*
X1724Y994D02*
X1731Y994D01*
X0Y993D02*
X7Y993D01*
X1724Y993D02*
X1731Y993D01*
X0Y992D02*
X7Y992D01*
X1724Y992D02*
X1731Y992D01*
X0Y991D02*
X7Y991D01*
X1724Y991D02*
X1731Y991D01*
X0Y990D02*
X7Y990D01*
X1724Y990D02*
X1731Y990D01*
X0Y989D02*
X7Y989D01*
X1724Y989D02*
X1731Y989D01*
X0Y988D02*
X7Y988D01*
X1724Y988D02*
X1731Y988D01*
X0Y987D02*
X7Y987D01*
X1724Y987D02*
X1731Y987D01*
X0Y986D02*
X7Y986D01*
X1724Y986D02*
X1731Y986D01*
X0Y985D02*
X7Y985D01*
X1724Y985D02*
X1731Y985D01*
X0Y984D02*
X7Y984D01*
X1724Y984D02*
X1731Y984D01*
X0Y983D02*
X7Y983D01*
X1724Y983D02*
X1731Y983D01*
X0Y982D02*
X7Y982D01*
X1724Y982D02*
X1731Y982D01*
X0Y981D02*
X7Y981D01*
X1724Y981D02*
X1731Y981D01*
X0Y980D02*
X7Y980D01*
X1724Y980D02*
X1731Y980D01*
X0Y979D02*
X7Y979D01*
X1724Y979D02*
X1731Y979D01*
X0Y978D02*
X7Y978D01*
X1724Y978D02*
X1731Y978D01*
X0Y977D02*
X7Y977D01*
X1724Y977D02*
X1731Y977D01*
X0Y976D02*
X7Y976D01*
X1724Y976D02*
X1731Y976D01*
X0Y975D02*
X7Y975D01*
X1724Y975D02*
X1731Y975D01*
X0Y974D02*
X7Y974D01*
X1724Y974D02*
X1731Y974D01*
X0Y973D02*
X7Y973D01*
X1724Y973D02*
X1731Y973D01*
X0Y972D02*
X7Y972D01*
X1724Y972D02*
X1731Y972D01*
X0Y971D02*
X7Y971D01*
X1724Y971D02*
X1731Y971D01*
X0Y970D02*
X7Y970D01*
X1724Y970D02*
X1731Y970D01*
X0Y969D02*
X7Y969D01*
X1724Y969D02*
X1731Y969D01*
X0Y968D02*
X7Y968D01*
X1724Y968D02*
X1731Y968D01*
X0Y967D02*
X7Y967D01*
X1724Y967D02*
X1731Y967D01*
X0Y966D02*
X7Y966D01*
X1724Y966D02*
X1731Y966D01*
X0Y965D02*
X7Y965D01*
X1724Y965D02*
X1731Y965D01*
X0Y964D02*
X7Y964D01*
X1724Y964D02*
X1731Y964D01*
X0Y963D02*
X7Y963D01*
X1724Y963D02*
X1731Y963D01*
X0Y962D02*
X7Y962D01*
X1724Y962D02*
X1731Y962D01*
X0Y961D02*
X7Y961D01*
X1724Y961D02*
X1731Y961D01*
X0Y960D02*
X7Y960D01*
X1724Y960D02*
X1731Y960D01*
X0Y959D02*
X7Y959D01*
X1724Y959D02*
X1731Y959D01*
X0Y958D02*
X7Y958D01*
X1724Y958D02*
X1731Y958D01*
X0Y957D02*
X7Y957D01*
X1724Y957D02*
X1731Y957D01*
X0Y956D02*
X7Y956D01*
X1724Y956D02*
X1731Y956D01*
X0Y955D02*
X7Y955D01*
X1724Y955D02*
X1731Y955D01*
X0Y954D02*
X7Y954D01*
X1724Y954D02*
X1731Y954D01*
X0Y953D02*
X7Y953D01*
X1724Y953D02*
X1731Y953D01*
X0Y952D02*
X7Y952D01*
X1724Y952D02*
X1731Y952D01*
X0Y951D02*
X7Y951D01*
X1724Y951D02*
X1731Y951D01*
X0Y950D02*
X7Y950D01*
X1724Y950D02*
X1731Y950D01*
X0Y949D02*
X7Y949D01*
X1724Y949D02*
X1731Y949D01*
X0Y948D02*
X7Y948D01*
X1724Y948D02*
X1731Y948D01*
X0Y947D02*
X7Y947D01*
X1724Y947D02*
X1731Y947D01*
X0Y946D02*
X7Y946D01*
X1724Y946D02*
X1731Y946D01*
X0Y945D02*
X7Y945D01*
X1724Y945D02*
X1731Y945D01*
X0Y944D02*
X7Y944D01*
X1724Y944D02*
X1731Y944D01*
X0Y943D02*
X7Y943D01*
X1724Y943D02*
X1731Y943D01*
X0Y942D02*
X7Y942D01*
X1724Y942D02*
X1731Y942D01*
X0Y941D02*
X7Y941D01*
X1724Y941D02*
X1731Y941D01*
X0Y940D02*
X7Y940D01*
X1724Y940D02*
X1731Y940D01*
X0Y939D02*
X7Y939D01*
X1724Y939D02*
X1731Y939D01*
X0Y938D02*
X7Y938D01*
X1724Y938D02*
X1731Y938D01*
X0Y937D02*
X7Y937D01*
X1724Y937D02*
X1731Y937D01*
X0Y936D02*
X7Y936D01*
X1724Y936D02*
X1731Y936D01*
X0Y935D02*
X7Y935D01*
X1724Y935D02*
X1731Y935D01*
X0Y934D02*
X7Y934D01*
X1724Y934D02*
X1731Y934D01*
X0Y933D02*
X7Y933D01*
X1724Y933D02*
X1731Y933D01*
X0Y932D02*
X7Y932D01*
X1724Y932D02*
X1731Y932D01*
X0Y931D02*
X7Y931D01*
X1724Y931D02*
X1731Y931D01*
X0Y930D02*
X7Y930D01*
X1724Y930D02*
X1731Y930D01*
X0Y929D02*
X7Y929D01*
X1724Y929D02*
X1731Y929D01*
X0Y928D02*
X7Y928D01*
X1724Y928D02*
X1731Y928D01*
X0Y927D02*
X7Y927D01*
X1724Y927D02*
X1731Y927D01*
X0Y926D02*
X7Y926D01*
X1724Y926D02*
X1731Y926D01*
X0Y925D02*
X7Y925D01*
X1724Y925D02*
X1731Y925D01*
X0Y924D02*
X7Y924D01*
X1724Y924D02*
X1731Y924D01*
X0Y923D02*
X7Y923D01*
X1724Y923D02*
X1731Y923D01*
X0Y922D02*
X7Y922D01*
X1724Y922D02*
X1731Y922D01*
X0Y921D02*
X7Y921D01*
X1724Y921D02*
X1731Y921D01*
X0Y920D02*
X7Y920D01*
X1724Y920D02*
X1731Y920D01*
X0Y919D02*
X7Y919D01*
X1724Y919D02*
X1731Y919D01*
X0Y918D02*
X7Y918D01*
X1724Y918D02*
X1731Y918D01*
X0Y917D02*
X7Y917D01*
X1724Y917D02*
X1731Y917D01*
X0Y916D02*
X7Y916D01*
X1724Y916D02*
X1731Y916D01*
X0Y915D02*
X7Y915D01*
X1724Y915D02*
X1731Y915D01*
X0Y914D02*
X7Y914D01*
X1724Y914D02*
X1731Y914D01*
X0Y913D02*
X7Y913D01*
X1724Y913D02*
X1731Y913D01*
X0Y912D02*
X7Y912D01*
X1724Y912D02*
X1731Y912D01*
X0Y911D02*
X7Y911D01*
X1724Y911D02*
X1731Y911D01*
X0Y910D02*
X7Y910D01*
X1724Y910D02*
X1731Y910D01*
X0Y909D02*
X7Y909D01*
X1724Y909D02*
X1731Y909D01*
X0Y908D02*
X7Y908D01*
X1724Y908D02*
X1731Y908D01*
X0Y907D02*
X7Y907D01*
X1724Y907D02*
X1731Y907D01*
X0Y906D02*
X7Y906D01*
X1724Y906D02*
X1731Y906D01*
X0Y905D02*
X7Y905D01*
X1724Y905D02*
X1731Y905D01*
X0Y904D02*
X7Y904D01*
X1724Y904D02*
X1731Y904D01*
X0Y903D02*
X7Y903D01*
X1724Y903D02*
X1731Y903D01*
X0Y902D02*
X7Y902D01*
X1724Y902D02*
X1731Y902D01*
X0Y901D02*
X7Y901D01*
X1724Y901D02*
X1731Y901D01*
X0Y900D02*
X7Y900D01*
X1724Y900D02*
X1731Y900D01*
X0Y899D02*
X7Y899D01*
X1724Y899D02*
X1731Y899D01*
X0Y898D02*
X7Y898D01*
X1724Y898D02*
X1731Y898D01*
X0Y897D02*
X7Y897D01*
X1724Y897D02*
X1731Y897D01*
X0Y896D02*
X7Y896D01*
X1724Y896D02*
X1731Y896D01*
X0Y895D02*
X7Y895D01*
X1724Y895D02*
X1731Y895D01*
X0Y894D02*
X7Y894D01*
X1724Y894D02*
X1731Y894D01*
X0Y893D02*
X7Y893D01*
X1724Y893D02*
X1731Y893D01*
X0Y892D02*
X7Y892D01*
X1724Y892D02*
X1731Y892D01*
X0Y891D02*
X7Y891D01*
X1724Y891D02*
X1731Y891D01*
X0Y890D02*
X7Y890D01*
X1724Y890D02*
X1731Y890D01*
X0Y889D02*
X7Y889D01*
X1724Y889D02*
X1731Y889D01*
X0Y888D02*
X7Y888D01*
X1724Y888D02*
X1731Y888D01*
X0Y887D02*
X7Y887D01*
X1724Y887D02*
X1731Y887D01*
X0Y886D02*
X7Y886D01*
X1724Y886D02*
X1731Y886D01*
X0Y885D02*
X7Y885D01*
X1724Y885D02*
X1731Y885D01*
X0Y884D02*
X7Y884D01*
X1724Y884D02*
X1731Y884D01*
X0Y883D02*
X7Y883D01*
X1724Y883D02*
X1731Y883D01*
X0Y882D02*
X7Y882D01*
X1724Y882D02*
X1731Y882D01*
X0Y881D02*
X7Y881D01*
X1724Y881D02*
X1731Y881D01*
X0Y880D02*
X7Y880D01*
X1724Y880D02*
X1731Y880D01*
X0Y879D02*
X7Y879D01*
X1724Y879D02*
X1731Y879D01*
X0Y878D02*
X7Y878D01*
X1724Y878D02*
X1731Y878D01*
X0Y877D02*
X7Y877D01*
X1724Y877D02*
X1731Y877D01*
X0Y876D02*
X7Y876D01*
X1724Y876D02*
X1731Y876D01*
X0Y875D02*
X7Y875D01*
X1724Y875D02*
X1731Y875D01*
X0Y874D02*
X7Y874D01*
X1724Y874D02*
X1731Y874D01*
X0Y873D02*
X7Y873D01*
X1724Y873D02*
X1731Y873D01*
X0Y872D02*
X7Y872D01*
X1724Y872D02*
X1731Y872D01*
X0Y871D02*
X7Y871D01*
X1724Y871D02*
X1731Y871D01*
X0Y870D02*
X7Y870D01*
X1724Y870D02*
X1731Y870D01*
X0Y869D02*
X7Y869D01*
X1724Y869D02*
X1731Y869D01*
X0Y868D02*
X7Y868D01*
X1724Y868D02*
X1731Y868D01*
X0Y867D02*
X7Y867D01*
X1724Y867D02*
X1731Y867D01*
X0Y866D02*
X7Y866D01*
X1724Y866D02*
X1731Y866D01*
X0Y865D02*
X7Y865D01*
X1724Y865D02*
X1731Y865D01*
X0Y864D02*
X7Y864D01*
X1724Y864D02*
X1731Y864D01*
X0Y863D02*
X7Y863D01*
X1724Y863D02*
X1731Y863D01*
X0Y862D02*
X7Y862D01*
X1724Y862D02*
X1731Y862D01*
X0Y861D02*
X7Y861D01*
X1724Y861D02*
X1731Y861D01*
X0Y860D02*
X7Y860D01*
X1724Y860D02*
X1731Y860D01*
X0Y859D02*
X7Y859D01*
X1724Y859D02*
X1731Y859D01*
X0Y858D02*
X7Y858D01*
X1724Y858D02*
X1731Y858D01*
X0Y857D02*
X7Y857D01*
X1724Y857D02*
X1731Y857D01*
X0Y856D02*
X7Y856D01*
X1724Y856D02*
X1731Y856D01*
X0Y855D02*
X7Y855D01*
X1724Y855D02*
X1731Y855D01*
X0Y854D02*
X7Y854D01*
X1724Y854D02*
X1731Y854D01*
X0Y853D02*
X7Y853D01*
X1724Y853D02*
X1731Y853D01*
X0Y852D02*
X7Y852D01*
X1724Y852D02*
X1731Y852D01*
X0Y851D02*
X7Y851D01*
X1724Y851D02*
X1731Y851D01*
X0Y850D02*
X7Y850D01*
X1724Y850D02*
X1731Y850D01*
X0Y849D02*
X7Y849D01*
X1724Y849D02*
X1731Y849D01*
X0Y848D02*
X7Y848D01*
X1724Y848D02*
X1731Y848D01*
X0Y847D02*
X7Y847D01*
X1724Y847D02*
X1731Y847D01*
X0Y846D02*
X7Y846D01*
X1724Y846D02*
X1731Y846D01*
X0Y845D02*
X7Y845D01*
X1724Y845D02*
X1731Y845D01*
X0Y844D02*
X7Y844D01*
X1724Y844D02*
X1731Y844D01*
X0Y843D02*
X7Y843D01*
X1724Y843D02*
X1731Y843D01*
X0Y842D02*
X7Y842D01*
X1724Y842D02*
X1731Y842D01*
X0Y841D02*
X7Y841D01*
X1724Y841D02*
X1731Y841D01*
X0Y840D02*
X7Y840D01*
X1724Y840D02*
X1731Y840D01*
X0Y839D02*
X7Y839D01*
X1724Y839D02*
X1731Y839D01*
X0Y838D02*
X7Y838D01*
X1724Y838D02*
X1731Y838D01*
X0Y837D02*
X7Y837D01*
X1724Y837D02*
X1731Y837D01*
X0Y836D02*
X7Y836D01*
X1724Y836D02*
X1731Y836D01*
X0Y835D02*
X7Y835D01*
X1724Y835D02*
X1731Y835D01*
X0Y834D02*
X7Y834D01*
X1724Y834D02*
X1731Y834D01*
X0Y833D02*
X7Y833D01*
X1724Y833D02*
X1731Y833D01*
X0Y832D02*
X7Y832D01*
X1724Y832D02*
X1731Y832D01*
X0Y831D02*
X7Y831D01*
X1724Y831D02*
X1731Y831D01*
X0Y830D02*
X7Y830D01*
X1724Y830D02*
X1731Y830D01*
X0Y829D02*
X7Y829D01*
X1724Y829D02*
X1731Y829D01*
X0Y828D02*
X7Y828D01*
X1724Y828D02*
X1731Y828D01*
X0Y827D02*
X7Y827D01*
X1724Y827D02*
X1731Y827D01*
X0Y826D02*
X7Y826D01*
X1724Y826D02*
X1731Y826D01*
X0Y825D02*
X7Y825D01*
X1724Y825D02*
X1731Y825D01*
X0Y824D02*
X7Y824D01*
X1724Y824D02*
X1731Y824D01*
X0Y823D02*
X7Y823D01*
X1724Y823D02*
X1731Y823D01*
X0Y822D02*
X7Y822D01*
X1724Y822D02*
X1731Y822D01*
X0Y821D02*
X7Y821D01*
X1724Y821D02*
X1731Y821D01*
X0Y820D02*
X7Y820D01*
X1724Y820D02*
X1731Y820D01*
X0Y819D02*
X7Y819D01*
X1724Y819D02*
X1731Y819D01*
X0Y818D02*
X7Y818D01*
X1724Y818D02*
X1731Y818D01*
X0Y817D02*
X7Y817D01*
X1724Y817D02*
X1731Y817D01*
X0Y816D02*
X7Y816D01*
X1724Y816D02*
X1731Y816D01*
X0Y815D02*
X7Y815D01*
X1724Y815D02*
X1731Y815D01*
X0Y814D02*
X7Y814D01*
X1724Y814D02*
X1731Y814D01*
X0Y813D02*
X7Y813D01*
X1724Y813D02*
X1731Y813D01*
X0Y812D02*
X7Y812D01*
X1724Y812D02*
X1731Y812D01*
X0Y811D02*
X7Y811D01*
X1724Y811D02*
X1731Y811D01*
X0Y810D02*
X7Y810D01*
X1724Y810D02*
X1731Y810D01*
X0Y809D02*
X7Y809D01*
X1724Y809D02*
X1731Y809D01*
X0Y808D02*
X7Y808D01*
X1724Y808D02*
X1731Y808D01*
X0Y807D02*
X7Y807D01*
X1724Y807D02*
X1731Y807D01*
X0Y806D02*
X7Y806D01*
X1724Y806D02*
X1731Y806D01*
X0Y805D02*
X7Y805D01*
X1724Y805D02*
X1731Y805D01*
X0Y804D02*
X7Y804D01*
X1724Y804D02*
X1731Y804D01*
X0Y803D02*
X7Y803D01*
X1724Y803D02*
X1731Y803D01*
X0Y802D02*
X7Y802D01*
X1724Y802D02*
X1731Y802D01*
X0Y801D02*
X7Y801D01*
X1724Y801D02*
X1731Y801D01*
X0Y800D02*
X7Y800D01*
X1724Y800D02*
X1731Y800D01*
X0Y799D02*
X7Y799D01*
X1724Y799D02*
X1731Y799D01*
X0Y798D02*
X7Y798D01*
X1724Y798D02*
X1731Y798D01*
X0Y797D02*
X7Y797D01*
X1724Y797D02*
X1731Y797D01*
X0Y796D02*
X7Y796D01*
X1724Y796D02*
X1731Y796D01*
X0Y795D02*
X7Y795D01*
X1724Y795D02*
X1731Y795D01*
X0Y794D02*
X7Y794D01*
X1724Y794D02*
X1731Y794D01*
X0Y793D02*
X7Y793D01*
X1724Y793D02*
X1731Y793D01*
X0Y792D02*
X7Y792D01*
X1724Y792D02*
X1731Y792D01*
X0Y791D02*
X7Y791D01*
X1724Y791D02*
X1731Y791D01*
X0Y790D02*
X7Y790D01*
X1724Y790D02*
X1731Y790D01*
X0Y789D02*
X7Y789D01*
X1724Y789D02*
X1731Y789D01*
X0Y788D02*
X7Y788D01*
X1724Y788D02*
X1731Y788D01*
X0Y787D02*
X7Y787D01*
X1724Y787D02*
X1731Y787D01*
X0Y786D02*
X7Y786D01*
X1724Y786D02*
X1731Y786D01*
X0Y785D02*
X7Y785D01*
X1724Y785D02*
X1731Y785D01*
X0Y784D02*
X7Y784D01*
X1724Y784D02*
X1731Y784D01*
X0Y783D02*
X7Y783D01*
X1724Y783D02*
X1731Y783D01*
X0Y782D02*
X7Y782D01*
X1724Y782D02*
X1731Y782D01*
X0Y781D02*
X7Y781D01*
X1724Y781D02*
X1731Y781D01*
X0Y780D02*
X7Y780D01*
X1724Y780D02*
X1731Y780D01*
X0Y779D02*
X7Y779D01*
X1724Y779D02*
X1731Y779D01*
X0Y778D02*
X7Y778D01*
X1724Y778D02*
X1731Y778D01*
X0Y777D02*
X7Y777D01*
X1724Y777D02*
X1731Y777D01*
X0Y776D02*
X7Y776D01*
X1724Y776D02*
X1731Y776D01*
X0Y775D02*
X7Y775D01*
X1724Y775D02*
X1731Y775D01*
X0Y774D02*
X7Y774D01*
X1724Y774D02*
X1731Y774D01*
X0Y773D02*
X7Y773D01*
X1724Y773D02*
X1731Y773D01*
X0Y772D02*
X7Y772D01*
X1724Y772D02*
X1731Y772D01*
X0Y771D02*
X7Y771D01*
X1724Y771D02*
X1731Y771D01*
X0Y770D02*
X7Y770D01*
X1724Y770D02*
X1731Y770D01*
X0Y769D02*
X7Y769D01*
X1724Y769D02*
X1731Y769D01*
X0Y768D02*
X7Y768D01*
X1724Y768D02*
X1731Y768D01*
X0Y767D02*
X7Y767D01*
X1724Y767D02*
X1731Y767D01*
X0Y766D02*
X7Y766D01*
X1724Y766D02*
X1731Y766D01*
X0Y765D02*
X7Y765D01*
X1724Y765D02*
X1731Y765D01*
X0Y764D02*
X7Y764D01*
X1724Y764D02*
X1731Y764D01*
X0Y763D02*
X7Y763D01*
X1724Y763D02*
X1731Y763D01*
X0Y762D02*
X7Y762D01*
X1724Y762D02*
X1731Y762D01*
X0Y761D02*
X7Y761D01*
X1724Y761D02*
X1731Y761D01*
X0Y760D02*
X7Y760D01*
X1724Y760D02*
X1731Y760D01*
X0Y759D02*
X7Y759D01*
X1724Y759D02*
X1731Y759D01*
X0Y758D02*
X7Y758D01*
X1724Y758D02*
X1731Y758D01*
X0Y757D02*
X7Y757D01*
X1724Y757D02*
X1731Y757D01*
X0Y756D02*
X7Y756D01*
X1724Y756D02*
X1731Y756D01*
X0Y755D02*
X7Y755D01*
X1724Y755D02*
X1731Y755D01*
X0Y754D02*
X7Y754D01*
X1724Y754D02*
X1731Y754D01*
X0Y753D02*
X7Y753D01*
X1724Y753D02*
X1731Y753D01*
X0Y752D02*
X7Y752D01*
X1724Y752D02*
X1731Y752D01*
X0Y751D02*
X7Y751D01*
X1724Y751D02*
X1731Y751D01*
X0Y750D02*
X7Y750D01*
X1724Y750D02*
X1731Y750D01*
X0Y749D02*
X7Y749D01*
X1724Y749D02*
X1731Y749D01*
X0Y748D02*
X7Y748D01*
X1724Y748D02*
X1731Y748D01*
X0Y747D02*
X7Y747D01*
X1724Y747D02*
X1731Y747D01*
X0Y746D02*
X7Y746D01*
X1724Y746D02*
X1731Y746D01*
X0Y745D02*
X7Y745D01*
X1724Y745D02*
X1731Y745D01*
X0Y744D02*
X7Y744D01*
X1724Y744D02*
X1731Y744D01*
X0Y743D02*
X7Y743D01*
X1724Y743D02*
X1731Y743D01*
X0Y742D02*
X7Y742D01*
X1724Y742D02*
X1731Y742D01*
X0Y741D02*
X7Y741D01*
X1724Y741D02*
X1731Y741D01*
X0Y740D02*
X7Y740D01*
X1724Y740D02*
X1731Y740D01*
X0Y739D02*
X7Y739D01*
X1724Y739D02*
X1731Y739D01*
X0Y738D02*
X7Y738D01*
X1724Y738D02*
X1731Y738D01*
X0Y737D02*
X7Y737D01*
X1724Y737D02*
X1731Y737D01*
X0Y736D02*
X7Y736D01*
X1724Y736D02*
X1731Y736D01*
X0Y735D02*
X7Y735D01*
X1724Y735D02*
X1731Y735D01*
X0Y734D02*
X7Y734D01*
X1724Y734D02*
X1731Y734D01*
X0Y733D02*
X7Y733D01*
X1724Y733D02*
X1731Y733D01*
X0Y732D02*
X7Y732D01*
X1724Y732D02*
X1731Y732D01*
X0Y731D02*
X7Y731D01*
X1724Y731D02*
X1731Y731D01*
X0Y730D02*
X7Y730D01*
X1724Y730D02*
X1731Y730D01*
X0Y729D02*
X7Y729D01*
X1724Y729D02*
X1731Y729D01*
X0Y728D02*
X7Y728D01*
X1724Y728D02*
X1731Y728D01*
X0Y727D02*
X7Y727D01*
X1724Y727D02*
X1731Y727D01*
X0Y726D02*
X7Y726D01*
X1724Y726D02*
X1731Y726D01*
X0Y725D02*
X7Y725D01*
X1724Y725D02*
X1731Y725D01*
X0Y724D02*
X7Y724D01*
X1724Y724D02*
X1731Y724D01*
X0Y723D02*
X7Y723D01*
X1724Y723D02*
X1731Y723D01*
X0Y722D02*
X7Y722D01*
X1724Y722D02*
X1731Y722D01*
X0Y721D02*
X7Y721D01*
X1724Y721D02*
X1731Y721D01*
X0Y720D02*
X7Y720D01*
X1724Y720D02*
X1731Y720D01*
X0Y719D02*
X7Y719D01*
X1724Y719D02*
X1731Y719D01*
X0Y718D02*
X7Y718D01*
X1724Y718D02*
X1731Y718D01*
X0Y717D02*
X7Y717D01*
X1724Y717D02*
X1731Y717D01*
X0Y716D02*
X7Y716D01*
X1724Y716D02*
X1731Y716D01*
X0Y715D02*
X7Y715D01*
X1724Y715D02*
X1731Y715D01*
X0Y714D02*
X7Y714D01*
X1724Y714D02*
X1731Y714D01*
X0Y713D02*
X7Y713D01*
X1724Y713D02*
X1731Y713D01*
X0Y712D02*
X7Y712D01*
X1724Y712D02*
X1731Y712D01*
X0Y711D02*
X7Y711D01*
X1724Y711D02*
X1731Y711D01*
X0Y710D02*
X7Y710D01*
X1724Y710D02*
X1731Y710D01*
X0Y709D02*
X7Y709D01*
X1724Y709D02*
X1731Y709D01*
X0Y708D02*
X7Y708D01*
X1724Y708D02*
X1731Y708D01*
X0Y707D02*
X7Y707D01*
X1724Y707D02*
X1731Y707D01*
X0Y706D02*
X7Y706D01*
X1724Y706D02*
X1731Y706D01*
X0Y705D02*
X7Y705D01*
X1724Y705D02*
X1731Y705D01*
X0Y704D02*
X7Y704D01*
X1724Y704D02*
X1731Y704D01*
X0Y703D02*
X7Y703D01*
X1724Y703D02*
X1731Y703D01*
X0Y702D02*
X7Y702D01*
X1724Y702D02*
X1731Y702D01*
X0Y701D02*
X7Y701D01*
X1724Y701D02*
X1731Y701D01*
X0Y700D02*
X7Y700D01*
X1724Y700D02*
X1731Y700D01*
X0Y699D02*
X7Y699D01*
X1724Y699D02*
X1731Y699D01*
X0Y698D02*
X7Y698D01*
X1724Y698D02*
X1731Y698D01*
X0Y697D02*
X7Y697D01*
X1724Y697D02*
X1731Y697D01*
X0Y696D02*
X7Y696D01*
X1724Y696D02*
X1731Y696D01*
X0Y695D02*
X7Y695D01*
X1724Y695D02*
X1731Y695D01*
X0Y694D02*
X7Y694D01*
X1724Y694D02*
X1731Y694D01*
X0Y693D02*
X7Y693D01*
X1724Y693D02*
X1731Y693D01*
X0Y692D02*
X7Y692D01*
X1724Y692D02*
X1731Y692D01*
X0Y691D02*
X7Y691D01*
X1724Y691D02*
X1731Y691D01*
X0Y690D02*
X7Y690D01*
X1724Y690D02*
X1731Y690D01*
X0Y689D02*
X7Y689D01*
X1724Y689D02*
X1731Y689D01*
X0Y688D02*
X7Y688D01*
X1724Y688D02*
X1731Y688D01*
X0Y687D02*
X7Y687D01*
X1724Y687D02*
X1731Y687D01*
X0Y686D02*
X7Y686D01*
X1724Y686D02*
X1731Y686D01*
X0Y685D02*
X7Y685D01*
X1724Y685D02*
X1731Y685D01*
X0Y684D02*
X7Y684D01*
X1724Y684D02*
X1731Y684D01*
X0Y683D02*
X7Y683D01*
X1724Y683D02*
X1731Y683D01*
X0Y682D02*
X7Y682D01*
X1724Y682D02*
X1731Y682D01*
X0Y681D02*
X7Y681D01*
X1724Y681D02*
X1731Y681D01*
X0Y680D02*
X7Y680D01*
X1724Y680D02*
X1731Y680D01*
X0Y679D02*
X7Y679D01*
X1724Y679D02*
X1731Y679D01*
X0Y678D02*
X7Y678D01*
X1724Y678D02*
X1731Y678D01*
X0Y677D02*
X7Y677D01*
X1724Y677D02*
X1731Y677D01*
X0Y676D02*
X7Y676D01*
X1724Y676D02*
X1731Y676D01*
X0Y675D02*
X7Y675D01*
X1724Y675D02*
X1731Y675D01*
X0Y674D02*
X7Y674D01*
X1724Y674D02*
X1731Y674D01*
X0Y673D02*
X7Y673D01*
X1724Y673D02*
X1731Y673D01*
X0Y672D02*
X7Y672D01*
X1724Y672D02*
X1731Y672D01*
X0Y671D02*
X7Y671D01*
X1724Y671D02*
X1731Y671D01*
X0Y670D02*
X7Y670D01*
X1724Y670D02*
X1731Y670D01*
X0Y669D02*
X7Y669D01*
X1724Y669D02*
X1731Y669D01*
X0Y668D02*
X7Y668D01*
X1724Y668D02*
X1731Y668D01*
X0Y667D02*
X7Y667D01*
X1724Y667D02*
X1731Y667D01*
X0Y666D02*
X7Y666D01*
X1724Y666D02*
X1731Y666D01*
X0Y665D02*
X7Y665D01*
X1724Y665D02*
X1731Y665D01*
X0Y664D02*
X7Y664D01*
X1724Y664D02*
X1731Y664D01*
X0Y663D02*
X7Y663D01*
X1724Y663D02*
X1731Y663D01*
X0Y662D02*
X7Y662D01*
X1724Y662D02*
X1731Y662D01*
X0Y661D02*
X7Y661D01*
X1724Y661D02*
X1731Y661D01*
X0Y660D02*
X7Y660D01*
X1724Y660D02*
X1731Y660D01*
X0Y659D02*
X7Y659D01*
X1724Y659D02*
X1731Y659D01*
X0Y658D02*
X7Y658D01*
X1724Y658D02*
X1731Y658D01*
X0Y657D02*
X7Y657D01*
X1724Y657D02*
X1731Y657D01*
X0Y656D02*
X7Y656D01*
X1724Y656D02*
X1731Y656D01*
X0Y655D02*
X7Y655D01*
X1724Y655D02*
X1731Y655D01*
X0Y654D02*
X7Y654D01*
X1724Y654D02*
X1731Y654D01*
X0Y653D02*
X7Y653D01*
X1724Y653D02*
X1731Y653D01*
X0Y652D02*
X7Y652D01*
X1724Y652D02*
X1731Y652D01*
X0Y651D02*
X7Y651D01*
X1724Y651D02*
X1731Y651D01*
X0Y650D02*
X7Y650D01*
X1724Y650D02*
X1731Y650D01*
X0Y649D02*
X7Y649D01*
X1724Y649D02*
X1731Y649D01*
X0Y648D02*
X7Y648D01*
X1724Y648D02*
X1731Y648D01*
X0Y647D02*
X7Y647D01*
X1724Y647D02*
X1731Y647D01*
X0Y646D02*
X7Y646D01*
X1724Y646D02*
X1731Y646D01*
X0Y645D02*
X7Y645D01*
X1724Y645D02*
X1731Y645D01*
X0Y644D02*
X7Y644D01*
X1724Y644D02*
X1731Y644D01*
X0Y643D02*
X7Y643D01*
X1724Y643D02*
X1731Y643D01*
X0Y642D02*
X7Y642D01*
X1724Y642D02*
X1731Y642D01*
X0Y641D02*
X7Y641D01*
X1724Y641D02*
X1731Y641D01*
X0Y640D02*
X7Y640D01*
X1724Y640D02*
X1731Y640D01*
X0Y639D02*
X7Y639D01*
X1724Y639D02*
X1731Y639D01*
X0Y638D02*
X7Y638D01*
X1724Y638D02*
X1731Y638D01*
X0Y637D02*
X7Y637D01*
X1724Y637D02*
X1731Y637D01*
X0Y636D02*
X7Y636D01*
X1724Y636D02*
X1731Y636D01*
X0Y635D02*
X7Y635D01*
X1724Y635D02*
X1731Y635D01*
X0Y634D02*
X7Y634D01*
X1724Y634D02*
X1731Y634D01*
X0Y633D02*
X7Y633D01*
X1724Y633D02*
X1731Y633D01*
X0Y632D02*
X7Y632D01*
X1724Y632D02*
X1731Y632D01*
X0Y631D02*
X7Y631D01*
X1724Y631D02*
X1731Y631D01*
X0Y630D02*
X7Y630D01*
X1724Y630D02*
X1731Y630D01*
X0Y629D02*
X7Y629D01*
X1724Y629D02*
X1731Y629D01*
X0Y628D02*
X7Y628D01*
X1724Y628D02*
X1731Y628D01*
X0Y627D02*
X7Y627D01*
X1724Y627D02*
X1731Y627D01*
X0Y626D02*
X7Y626D01*
X1724Y626D02*
X1731Y626D01*
X0Y625D02*
X7Y625D01*
X1724Y625D02*
X1731Y625D01*
X0Y624D02*
X7Y624D01*
X1724Y624D02*
X1731Y624D01*
X0Y623D02*
X7Y623D01*
X1724Y623D02*
X1731Y623D01*
X0Y622D02*
X7Y622D01*
X1724Y622D02*
X1731Y622D01*
X0Y621D02*
X7Y621D01*
X1724Y621D02*
X1731Y621D01*
X0Y620D02*
X7Y620D01*
X1724Y620D02*
X1731Y620D01*
X0Y619D02*
X7Y619D01*
X1724Y619D02*
X1731Y619D01*
X0Y618D02*
X7Y618D01*
X1724Y618D02*
X1731Y618D01*
X0Y617D02*
X7Y617D01*
X1724Y617D02*
X1731Y617D01*
X0Y616D02*
X7Y616D01*
X1724Y616D02*
X1731Y616D01*
X0Y615D02*
X7Y615D01*
X1724Y615D02*
X1731Y615D01*
X0Y614D02*
X7Y614D01*
X1724Y614D02*
X1731Y614D01*
X0Y613D02*
X7Y613D01*
X1724Y613D02*
X1731Y613D01*
X0Y612D02*
X7Y612D01*
X1724Y612D02*
X1731Y612D01*
X0Y611D02*
X7Y611D01*
X1724Y611D02*
X1731Y611D01*
X0Y610D02*
X7Y610D01*
X1724Y610D02*
X1731Y610D01*
X0Y609D02*
X7Y609D01*
X1724Y609D02*
X1731Y609D01*
X0Y608D02*
X7Y608D01*
X1724Y608D02*
X1731Y608D01*
X0Y607D02*
X7Y607D01*
X1724Y607D02*
X1731Y607D01*
X0Y606D02*
X7Y606D01*
X1724Y606D02*
X1731Y606D01*
X0Y605D02*
X7Y605D01*
X1724Y605D02*
X1731Y605D01*
X0Y604D02*
X7Y604D01*
X1724Y604D02*
X1731Y604D01*
X0Y603D02*
X7Y603D01*
X1724Y603D02*
X1731Y603D01*
X0Y602D02*
X7Y602D01*
X1724Y602D02*
X1731Y602D01*
X0Y601D02*
X7Y601D01*
X1724Y601D02*
X1731Y601D01*
X0Y600D02*
X7Y600D01*
X1724Y600D02*
X1731Y600D01*
X0Y599D02*
X7Y599D01*
X1724Y599D02*
X1731Y599D01*
X0Y598D02*
X7Y598D01*
X1724Y598D02*
X1731Y598D01*
X0Y597D02*
X7Y597D01*
X1724Y597D02*
X1731Y597D01*
X0Y596D02*
X7Y596D01*
X1724Y596D02*
X1731Y596D01*
X0Y595D02*
X7Y595D01*
X1724Y595D02*
X1731Y595D01*
X0Y594D02*
X7Y594D01*
X1724Y594D02*
X1731Y594D01*
X0Y593D02*
X7Y593D01*
X1724Y593D02*
X1731Y593D01*
X0Y592D02*
X7Y592D01*
X1724Y592D02*
X1731Y592D01*
X0Y591D02*
X7Y591D01*
X1724Y591D02*
X1731Y591D01*
X0Y590D02*
X7Y590D01*
X1724Y590D02*
X1731Y590D01*
X0Y589D02*
X7Y589D01*
X1724Y589D02*
X1731Y589D01*
X0Y588D02*
X7Y588D01*
X1724Y588D02*
X1731Y588D01*
X0Y587D02*
X7Y587D01*
X1724Y587D02*
X1731Y587D01*
X0Y586D02*
X7Y586D01*
X1724Y586D02*
X1731Y586D01*
X0Y585D02*
X7Y585D01*
X1724Y585D02*
X1731Y585D01*
X0Y584D02*
X7Y584D01*
X1724Y584D02*
X1731Y584D01*
X0Y583D02*
X7Y583D01*
X1724Y583D02*
X1731Y583D01*
X0Y582D02*
X7Y582D01*
X1724Y582D02*
X1731Y582D01*
X0Y581D02*
X7Y581D01*
X1724Y581D02*
X1731Y581D01*
X0Y580D02*
X7Y580D01*
X1724Y580D02*
X1731Y580D01*
X0Y579D02*
X7Y579D01*
X1724Y579D02*
X1731Y579D01*
X0Y578D02*
X7Y578D01*
X1724Y578D02*
X1731Y578D01*
X0Y577D02*
X7Y577D01*
X1724Y577D02*
X1731Y577D01*
X0Y576D02*
X7Y576D01*
X1724Y576D02*
X1731Y576D01*
X0Y575D02*
X7Y575D01*
X1724Y575D02*
X1731Y575D01*
X0Y574D02*
X7Y574D01*
X1724Y574D02*
X1731Y574D01*
X0Y573D02*
X7Y573D01*
X1724Y573D02*
X1731Y573D01*
X0Y572D02*
X7Y572D01*
X1724Y572D02*
X1731Y572D01*
X0Y571D02*
X7Y571D01*
X1724Y571D02*
X1731Y571D01*
X0Y570D02*
X7Y570D01*
X1724Y570D02*
X1731Y570D01*
X0Y569D02*
X7Y569D01*
X1724Y569D02*
X1731Y569D01*
X0Y568D02*
X7Y568D01*
X1724Y568D02*
X1731Y568D01*
X0Y567D02*
X7Y567D01*
X1724Y567D02*
X1731Y567D01*
X0Y566D02*
X7Y566D01*
X1724Y566D02*
X1731Y566D01*
X0Y565D02*
X7Y565D01*
X1724Y565D02*
X1731Y565D01*
X0Y564D02*
X7Y564D01*
X1724Y564D02*
X1731Y564D01*
X0Y563D02*
X7Y563D01*
X1724Y563D02*
X1731Y563D01*
X0Y562D02*
X7Y562D01*
X1724Y562D02*
X1731Y562D01*
X0Y561D02*
X7Y561D01*
X1724Y561D02*
X1731Y561D01*
X0Y560D02*
X7Y560D01*
X1724Y560D02*
X1731Y560D01*
X0Y559D02*
X7Y559D01*
X1724Y559D02*
X1731Y559D01*
X0Y558D02*
X7Y558D01*
X1724Y558D02*
X1731Y558D01*
X0Y557D02*
X7Y557D01*
X1724Y557D02*
X1731Y557D01*
X0Y556D02*
X7Y556D01*
X1724Y556D02*
X1731Y556D01*
X0Y555D02*
X7Y555D01*
X1724Y555D02*
X1731Y555D01*
X0Y554D02*
X7Y554D01*
X1724Y554D02*
X1731Y554D01*
X0Y553D02*
X7Y553D01*
X1724Y553D02*
X1731Y553D01*
X0Y552D02*
X7Y552D01*
X1724Y552D02*
X1731Y552D01*
X0Y551D02*
X7Y551D01*
X1724Y551D02*
X1731Y551D01*
X0Y550D02*
X7Y550D01*
X1724Y550D02*
X1731Y550D01*
X0Y549D02*
X7Y549D01*
X1724Y549D02*
X1731Y549D01*
X0Y548D02*
X7Y548D01*
X1724Y548D02*
X1731Y548D01*
X0Y547D02*
X7Y547D01*
X1724Y547D02*
X1731Y547D01*
X0Y546D02*
X7Y546D01*
X1724Y546D02*
X1731Y546D01*
X0Y545D02*
X7Y545D01*
X1724Y545D02*
X1731Y545D01*
X0Y544D02*
X7Y544D01*
X1724Y544D02*
X1731Y544D01*
X0Y543D02*
X7Y543D01*
X1724Y543D02*
X1731Y543D01*
X0Y542D02*
X7Y542D01*
X1724Y542D02*
X1731Y542D01*
X0Y541D02*
X7Y541D01*
X1724Y541D02*
X1731Y541D01*
X0Y540D02*
X7Y540D01*
X1724Y540D02*
X1731Y540D01*
X0Y539D02*
X7Y539D01*
X1724Y539D02*
X1731Y539D01*
X0Y538D02*
X7Y538D01*
X1724Y538D02*
X1731Y538D01*
X0Y537D02*
X7Y537D01*
X1724Y537D02*
X1731Y537D01*
X0Y536D02*
X7Y536D01*
X1724Y536D02*
X1731Y536D01*
X0Y535D02*
X7Y535D01*
X1724Y535D02*
X1731Y535D01*
X0Y534D02*
X7Y534D01*
X1724Y534D02*
X1731Y534D01*
X0Y533D02*
X7Y533D01*
X1724Y533D02*
X1731Y533D01*
X0Y532D02*
X7Y532D01*
X1724Y532D02*
X1731Y532D01*
X0Y531D02*
X7Y531D01*
X1724Y531D02*
X1731Y531D01*
X0Y530D02*
X7Y530D01*
X1724Y530D02*
X1731Y530D01*
X0Y529D02*
X7Y529D01*
X1724Y529D02*
X1731Y529D01*
X0Y528D02*
X7Y528D01*
X1724Y528D02*
X1731Y528D01*
X0Y527D02*
X7Y527D01*
X1724Y527D02*
X1731Y527D01*
X0Y526D02*
X7Y526D01*
X1724Y526D02*
X1731Y526D01*
X0Y525D02*
X7Y525D01*
X1724Y525D02*
X1731Y525D01*
X0Y524D02*
X7Y524D01*
X1724Y524D02*
X1731Y524D01*
X0Y523D02*
X7Y523D01*
X1724Y523D02*
X1731Y523D01*
X0Y522D02*
X7Y522D01*
X1724Y522D02*
X1731Y522D01*
X0Y521D02*
X7Y521D01*
X1724Y521D02*
X1731Y521D01*
X0Y520D02*
X7Y520D01*
X1724Y520D02*
X1731Y520D01*
X0Y519D02*
X7Y519D01*
X1724Y519D02*
X1731Y519D01*
X0Y518D02*
X7Y518D01*
X1724Y518D02*
X1731Y518D01*
X0Y517D02*
X7Y517D01*
X1724Y517D02*
X1731Y517D01*
X0Y516D02*
X7Y516D01*
X1724Y516D02*
X1731Y516D01*
X0Y515D02*
X7Y515D01*
X1724Y515D02*
X1731Y515D01*
X0Y514D02*
X7Y514D01*
X1724Y514D02*
X1731Y514D01*
X0Y513D02*
X7Y513D01*
X1724Y513D02*
X1731Y513D01*
X0Y512D02*
X7Y512D01*
X1724Y512D02*
X1731Y512D01*
X0Y511D02*
X7Y511D01*
X1724Y511D02*
X1731Y511D01*
X0Y510D02*
X7Y510D01*
X1724Y510D02*
X1731Y510D01*
X0Y509D02*
X7Y509D01*
X1724Y509D02*
X1731Y509D01*
X0Y508D02*
X7Y508D01*
X1724Y508D02*
X1731Y508D01*
X0Y507D02*
X7Y507D01*
X1724Y507D02*
X1731Y507D01*
X0Y506D02*
X7Y506D01*
X1724Y506D02*
X1731Y506D01*
X0Y505D02*
X7Y505D01*
X1724Y505D02*
X1731Y505D01*
X0Y504D02*
X7Y504D01*
X1724Y504D02*
X1731Y504D01*
X0Y503D02*
X7Y503D01*
X1724Y503D02*
X1731Y503D01*
X0Y502D02*
X7Y502D01*
X1724Y502D02*
X1731Y502D01*
X0Y501D02*
X7Y501D01*
X1724Y501D02*
X1731Y501D01*
X0Y500D02*
X7Y500D01*
X1724Y500D02*
X1731Y500D01*
X0Y499D02*
X7Y499D01*
X1724Y499D02*
X1731Y499D01*
X0Y498D02*
X7Y498D01*
X1724Y498D02*
X1731Y498D01*
X0Y497D02*
X7Y497D01*
X1724Y497D02*
X1731Y497D01*
X0Y496D02*
X7Y496D01*
X1724Y496D02*
X1731Y496D01*
X0Y495D02*
X7Y495D01*
X1724Y495D02*
X1731Y495D01*
X0Y494D02*
X7Y494D01*
X1724Y494D02*
X1731Y494D01*
X0Y493D02*
X7Y493D01*
X1724Y493D02*
X1731Y493D01*
X0Y492D02*
X7Y492D01*
X1724Y492D02*
X1731Y492D01*
X0Y491D02*
X7Y491D01*
X1724Y491D02*
X1731Y491D01*
X0Y490D02*
X7Y490D01*
X1724Y490D02*
X1731Y490D01*
X0Y489D02*
X7Y489D01*
X1724Y489D02*
X1731Y489D01*
X0Y488D02*
X7Y488D01*
X1724Y488D02*
X1731Y488D01*
X0Y487D02*
X7Y487D01*
X1724Y487D02*
X1731Y487D01*
X0Y486D02*
X7Y486D01*
X1724Y486D02*
X1731Y486D01*
X0Y485D02*
X7Y485D01*
X1724Y485D02*
X1731Y485D01*
X0Y484D02*
X7Y484D01*
X1724Y484D02*
X1731Y484D01*
X0Y483D02*
X7Y483D01*
X1724Y483D02*
X1731Y483D01*
X0Y482D02*
X7Y482D01*
X1724Y482D02*
X1731Y482D01*
X0Y481D02*
X7Y481D01*
X1724Y481D02*
X1731Y481D01*
X0Y480D02*
X7Y480D01*
X1724Y480D02*
X1731Y480D01*
X0Y479D02*
X7Y479D01*
X1724Y479D02*
X1731Y479D01*
X0Y478D02*
X7Y478D01*
X1724Y478D02*
X1731Y478D01*
X0Y477D02*
X7Y477D01*
X1724Y477D02*
X1731Y477D01*
X0Y476D02*
X7Y476D01*
X1724Y476D02*
X1731Y476D01*
X0Y475D02*
X7Y475D01*
X1724Y475D02*
X1731Y475D01*
X0Y474D02*
X7Y474D01*
X1724Y474D02*
X1731Y474D01*
X0Y473D02*
X7Y473D01*
X1724Y473D02*
X1731Y473D01*
X0Y472D02*
X7Y472D01*
X1724Y472D02*
X1731Y472D01*
X0Y471D02*
X7Y471D01*
X1724Y471D02*
X1731Y471D01*
X0Y470D02*
X7Y470D01*
X1724Y470D02*
X1731Y470D01*
X0Y469D02*
X7Y469D01*
X1724Y469D02*
X1731Y469D01*
X0Y468D02*
X7Y468D01*
X1724Y468D02*
X1731Y468D01*
X0Y467D02*
X7Y467D01*
X1724Y467D02*
X1731Y467D01*
X0Y466D02*
X7Y466D01*
X1724Y466D02*
X1731Y466D01*
X0Y465D02*
X7Y465D01*
X1724Y465D02*
X1731Y465D01*
X0Y464D02*
X7Y464D01*
X1724Y464D02*
X1731Y464D01*
X0Y463D02*
X7Y463D01*
X1724Y463D02*
X1731Y463D01*
X0Y462D02*
X7Y462D01*
X1724Y462D02*
X1731Y462D01*
X0Y461D02*
X7Y461D01*
X1724Y461D02*
X1731Y461D01*
X0Y460D02*
X7Y460D01*
X1724Y460D02*
X1731Y460D01*
X0Y459D02*
X7Y459D01*
X1724Y459D02*
X1731Y459D01*
X0Y458D02*
X7Y458D01*
X1724Y458D02*
X1731Y458D01*
X0Y457D02*
X7Y457D01*
X1724Y457D02*
X1731Y457D01*
X0Y456D02*
X7Y456D01*
X1724Y456D02*
X1731Y456D01*
X0Y455D02*
X7Y455D01*
X1724Y455D02*
X1731Y455D01*
X0Y454D02*
X7Y454D01*
X1724Y454D02*
X1731Y454D01*
X0Y453D02*
X7Y453D01*
X1724Y453D02*
X1731Y453D01*
X0Y452D02*
X7Y452D01*
X1724Y452D02*
X1731Y452D01*
X0Y451D02*
X7Y451D01*
X1724Y451D02*
X1731Y451D01*
X0Y450D02*
X7Y450D01*
X1724Y450D02*
X1731Y450D01*
X0Y449D02*
X7Y449D01*
X1724Y449D02*
X1731Y449D01*
X0Y448D02*
X7Y448D01*
X1724Y448D02*
X1731Y448D01*
X0Y447D02*
X7Y447D01*
X1724Y447D02*
X1731Y447D01*
X0Y446D02*
X7Y446D01*
X1724Y446D02*
X1731Y446D01*
X0Y445D02*
X7Y445D01*
X1724Y445D02*
X1731Y445D01*
X0Y444D02*
X7Y444D01*
X1724Y444D02*
X1731Y444D01*
X0Y443D02*
X7Y443D01*
X1724Y443D02*
X1731Y443D01*
X0Y442D02*
X7Y442D01*
X1724Y442D02*
X1731Y442D01*
X0Y441D02*
X7Y441D01*
X1724Y441D02*
X1731Y441D01*
X0Y440D02*
X7Y440D01*
X1724Y440D02*
X1731Y440D01*
X0Y439D02*
X7Y439D01*
X1724Y439D02*
X1731Y439D01*
X0Y438D02*
X7Y438D01*
X1724Y438D02*
X1731Y438D01*
X0Y437D02*
X7Y437D01*
X1724Y437D02*
X1731Y437D01*
X0Y436D02*
X7Y436D01*
X1724Y436D02*
X1731Y436D01*
X0Y435D02*
X7Y435D01*
X1724Y435D02*
X1731Y435D01*
X0Y434D02*
X7Y434D01*
X1724Y434D02*
X1731Y434D01*
X0Y433D02*
X7Y433D01*
X1724Y433D02*
X1731Y433D01*
X0Y432D02*
X7Y432D01*
X1724Y432D02*
X1731Y432D01*
X0Y431D02*
X7Y431D01*
X1724Y431D02*
X1731Y431D01*
X0Y430D02*
X7Y430D01*
X1724Y430D02*
X1731Y430D01*
X0Y429D02*
X7Y429D01*
X1724Y429D02*
X1731Y429D01*
X0Y428D02*
X7Y428D01*
X1724Y428D02*
X1731Y428D01*
X0Y427D02*
X7Y427D01*
X1724Y427D02*
X1731Y427D01*
X0Y426D02*
X7Y426D01*
X1724Y426D02*
X1731Y426D01*
X0Y425D02*
X7Y425D01*
X1724Y425D02*
X1731Y425D01*
X0Y424D02*
X7Y424D01*
X1724Y424D02*
X1731Y424D01*
X0Y423D02*
X7Y423D01*
X1724Y423D02*
X1731Y423D01*
X0Y422D02*
X7Y422D01*
X1724Y422D02*
X1731Y422D01*
X0Y421D02*
X7Y421D01*
X1724Y421D02*
X1731Y421D01*
X0Y420D02*
X7Y420D01*
X1724Y420D02*
X1731Y420D01*
X0Y419D02*
X7Y419D01*
X1724Y419D02*
X1731Y419D01*
X0Y418D02*
X7Y418D01*
X1724Y418D02*
X1731Y418D01*
X0Y417D02*
X7Y417D01*
X1724Y417D02*
X1731Y417D01*
X0Y416D02*
X7Y416D01*
X1724Y416D02*
X1731Y416D01*
X0Y415D02*
X7Y415D01*
X1724Y415D02*
X1731Y415D01*
X0Y414D02*
X7Y414D01*
X1724Y414D02*
X1731Y414D01*
X0Y413D02*
X7Y413D01*
X1724Y413D02*
X1731Y413D01*
X0Y412D02*
X7Y412D01*
X1724Y412D02*
X1731Y412D01*
X0Y411D02*
X7Y411D01*
X1724Y411D02*
X1731Y411D01*
X0Y410D02*
X7Y410D01*
X1724Y410D02*
X1731Y410D01*
X0Y409D02*
X7Y409D01*
X1724Y409D02*
X1731Y409D01*
X0Y408D02*
X7Y408D01*
X1724Y408D02*
X1731Y408D01*
X0Y407D02*
X7Y407D01*
X1724Y407D02*
X1731Y407D01*
X0Y406D02*
X7Y406D01*
X1724Y406D02*
X1731Y406D01*
X0Y405D02*
X7Y405D01*
X1724Y405D02*
X1731Y405D01*
X0Y404D02*
X7Y404D01*
X1724Y404D02*
X1731Y404D01*
X0Y403D02*
X7Y403D01*
X1724Y403D02*
X1731Y403D01*
X0Y402D02*
X7Y402D01*
X1724Y402D02*
X1731Y402D01*
X0Y401D02*
X7Y401D01*
X1724Y401D02*
X1731Y401D01*
X0Y400D02*
X7Y400D01*
X1724Y400D02*
X1731Y400D01*
X0Y399D02*
X7Y399D01*
X1724Y399D02*
X1731Y399D01*
X0Y398D02*
X7Y398D01*
X1724Y398D02*
X1731Y398D01*
X0Y397D02*
X7Y397D01*
X1724Y397D02*
X1731Y397D01*
X0Y396D02*
X7Y396D01*
X1724Y396D02*
X1731Y396D01*
X0Y395D02*
X7Y395D01*
X1724Y395D02*
X1731Y395D01*
X0Y394D02*
X7Y394D01*
X1724Y394D02*
X1731Y394D01*
X0Y393D02*
X7Y393D01*
X1724Y393D02*
X1731Y393D01*
X0Y392D02*
X7Y392D01*
X1724Y392D02*
X1731Y392D01*
X0Y391D02*
X7Y391D01*
X1724Y391D02*
X1731Y391D01*
X0Y390D02*
X7Y390D01*
X1724Y390D02*
X1731Y390D01*
X0Y389D02*
X7Y389D01*
X1724Y389D02*
X1731Y389D01*
X0Y388D02*
X7Y388D01*
X1724Y388D02*
X1731Y388D01*
X0Y387D02*
X7Y387D01*
X1724Y387D02*
X1731Y387D01*
X0Y386D02*
X7Y386D01*
X1724Y386D02*
X1731Y386D01*
X0Y385D02*
X7Y385D01*
X1724Y385D02*
X1731Y385D01*
X0Y384D02*
X7Y384D01*
X1724Y384D02*
X1731Y384D01*
X0Y383D02*
X7Y383D01*
X1724Y383D02*
X1731Y383D01*
X0Y382D02*
X7Y382D01*
X1724Y382D02*
X1731Y382D01*
X0Y381D02*
X7Y381D01*
X1724Y381D02*
X1731Y381D01*
X0Y380D02*
X7Y380D01*
X1724Y380D02*
X1731Y380D01*
X0Y379D02*
X7Y379D01*
X1724Y379D02*
X1731Y379D01*
X0Y378D02*
X7Y378D01*
X1724Y378D02*
X1731Y378D01*
X0Y377D02*
X7Y377D01*
X1724Y377D02*
X1731Y377D01*
X0Y376D02*
X7Y376D01*
X1724Y376D02*
X1731Y376D01*
X0Y375D02*
X7Y375D01*
X1724Y375D02*
X1731Y375D01*
X0Y374D02*
X7Y374D01*
X1724Y374D02*
X1731Y374D01*
X0Y373D02*
X7Y373D01*
X1724Y373D02*
X1731Y373D01*
X0Y372D02*
X7Y372D01*
X1724Y372D02*
X1731Y372D01*
X0Y371D02*
X7Y371D01*
X1724Y371D02*
X1731Y371D01*
X0Y370D02*
X7Y370D01*
X1724Y370D02*
X1731Y370D01*
X0Y369D02*
X7Y369D01*
X1724Y369D02*
X1731Y369D01*
X0Y368D02*
X7Y368D01*
X1724Y368D02*
X1731Y368D01*
X0Y367D02*
X7Y367D01*
X1724Y367D02*
X1731Y367D01*
X0Y366D02*
X7Y366D01*
X1724Y366D02*
X1731Y366D01*
X0Y365D02*
X7Y365D01*
X1724Y365D02*
X1731Y365D01*
X0Y364D02*
X7Y364D01*
X1724Y364D02*
X1731Y364D01*
X0Y363D02*
X7Y363D01*
X1724Y363D02*
X1731Y363D01*
X0Y362D02*
X7Y362D01*
X1724Y362D02*
X1731Y362D01*
X0Y361D02*
X7Y361D01*
X1724Y361D02*
X1731Y361D01*
X0Y360D02*
X7Y360D01*
X1724Y360D02*
X1731Y360D01*
X0Y359D02*
X7Y359D01*
X1724Y359D02*
X1731Y359D01*
X0Y358D02*
X7Y358D01*
X1724Y358D02*
X1731Y358D01*
X0Y357D02*
X7Y357D01*
X1724Y357D02*
X1731Y357D01*
X0Y356D02*
X7Y356D01*
X1724Y356D02*
X1731Y356D01*
X0Y355D02*
X7Y355D01*
X1724Y355D02*
X1731Y355D01*
X0Y354D02*
X7Y354D01*
X1724Y354D02*
X1731Y354D01*
X0Y353D02*
X7Y353D01*
X1724Y353D02*
X1731Y353D01*
X0Y352D02*
X7Y352D01*
X1724Y352D02*
X1731Y352D01*
X0Y351D02*
X7Y351D01*
X1724Y351D02*
X1731Y351D01*
X0Y350D02*
X7Y350D01*
X1724Y350D02*
X1731Y350D01*
X0Y349D02*
X7Y349D01*
X1724Y349D02*
X1731Y349D01*
X0Y348D02*
X7Y348D01*
X1724Y348D02*
X1731Y348D01*
X0Y347D02*
X7Y347D01*
X1724Y347D02*
X1731Y347D01*
X0Y346D02*
X7Y346D01*
X1724Y346D02*
X1731Y346D01*
X0Y345D02*
X7Y345D01*
X1724Y345D02*
X1731Y345D01*
X0Y344D02*
X7Y344D01*
X1724Y344D02*
X1731Y344D01*
X0Y343D02*
X7Y343D01*
X1724Y343D02*
X1731Y343D01*
X0Y342D02*
X7Y342D01*
X1724Y342D02*
X1731Y342D01*
X0Y341D02*
X7Y341D01*
X1724Y341D02*
X1731Y341D01*
X0Y340D02*
X7Y340D01*
X1724Y340D02*
X1731Y340D01*
X0Y339D02*
X7Y339D01*
X1724Y339D02*
X1731Y339D01*
X0Y338D02*
X7Y338D01*
X1724Y338D02*
X1731Y338D01*
X0Y337D02*
X7Y337D01*
X1724Y337D02*
X1731Y337D01*
X0Y336D02*
X7Y336D01*
X1724Y336D02*
X1731Y336D01*
X0Y335D02*
X7Y335D01*
X1724Y335D02*
X1731Y335D01*
X0Y334D02*
X7Y334D01*
X1724Y334D02*
X1731Y334D01*
X0Y333D02*
X7Y333D01*
X1724Y333D02*
X1731Y333D01*
X0Y332D02*
X7Y332D01*
X1724Y332D02*
X1731Y332D01*
X0Y331D02*
X7Y331D01*
X1724Y331D02*
X1731Y331D01*
X0Y330D02*
X7Y330D01*
X1724Y330D02*
X1731Y330D01*
X0Y329D02*
X7Y329D01*
X1724Y329D02*
X1731Y329D01*
X0Y328D02*
X7Y328D01*
X1724Y328D02*
X1731Y328D01*
X0Y327D02*
X7Y327D01*
X1724Y327D02*
X1731Y327D01*
X0Y326D02*
X7Y326D01*
X1724Y326D02*
X1731Y326D01*
X0Y325D02*
X7Y325D01*
X1724Y325D02*
X1731Y325D01*
X0Y324D02*
X7Y324D01*
X1724Y324D02*
X1731Y324D01*
X0Y323D02*
X7Y323D01*
X1724Y323D02*
X1731Y323D01*
X0Y322D02*
X7Y322D01*
X1724Y322D02*
X1731Y322D01*
X0Y321D02*
X7Y321D01*
X1724Y321D02*
X1731Y321D01*
X0Y320D02*
X7Y320D01*
X1724Y320D02*
X1731Y320D01*
X0Y319D02*
X7Y319D01*
X1724Y319D02*
X1731Y319D01*
X0Y318D02*
X7Y318D01*
X1724Y318D02*
X1731Y318D01*
X0Y317D02*
X7Y317D01*
X1724Y317D02*
X1731Y317D01*
X0Y316D02*
X7Y316D01*
X1724Y316D02*
X1731Y316D01*
X0Y315D02*
X7Y315D01*
X1724Y315D02*
X1731Y315D01*
X0Y314D02*
X7Y314D01*
X1724Y314D02*
X1731Y314D01*
X0Y313D02*
X7Y313D01*
X1724Y313D02*
X1731Y313D01*
X0Y312D02*
X7Y312D01*
X1724Y312D02*
X1731Y312D01*
X0Y311D02*
X7Y311D01*
X1724Y311D02*
X1731Y311D01*
X0Y310D02*
X7Y310D01*
X1724Y310D02*
X1731Y310D01*
X0Y309D02*
X7Y309D01*
X1724Y309D02*
X1731Y309D01*
X0Y308D02*
X7Y308D01*
X1724Y308D02*
X1731Y308D01*
X0Y307D02*
X7Y307D01*
X1724Y307D02*
X1731Y307D01*
X0Y306D02*
X7Y306D01*
X1724Y306D02*
X1731Y306D01*
X0Y305D02*
X7Y305D01*
X1724Y305D02*
X1731Y305D01*
X0Y304D02*
X7Y304D01*
X1724Y304D02*
X1731Y304D01*
X0Y303D02*
X7Y303D01*
X1724Y303D02*
X1731Y303D01*
X0Y302D02*
X7Y302D01*
X1724Y302D02*
X1731Y302D01*
X0Y301D02*
X7Y301D01*
X1724Y301D02*
X1731Y301D01*
X0Y300D02*
X7Y300D01*
X1724Y300D02*
X1731Y300D01*
X0Y299D02*
X7Y299D01*
X1724Y299D02*
X1731Y299D01*
X0Y298D02*
X7Y298D01*
X1724Y298D02*
X1731Y298D01*
X0Y297D02*
X7Y297D01*
X1724Y297D02*
X1731Y297D01*
X0Y296D02*
X7Y296D01*
X1724Y296D02*
X1731Y296D01*
X0Y295D02*
X7Y295D01*
X1724Y295D02*
X1731Y295D01*
X0Y294D02*
X7Y294D01*
X1724Y294D02*
X1731Y294D01*
X0Y293D02*
X7Y293D01*
X1724Y293D02*
X1731Y293D01*
X0Y292D02*
X7Y292D01*
X1724Y292D02*
X1731Y292D01*
X0Y291D02*
X7Y291D01*
X1724Y291D02*
X1731Y291D01*
X0Y290D02*
X7Y290D01*
X1724Y290D02*
X1731Y290D01*
X0Y289D02*
X7Y289D01*
X1724Y289D02*
X1731Y289D01*
X0Y288D02*
X7Y288D01*
X1724Y288D02*
X1731Y288D01*
X0Y287D02*
X7Y287D01*
X1724Y287D02*
X1731Y287D01*
X0Y286D02*
X7Y286D01*
X1724Y286D02*
X1731Y286D01*
X0Y285D02*
X7Y285D01*
X1724Y285D02*
X1731Y285D01*
X0Y284D02*
X7Y284D01*
X1724Y284D02*
X1731Y284D01*
X0Y283D02*
X7Y283D01*
X1724Y283D02*
X1731Y283D01*
X0Y282D02*
X7Y282D01*
X1724Y282D02*
X1731Y282D01*
X0Y281D02*
X7Y281D01*
X1724Y281D02*
X1731Y281D01*
X0Y280D02*
X7Y280D01*
X1724Y280D02*
X1731Y280D01*
X0Y279D02*
X7Y279D01*
X248Y279D02*
X257Y279D01*
X1724Y279D02*
X1731Y279D01*
X0Y278D02*
X7Y278D01*
X252Y278D02*
X253Y278D01*
X257Y278D02*
X257Y278D01*
X1724Y278D02*
X1731Y278D01*
X0Y277D02*
X7Y277D01*
X252Y277D02*
X252Y277D01*
X257Y277D02*
X257Y277D01*
X1724Y277D02*
X1731Y277D01*
X0Y276D02*
X7Y276D01*
X252Y276D02*
X252Y276D01*
X257Y276D02*
X257Y276D01*
X1724Y276D02*
X1731Y276D01*
X0Y275D02*
X7Y275D01*
X252Y275D02*
X253Y275D01*
X257Y275D02*
X257Y275D01*
X1724Y275D02*
X1731Y275D01*
X0Y274D02*
X7Y274D01*
X253Y274D02*
X257Y274D01*
X1724Y274D02*
X1731Y274D01*
X0Y273D02*
X7Y273D01*
X1724Y273D02*
X1731Y273D01*
X0Y272D02*
X7Y272D01*
X1724Y272D02*
X1731Y272D01*
X0Y271D02*
X7Y271D01*
X664Y271D02*
X731Y271D01*
X932Y271D02*
X979Y271D01*
X1724Y271D02*
X1731Y271D01*
X0Y270D02*
X7Y270D01*
X253Y270D02*
X253Y270D01*
X664Y270D02*
X731Y270D01*
X932Y270D02*
X979Y270D01*
X1724Y270D02*
X1731Y270D01*
X0Y269D02*
X7Y269D01*
X250Y269D02*
X255Y269D01*
X664Y269D02*
X731Y269D01*
X932Y269D02*
X979Y269D01*
X1724Y269D02*
X1731Y269D01*
X0Y268D02*
X7Y268D01*
X249Y268D02*
X250Y268D01*
X255Y268D02*
X257Y268D01*
X665Y268D02*
X731Y268D01*
X932Y268D02*
X979Y268D01*
X1724Y268D02*
X1731Y268D01*
X0Y267D02*
X7Y267D01*
X248Y267D02*
X249Y267D01*
X257Y267D02*
X257Y267D01*
X665Y267D02*
X731Y267D01*
X932Y267D02*
X979Y267D01*
X1724Y267D02*
X1731Y267D01*
X0Y266D02*
X7Y266D01*
X249Y266D02*
X250Y266D01*
X256Y266D02*
X257Y266D01*
X665Y266D02*
X731Y266D01*
X932Y266D02*
X979Y266D01*
X1724Y266D02*
X1731Y266D01*
X0Y265D02*
X7Y265D01*
X250Y265D02*
X256Y265D01*
X664Y265D02*
X731Y265D01*
X932Y265D02*
X979Y265D01*
X1724Y265D02*
X1731Y265D01*
X0Y264D02*
X7Y264D01*
X252Y264D02*
X254Y264D01*
X664Y264D02*
X731Y264D01*
X932Y264D02*
X979Y264D01*
X1724Y264D02*
X1731Y264D01*
X0Y263D02*
X7Y263D01*
X664Y263D02*
X731Y263D01*
X932Y263D02*
X979Y263D01*
X1724Y263D02*
X1731Y263D01*
X0Y262D02*
X7Y262D01*
X664Y262D02*
X730Y262D01*
X932Y262D02*
X979Y262D01*
X1724Y262D02*
X1731Y262D01*
X0Y261D02*
X7Y261D01*
X1724Y261D02*
X1731Y261D01*
X0Y260D02*
X7Y260D01*
X249Y260D02*
X250Y260D01*
X255Y260D02*
X257Y260D01*
X1724Y260D02*
X1731Y260D01*
X0Y259D02*
X7Y259D01*
X248Y259D02*
X249Y259D01*
X254Y259D02*
X255Y259D01*
X257Y259D02*
X257Y259D01*
X1724Y259D02*
X1731Y259D01*
X0Y258D02*
X7Y258D01*
X248Y258D02*
X249Y258D01*
X253Y258D02*
X254Y258D01*
X257Y258D02*
X257Y258D01*
X1724Y258D02*
X1731Y258D01*
X0Y257D02*
X7Y257D01*
X248Y257D02*
X249Y257D01*
X252Y257D02*
X253Y257D01*
X257Y257D02*
X257Y257D01*
X1724Y257D02*
X1731Y257D01*
X0Y256D02*
X7Y256D01*
X248Y256D02*
X251Y256D01*
X257Y256D02*
X257Y256D01*
X1724Y256D02*
X1731Y256D01*
X0Y255D02*
X7Y255D01*
X249Y255D02*
X250Y255D01*
X256Y255D02*
X257Y255D01*
X1724Y255D02*
X1731Y255D01*
X0Y254D02*
X7Y254D01*
X1724Y254D02*
X1731Y254D01*
X0Y253D02*
X7Y253D01*
X1724Y253D02*
X1731Y253D01*
X0Y252D02*
X7Y252D01*
X1724Y252D02*
X1731Y252D01*
X0Y251D02*
X7Y251D01*
X1724Y251D02*
X1731Y251D01*
X0Y250D02*
X7Y250D01*
X1724Y250D02*
X1731Y250D01*
X0Y249D02*
X7Y249D01*
X1724Y249D02*
X1731Y249D01*
X0Y248D02*
X7Y248D01*
X1724Y248D02*
X1731Y248D01*
X0Y247D02*
X7Y247D01*
X1724Y247D02*
X1731Y247D01*
X0Y246D02*
X7Y246D01*
X1724Y246D02*
X1731Y246D01*
X0Y245D02*
X7Y245D01*
X1724Y245D02*
X1731Y245D01*
X0Y244D02*
X7Y244D01*
X1724Y244D02*
X1731Y244D01*
X0Y243D02*
X7Y243D01*
X1724Y243D02*
X1731Y243D01*
X0Y242D02*
X7Y242D01*
X1724Y242D02*
X1731Y242D01*
X0Y241D02*
X7Y241D01*
X1724Y241D02*
X1731Y241D01*
X0Y240D02*
X7Y240D01*
X1724Y240D02*
X1731Y240D01*
X0Y239D02*
X7Y239D01*
X1724Y239D02*
X1731Y239D01*
X0Y238D02*
X7Y238D01*
X1724Y238D02*
X1731Y238D01*
X0Y237D02*
X7Y237D01*
X1724Y237D02*
X1731Y237D01*
X0Y236D02*
X7Y236D01*
X1724Y236D02*
X1731Y236D01*
X0Y235D02*
X7Y235D01*
X1724Y235D02*
X1731Y235D01*
X0Y234D02*
X7Y234D01*
X1724Y234D02*
X1731Y234D01*
X0Y233D02*
X7Y233D01*
X1724Y233D02*
X1731Y233D01*
X0Y232D02*
X7Y232D01*
X1724Y232D02*
X1731Y232D01*
X0Y231D02*
X7Y231D01*
X1724Y231D02*
X1731Y231D01*
X0Y230D02*
X7Y230D01*
X1724Y230D02*
X1731Y230D01*
X0Y229D02*
X7Y229D01*
X1724Y229D02*
X1731Y229D01*
X0Y228D02*
X7Y228D01*
X1724Y228D02*
X1731Y228D01*
X0Y227D02*
X7Y227D01*
X1724Y227D02*
X1731Y227D01*
X0Y226D02*
X7Y226D01*
X1724Y226D02*
X1731Y226D01*
X0Y225D02*
X7Y225D01*
X1724Y225D02*
X1731Y225D01*
X0Y224D02*
X7Y224D01*
X1724Y224D02*
X1731Y224D01*
X0Y223D02*
X7Y223D01*
X1724Y223D02*
X1731Y223D01*
X0Y222D02*
X7Y222D01*
X1724Y222D02*
X1731Y222D01*
X0Y221D02*
X7Y221D01*
X1724Y221D02*
X1731Y221D01*
X0Y220D02*
X7Y220D01*
X1724Y220D02*
X1731Y220D01*
X0Y219D02*
X7Y219D01*
X1724Y219D02*
X1731Y219D01*
X0Y218D02*
X7Y218D01*
X1724Y218D02*
X1731Y218D01*
X0Y217D02*
X7Y217D01*
X1724Y217D02*
X1731Y217D01*
X0Y216D02*
X7Y216D01*
X1724Y216D02*
X1731Y216D01*
X0Y215D02*
X7Y215D01*
X1724Y215D02*
X1731Y215D01*
X0Y214D02*
X7Y214D01*
X1724Y214D02*
X1731Y214D01*
X0Y213D02*
X7Y213D01*
X1724Y213D02*
X1731Y213D01*
X0Y212D02*
X7Y212D01*
X1724Y212D02*
X1731Y212D01*
X0Y211D02*
X7Y211D01*
X1724Y211D02*
X1731Y211D01*
X0Y210D02*
X7Y210D01*
X1724Y210D02*
X1731Y210D01*
X0Y209D02*
X7Y209D01*
X1724Y209D02*
X1731Y209D01*
X0Y208D02*
X7Y208D01*
X1724Y208D02*
X1731Y208D01*
X0Y207D02*
X7Y207D01*
X1724Y207D02*
X1731Y207D01*
X0Y206D02*
X7Y206D01*
X1724Y206D02*
X1731Y206D01*
X0Y205D02*
X7Y205D01*
X1724Y205D02*
X1731Y205D01*
X0Y204D02*
X7Y204D01*
X1724Y204D02*
X1731Y204D01*
X0Y203D02*
X7Y203D01*
X1724Y203D02*
X1731Y203D01*
X0Y202D02*
X7Y202D01*
X1724Y202D02*
X1731Y202D01*
X0Y201D02*
X7Y201D01*
X1724Y201D02*
X1731Y201D01*
X0Y200D02*
X7Y200D01*
X1724Y200D02*
X1731Y200D01*
X0Y199D02*
X7Y199D01*
X1724Y199D02*
X1731Y199D01*
X0Y198D02*
X7Y198D01*
X1724Y198D02*
X1731Y198D01*
X0Y197D02*
X7Y197D01*
X1724Y197D02*
X1731Y197D01*
X0Y196D02*
X7Y196D01*
X1724Y196D02*
X1731Y196D01*
X0Y195D02*
X7Y195D01*
X1724Y195D02*
X1731Y195D01*
X0Y194D02*
X7Y194D01*
X1724Y194D02*
X1731Y194D01*
X0Y193D02*
X7Y193D01*
X1724Y193D02*
X1731Y193D01*
X0Y192D02*
X7Y192D01*
X1724Y192D02*
X1731Y192D01*
X0Y191D02*
X7Y191D01*
X1724Y191D02*
X1731Y191D01*
X0Y190D02*
X7Y190D01*
X1724Y190D02*
X1731Y190D01*
X0Y189D02*
X7Y189D01*
X1724Y189D02*
X1731Y189D01*
X0Y188D02*
X7Y188D01*
X1724Y188D02*
X1731Y188D01*
X0Y187D02*
X7Y187D01*
X1724Y187D02*
X1731Y187D01*
X0Y186D02*
X7Y186D01*
X1724Y186D02*
X1731Y186D01*
X0Y185D02*
X7Y185D01*
X1724Y185D02*
X1731Y185D01*
X0Y184D02*
X7Y184D01*
X1724Y184D02*
X1731Y184D01*
X0Y183D02*
X7Y183D01*
X1724Y183D02*
X1731Y183D01*
X0Y182D02*
X7Y182D01*
X1724Y182D02*
X1731Y182D01*
X0Y181D02*
X7Y181D01*
X1724Y181D02*
X1731Y181D01*
X0Y180D02*
X7Y180D01*
X1724Y180D02*
X1731Y180D01*
X0Y179D02*
X7Y179D01*
X248Y179D02*
X257Y179D01*
X1724Y179D02*
X1731Y179D01*
X0Y178D02*
X7Y178D01*
X254Y178D02*
X257Y178D01*
X1724Y178D02*
X1731Y178D01*
X0Y177D02*
X7Y177D01*
X253Y177D02*
X255Y177D01*
X1724Y177D02*
X1731Y177D01*
X0Y176D02*
X7Y176D01*
X250Y176D02*
X253Y176D01*
X1724Y176D02*
X1731Y176D01*
X0Y175D02*
X7Y175D01*
X248Y175D02*
X250Y175D01*
X1724Y175D02*
X1731Y175D01*
X0Y174D02*
X7Y174D01*
X248Y174D02*
X257Y174D01*
X1724Y174D02*
X1731Y174D01*
X0Y173D02*
X7Y173D01*
X1724Y173D02*
X1731Y173D01*
X0Y172D02*
X7Y172D01*
X1724Y172D02*
X1731Y172D01*
X0Y171D02*
X7Y171D01*
X664Y171D02*
X731Y171D01*
X932Y171D02*
X979Y171D01*
X1724Y171D02*
X1731Y171D01*
X0Y170D02*
X7Y170D01*
X248Y170D02*
X257Y170D01*
X664Y170D02*
X731Y170D01*
X932Y170D02*
X979Y170D01*
X1724Y170D02*
X1731Y170D01*
X0Y169D02*
X7Y169D01*
X248Y169D02*
X257Y169D01*
X664Y169D02*
X731Y169D01*
X932Y169D02*
X979Y169D01*
X1724Y169D02*
X1731Y169D01*
X0Y168D02*
X7Y168D01*
X248Y168D02*
X248Y168D01*
X252Y168D02*
X252Y168D01*
X257Y168D02*
X257Y168D01*
X665Y168D02*
X731Y168D01*
X932Y168D02*
X979Y168D01*
X1724Y168D02*
X1731Y168D01*
X0Y167D02*
X7Y167D01*
X248Y167D02*
X248Y167D01*
X252Y167D02*
X252Y167D01*
X257Y167D02*
X257Y167D01*
X665Y167D02*
X731Y167D01*
X932Y167D02*
X979Y167D01*
X1724Y167D02*
X1731Y167D01*
X0Y166D02*
X7Y166D01*
X248Y166D02*
X248Y166D01*
X257Y166D02*
X257Y166D01*
X665Y166D02*
X731Y166D01*
X932Y166D02*
X979Y166D01*
X1724Y166D02*
X1731Y166D01*
X0Y165D02*
X7Y165D01*
X248Y165D02*
X248Y165D01*
X257Y165D02*
X257Y165D01*
X664Y165D02*
X731Y165D01*
X932Y165D02*
X979Y165D01*
X1724Y165D02*
X1731Y165D01*
X0Y164D02*
X7Y164D01*
X248Y164D02*
X248Y164D01*
X257Y164D02*
X257Y164D01*
X664Y164D02*
X731Y164D01*
X932Y164D02*
X979Y164D01*
X1724Y164D02*
X1731Y164D01*
X0Y163D02*
X7Y163D01*
X664Y163D02*
X731Y163D01*
X932Y163D02*
X979Y163D01*
X1724Y163D02*
X1731Y163D01*
X0Y162D02*
X7Y162D01*
X664Y162D02*
X730Y162D01*
X932Y162D02*
X979Y162D01*
X1724Y162D02*
X1731Y162D01*
X0Y161D02*
X7Y161D01*
X1724Y161D02*
X1731Y161D01*
X0Y160D02*
X7Y160D01*
X248Y160D02*
X254Y160D01*
X1724Y160D02*
X1731Y160D01*
X0Y159D02*
X7Y159D01*
X248Y159D02*
X248Y159D01*
X254Y159D02*
X255Y159D01*
X1724Y159D02*
X1731Y159D01*
X0Y158D02*
X7Y158D01*
X248Y158D02*
X248Y158D01*
X256Y158D02*
X256Y158D01*
X1724Y158D02*
X1731Y158D01*
X0Y157D02*
X7Y157D01*
X248Y157D02*
X248Y157D01*
X251Y157D02*
X251Y157D01*
X256Y157D02*
X257Y157D01*
X1724Y157D02*
X1731Y157D01*
X0Y156D02*
X7Y156D01*
X248Y156D02*
X248Y156D01*
X251Y156D02*
X251Y156D01*
X257Y156D02*
X257Y156D01*
X1724Y156D02*
X1731Y156D01*
X0Y155D02*
X7Y155D01*
X248Y155D02*
X251Y155D01*
X257Y155D02*
X257Y155D01*
X1724Y155D02*
X1731Y155D01*
X0Y154D02*
X7Y154D01*
X1724Y154D02*
X1731Y154D01*
X0Y153D02*
X7Y153D01*
X1724Y153D02*
X1731Y153D01*
X0Y152D02*
X7Y152D01*
X1724Y152D02*
X1731Y152D01*
X0Y151D02*
X7Y151D01*
X1724Y151D02*
X1731Y151D01*
X0Y150D02*
X7Y150D01*
X1724Y150D02*
X1731Y150D01*
X0Y149D02*
X7Y149D01*
X1724Y149D02*
X1731Y149D01*
X0Y148D02*
X7Y148D01*
X1724Y148D02*
X1731Y148D01*
X0Y147D02*
X7Y147D01*
X1724Y147D02*
X1731Y147D01*
X0Y146D02*
X7Y146D01*
X1724Y146D02*
X1731Y146D01*
X0Y145D02*
X7Y145D01*
X1724Y145D02*
X1731Y145D01*
X0Y144D02*
X7Y144D01*
X1724Y144D02*
X1731Y144D01*
X0Y143D02*
X7Y143D01*
X1724Y143D02*
X1731Y143D01*
X0Y142D02*
X7Y142D01*
X1724Y142D02*
X1731Y142D01*
X0Y141D02*
X7Y141D01*
X1724Y141D02*
X1731Y141D01*
X0Y140D02*
X7Y140D01*
X1724Y140D02*
X1731Y140D01*
X0Y139D02*
X7Y139D01*
X1724Y139D02*
X1731Y139D01*
X0Y138D02*
X7Y138D01*
X1724Y138D02*
X1731Y138D01*
X0Y137D02*
X7Y137D01*
X1724Y137D02*
X1731Y137D01*
X0Y136D02*
X7Y136D01*
X1724Y136D02*
X1731Y136D01*
X0Y135D02*
X7Y135D01*
X1724Y135D02*
X1731Y135D01*
X0Y134D02*
X7Y134D01*
X1724Y134D02*
X1731Y134D01*
X0Y133D02*
X7Y133D01*
X1724Y133D02*
X1731Y133D01*
X0Y132D02*
X7Y132D01*
X1724Y132D02*
X1731Y132D01*
X0Y131D02*
X7Y131D01*
X1724Y131D02*
X1731Y131D01*
X0Y130D02*
X7Y130D01*
X1724Y130D02*
X1731Y130D01*
X0Y129D02*
X7Y129D01*
X1724Y129D02*
X1731Y129D01*
X0Y128D02*
X7Y128D01*
X1724Y128D02*
X1731Y128D01*
X0Y127D02*
X7Y127D01*
X1724Y127D02*
X1731Y127D01*
X0Y126D02*
X7Y126D01*
X1724Y126D02*
X1731Y126D01*
X0Y125D02*
X7Y125D01*
X1724Y125D02*
X1731Y125D01*
X0Y124D02*
X7Y124D01*
X1724Y124D02*
X1731Y124D01*
X0Y123D02*
X7Y123D01*
X1724Y123D02*
X1731Y123D01*
X0Y122D02*
X7Y122D01*
X1724Y122D02*
X1731Y122D01*
X0Y121D02*
X7Y121D01*
X1724Y121D02*
X1731Y121D01*
X0Y120D02*
X7Y120D01*
X1724Y120D02*
X1731Y120D01*
X0Y119D02*
X7Y119D01*
X1724Y119D02*
X1731Y119D01*
X0Y118D02*
X7Y118D01*
X1724Y118D02*
X1731Y118D01*
X0Y117D02*
X7Y117D01*
X1724Y117D02*
X1731Y117D01*
X0Y116D02*
X7Y116D01*
X1724Y116D02*
X1731Y116D01*
X0Y115D02*
X7Y115D01*
X1724Y115D02*
X1731Y115D01*
X0Y114D02*
X7Y114D01*
X1724Y114D02*
X1731Y114D01*
X0Y113D02*
X7Y113D01*
X1724Y113D02*
X1731Y113D01*
X0Y112D02*
X7Y112D01*
X1724Y112D02*
X1731Y112D01*
X0Y111D02*
X7Y111D01*
X1724Y111D02*
X1731Y111D01*
X0Y110D02*
X7Y110D01*
X1724Y110D02*
X1731Y110D01*
X0Y109D02*
X7Y109D01*
X1724Y109D02*
X1731Y109D01*
X0Y108D02*
X7Y108D01*
X1724Y108D02*
X1731Y108D01*
X0Y107D02*
X7Y107D01*
X1724Y107D02*
X1731Y107D01*
X0Y106D02*
X7Y106D01*
X1724Y106D02*
X1731Y106D01*
X0Y105D02*
X7Y105D01*
X1724Y105D02*
X1731Y105D01*
X0Y104D02*
X7Y104D01*
X1724Y104D02*
X1731Y104D01*
X0Y103D02*
X7Y103D01*
X1724Y103D02*
X1731Y103D01*
X0Y102D02*
X7Y102D01*
X1724Y102D02*
X1731Y102D01*
X0Y101D02*
X7Y101D01*
X1724Y101D02*
X1731Y101D01*
X0Y100D02*
X7Y100D01*
X1724Y100D02*
X1731Y100D01*
X0Y99D02*
X7Y99D01*
X1724Y99D02*
X1731Y99D01*
X0Y98D02*
X7Y98D01*
X1724Y98D02*
X1731Y98D01*
X0Y97D02*
X7Y97D01*
X1724Y97D02*
X1731Y97D01*
X0Y96D02*
X7Y96D01*
X1724Y96D02*
X1731Y96D01*
X0Y95D02*
X7Y95D01*
X1724Y95D02*
X1731Y95D01*
X0Y94D02*
X7Y94D01*
X1724Y94D02*
X1731Y94D01*
X0Y93D02*
X7Y93D01*
X1724Y93D02*
X1731Y93D01*
X0Y92D02*
X7Y92D01*
X1724Y92D02*
X1731Y92D01*
X0Y91D02*
X7Y91D01*
X1724Y91D02*
X1731Y91D01*
X0Y90D02*
X7Y90D01*
X1724Y90D02*
X1731Y90D01*
X0Y89D02*
X7Y89D01*
X1724Y89D02*
X1731Y89D01*
X0Y88D02*
X7Y88D01*
X1724Y88D02*
X1731Y88D01*
X0Y87D02*
X7Y87D01*
X1724Y87D02*
X1731Y87D01*
X0Y86D02*
X7Y86D01*
X1724Y86D02*
X1731Y86D01*
X0Y85D02*
X7Y85D01*
X1724Y85D02*
X1731Y85D01*
X0Y84D02*
X7Y84D01*
X1724Y84D02*
X1731Y84D01*
X0Y83D02*
X7Y83D01*
X1724Y83D02*
X1731Y83D01*
X0Y82D02*
X7Y82D01*
X1724Y82D02*
X1731Y82D01*
X0Y81D02*
X7Y81D01*
X1724Y81D02*
X1731Y81D01*
X0Y80D02*
X7Y80D01*
X1724Y80D02*
X1731Y80D01*
X0Y79D02*
X7Y79D01*
X1724Y79D02*
X1731Y79D01*
X0Y78D02*
X7Y78D01*
X1724Y78D02*
X1731Y78D01*
X0Y77D02*
X7Y77D01*
X1724Y77D02*
X1731Y77D01*
X0Y76D02*
X7Y76D01*
X1724Y76D02*
X1731Y76D01*
X0Y75D02*
X7Y75D01*
X1724Y75D02*
X1731Y75D01*
X0Y74D02*
X7Y74D01*
X1724Y74D02*
X1731Y74D01*
X0Y73D02*
X7Y73D01*
X1724Y73D02*
X1731Y73D01*
X0Y72D02*
X7Y72D01*
X1724Y72D02*
X1731Y72D01*
X0Y71D02*
X7Y71D01*
X1724Y71D02*
X1731Y71D01*
X0Y70D02*
X7Y70D01*
X1724Y70D02*
X1731Y70D01*
X0Y69D02*
X7Y69D01*
X1724Y69D02*
X1731Y69D01*
X0Y68D02*
X7Y68D01*
X1724Y68D02*
X1731Y68D01*
X0Y67D02*
X7Y67D01*
X1724Y67D02*
X1731Y67D01*
X0Y66D02*
X7Y66D01*
X1724Y66D02*
X1731Y66D01*
X0Y65D02*
X7Y65D01*
X1724Y65D02*
X1731Y65D01*
X0Y64D02*
X7Y64D01*
X1724Y64D02*
X1731Y64D01*
X0Y63D02*
X7Y63D01*
X1724Y63D02*
X1731Y63D01*
X0Y62D02*
X7Y62D01*
X1724Y62D02*
X1731Y62D01*
X0Y61D02*
X7Y61D01*
X1724Y61D02*
X1731Y61D01*
X0Y60D02*
X7Y60D01*
X1724Y60D02*
X1731Y60D01*
X0Y59D02*
X7Y59D01*
X1724Y59D02*
X1731Y59D01*
X0Y58D02*
X7Y58D01*
X1724Y58D02*
X1731Y58D01*
X0Y57D02*
X7Y57D01*
X1724Y57D02*
X1731Y57D01*
X0Y56D02*
X7Y56D01*
X1724Y56D02*
X1731Y56D01*
X0Y55D02*
X7Y55D01*
X1724Y55D02*
X1731Y55D01*
X0Y54D02*
X7Y54D01*
X1724Y54D02*
X1731Y54D01*
X0Y53D02*
X7Y53D01*
X1724Y53D02*
X1731Y53D01*
X0Y52D02*
X7Y52D01*
X1724Y52D02*
X1731Y52D01*
X0Y51D02*
X7Y51D01*
X1724Y51D02*
X1731Y51D01*
X0Y50D02*
X7Y50D01*
X1724Y50D02*
X1731Y50D01*
X0Y49D02*
X7Y49D01*
X1724Y49D02*
X1731Y49D01*
X0Y48D02*
X7Y48D01*
X1724Y48D02*
X1731Y48D01*
X0Y47D02*
X7Y47D01*
X1724Y47D02*
X1731Y47D01*
X0Y46D02*
X7Y46D01*
X1724Y46D02*
X1731Y46D01*
X0Y45D02*
X7Y45D01*
X1724Y45D02*
X1731Y45D01*
X0Y44D02*
X7Y44D01*
X1724Y44D02*
X1731Y44D01*
X0Y43D02*
X7Y43D01*
X1724Y43D02*
X1731Y43D01*
X0Y42D02*
X7Y42D01*
X1724Y42D02*
X1731Y42D01*
X0Y41D02*
X7Y41D01*
X1724Y41D02*
X1731Y41D01*
X0Y40D02*
X7Y40D01*
X1724Y40D02*
X1731Y40D01*
X0Y39D02*
X7Y39D01*
X1724Y39D02*
X1731Y39D01*
X0Y38D02*
X7Y38D01*
X1724Y38D02*
X1731Y38D01*
X0Y37D02*
X7Y37D01*
X1724Y37D02*
X1731Y37D01*
X0Y36D02*
X7Y36D01*
X1724Y36D02*
X1731Y36D01*
X0Y35D02*
X7Y35D01*
X1724Y35D02*
X1731Y35D01*
X0Y34D02*
X7Y34D01*
X1724Y34D02*
X1731Y34D01*
X0Y33D02*
X7Y33D01*
X1724Y33D02*
X1731Y33D01*
X0Y32D02*
X7Y32D01*
X1724Y32D02*
X1731Y32D01*
X0Y31D02*
X7Y31D01*
X1724Y31D02*
X1731Y31D01*
X0Y30D02*
X7Y30D01*
X1724Y30D02*
X1731Y30D01*
X0Y29D02*
X7Y29D01*
X1724Y29D02*
X1731Y29D01*
X0Y28D02*
X7Y28D01*
X1724Y28D02*
X1731Y28D01*
X0Y27D02*
X7Y27D01*
X1724Y27D02*
X1731Y27D01*
X0Y26D02*
X7Y26D01*
X1724Y26D02*
X1731Y26D01*
X0Y25D02*
X7Y25D01*
X1724Y25D02*
X1731Y25D01*
X0Y24D02*
X7Y24D01*
X1724Y24D02*
X1731Y24D01*
X0Y23D02*
X7Y23D01*
X1724Y23D02*
X1731Y23D01*
X0Y22D02*
X7Y22D01*
X1724Y22D02*
X1731Y22D01*
X0Y21D02*
X7Y21D01*
X1724Y21D02*
X1731Y21D01*
X0Y20D02*
X7Y20D01*
X1724Y20D02*
X1731Y20D01*
X0Y19D02*
X7Y19D01*
X1724Y19D02*
X1731Y19D01*
X0Y18D02*
X7Y18D01*
X1724Y18D02*
X1731Y18D01*
X0Y17D02*
X7Y17D01*
X1724Y17D02*
X1731Y17D01*
X0Y16D02*
X7Y16D01*
X1724Y16D02*
X1731Y16D01*
X0Y15D02*
X7Y15D01*
X1724Y15D02*
X1731Y15D01*
X0Y14D02*
X7Y14D01*
X1724Y14D02*
X1731Y14D01*
X0Y13D02*
X7Y13D01*
X1724Y13D02*
X1731Y13D01*
X0Y12D02*
X7Y12D01*
X1724Y12D02*
X1731Y12D01*
X0Y11D02*
X7Y11D01*
X1724Y11D02*
X1731Y11D01*
X0Y10D02*
X7Y10D01*
X1724Y10D02*
X1731Y10D01*
X0Y9D02*
X7Y9D01*
X1724Y9D02*
X1731Y9D01*
X0Y8D02*
X1731Y8D01*
X0Y7D02*
X1731Y7D01*
X0Y6D02*
X1731Y6D01*
X0Y5D02*
X1731Y5D01*
X0Y4D02*
X1731Y4D01*
X0Y3D02*
X1731Y3D01*
X0Y2D02*
X1731Y2D01*
X0Y1D02*
X1731Y1D01*
D02*
G04 End of Silk1*
M02*