G04 MADE WITH FRITZING*
G04 WWW.FRITZING.ORG*
G04 DOUBLE SIDED*
G04 HOLES PLATED*
G04 CONTOUR ON CENTER OF CONTOUR VECTOR*
%ASAXBY*%
%FSLAX23Y23*%
%MOIN*%
%OFA0B0*%
%SFA1.0B1.0*%
%ADD10C,0.067559*%
%ADD11C,0.075000*%
%ADD12C,0.070000*%
%ADD13R,0.067559X0.067559*%
%ADD14R,0.075000X0.075000*%
%ADD15R,0.001000X0.001000*%
%LNCOPPER0*%
G90*
G70*
G54D10*
X1572Y566D03*
X1472Y566D03*
X1372Y566D03*
X1272Y566D03*
X1172Y566D03*
X1172Y1266D03*
X1272Y1266D03*
X1372Y1266D03*
X1472Y1266D03*
X1572Y1266D03*
G54D11*
X622Y166D03*
X1022Y166D03*
X622Y266D03*
X1022Y266D03*
G54D12*
X322Y266D03*
X322Y166D03*
G54D11*
X422Y1266D03*
X322Y1266D03*
G54D13*
X1572Y566D03*
X1172Y1266D03*
G54D14*
X422Y1266D03*
G54D15*
X315Y301D02*
X329Y301D01*
X311Y300D02*
X332Y300D01*
X309Y299D02*
X335Y299D01*
X306Y298D02*
X337Y298D01*
X305Y297D02*
X339Y297D01*
X303Y296D02*
X340Y296D01*
X301Y295D02*
X342Y295D01*
X300Y294D02*
X343Y294D01*
X299Y293D02*
X344Y293D01*
X298Y292D02*
X346Y292D01*
X297Y291D02*
X347Y291D01*
X296Y290D02*
X347Y290D01*
X295Y289D02*
X348Y289D01*
X294Y288D02*
X349Y288D01*
X294Y287D02*
X350Y287D01*
X293Y286D02*
X350Y286D01*
X292Y285D02*
X351Y285D01*
X292Y284D02*
X352Y284D01*
X291Y283D02*
X352Y283D01*
X291Y282D02*
X353Y282D01*
X290Y281D02*
X316Y281D01*
X328Y281D02*
X353Y281D01*
X290Y280D02*
X314Y280D01*
X330Y280D02*
X353Y280D01*
X290Y279D02*
X312Y279D01*
X331Y279D02*
X354Y279D01*
X289Y278D02*
X311Y278D01*
X332Y278D02*
X354Y278D01*
X289Y277D02*
X310Y277D01*
X333Y277D02*
X355Y277D01*
X289Y276D02*
X309Y276D01*
X334Y276D02*
X355Y276D01*
X288Y275D02*
X308Y275D01*
X335Y275D02*
X355Y275D01*
X288Y274D02*
X308Y274D01*
X335Y274D02*
X355Y274D01*
X288Y273D02*
X307Y273D01*
X336Y273D02*
X356Y273D01*
X288Y272D02*
X307Y272D01*
X336Y272D02*
X356Y272D01*
X287Y271D02*
X307Y271D01*
X337Y271D02*
X356Y271D01*
X287Y270D02*
X306Y270D01*
X337Y270D02*
X356Y270D01*
X287Y269D02*
X306Y269D01*
X337Y269D02*
X356Y269D01*
X287Y268D02*
X306Y268D01*
X337Y268D02*
X356Y268D01*
X287Y267D02*
X306Y267D01*
X337Y267D02*
X356Y267D01*
X287Y266D02*
X306Y266D01*
X337Y266D02*
X356Y266D01*
X287Y265D02*
X306Y265D01*
X337Y265D02*
X356Y265D01*
X287Y264D02*
X306Y264D01*
X337Y264D02*
X356Y264D01*
X287Y263D02*
X307Y263D01*
X337Y263D02*
X356Y263D01*
X288Y262D02*
X307Y262D01*
X336Y262D02*
X356Y262D01*
X288Y261D02*
X307Y261D01*
X336Y261D02*
X356Y261D01*
X288Y260D02*
X308Y260D01*
X336Y260D02*
X355Y260D01*
X288Y259D02*
X308Y259D01*
X335Y259D02*
X355Y259D01*
X289Y258D02*
X309Y258D01*
X334Y258D02*
X355Y258D01*
X289Y257D02*
X310Y257D01*
X333Y257D02*
X355Y257D01*
X289Y256D02*
X311Y256D01*
X332Y256D02*
X354Y256D01*
X289Y255D02*
X312Y255D01*
X331Y255D02*
X354Y255D01*
X290Y254D02*
X313Y254D01*
X330Y254D02*
X353Y254D01*
X290Y253D02*
X315Y253D01*
X328Y253D02*
X353Y253D01*
X291Y252D02*
X320Y252D01*
X323Y252D02*
X353Y252D01*
X291Y251D02*
X352Y251D01*
X292Y250D02*
X352Y250D01*
X292Y249D02*
X351Y249D01*
X293Y248D02*
X350Y248D01*
X294Y247D02*
X350Y247D01*
X294Y246D02*
X349Y246D01*
X295Y245D02*
X348Y245D01*
X296Y244D02*
X348Y244D01*
X297Y243D02*
X347Y243D01*
X298Y242D02*
X346Y242D01*
X299Y241D02*
X345Y241D01*
X300Y240D02*
X343Y240D01*
X301Y239D02*
X342Y239D01*
X303Y238D02*
X341Y238D01*
X304Y237D02*
X339Y237D01*
X306Y236D02*
X337Y236D01*
X308Y235D02*
X335Y235D01*
X311Y234D02*
X332Y234D01*
X314Y233D02*
X329Y233D01*
X321Y232D02*
X322Y232D01*
X315Y201D02*
X329Y201D01*
X311Y200D02*
X332Y200D01*
X309Y199D02*
X335Y199D01*
X306Y198D02*
X337Y198D01*
X305Y197D02*
X339Y197D01*
X303Y196D02*
X340Y196D01*
X301Y195D02*
X342Y195D01*
X300Y194D02*
X343Y194D01*
X299Y193D02*
X344Y193D01*
X298Y192D02*
X346Y192D01*
X297Y191D02*
X347Y191D01*
X296Y190D02*
X347Y190D01*
X295Y189D02*
X348Y189D01*
X294Y188D02*
X349Y188D01*
X294Y187D02*
X350Y187D01*
X293Y186D02*
X350Y186D01*
X292Y185D02*
X351Y185D01*
X292Y184D02*
X352Y184D01*
X291Y183D02*
X352Y183D01*
X291Y182D02*
X353Y182D01*
X290Y181D02*
X316Y181D01*
X328Y181D02*
X353Y181D01*
X290Y180D02*
X314Y180D01*
X330Y180D02*
X353Y180D01*
X290Y179D02*
X312Y179D01*
X331Y179D02*
X354Y179D01*
X289Y178D02*
X311Y178D01*
X332Y178D02*
X354Y178D01*
X289Y177D02*
X310Y177D01*
X333Y177D02*
X355Y177D01*
X289Y176D02*
X309Y176D01*
X334Y176D02*
X355Y176D01*
X288Y175D02*
X308Y175D01*
X335Y175D02*
X355Y175D01*
X288Y174D02*
X308Y174D01*
X335Y174D02*
X355Y174D01*
X288Y173D02*
X307Y173D01*
X336Y173D02*
X356Y173D01*
X288Y172D02*
X307Y172D01*
X336Y172D02*
X356Y172D01*
X287Y171D02*
X307Y171D01*
X337Y171D02*
X356Y171D01*
X287Y170D02*
X306Y170D01*
X337Y170D02*
X356Y170D01*
X287Y169D02*
X306Y169D01*
X337Y169D02*
X356Y169D01*
X287Y168D02*
X306Y168D01*
X337Y168D02*
X356Y168D01*
X287Y167D02*
X306Y167D01*
X337Y167D02*
X356Y167D01*
X287Y166D02*
X306Y166D01*
X337Y166D02*
X356Y166D01*
X287Y165D02*
X306Y165D01*
X337Y165D02*
X356Y165D01*
X287Y164D02*
X306Y164D01*
X337Y164D02*
X356Y164D01*
X287Y163D02*
X307Y163D01*
X337Y163D02*
X356Y163D01*
X288Y162D02*
X307Y162D01*
X336Y162D02*
X356Y162D01*
X288Y161D02*
X307Y161D01*
X336Y161D02*
X356Y161D01*
X288Y160D02*
X308Y160D01*
X336Y160D02*
X355Y160D01*
X288Y159D02*
X308Y159D01*
X335Y159D02*
X355Y159D01*
X289Y158D02*
X309Y158D01*
X334Y158D02*
X355Y158D01*
X289Y157D02*
X310Y157D01*
X333Y157D02*
X355Y157D01*
X289Y156D02*
X311Y156D01*
X332Y156D02*
X354Y156D01*
X289Y155D02*
X312Y155D01*
X331Y155D02*
X354Y155D01*
X290Y154D02*
X313Y154D01*
X330Y154D02*
X353Y154D01*
X290Y153D02*
X315Y153D01*
X328Y153D02*
X353Y153D01*
X291Y152D02*
X320Y152D01*
X323Y152D02*
X353Y152D01*
X291Y151D02*
X352Y151D01*
X292Y150D02*
X352Y150D01*
X292Y149D02*
X351Y149D01*
X293Y148D02*
X350Y148D01*
X294Y147D02*
X350Y147D01*
X294Y146D02*
X349Y146D01*
X295Y145D02*
X348Y145D01*
X296Y144D02*
X348Y144D01*
X297Y143D02*
X347Y143D01*
X298Y142D02*
X346Y142D01*
X299Y141D02*
X345Y141D01*
X300Y140D02*
X343Y140D01*
X301Y139D02*
X342Y139D01*
X303Y138D02*
X341Y138D01*
X304Y137D02*
X339Y137D01*
X306Y136D02*
X337Y136D01*
X308Y135D02*
X335Y135D01*
X311Y134D02*
X332Y134D01*
X314Y133D02*
X329Y133D01*
X321Y132D02*
X322Y132D01*
D02*
G04 End of Copper0*
M02*