G04 MADE WITH FRITZING*
G04 WWW.FRITZING.ORG*
G04 DOUBLE SIDED*
G04 HOLES PLATED*
G04 CONTOUR ON CENTER OF CONTOUR VECTOR*
%ASAXBY*%
%FSLAX23Y23*%
%MOIN*%
%OFA0B0*%
%SFA1.0B1.0*%
%ADD10C,0.067559*%
%ADD11C,0.075000*%
%ADD12C,0.070000*%
%ADD13R,0.067559X0.067559*%
%ADD14R,0.075000X0.075000*%
%ADD15R,0.001000X0.001000*%
%LNCOPPER0*%
G90*
G70*
G54D10*
X1572Y572D03*
X1472Y572D03*
X1372Y572D03*
X1272Y572D03*
X1172Y572D03*
X1172Y1272D03*
X1272Y1272D03*
X1372Y1272D03*
X1472Y1272D03*
X1572Y1272D03*
G54D11*
X622Y172D03*
X1022Y172D03*
X622Y272D03*
X1022Y272D03*
G54D12*
X322Y272D03*
X322Y172D03*
G54D11*
X422Y1272D03*
X322Y1272D03*
G54D13*
X1572Y572D03*
X1172Y1272D03*
G54D14*
X422Y1272D03*
G54D15*
X318Y308D02*
X326Y308D01*
X313Y307D02*
X330Y307D01*
X310Y306D02*
X333Y306D01*
X308Y305D02*
X336Y305D01*
X305Y304D02*
X338Y304D01*
X304Y303D02*
X339Y303D01*
X302Y302D02*
X341Y302D01*
X301Y301D02*
X342Y301D01*
X299Y300D02*
X344Y300D01*
X298Y299D02*
X345Y299D01*
X297Y298D02*
X346Y298D01*
X296Y297D02*
X347Y297D01*
X295Y296D02*
X348Y296D01*
X295Y295D02*
X348Y295D01*
X294Y294D02*
X349Y294D01*
X293Y293D02*
X350Y293D01*
X293Y292D02*
X350Y292D01*
X292Y291D02*
X351Y291D01*
X291Y290D02*
X352Y290D01*
X291Y289D02*
X352Y289D01*
X291Y288D02*
X317Y288D01*
X326Y288D02*
X353Y288D01*
X290Y287D02*
X314Y287D01*
X329Y287D02*
X353Y287D01*
X290Y286D02*
X313Y286D01*
X330Y286D02*
X353Y286D01*
X289Y285D02*
X312Y285D01*
X331Y285D02*
X354Y285D01*
X289Y284D02*
X311Y284D01*
X333Y284D02*
X354Y284D01*
X289Y283D02*
X310Y283D01*
X334Y283D02*
X355Y283D01*
X288Y282D02*
X309Y282D01*
X334Y282D02*
X355Y282D01*
X288Y281D02*
X308Y281D01*
X335Y281D02*
X355Y281D01*
X288Y280D02*
X307Y280D01*
X336Y280D02*
X355Y280D01*
X288Y279D02*
X307Y279D01*
X336Y279D02*
X355Y279D01*
X287Y278D02*
X307Y278D01*
X336Y278D02*
X356Y278D01*
X287Y277D02*
X306Y277D01*
X337Y277D02*
X356Y277D01*
X287Y276D02*
X306Y276D01*
X337Y276D02*
X356Y276D01*
X287Y275D02*
X306Y275D01*
X337Y275D02*
X356Y275D01*
X287Y274D02*
X306Y274D01*
X337Y274D02*
X356Y274D01*
X287Y273D02*
X306Y273D01*
X337Y273D02*
X356Y273D01*
X287Y272D02*
X306Y272D01*
X337Y272D02*
X356Y272D01*
X287Y271D02*
X306Y271D01*
X337Y271D02*
X356Y271D01*
X287Y270D02*
X306Y270D01*
X337Y270D02*
X356Y270D01*
X287Y269D02*
X307Y269D01*
X336Y269D02*
X356Y269D01*
X288Y268D02*
X307Y268D01*
X336Y268D02*
X355Y268D01*
X288Y267D02*
X307Y267D01*
X336Y267D02*
X355Y267D01*
X288Y266D02*
X308Y266D01*
X335Y266D02*
X355Y266D01*
X288Y265D02*
X309Y265D01*
X335Y265D02*
X355Y265D01*
X289Y264D02*
X309Y264D01*
X334Y264D02*
X355Y264D01*
X289Y263D02*
X310Y263D01*
X333Y263D02*
X354Y263D01*
X289Y262D02*
X311Y262D01*
X332Y262D02*
X354Y262D01*
X290Y261D02*
X313Y261D01*
X331Y261D02*
X354Y261D01*
X290Y260D02*
X314Y260D01*
X329Y260D02*
X353Y260D01*
X290Y259D02*
X317Y259D01*
X327Y259D02*
X353Y259D01*
X291Y258D02*
X352Y258D01*
X291Y257D02*
X352Y257D01*
X292Y256D02*
X351Y256D01*
X292Y255D02*
X351Y255D01*
X293Y254D02*
X350Y254D01*
X294Y253D02*
X349Y253D01*
X294Y252D02*
X349Y252D01*
X295Y251D02*
X348Y251D01*
X296Y250D02*
X347Y250D01*
X297Y249D02*
X346Y249D01*
X298Y248D02*
X345Y248D01*
X299Y247D02*
X344Y247D01*
X300Y246D02*
X343Y246D01*
X302Y245D02*
X341Y245D01*
X303Y244D02*
X340Y244D01*
X305Y243D02*
X338Y243D01*
X307Y242D02*
X336Y242D01*
X309Y241D02*
X334Y241D01*
X312Y240D02*
X331Y240D01*
X316Y239D02*
X327Y239D01*
X317Y208D02*
X326Y208D01*
X313Y207D02*
X330Y207D01*
X310Y206D02*
X333Y206D01*
X307Y205D02*
X336Y205D01*
X305Y204D02*
X338Y204D01*
X304Y203D02*
X339Y203D01*
X302Y202D02*
X341Y202D01*
X301Y201D02*
X342Y201D01*
X299Y200D02*
X344Y200D01*
X298Y199D02*
X345Y199D01*
X297Y198D02*
X346Y198D01*
X296Y197D02*
X347Y197D01*
X295Y196D02*
X348Y196D01*
X295Y195D02*
X348Y195D01*
X294Y194D02*
X349Y194D01*
X293Y193D02*
X350Y193D01*
X293Y192D02*
X351Y192D01*
X292Y191D02*
X351Y191D01*
X291Y190D02*
X352Y190D01*
X291Y189D02*
X352Y189D01*
X290Y188D02*
X317Y188D01*
X326Y188D02*
X353Y188D01*
X290Y187D02*
X314Y187D01*
X329Y187D02*
X353Y187D01*
X290Y186D02*
X313Y186D01*
X330Y186D02*
X353Y186D01*
X289Y185D02*
X312Y185D01*
X332Y185D02*
X354Y185D01*
X289Y184D02*
X310Y184D01*
X333Y184D02*
X354Y184D01*
X289Y183D02*
X310Y183D01*
X334Y183D02*
X355Y183D01*
X288Y182D02*
X309Y182D01*
X334Y182D02*
X355Y182D01*
X288Y181D02*
X308Y181D01*
X335Y181D02*
X355Y181D01*
X288Y180D02*
X307Y180D01*
X336Y180D02*
X355Y180D01*
X288Y179D02*
X307Y179D01*
X336Y179D02*
X355Y179D01*
X287Y178D02*
X307Y178D01*
X336Y178D02*
X356Y178D01*
X287Y177D02*
X306Y177D01*
X337Y177D02*
X356Y177D01*
X287Y176D02*
X306Y176D01*
X337Y176D02*
X356Y176D01*
X287Y175D02*
X306Y175D01*
X337Y175D02*
X356Y175D01*
X287Y174D02*
X306Y174D01*
X337Y174D02*
X356Y174D01*
X287Y173D02*
X306Y173D01*
X337Y173D02*
X356Y173D01*
X287Y172D02*
X306Y172D01*
X337Y172D02*
X356Y172D01*
X287Y171D02*
X306Y171D01*
X337Y171D02*
X356Y171D01*
X287Y170D02*
X306Y170D01*
X337Y170D02*
X356Y170D01*
X287Y169D02*
X307Y169D01*
X336Y169D02*
X356Y169D01*
X288Y168D02*
X307Y168D01*
X336Y168D02*
X355Y168D01*
X288Y167D02*
X307Y167D01*
X336Y167D02*
X355Y167D01*
X288Y166D02*
X308Y166D01*
X335Y166D02*
X355Y166D01*
X288Y165D02*
X309Y165D01*
X335Y165D02*
X355Y165D01*
X289Y164D02*
X309Y164D01*
X334Y164D02*
X355Y164D01*
X289Y163D02*
X310Y163D01*
X333Y163D02*
X354Y163D01*
X289Y162D02*
X311Y162D01*
X332Y162D02*
X354Y162D01*
X290Y161D02*
X313Y161D01*
X331Y161D02*
X354Y161D01*
X290Y160D02*
X314Y160D01*
X329Y160D02*
X353Y160D01*
X290Y159D02*
X317Y159D01*
X326Y159D02*
X353Y159D01*
X291Y158D02*
X352Y158D01*
X291Y157D02*
X352Y157D01*
X292Y156D02*
X351Y156D01*
X293Y155D02*
X351Y155D01*
X293Y154D02*
X350Y154D01*
X294Y153D02*
X349Y153D01*
X295Y152D02*
X349Y152D01*
X295Y151D02*
X348Y151D01*
X296Y150D02*
X347Y150D01*
X297Y149D02*
X346Y149D01*
X298Y148D02*
X345Y148D01*
X299Y147D02*
X344Y147D01*
X300Y146D02*
X343Y146D01*
X302Y145D02*
X341Y145D01*
X303Y144D02*
X340Y144D01*
X305Y143D02*
X338Y143D01*
X307Y142D02*
X336Y142D01*
X310Y141D02*
X334Y141D01*
X312Y140D02*
X331Y140D01*
X316Y139D02*
X327Y139D01*
D02*
G04 End of Copper0*
M02*