G04 MADE WITH FRITZING*
G04 WWW.FRITZING.ORG*
G04 DOUBLE SIDED*
G04 HOLES PLATED*
G04 CONTOUR ON CENTER OF CONTOUR VECTOR*
%ASAXBY*%
%FSLAX23Y23*%
%MOIN*%
%OFA0B0*%
%SFA1.0B1.0*%
%ADD10R,0.144999X0.295000X0.134999X0.285000*%
%ADD11C,0.005000*%
%ADD12C,0.010000*%
%ADD13R,0.001000X0.001000*%
%LNSILK1*%
G90*
G70*
G54D11*
X86Y369D02*
X226Y369D01*
X226Y79D01*
X86Y79D01*
X86Y369D01*
D02*
G54D12*
X590Y207D02*
X790Y207D01*
D02*
X790Y207D02*
X790Y141D01*
D02*
X790Y141D02*
X590Y141D01*
D02*
X590Y141D02*
X590Y207D01*
D02*
X590Y307D02*
X790Y307D01*
D02*
X790Y307D02*
X790Y241D01*
D02*
X790Y241D02*
X590Y241D01*
D02*
X590Y241D02*
X590Y307D01*
D02*
X1486Y662D02*
X976Y662D01*
D02*
X976Y662D02*
X976Y446D01*
D02*
X976Y446D02*
X1486Y446D01*
D02*
X1486Y446D02*
X1486Y662D01*
G54D11*
D02*
X976Y486D02*
X1486Y486D01*
G54D12*
D02*
X976Y1186D02*
X1486Y1186D01*
D02*
X1486Y1186D02*
X1486Y1402D01*
D02*
X1486Y1402D02*
X976Y1402D01*
D02*
X976Y1402D02*
X976Y1186D01*
G54D11*
D02*
X1486Y1362D02*
X976Y1362D01*
G54D13*
X0Y1510D02*
X1783Y1510D01*
X0Y1509D02*
X1783Y1509D01*
X0Y1508D02*
X1783Y1508D01*
X0Y1507D02*
X1783Y1507D01*
X0Y1506D02*
X1783Y1506D01*
X0Y1505D02*
X1783Y1505D01*
X0Y1504D02*
X1783Y1504D01*
X0Y1503D02*
X1783Y1503D01*
X0Y1502D02*
X7Y1502D01*
X1776Y1502D02*
X1783Y1502D01*
X0Y1501D02*
X7Y1501D01*
X1776Y1501D02*
X1783Y1501D01*
X0Y1500D02*
X7Y1500D01*
X1776Y1500D02*
X1783Y1500D01*
X0Y1499D02*
X7Y1499D01*
X1776Y1499D02*
X1783Y1499D01*
X0Y1498D02*
X7Y1498D01*
X1776Y1498D02*
X1783Y1498D01*
X0Y1497D02*
X7Y1497D01*
X1776Y1497D02*
X1783Y1497D01*
X0Y1496D02*
X7Y1496D01*
X1776Y1496D02*
X1783Y1496D01*
X0Y1495D02*
X7Y1495D01*
X1776Y1495D02*
X1783Y1495D01*
X0Y1494D02*
X7Y1494D01*
X1776Y1494D02*
X1783Y1494D01*
X0Y1493D02*
X7Y1493D01*
X1776Y1493D02*
X1783Y1493D01*
X0Y1492D02*
X7Y1492D01*
X1776Y1492D02*
X1783Y1492D01*
X0Y1491D02*
X7Y1491D01*
X1776Y1491D02*
X1783Y1491D01*
X0Y1490D02*
X7Y1490D01*
X1776Y1490D02*
X1783Y1490D01*
X0Y1489D02*
X7Y1489D01*
X1776Y1489D02*
X1783Y1489D01*
X0Y1488D02*
X7Y1488D01*
X1776Y1488D02*
X1783Y1488D01*
X0Y1487D02*
X7Y1487D01*
X1776Y1487D02*
X1783Y1487D01*
X0Y1486D02*
X7Y1486D01*
X1776Y1486D02*
X1783Y1486D01*
X0Y1485D02*
X7Y1485D01*
X1776Y1485D02*
X1783Y1485D01*
X0Y1484D02*
X7Y1484D01*
X1776Y1484D02*
X1783Y1484D01*
X0Y1483D02*
X7Y1483D01*
X1776Y1483D02*
X1783Y1483D01*
X0Y1482D02*
X7Y1482D01*
X1776Y1482D02*
X1783Y1482D01*
X0Y1481D02*
X7Y1481D01*
X1776Y1481D02*
X1783Y1481D01*
X0Y1480D02*
X7Y1480D01*
X1776Y1480D02*
X1783Y1480D01*
X0Y1479D02*
X7Y1479D01*
X1776Y1479D02*
X1783Y1479D01*
X0Y1478D02*
X7Y1478D01*
X1776Y1478D02*
X1783Y1478D01*
X0Y1477D02*
X7Y1477D01*
X1776Y1477D02*
X1783Y1477D01*
X0Y1476D02*
X7Y1476D01*
X1776Y1476D02*
X1783Y1476D01*
X0Y1475D02*
X7Y1475D01*
X1776Y1475D02*
X1783Y1475D01*
X0Y1474D02*
X7Y1474D01*
X1776Y1474D02*
X1783Y1474D01*
X0Y1473D02*
X7Y1473D01*
X1776Y1473D02*
X1783Y1473D01*
X0Y1472D02*
X7Y1472D01*
X1776Y1472D02*
X1783Y1472D01*
X0Y1471D02*
X7Y1471D01*
X1776Y1471D02*
X1783Y1471D01*
X0Y1470D02*
X7Y1470D01*
X1776Y1470D02*
X1783Y1470D01*
X0Y1469D02*
X7Y1469D01*
X1776Y1469D02*
X1783Y1469D01*
X0Y1468D02*
X7Y1468D01*
X1776Y1468D02*
X1783Y1468D01*
X0Y1467D02*
X7Y1467D01*
X1776Y1467D02*
X1783Y1467D01*
X0Y1466D02*
X7Y1466D01*
X1776Y1466D02*
X1783Y1466D01*
X0Y1465D02*
X7Y1465D01*
X1776Y1465D02*
X1783Y1465D01*
X0Y1464D02*
X7Y1464D01*
X1776Y1464D02*
X1783Y1464D01*
X0Y1463D02*
X7Y1463D01*
X1776Y1463D02*
X1783Y1463D01*
X0Y1462D02*
X7Y1462D01*
X1776Y1462D02*
X1783Y1462D01*
X0Y1461D02*
X7Y1461D01*
X1776Y1461D02*
X1783Y1461D01*
X0Y1460D02*
X7Y1460D01*
X1776Y1460D02*
X1783Y1460D01*
X0Y1459D02*
X7Y1459D01*
X1776Y1459D02*
X1783Y1459D01*
X0Y1458D02*
X7Y1458D01*
X1776Y1458D02*
X1783Y1458D01*
X0Y1457D02*
X7Y1457D01*
X1776Y1457D02*
X1783Y1457D01*
X0Y1456D02*
X7Y1456D01*
X1776Y1456D02*
X1783Y1456D01*
X0Y1455D02*
X7Y1455D01*
X1776Y1455D02*
X1783Y1455D01*
X0Y1454D02*
X7Y1454D01*
X1776Y1454D02*
X1783Y1454D01*
X0Y1453D02*
X7Y1453D01*
X1776Y1453D02*
X1783Y1453D01*
X0Y1452D02*
X7Y1452D01*
X1776Y1452D02*
X1783Y1452D01*
X0Y1451D02*
X7Y1451D01*
X1776Y1451D02*
X1783Y1451D01*
X0Y1450D02*
X7Y1450D01*
X1776Y1450D02*
X1783Y1450D01*
X0Y1449D02*
X7Y1449D01*
X1776Y1449D02*
X1783Y1449D01*
X0Y1448D02*
X7Y1448D01*
X1776Y1448D02*
X1783Y1448D01*
X0Y1447D02*
X7Y1447D01*
X1776Y1447D02*
X1783Y1447D01*
X0Y1446D02*
X7Y1446D01*
X1776Y1446D02*
X1783Y1446D01*
X0Y1445D02*
X7Y1445D01*
X1776Y1445D02*
X1783Y1445D01*
X0Y1444D02*
X7Y1444D01*
X1776Y1444D02*
X1783Y1444D01*
X0Y1443D02*
X7Y1443D01*
X1776Y1443D02*
X1783Y1443D01*
X0Y1442D02*
X7Y1442D01*
X1776Y1442D02*
X1783Y1442D01*
X0Y1441D02*
X7Y1441D01*
X1776Y1441D02*
X1783Y1441D01*
X0Y1440D02*
X7Y1440D01*
X1776Y1440D02*
X1783Y1440D01*
X0Y1439D02*
X7Y1439D01*
X1776Y1439D02*
X1783Y1439D01*
X0Y1438D02*
X7Y1438D01*
X1776Y1438D02*
X1783Y1438D01*
X0Y1437D02*
X7Y1437D01*
X1776Y1437D02*
X1783Y1437D01*
X0Y1436D02*
X7Y1436D01*
X1776Y1436D02*
X1783Y1436D01*
X0Y1435D02*
X7Y1435D01*
X1776Y1435D02*
X1783Y1435D01*
X0Y1434D02*
X7Y1434D01*
X1776Y1434D02*
X1783Y1434D01*
X0Y1433D02*
X7Y1433D01*
X1776Y1433D02*
X1783Y1433D01*
X0Y1432D02*
X7Y1432D01*
X1776Y1432D02*
X1783Y1432D01*
X0Y1431D02*
X7Y1431D01*
X1776Y1431D02*
X1783Y1431D01*
X0Y1430D02*
X7Y1430D01*
X1776Y1430D02*
X1783Y1430D01*
X0Y1429D02*
X7Y1429D01*
X1776Y1429D02*
X1783Y1429D01*
X0Y1428D02*
X7Y1428D01*
X1776Y1428D02*
X1783Y1428D01*
X0Y1427D02*
X7Y1427D01*
X1776Y1427D02*
X1783Y1427D01*
X0Y1426D02*
X7Y1426D01*
X1776Y1426D02*
X1783Y1426D01*
X0Y1425D02*
X7Y1425D01*
X1776Y1425D02*
X1783Y1425D01*
X0Y1424D02*
X7Y1424D01*
X1776Y1424D02*
X1783Y1424D01*
X0Y1423D02*
X7Y1423D01*
X1776Y1423D02*
X1783Y1423D01*
X0Y1422D02*
X7Y1422D01*
X1776Y1422D02*
X1783Y1422D01*
X0Y1421D02*
X7Y1421D01*
X1776Y1421D02*
X1783Y1421D01*
X0Y1420D02*
X7Y1420D01*
X1776Y1420D02*
X1783Y1420D01*
X0Y1419D02*
X7Y1419D01*
X1776Y1419D02*
X1783Y1419D01*
X0Y1418D02*
X7Y1418D01*
X1776Y1418D02*
X1783Y1418D01*
X0Y1417D02*
X7Y1417D01*
X1776Y1417D02*
X1783Y1417D01*
X0Y1416D02*
X7Y1416D01*
X1776Y1416D02*
X1783Y1416D01*
X0Y1415D02*
X7Y1415D01*
X1776Y1415D02*
X1783Y1415D01*
X0Y1414D02*
X7Y1414D01*
X1776Y1414D02*
X1783Y1414D01*
X0Y1413D02*
X7Y1413D01*
X1776Y1413D02*
X1783Y1413D01*
X0Y1412D02*
X7Y1412D01*
X1776Y1412D02*
X1783Y1412D01*
X0Y1411D02*
X7Y1411D01*
X1776Y1411D02*
X1783Y1411D01*
X0Y1410D02*
X7Y1410D01*
X1776Y1410D02*
X1783Y1410D01*
X0Y1409D02*
X7Y1409D01*
X1776Y1409D02*
X1783Y1409D01*
X0Y1408D02*
X7Y1408D01*
X1776Y1408D02*
X1783Y1408D01*
X0Y1407D02*
X7Y1407D01*
X1776Y1407D02*
X1783Y1407D01*
X0Y1406D02*
X7Y1406D01*
X1776Y1406D02*
X1783Y1406D01*
X0Y1405D02*
X7Y1405D01*
X1776Y1405D02*
X1783Y1405D01*
X0Y1404D02*
X7Y1404D01*
X1776Y1404D02*
X1783Y1404D01*
X0Y1403D02*
X7Y1403D01*
X1776Y1403D02*
X1783Y1403D01*
X0Y1402D02*
X7Y1402D01*
X1776Y1402D02*
X1783Y1402D01*
X0Y1401D02*
X7Y1401D01*
X1776Y1401D02*
X1783Y1401D01*
X0Y1400D02*
X7Y1400D01*
X1776Y1400D02*
X1783Y1400D01*
X0Y1399D02*
X7Y1399D01*
X1776Y1399D02*
X1783Y1399D01*
X0Y1398D02*
X7Y1398D01*
X1776Y1398D02*
X1783Y1398D01*
X0Y1397D02*
X7Y1397D01*
X1776Y1397D02*
X1783Y1397D01*
X0Y1396D02*
X7Y1396D01*
X1776Y1396D02*
X1783Y1396D01*
X0Y1395D02*
X7Y1395D01*
X1776Y1395D02*
X1783Y1395D01*
X0Y1394D02*
X7Y1394D01*
X1776Y1394D02*
X1783Y1394D01*
X0Y1393D02*
X7Y1393D01*
X1776Y1393D02*
X1783Y1393D01*
X0Y1392D02*
X7Y1392D01*
X1776Y1392D02*
X1783Y1392D01*
X0Y1391D02*
X7Y1391D01*
X1776Y1391D02*
X1783Y1391D01*
X0Y1390D02*
X7Y1390D01*
X1776Y1390D02*
X1783Y1390D01*
X0Y1389D02*
X7Y1389D01*
X1776Y1389D02*
X1783Y1389D01*
X0Y1388D02*
X7Y1388D01*
X1776Y1388D02*
X1783Y1388D01*
X0Y1387D02*
X7Y1387D01*
X1776Y1387D02*
X1783Y1387D01*
X0Y1386D02*
X7Y1386D01*
X1776Y1386D02*
X1783Y1386D01*
X0Y1385D02*
X7Y1385D01*
X1776Y1385D02*
X1783Y1385D01*
X0Y1384D02*
X7Y1384D01*
X1776Y1384D02*
X1783Y1384D01*
X0Y1383D02*
X7Y1383D01*
X1776Y1383D02*
X1783Y1383D01*
X0Y1382D02*
X7Y1382D01*
X1776Y1382D02*
X1783Y1382D01*
X0Y1381D02*
X7Y1381D01*
X1776Y1381D02*
X1783Y1381D01*
X0Y1380D02*
X7Y1380D01*
X1776Y1380D02*
X1783Y1380D01*
X0Y1379D02*
X7Y1379D01*
X219Y1379D02*
X241Y1379D01*
X1776Y1379D02*
X1783Y1379D01*
X0Y1378D02*
X7Y1378D01*
X213Y1378D02*
X248Y1378D01*
X1776Y1378D02*
X1783Y1378D01*
X0Y1377D02*
X7Y1377D01*
X208Y1377D02*
X253Y1377D01*
X1776Y1377D02*
X1783Y1377D01*
X0Y1376D02*
X7Y1376D01*
X204Y1376D02*
X257Y1376D01*
X1776Y1376D02*
X1783Y1376D01*
X0Y1375D02*
X7Y1375D01*
X200Y1375D02*
X261Y1375D01*
X1776Y1375D02*
X1783Y1375D01*
X0Y1374D02*
X7Y1374D01*
X197Y1374D02*
X264Y1374D01*
X1776Y1374D02*
X1783Y1374D01*
X0Y1373D02*
X7Y1373D01*
X194Y1373D02*
X267Y1373D01*
X1776Y1373D02*
X1783Y1373D01*
X0Y1372D02*
X7Y1372D01*
X192Y1372D02*
X269Y1372D01*
X1776Y1372D02*
X1783Y1372D01*
X0Y1371D02*
X7Y1371D01*
X189Y1371D02*
X271Y1371D01*
X1776Y1371D02*
X1783Y1371D01*
X0Y1370D02*
X7Y1370D01*
X187Y1370D02*
X274Y1370D01*
X1776Y1370D02*
X1783Y1370D01*
X0Y1369D02*
X7Y1369D01*
X185Y1369D02*
X219Y1369D01*
X242Y1369D02*
X276Y1369D01*
X1776Y1369D02*
X1783Y1369D01*
X0Y1368D02*
X7Y1368D01*
X183Y1368D02*
X212Y1368D01*
X249Y1368D02*
X278Y1368D01*
X1776Y1368D02*
X1783Y1368D01*
X0Y1367D02*
X7Y1367D01*
X181Y1367D02*
X207Y1367D01*
X254Y1367D02*
X280Y1367D01*
X1776Y1367D02*
X1783Y1367D01*
X0Y1366D02*
X7Y1366D01*
X179Y1366D02*
X203Y1366D01*
X257Y1366D02*
X281Y1366D01*
X1776Y1366D02*
X1783Y1366D01*
X0Y1365D02*
X7Y1365D01*
X178Y1365D02*
X200Y1365D01*
X261Y1365D02*
X283Y1365D01*
X1776Y1365D02*
X1783Y1365D01*
X0Y1364D02*
X7Y1364D01*
X176Y1364D02*
X198Y1364D01*
X263Y1364D02*
X285Y1364D01*
X1776Y1364D02*
X1783Y1364D01*
X0Y1363D02*
X7Y1363D01*
X174Y1363D02*
X195Y1363D01*
X266Y1363D02*
X286Y1363D01*
X1776Y1363D02*
X1783Y1363D01*
X0Y1362D02*
X7Y1362D01*
X173Y1362D02*
X192Y1362D01*
X269Y1362D02*
X288Y1362D01*
X1776Y1362D02*
X1783Y1362D01*
X0Y1361D02*
X7Y1361D01*
X171Y1361D02*
X190Y1361D01*
X271Y1361D02*
X290Y1361D01*
X1776Y1361D02*
X1783Y1361D01*
X0Y1360D02*
X7Y1360D01*
X170Y1360D02*
X188Y1360D01*
X273Y1360D02*
X291Y1360D01*
X1776Y1360D02*
X1783Y1360D01*
X0Y1359D02*
X7Y1359D01*
X169Y1359D02*
X186Y1359D01*
X275Y1359D02*
X292Y1359D01*
X1776Y1359D02*
X1783Y1359D01*
X0Y1358D02*
X7Y1358D01*
X167Y1358D02*
X184Y1358D01*
X277Y1358D02*
X294Y1358D01*
X1776Y1358D02*
X1783Y1358D01*
X0Y1357D02*
X7Y1357D01*
X166Y1357D02*
X182Y1357D01*
X278Y1357D02*
X295Y1357D01*
X1776Y1357D02*
X1783Y1357D01*
X0Y1356D02*
X7Y1356D01*
X165Y1356D02*
X181Y1356D01*
X280Y1356D02*
X296Y1356D01*
X1776Y1356D02*
X1783Y1356D01*
X0Y1355D02*
X7Y1355D01*
X163Y1355D02*
X179Y1355D01*
X282Y1355D02*
X297Y1355D01*
X1776Y1355D02*
X1783Y1355D01*
X0Y1354D02*
X7Y1354D01*
X162Y1354D02*
X178Y1354D01*
X283Y1354D02*
X299Y1354D01*
X1776Y1354D02*
X1783Y1354D01*
X0Y1353D02*
X7Y1353D01*
X161Y1353D02*
X176Y1353D01*
X285Y1353D02*
X300Y1353D01*
X1776Y1353D02*
X1783Y1353D01*
X0Y1352D02*
X7Y1352D01*
X160Y1352D02*
X175Y1352D01*
X286Y1352D02*
X301Y1352D01*
X1776Y1352D02*
X1783Y1352D01*
X0Y1351D02*
X7Y1351D01*
X159Y1351D02*
X173Y1351D01*
X287Y1351D02*
X302Y1351D01*
X1776Y1351D02*
X1783Y1351D01*
X0Y1350D02*
X7Y1350D01*
X158Y1350D02*
X172Y1350D01*
X289Y1350D02*
X303Y1350D01*
X1776Y1350D02*
X1783Y1350D01*
X0Y1349D02*
X7Y1349D01*
X157Y1349D02*
X171Y1349D01*
X290Y1349D02*
X304Y1349D01*
X1776Y1349D02*
X1783Y1349D01*
X0Y1348D02*
X7Y1348D01*
X156Y1348D02*
X169Y1348D01*
X291Y1348D02*
X305Y1348D01*
X1776Y1348D02*
X1783Y1348D01*
X0Y1347D02*
X7Y1347D01*
X155Y1347D02*
X168Y1347D01*
X292Y1347D02*
X306Y1347D01*
X1776Y1347D02*
X1783Y1347D01*
X0Y1346D02*
X7Y1346D01*
X154Y1346D02*
X167Y1346D01*
X294Y1346D02*
X307Y1346D01*
X1776Y1346D02*
X1783Y1346D01*
X0Y1345D02*
X7Y1345D01*
X153Y1345D02*
X166Y1345D01*
X295Y1345D02*
X308Y1345D01*
X1776Y1345D02*
X1783Y1345D01*
X0Y1344D02*
X7Y1344D01*
X152Y1344D02*
X165Y1344D01*
X296Y1344D02*
X309Y1344D01*
X1776Y1344D02*
X1783Y1344D01*
X0Y1343D02*
X7Y1343D01*
X151Y1343D02*
X164Y1343D01*
X297Y1343D02*
X310Y1343D01*
X1776Y1343D02*
X1783Y1343D01*
X0Y1342D02*
X7Y1342D01*
X150Y1342D02*
X163Y1342D01*
X298Y1342D02*
X310Y1342D01*
X1776Y1342D02*
X1783Y1342D01*
X0Y1341D02*
X7Y1341D01*
X150Y1341D02*
X162Y1341D01*
X299Y1341D02*
X311Y1341D01*
X1776Y1341D02*
X1783Y1341D01*
X0Y1340D02*
X7Y1340D01*
X149Y1340D02*
X161Y1340D01*
X300Y1340D02*
X312Y1340D01*
X1776Y1340D02*
X1783Y1340D01*
X0Y1339D02*
X7Y1339D01*
X148Y1339D02*
X160Y1339D01*
X301Y1339D02*
X313Y1339D01*
X1776Y1339D02*
X1783Y1339D01*
X0Y1338D02*
X7Y1338D01*
X147Y1338D02*
X159Y1338D01*
X302Y1338D02*
X313Y1338D01*
X1776Y1338D02*
X1783Y1338D01*
X0Y1337D02*
X7Y1337D01*
X147Y1337D02*
X158Y1337D01*
X303Y1337D02*
X314Y1337D01*
X1776Y1337D02*
X1783Y1337D01*
X0Y1336D02*
X7Y1336D01*
X146Y1336D02*
X157Y1336D01*
X303Y1336D02*
X315Y1336D01*
X1776Y1336D02*
X1783Y1336D01*
X0Y1335D02*
X7Y1335D01*
X145Y1335D02*
X157Y1335D01*
X265Y1335D02*
X296Y1335D01*
X304Y1335D02*
X316Y1335D01*
X1776Y1335D02*
X1783Y1335D01*
X0Y1334D02*
X7Y1334D01*
X144Y1334D02*
X156Y1334D01*
X263Y1334D02*
X298Y1334D01*
X305Y1334D02*
X316Y1334D01*
X1776Y1334D02*
X1783Y1334D01*
X0Y1333D02*
X7Y1333D01*
X144Y1333D02*
X155Y1333D01*
X262Y1333D02*
X299Y1333D01*
X306Y1333D02*
X317Y1333D01*
X1776Y1333D02*
X1783Y1333D01*
X0Y1332D02*
X7Y1332D01*
X143Y1332D02*
X154Y1332D01*
X261Y1332D02*
X300Y1332D01*
X307Y1332D02*
X318Y1332D01*
X1776Y1332D02*
X1783Y1332D01*
X0Y1331D02*
X7Y1331D01*
X142Y1331D02*
X153Y1331D01*
X261Y1331D02*
X300Y1331D01*
X307Y1331D02*
X318Y1331D01*
X1776Y1331D02*
X1783Y1331D01*
X0Y1330D02*
X7Y1330D01*
X142Y1330D02*
X153Y1330D01*
X260Y1330D02*
X300Y1330D01*
X308Y1330D02*
X319Y1330D01*
X1776Y1330D02*
X1783Y1330D01*
X0Y1329D02*
X7Y1329D01*
X141Y1329D02*
X152Y1329D01*
X261Y1329D02*
X300Y1329D01*
X309Y1329D02*
X320Y1329D01*
X1776Y1329D02*
X1783Y1329D01*
X0Y1328D02*
X7Y1328D01*
X141Y1328D02*
X151Y1328D01*
X261Y1328D02*
X300Y1328D01*
X310Y1328D02*
X320Y1328D01*
X1776Y1328D02*
X1783Y1328D01*
X0Y1327D02*
X7Y1327D01*
X140Y1327D02*
X151Y1327D01*
X261Y1327D02*
X300Y1327D01*
X310Y1327D02*
X321Y1327D01*
X1776Y1327D02*
X1783Y1327D01*
X0Y1326D02*
X7Y1326D01*
X139Y1326D02*
X150Y1326D01*
X262Y1326D02*
X299Y1326D01*
X311Y1326D02*
X321Y1326D01*
X1776Y1326D02*
X1783Y1326D01*
X0Y1325D02*
X7Y1325D01*
X139Y1325D02*
X149Y1325D01*
X263Y1325D02*
X298Y1325D01*
X311Y1325D02*
X322Y1325D01*
X1776Y1325D02*
X1783Y1325D01*
X0Y1324D02*
X7Y1324D01*
X138Y1324D02*
X149Y1324D01*
X312Y1324D02*
X323Y1324D01*
X1776Y1324D02*
X1783Y1324D01*
X0Y1323D02*
X7Y1323D01*
X138Y1323D02*
X148Y1323D01*
X313Y1323D02*
X323Y1323D01*
X1776Y1323D02*
X1783Y1323D01*
X0Y1322D02*
X7Y1322D01*
X137Y1322D02*
X148Y1322D01*
X313Y1322D02*
X323Y1322D01*
X1776Y1322D02*
X1783Y1322D01*
X0Y1321D02*
X7Y1321D01*
X137Y1321D02*
X147Y1321D01*
X314Y1321D02*
X324Y1321D01*
X1776Y1321D02*
X1783Y1321D01*
X0Y1320D02*
X7Y1320D01*
X136Y1320D02*
X146Y1320D01*
X315Y1320D02*
X324Y1320D01*
X1776Y1320D02*
X1783Y1320D01*
X0Y1319D02*
X7Y1319D01*
X136Y1319D02*
X146Y1319D01*
X315Y1319D02*
X325Y1319D01*
X1776Y1319D02*
X1783Y1319D01*
X0Y1318D02*
X7Y1318D01*
X135Y1318D02*
X145Y1318D01*
X316Y1318D02*
X325Y1318D01*
X1776Y1318D02*
X1783Y1318D01*
X0Y1317D02*
X7Y1317D01*
X135Y1317D02*
X145Y1317D01*
X323Y1317D02*
X326Y1317D01*
X1776Y1317D02*
X1783Y1317D01*
X0Y1316D02*
X7Y1316D01*
X134Y1316D02*
X144Y1316D01*
X323Y1316D02*
X326Y1316D01*
X1776Y1316D02*
X1783Y1316D01*
X0Y1315D02*
X7Y1315D01*
X134Y1315D02*
X144Y1315D01*
X323Y1315D02*
X327Y1315D01*
X1776Y1315D02*
X1783Y1315D01*
X0Y1314D02*
X7Y1314D01*
X134Y1314D02*
X143Y1314D01*
X323Y1314D02*
X327Y1314D01*
X1776Y1314D02*
X1783Y1314D01*
X0Y1313D02*
X7Y1313D01*
X133Y1313D02*
X143Y1313D01*
X323Y1313D02*
X328Y1313D01*
X1776Y1313D02*
X1783Y1313D01*
X0Y1312D02*
X7Y1312D01*
X133Y1312D02*
X142Y1312D01*
X323Y1312D02*
X328Y1312D01*
X1776Y1312D02*
X1783Y1312D01*
X0Y1311D02*
X7Y1311D01*
X132Y1311D02*
X142Y1311D01*
X323Y1311D02*
X328Y1311D01*
X1776Y1311D02*
X1783Y1311D01*
X0Y1310D02*
X7Y1310D01*
X132Y1310D02*
X142Y1310D01*
X323Y1310D02*
X329Y1310D01*
X1776Y1310D02*
X1783Y1310D01*
X0Y1309D02*
X7Y1309D01*
X132Y1309D02*
X141Y1309D01*
X323Y1309D02*
X329Y1309D01*
X1776Y1309D02*
X1783Y1309D01*
X0Y1308D02*
X7Y1308D01*
X131Y1308D02*
X141Y1308D01*
X323Y1308D02*
X329Y1308D01*
X1776Y1308D02*
X1783Y1308D01*
X0Y1307D02*
X7Y1307D01*
X131Y1307D02*
X141Y1307D01*
X323Y1307D02*
X330Y1307D01*
X1776Y1307D02*
X1783Y1307D01*
X0Y1306D02*
X7Y1306D01*
X131Y1306D02*
X140Y1306D01*
X323Y1306D02*
X330Y1306D01*
X1776Y1306D02*
X1783Y1306D01*
X0Y1305D02*
X7Y1305D01*
X130Y1305D02*
X140Y1305D01*
X323Y1305D02*
X330Y1305D01*
X1776Y1305D02*
X1783Y1305D01*
X0Y1304D02*
X7Y1304D01*
X130Y1304D02*
X139Y1304D01*
X323Y1304D02*
X331Y1304D01*
X1776Y1304D02*
X1783Y1304D01*
X0Y1303D02*
X7Y1303D01*
X130Y1303D02*
X139Y1303D01*
X323Y1303D02*
X331Y1303D01*
X1776Y1303D02*
X1783Y1303D01*
X0Y1302D02*
X7Y1302D01*
X130Y1302D02*
X139Y1302D01*
X323Y1302D02*
X331Y1302D01*
X1776Y1302D02*
X1783Y1302D01*
X0Y1301D02*
X7Y1301D01*
X129Y1301D02*
X139Y1301D01*
X323Y1301D02*
X332Y1301D01*
X1776Y1301D02*
X1783Y1301D01*
X0Y1300D02*
X7Y1300D01*
X129Y1300D02*
X138Y1300D01*
X323Y1300D02*
X332Y1300D01*
X1776Y1300D02*
X1783Y1300D01*
X0Y1299D02*
X7Y1299D01*
X129Y1299D02*
X138Y1299D01*
X323Y1299D02*
X332Y1299D01*
X1776Y1299D02*
X1783Y1299D01*
X0Y1298D02*
X7Y1298D01*
X129Y1298D02*
X138Y1298D01*
X323Y1298D02*
X332Y1298D01*
X1776Y1298D02*
X1783Y1298D01*
X0Y1297D02*
X7Y1297D01*
X128Y1297D02*
X138Y1297D01*
X323Y1297D02*
X332Y1297D01*
X1776Y1297D02*
X1783Y1297D01*
X0Y1296D02*
X7Y1296D01*
X128Y1296D02*
X137Y1296D01*
X324Y1296D02*
X333Y1296D01*
X1776Y1296D02*
X1783Y1296D01*
X0Y1295D02*
X7Y1295D01*
X128Y1295D02*
X137Y1295D01*
X324Y1295D02*
X333Y1295D01*
X1776Y1295D02*
X1783Y1295D01*
X0Y1294D02*
X7Y1294D01*
X128Y1294D02*
X137Y1294D01*
X324Y1294D02*
X333Y1294D01*
X1776Y1294D02*
X1783Y1294D01*
X0Y1293D02*
X7Y1293D01*
X128Y1293D02*
X137Y1293D01*
X324Y1293D02*
X333Y1293D01*
X1776Y1293D02*
X1783Y1293D01*
X0Y1292D02*
X7Y1292D01*
X127Y1292D02*
X136Y1292D01*
X324Y1292D02*
X333Y1292D01*
X1776Y1292D02*
X1783Y1292D01*
X0Y1291D02*
X7Y1291D01*
X127Y1291D02*
X136Y1291D01*
X325Y1291D02*
X334Y1291D01*
X1776Y1291D02*
X1783Y1291D01*
X0Y1290D02*
X7Y1290D01*
X127Y1290D02*
X136Y1290D01*
X325Y1290D02*
X334Y1290D01*
X1776Y1290D02*
X1783Y1290D01*
X0Y1289D02*
X7Y1289D01*
X127Y1289D02*
X136Y1289D01*
X325Y1289D02*
X334Y1289D01*
X1776Y1289D02*
X1783Y1289D01*
X0Y1288D02*
X7Y1288D01*
X127Y1288D02*
X136Y1288D01*
X325Y1288D02*
X334Y1288D01*
X1776Y1288D02*
X1783Y1288D01*
X0Y1287D02*
X7Y1287D01*
X127Y1287D02*
X136Y1287D01*
X325Y1287D02*
X334Y1287D01*
X1776Y1287D02*
X1783Y1287D01*
X0Y1286D02*
X7Y1286D01*
X127Y1286D02*
X136Y1286D01*
X325Y1286D02*
X334Y1286D01*
X1776Y1286D02*
X1783Y1286D01*
X0Y1285D02*
X7Y1285D01*
X126Y1285D02*
X135Y1285D01*
X325Y1285D02*
X334Y1285D01*
X1776Y1285D02*
X1783Y1285D01*
X0Y1284D02*
X7Y1284D01*
X126Y1284D02*
X135Y1284D01*
X325Y1284D02*
X334Y1284D01*
X1776Y1284D02*
X1783Y1284D01*
X0Y1283D02*
X7Y1283D01*
X126Y1283D02*
X135Y1283D01*
X326Y1283D02*
X335Y1283D01*
X1776Y1283D02*
X1783Y1283D01*
X0Y1282D02*
X7Y1282D01*
X126Y1282D02*
X135Y1282D01*
X326Y1282D02*
X335Y1282D01*
X1776Y1282D02*
X1783Y1282D01*
X0Y1281D02*
X7Y1281D01*
X126Y1281D02*
X135Y1281D01*
X326Y1281D02*
X335Y1281D01*
X1776Y1281D02*
X1783Y1281D01*
X0Y1280D02*
X7Y1280D01*
X126Y1280D02*
X135Y1280D01*
X326Y1280D02*
X335Y1280D01*
X1776Y1280D02*
X1783Y1280D01*
X0Y1279D02*
X7Y1279D01*
X126Y1279D02*
X135Y1279D01*
X326Y1279D02*
X335Y1279D01*
X1776Y1279D02*
X1783Y1279D01*
X0Y1278D02*
X7Y1278D01*
X126Y1278D02*
X135Y1278D01*
X326Y1278D02*
X335Y1278D01*
X1776Y1278D02*
X1783Y1278D01*
X0Y1277D02*
X7Y1277D01*
X126Y1277D02*
X135Y1277D01*
X326Y1277D02*
X335Y1277D01*
X1776Y1277D02*
X1783Y1277D01*
X0Y1276D02*
X7Y1276D01*
X126Y1276D02*
X135Y1276D01*
X326Y1276D02*
X335Y1276D01*
X1776Y1276D02*
X1783Y1276D01*
X0Y1275D02*
X7Y1275D01*
X126Y1275D02*
X135Y1275D01*
X326Y1275D02*
X335Y1275D01*
X1776Y1275D02*
X1783Y1275D01*
X0Y1274D02*
X7Y1274D01*
X126Y1274D02*
X135Y1274D01*
X326Y1274D02*
X335Y1274D01*
X1776Y1274D02*
X1783Y1274D01*
X0Y1273D02*
X7Y1273D01*
X126Y1273D02*
X135Y1273D01*
X326Y1273D02*
X335Y1273D01*
X1776Y1273D02*
X1783Y1273D01*
X0Y1272D02*
X7Y1272D01*
X126Y1272D02*
X135Y1272D01*
X326Y1272D02*
X335Y1272D01*
X1776Y1272D02*
X1783Y1272D01*
X0Y1271D02*
X7Y1271D01*
X126Y1271D02*
X135Y1271D01*
X326Y1271D02*
X335Y1271D01*
X1776Y1271D02*
X1783Y1271D01*
X0Y1270D02*
X7Y1270D01*
X126Y1270D02*
X135Y1270D01*
X326Y1270D02*
X335Y1270D01*
X1776Y1270D02*
X1783Y1270D01*
X0Y1269D02*
X7Y1269D01*
X126Y1269D02*
X135Y1269D01*
X326Y1269D02*
X335Y1269D01*
X1776Y1269D02*
X1783Y1269D01*
X0Y1268D02*
X7Y1268D01*
X126Y1268D02*
X135Y1268D01*
X326Y1268D02*
X335Y1268D01*
X1776Y1268D02*
X1783Y1268D01*
X0Y1267D02*
X7Y1267D01*
X126Y1267D02*
X135Y1267D01*
X326Y1267D02*
X335Y1267D01*
X1776Y1267D02*
X1783Y1267D01*
X0Y1266D02*
X7Y1266D01*
X126Y1266D02*
X135Y1266D01*
X326Y1266D02*
X335Y1266D01*
X1776Y1266D02*
X1783Y1266D01*
X0Y1265D02*
X7Y1265D01*
X126Y1265D02*
X135Y1265D01*
X325Y1265D02*
X334Y1265D01*
X1776Y1265D02*
X1783Y1265D01*
X0Y1264D02*
X7Y1264D01*
X126Y1264D02*
X136Y1264D01*
X325Y1264D02*
X334Y1264D01*
X1776Y1264D02*
X1783Y1264D01*
X0Y1263D02*
X7Y1263D01*
X127Y1263D02*
X136Y1263D01*
X325Y1263D02*
X334Y1263D01*
X1776Y1263D02*
X1783Y1263D01*
X0Y1262D02*
X7Y1262D01*
X127Y1262D02*
X136Y1262D01*
X325Y1262D02*
X334Y1262D01*
X1776Y1262D02*
X1783Y1262D01*
X0Y1261D02*
X7Y1261D01*
X127Y1261D02*
X136Y1261D01*
X325Y1261D02*
X334Y1261D01*
X1776Y1261D02*
X1783Y1261D01*
X0Y1260D02*
X7Y1260D01*
X127Y1260D02*
X136Y1260D01*
X325Y1260D02*
X334Y1260D01*
X1776Y1260D02*
X1783Y1260D01*
X0Y1259D02*
X7Y1259D01*
X127Y1259D02*
X136Y1259D01*
X325Y1259D02*
X334Y1259D01*
X1776Y1259D02*
X1783Y1259D01*
X0Y1258D02*
X7Y1258D01*
X127Y1258D02*
X136Y1258D01*
X324Y1258D02*
X334Y1258D01*
X1776Y1258D02*
X1783Y1258D01*
X0Y1257D02*
X7Y1257D01*
X127Y1257D02*
X137Y1257D01*
X324Y1257D02*
X333Y1257D01*
X1776Y1257D02*
X1783Y1257D01*
X0Y1256D02*
X7Y1256D01*
X128Y1256D02*
X137Y1256D01*
X324Y1256D02*
X333Y1256D01*
X1776Y1256D02*
X1783Y1256D01*
X0Y1255D02*
X7Y1255D01*
X128Y1255D02*
X137Y1255D01*
X324Y1255D02*
X333Y1255D01*
X1776Y1255D02*
X1783Y1255D01*
X0Y1254D02*
X7Y1254D01*
X128Y1254D02*
X137Y1254D01*
X324Y1254D02*
X333Y1254D01*
X1776Y1254D02*
X1783Y1254D01*
X0Y1253D02*
X7Y1253D01*
X128Y1253D02*
X137Y1253D01*
X323Y1253D02*
X333Y1253D01*
X1776Y1253D02*
X1783Y1253D01*
X0Y1252D02*
X7Y1252D01*
X128Y1252D02*
X138Y1252D01*
X323Y1252D02*
X332Y1252D01*
X1776Y1252D02*
X1783Y1252D01*
X0Y1251D02*
X7Y1251D01*
X129Y1251D02*
X138Y1251D01*
X323Y1251D02*
X332Y1251D01*
X1776Y1251D02*
X1783Y1251D01*
X0Y1250D02*
X7Y1250D01*
X129Y1250D02*
X138Y1250D01*
X323Y1250D02*
X332Y1250D01*
X1776Y1250D02*
X1783Y1250D01*
X0Y1249D02*
X7Y1249D01*
X129Y1249D02*
X138Y1249D01*
X323Y1249D02*
X332Y1249D01*
X1776Y1249D02*
X1783Y1249D01*
X0Y1248D02*
X7Y1248D01*
X129Y1248D02*
X139Y1248D01*
X323Y1248D02*
X331Y1248D01*
X1776Y1248D02*
X1783Y1248D01*
X0Y1247D02*
X7Y1247D01*
X130Y1247D02*
X139Y1247D01*
X323Y1247D02*
X331Y1247D01*
X1776Y1247D02*
X1783Y1247D01*
X0Y1246D02*
X7Y1246D01*
X130Y1246D02*
X139Y1246D01*
X323Y1246D02*
X331Y1246D01*
X1776Y1246D02*
X1783Y1246D01*
X0Y1245D02*
X7Y1245D01*
X130Y1245D02*
X140Y1245D01*
X323Y1245D02*
X331Y1245D01*
X1776Y1245D02*
X1783Y1245D01*
X0Y1244D02*
X7Y1244D01*
X131Y1244D02*
X140Y1244D01*
X323Y1244D02*
X330Y1244D01*
X1776Y1244D02*
X1783Y1244D01*
X0Y1243D02*
X7Y1243D01*
X131Y1243D02*
X140Y1243D01*
X323Y1243D02*
X330Y1243D01*
X1776Y1243D02*
X1783Y1243D01*
X0Y1242D02*
X7Y1242D01*
X131Y1242D02*
X141Y1242D01*
X323Y1242D02*
X330Y1242D01*
X1776Y1242D02*
X1783Y1242D01*
X0Y1241D02*
X7Y1241D01*
X132Y1241D02*
X141Y1241D01*
X323Y1241D02*
X329Y1241D01*
X1776Y1241D02*
X1783Y1241D01*
X0Y1240D02*
X7Y1240D01*
X132Y1240D02*
X141Y1240D01*
X323Y1240D02*
X329Y1240D01*
X1776Y1240D02*
X1783Y1240D01*
X0Y1239D02*
X7Y1239D01*
X132Y1239D02*
X142Y1239D01*
X323Y1239D02*
X329Y1239D01*
X1776Y1239D02*
X1783Y1239D01*
X0Y1238D02*
X7Y1238D01*
X133Y1238D02*
X142Y1238D01*
X323Y1238D02*
X328Y1238D01*
X1776Y1238D02*
X1783Y1238D01*
X0Y1237D02*
X7Y1237D01*
X133Y1237D02*
X143Y1237D01*
X323Y1237D02*
X328Y1237D01*
X1776Y1237D02*
X1783Y1237D01*
X0Y1236D02*
X7Y1236D01*
X133Y1236D02*
X143Y1236D01*
X323Y1236D02*
X327Y1236D01*
X1776Y1236D02*
X1783Y1236D01*
X0Y1235D02*
X7Y1235D01*
X134Y1235D02*
X144Y1235D01*
X323Y1235D02*
X327Y1235D01*
X1776Y1235D02*
X1783Y1235D01*
X0Y1234D02*
X7Y1234D01*
X134Y1234D02*
X144Y1234D01*
X323Y1234D02*
X327Y1234D01*
X1776Y1234D02*
X1783Y1234D01*
X0Y1233D02*
X7Y1233D01*
X135Y1233D02*
X145Y1233D01*
X323Y1233D02*
X326Y1233D01*
X1776Y1233D02*
X1783Y1233D01*
X0Y1232D02*
X7Y1232D01*
X135Y1232D02*
X145Y1232D01*
X316Y1232D02*
X326Y1232D01*
X1776Y1232D02*
X1783Y1232D01*
X0Y1231D02*
X7Y1231D01*
X136Y1231D02*
X146Y1231D01*
X315Y1231D02*
X325Y1231D01*
X1776Y1231D02*
X1783Y1231D01*
X0Y1230D02*
X7Y1230D01*
X136Y1230D02*
X146Y1230D01*
X315Y1230D02*
X325Y1230D01*
X1776Y1230D02*
X1783Y1230D01*
X0Y1229D02*
X7Y1229D01*
X137Y1229D02*
X147Y1229D01*
X314Y1229D02*
X324Y1229D01*
X1776Y1229D02*
X1783Y1229D01*
X0Y1228D02*
X7Y1228D01*
X137Y1228D02*
X147Y1228D01*
X314Y1228D02*
X324Y1228D01*
X1776Y1228D02*
X1783Y1228D01*
X0Y1227D02*
X7Y1227D01*
X138Y1227D02*
X148Y1227D01*
X313Y1227D02*
X323Y1227D01*
X1776Y1227D02*
X1783Y1227D01*
X0Y1226D02*
X7Y1226D01*
X138Y1226D02*
X148Y1226D01*
X312Y1226D02*
X323Y1226D01*
X1776Y1226D02*
X1783Y1226D01*
X0Y1225D02*
X7Y1225D01*
X139Y1225D02*
X149Y1225D01*
X265Y1225D02*
X296Y1225D01*
X312Y1225D02*
X322Y1225D01*
X1776Y1225D02*
X1783Y1225D01*
X0Y1224D02*
X7Y1224D01*
X139Y1224D02*
X150Y1224D01*
X263Y1224D02*
X298Y1224D01*
X311Y1224D02*
X322Y1224D01*
X1776Y1224D02*
X1783Y1224D01*
X0Y1223D02*
X7Y1223D01*
X140Y1223D02*
X150Y1223D01*
X262Y1223D02*
X299Y1223D01*
X311Y1223D02*
X321Y1223D01*
X1776Y1223D02*
X1783Y1223D01*
X0Y1222D02*
X7Y1222D01*
X140Y1222D02*
X151Y1222D01*
X261Y1222D02*
X300Y1222D01*
X310Y1222D02*
X321Y1222D01*
X1776Y1222D02*
X1783Y1222D01*
X0Y1221D02*
X7Y1221D01*
X141Y1221D02*
X152Y1221D01*
X261Y1221D02*
X300Y1221D01*
X309Y1221D02*
X320Y1221D01*
X1776Y1221D02*
X1783Y1221D01*
X0Y1220D02*
X7Y1220D01*
X142Y1220D02*
X152Y1220D01*
X260Y1220D02*
X300Y1220D01*
X309Y1220D02*
X319Y1220D01*
X1776Y1220D02*
X1783Y1220D01*
X0Y1219D02*
X7Y1219D01*
X142Y1219D02*
X153Y1219D01*
X261Y1219D02*
X300Y1219D01*
X308Y1219D02*
X319Y1219D01*
X1776Y1219D02*
X1783Y1219D01*
X0Y1218D02*
X7Y1218D01*
X143Y1218D02*
X154Y1218D01*
X261Y1218D02*
X300Y1218D01*
X307Y1218D02*
X318Y1218D01*
X1776Y1218D02*
X1783Y1218D01*
X0Y1217D02*
X7Y1217D01*
X143Y1217D02*
X155Y1217D01*
X261Y1217D02*
X300Y1217D01*
X306Y1217D02*
X317Y1217D01*
X1776Y1217D02*
X1783Y1217D01*
X0Y1216D02*
X7Y1216D01*
X144Y1216D02*
X155Y1216D01*
X262Y1216D02*
X299Y1216D01*
X306Y1216D02*
X317Y1216D01*
X1776Y1216D02*
X1783Y1216D01*
X0Y1215D02*
X7Y1215D01*
X145Y1215D02*
X156Y1215D01*
X263Y1215D02*
X298Y1215D01*
X305Y1215D02*
X316Y1215D01*
X1776Y1215D02*
X1783Y1215D01*
X0Y1214D02*
X7Y1214D01*
X145Y1214D02*
X157Y1214D01*
X304Y1214D02*
X315Y1214D01*
X1776Y1214D02*
X1783Y1214D01*
X0Y1213D02*
X7Y1213D01*
X146Y1213D02*
X158Y1213D01*
X303Y1213D02*
X315Y1213D01*
X1776Y1213D02*
X1783Y1213D01*
X0Y1212D02*
X7Y1212D01*
X147Y1212D02*
X159Y1212D01*
X302Y1212D02*
X314Y1212D01*
X1776Y1212D02*
X1783Y1212D01*
X0Y1211D02*
X7Y1211D01*
X148Y1211D02*
X160Y1211D01*
X301Y1211D02*
X313Y1211D01*
X1776Y1211D02*
X1783Y1211D01*
X0Y1210D02*
X7Y1210D01*
X148Y1210D02*
X161Y1210D01*
X300Y1210D02*
X312Y1210D01*
X1776Y1210D02*
X1783Y1210D01*
X0Y1209D02*
X7Y1209D01*
X149Y1209D02*
X161Y1209D01*
X299Y1209D02*
X312Y1209D01*
X1776Y1209D02*
X1783Y1209D01*
X0Y1208D02*
X7Y1208D01*
X150Y1208D02*
X162Y1208D01*
X298Y1208D02*
X311Y1208D01*
X1776Y1208D02*
X1783Y1208D01*
X0Y1207D02*
X7Y1207D01*
X151Y1207D02*
X163Y1207D01*
X297Y1207D02*
X310Y1207D01*
X1776Y1207D02*
X1783Y1207D01*
X0Y1206D02*
X7Y1206D01*
X152Y1206D02*
X165Y1206D01*
X296Y1206D02*
X309Y1206D01*
X1776Y1206D02*
X1783Y1206D01*
X0Y1205D02*
X7Y1205D01*
X153Y1205D02*
X166Y1205D01*
X295Y1205D02*
X308Y1205D01*
X1776Y1205D02*
X1783Y1205D01*
X0Y1204D02*
X7Y1204D01*
X154Y1204D02*
X167Y1204D01*
X294Y1204D02*
X307Y1204D01*
X1776Y1204D02*
X1783Y1204D01*
X0Y1203D02*
X7Y1203D01*
X154Y1203D02*
X168Y1203D01*
X293Y1203D02*
X306Y1203D01*
X1776Y1203D02*
X1783Y1203D01*
X0Y1202D02*
X7Y1202D01*
X155Y1202D02*
X169Y1202D01*
X292Y1202D02*
X306Y1202D01*
X1776Y1202D02*
X1783Y1202D01*
X0Y1201D02*
X7Y1201D01*
X156Y1201D02*
X170Y1201D01*
X291Y1201D02*
X305Y1201D01*
X1776Y1201D02*
X1783Y1201D01*
X0Y1200D02*
X7Y1200D01*
X157Y1200D02*
X171Y1200D01*
X289Y1200D02*
X304Y1200D01*
X1776Y1200D02*
X1783Y1200D01*
X0Y1199D02*
X7Y1199D01*
X158Y1199D02*
X173Y1199D01*
X288Y1199D02*
X302Y1199D01*
X1776Y1199D02*
X1783Y1199D01*
X0Y1198D02*
X7Y1198D01*
X159Y1198D02*
X174Y1198D01*
X287Y1198D02*
X301Y1198D01*
X1776Y1198D02*
X1783Y1198D01*
X0Y1197D02*
X7Y1197D01*
X161Y1197D02*
X175Y1197D01*
X285Y1197D02*
X300Y1197D01*
X1776Y1197D02*
X1783Y1197D01*
X0Y1196D02*
X7Y1196D01*
X162Y1196D02*
X177Y1196D01*
X284Y1196D02*
X299Y1196D01*
X1776Y1196D02*
X1783Y1196D01*
X0Y1195D02*
X7Y1195D01*
X163Y1195D02*
X178Y1195D01*
X282Y1195D02*
X298Y1195D01*
X1776Y1195D02*
X1783Y1195D01*
X0Y1194D02*
X7Y1194D01*
X164Y1194D02*
X180Y1194D01*
X281Y1194D02*
X297Y1194D01*
X1776Y1194D02*
X1783Y1194D01*
X0Y1193D02*
X7Y1193D01*
X165Y1193D02*
X182Y1193D01*
X279Y1193D02*
X296Y1193D01*
X1776Y1193D02*
X1783Y1193D01*
X0Y1192D02*
X7Y1192D01*
X167Y1192D02*
X183Y1192D01*
X278Y1192D02*
X294Y1192D01*
X1776Y1192D02*
X1783Y1192D01*
X0Y1191D02*
X7Y1191D01*
X168Y1191D02*
X185Y1191D01*
X276Y1191D02*
X293Y1191D01*
X1776Y1191D02*
X1783Y1191D01*
X0Y1190D02*
X7Y1190D01*
X169Y1190D02*
X187Y1190D01*
X274Y1190D02*
X292Y1190D01*
X1776Y1190D02*
X1783Y1190D01*
X0Y1189D02*
X7Y1189D01*
X171Y1189D02*
X189Y1189D01*
X272Y1189D02*
X290Y1189D01*
X1776Y1189D02*
X1783Y1189D01*
X0Y1188D02*
X7Y1188D01*
X172Y1188D02*
X191Y1188D01*
X270Y1188D02*
X289Y1188D01*
X1776Y1188D02*
X1783Y1188D01*
X0Y1187D02*
X7Y1187D01*
X174Y1187D02*
X193Y1187D01*
X267Y1187D02*
X287Y1187D01*
X1776Y1187D02*
X1783Y1187D01*
X0Y1186D02*
X7Y1186D01*
X175Y1186D02*
X196Y1186D01*
X265Y1186D02*
X286Y1186D01*
X1776Y1186D02*
X1783Y1186D01*
X0Y1185D02*
X7Y1185D01*
X177Y1185D02*
X199Y1185D01*
X262Y1185D02*
X284Y1185D01*
X1776Y1185D02*
X1783Y1185D01*
X0Y1184D02*
X7Y1184D01*
X178Y1184D02*
X202Y1184D01*
X259Y1184D02*
X282Y1184D01*
X1776Y1184D02*
X1783Y1184D01*
X0Y1183D02*
X7Y1183D01*
X180Y1183D02*
X205Y1183D01*
X256Y1183D02*
X281Y1183D01*
X1776Y1183D02*
X1783Y1183D01*
X0Y1182D02*
X7Y1182D01*
X182Y1182D02*
X209Y1182D01*
X252Y1182D02*
X279Y1182D01*
X1776Y1182D02*
X1783Y1182D01*
X0Y1181D02*
X7Y1181D01*
X184Y1181D02*
X215Y1181D01*
X246Y1181D02*
X277Y1181D01*
X1776Y1181D02*
X1783Y1181D01*
X0Y1180D02*
X7Y1180D01*
X186Y1180D02*
X224Y1180D01*
X237Y1180D02*
X275Y1180D01*
X1776Y1180D02*
X1783Y1180D01*
X0Y1179D02*
X7Y1179D01*
X188Y1179D02*
X273Y1179D01*
X1776Y1179D02*
X1783Y1179D01*
X0Y1178D02*
X7Y1178D01*
X190Y1178D02*
X270Y1178D01*
X1776Y1178D02*
X1783Y1178D01*
X0Y1177D02*
X7Y1177D01*
X193Y1177D02*
X268Y1177D01*
X1776Y1177D02*
X1783Y1177D01*
X0Y1176D02*
X7Y1176D01*
X196Y1176D02*
X265Y1176D01*
X1776Y1176D02*
X1783Y1176D01*
X0Y1175D02*
X7Y1175D01*
X199Y1175D02*
X262Y1175D01*
X1776Y1175D02*
X1783Y1175D01*
X0Y1174D02*
X7Y1174D01*
X202Y1174D02*
X259Y1174D01*
X1776Y1174D02*
X1783Y1174D01*
X0Y1173D02*
X7Y1173D01*
X205Y1173D02*
X255Y1173D01*
X1776Y1173D02*
X1783Y1173D01*
X0Y1172D02*
X7Y1172D01*
X210Y1172D02*
X251Y1172D01*
X1776Y1172D02*
X1783Y1172D01*
X0Y1171D02*
X7Y1171D01*
X215Y1171D02*
X246Y1171D01*
X1776Y1171D02*
X1783Y1171D01*
X0Y1170D02*
X7Y1170D01*
X225Y1170D02*
X236Y1170D01*
X1776Y1170D02*
X1783Y1170D01*
X0Y1169D02*
X7Y1169D01*
X1776Y1169D02*
X1783Y1169D01*
X0Y1168D02*
X7Y1168D01*
X1776Y1168D02*
X1783Y1168D01*
X0Y1167D02*
X7Y1167D01*
X1776Y1167D02*
X1783Y1167D01*
X0Y1166D02*
X7Y1166D01*
X1776Y1166D02*
X1783Y1166D01*
X0Y1165D02*
X7Y1165D01*
X1776Y1165D02*
X1783Y1165D01*
X0Y1164D02*
X7Y1164D01*
X1776Y1164D02*
X1783Y1164D01*
X0Y1163D02*
X7Y1163D01*
X1776Y1163D02*
X1783Y1163D01*
X0Y1162D02*
X7Y1162D01*
X1776Y1162D02*
X1783Y1162D01*
X0Y1161D02*
X7Y1161D01*
X1776Y1161D02*
X1783Y1161D01*
X0Y1160D02*
X7Y1160D01*
X1776Y1160D02*
X1783Y1160D01*
X0Y1159D02*
X7Y1159D01*
X1776Y1159D02*
X1783Y1159D01*
X0Y1158D02*
X7Y1158D01*
X1776Y1158D02*
X1783Y1158D01*
X0Y1157D02*
X7Y1157D01*
X1776Y1157D02*
X1783Y1157D01*
X0Y1156D02*
X7Y1156D01*
X1776Y1156D02*
X1783Y1156D01*
X0Y1155D02*
X7Y1155D01*
X1776Y1155D02*
X1783Y1155D01*
X0Y1154D02*
X7Y1154D01*
X1776Y1154D02*
X1783Y1154D01*
X0Y1153D02*
X7Y1153D01*
X1776Y1153D02*
X1783Y1153D01*
X0Y1152D02*
X7Y1152D01*
X1776Y1152D02*
X1783Y1152D01*
X0Y1151D02*
X7Y1151D01*
X1776Y1151D02*
X1783Y1151D01*
X0Y1150D02*
X7Y1150D01*
X1776Y1150D02*
X1783Y1150D01*
X0Y1149D02*
X7Y1149D01*
X1776Y1149D02*
X1783Y1149D01*
X0Y1148D02*
X7Y1148D01*
X1776Y1148D02*
X1783Y1148D01*
X0Y1147D02*
X7Y1147D01*
X1776Y1147D02*
X1783Y1147D01*
X0Y1146D02*
X7Y1146D01*
X1776Y1146D02*
X1783Y1146D01*
X0Y1145D02*
X7Y1145D01*
X1776Y1145D02*
X1783Y1145D01*
X0Y1144D02*
X7Y1144D01*
X1776Y1144D02*
X1783Y1144D01*
X0Y1143D02*
X7Y1143D01*
X1776Y1143D02*
X1783Y1143D01*
X0Y1142D02*
X7Y1142D01*
X1776Y1142D02*
X1783Y1142D01*
X0Y1141D02*
X7Y1141D01*
X1776Y1141D02*
X1783Y1141D01*
X0Y1140D02*
X7Y1140D01*
X1776Y1140D02*
X1783Y1140D01*
X0Y1139D02*
X7Y1139D01*
X1776Y1139D02*
X1783Y1139D01*
X0Y1138D02*
X7Y1138D01*
X1776Y1138D02*
X1783Y1138D01*
X0Y1137D02*
X7Y1137D01*
X1776Y1137D02*
X1783Y1137D01*
X0Y1136D02*
X7Y1136D01*
X1776Y1136D02*
X1783Y1136D01*
X0Y1135D02*
X7Y1135D01*
X1776Y1135D02*
X1783Y1135D01*
X0Y1134D02*
X7Y1134D01*
X1776Y1134D02*
X1783Y1134D01*
X0Y1133D02*
X7Y1133D01*
X1776Y1133D02*
X1783Y1133D01*
X0Y1132D02*
X7Y1132D01*
X1776Y1132D02*
X1783Y1132D01*
X0Y1131D02*
X7Y1131D01*
X1776Y1131D02*
X1783Y1131D01*
X0Y1130D02*
X7Y1130D01*
X1776Y1130D02*
X1783Y1130D01*
X0Y1129D02*
X7Y1129D01*
X1776Y1129D02*
X1783Y1129D01*
X0Y1128D02*
X7Y1128D01*
X1776Y1128D02*
X1783Y1128D01*
X0Y1127D02*
X7Y1127D01*
X1776Y1127D02*
X1783Y1127D01*
X0Y1126D02*
X7Y1126D01*
X1776Y1126D02*
X1783Y1126D01*
X0Y1125D02*
X7Y1125D01*
X1776Y1125D02*
X1783Y1125D01*
X0Y1124D02*
X7Y1124D01*
X1776Y1124D02*
X1783Y1124D01*
X0Y1123D02*
X7Y1123D01*
X1776Y1123D02*
X1783Y1123D01*
X0Y1122D02*
X7Y1122D01*
X1776Y1122D02*
X1783Y1122D01*
X0Y1121D02*
X7Y1121D01*
X1776Y1121D02*
X1783Y1121D01*
X0Y1120D02*
X7Y1120D01*
X1776Y1120D02*
X1783Y1120D01*
X0Y1119D02*
X7Y1119D01*
X1776Y1119D02*
X1783Y1119D01*
X0Y1118D02*
X7Y1118D01*
X1776Y1118D02*
X1783Y1118D01*
X0Y1117D02*
X7Y1117D01*
X1776Y1117D02*
X1783Y1117D01*
X0Y1116D02*
X7Y1116D01*
X1776Y1116D02*
X1783Y1116D01*
X0Y1115D02*
X7Y1115D01*
X1776Y1115D02*
X1783Y1115D01*
X0Y1114D02*
X7Y1114D01*
X1776Y1114D02*
X1783Y1114D01*
X0Y1113D02*
X7Y1113D01*
X1776Y1113D02*
X1783Y1113D01*
X0Y1112D02*
X7Y1112D01*
X1776Y1112D02*
X1783Y1112D01*
X0Y1111D02*
X7Y1111D01*
X1776Y1111D02*
X1783Y1111D01*
X0Y1110D02*
X7Y1110D01*
X1776Y1110D02*
X1783Y1110D01*
X0Y1109D02*
X7Y1109D01*
X1776Y1109D02*
X1783Y1109D01*
X0Y1108D02*
X7Y1108D01*
X1776Y1108D02*
X1783Y1108D01*
X0Y1107D02*
X7Y1107D01*
X1776Y1107D02*
X1783Y1107D01*
X0Y1106D02*
X7Y1106D01*
X1776Y1106D02*
X1783Y1106D01*
X0Y1105D02*
X7Y1105D01*
X1776Y1105D02*
X1783Y1105D01*
X0Y1104D02*
X7Y1104D01*
X1776Y1104D02*
X1783Y1104D01*
X0Y1103D02*
X7Y1103D01*
X1776Y1103D02*
X1783Y1103D01*
X0Y1102D02*
X7Y1102D01*
X1776Y1102D02*
X1783Y1102D01*
X0Y1101D02*
X7Y1101D01*
X1776Y1101D02*
X1783Y1101D01*
X0Y1100D02*
X7Y1100D01*
X1776Y1100D02*
X1783Y1100D01*
X0Y1099D02*
X7Y1099D01*
X1776Y1099D02*
X1783Y1099D01*
X0Y1098D02*
X7Y1098D01*
X1776Y1098D02*
X1783Y1098D01*
X0Y1097D02*
X7Y1097D01*
X1776Y1097D02*
X1783Y1097D01*
X0Y1096D02*
X7Y1096D01*
X1776Y1096D02*
X1783Y1096D01*
X0Y1095D02*
X7Y1095D01*
X1776Y1095D02*
X1783Y1095D01*
X0Y1094D02*
X7Y1094D01*
X1776Y1094D02*
X1783Y1094D01*
X0Y1093D02*
X7Y1093D01*
X1776Y1093D02*
X1783Y1093D01*
X0Y1092D02*
X7Y1092D01*
X1776Y1092D02*
X1783Y1092D01*
X0Y1091D02*
X7Y1091D01*
X1776Y1091D02*
X1783Y1091D01*
X0Y1090D02*
X7Y1090D01*
X1776Y1090D02*
X1783Y1090D01*
X0Y1089D02*
X7Y1089D01*
X1776Y1089D02*
X1783Y1089D01*
X0Y1088D02*
X7Y1088D01*
X1776Y1088D02*
X1783Y1088D01*
X0Y1087D02*
X7Y1087D01*
X1776Y1087D02*
X1783Y1087D01*
X0Y1086D02*
X7Y1086D01*
X1776Y1086D02*
X1783Y1086D01*
X0Y1085D02*
X7Y1085D01*
X1776Y1085D02*
X1783Y1085D01*
X0Y1084D02*
X7Y1084D01*
X1776Y1084D02*
X1783Y1084D01*
X0Y1083D02*
X7Y1083D01*
X1776Y1083D02*
X1783Y1083D01*
X0Y1082D02*
X7Y1082D01*
X1776Y1082D02*
X1783Y1082D01*
X0Y1081D02*
X7Y1081D01*
X1776Y1081D02*
X1783Y1081D01*
X0Y1080D02*
X7Y1080D01*
X1776Y1080D02*
X1783Y1080D01*
X0Y1079D02*
X7Y1079D01*
X1776Y1079D02*
X1783Y1079D01*
X0Y1078D02*
X7Y1078D01*
X1776Y1078D02*
X1783Y1078D01*
X0Y1077D02*
X7Y1077D01*
X1776Y1077D02*
X1783Y1077D01*
X0Y1076D02*
X7Y1076D01*
X1776Y1076D02*
X1783Y1076D01*
X0Y1075D02*
X7Y1075D01*
X1776Y1075D02*
X1783Y1075D01*
X0Y1074D02*
X7Y1074D01*
X1776Y1074D02*
X1783Y1074D01*
X0Y1073D02*
X7Y1073D01*
X1776Y1073D02*
X1783Y1073D01*
X0Y1072D02*
X7Y1072D01*
X1776Y1072D02*
X1783Y1072D01*
X0Y1071D02*
X7Y1071D01*
X1776Y1071D02*
X1783Y1071D01*
X0Y1070D02*
X7Y1070D01*
X1776Y1070D02*
X1783Y1070D01*
X0Y1069D02*
X7Y1069D01*
X1776Y1069D02*
X1783Y1069D01*
X0Y1068D02*
X7Y1068D01*
X1776Y1068D02*
X1783Y1068D01*
X0Y1067D02*
X7Y1067D01*
X1776Y1067D02*
X1783Y1067D01*
X0Y1066D02*
X7Y1066D01*
X1776Y1066D02*
X1783Y1066D01*
X0Y1065D02*
X7Y1065D01*
X1776Y1065D02*
X1783Y1065D01*
X0Y1064D02*
X7Y1064D01*
X1776Y1064D02*
X1783Y1064D01*
X0Y1063D02*
X7Y1063D01*
X1776Y1063D02*
X1783Y1063D01*
X0Y1062D02*
X7Y1062D01*
X1776Y1062D02*
X1783Y1062D01*
X0Y1061D02*
X7Y1061D01*
X1776Y1061D02*
X1783Y1061D01*
X0Y1060D02*
X7Y1060D01*
X1776Y1060D02*
X1783Y1060D01*
X0Y1059D02*
X7Y1059D01*
X1776Y1059D02*
X1783Y1059D01*
X0Y1058D02*
X7Y1058D01*
X1776Y1058D02*
X1783Y1058D01*
X0Y1057D02*
X7Y1057D01*
X1776Y1057D02*
X1783Y1057D01*
X0Y1056D02*
X7Y1056D01*
X1776Y1056D02*
X1783Y1056D01*
X0Y1055D02*
X7Y1055D01*
X1776Y1055D02*
X1783Y1055D01*
X0Y1054D02*
X7Y1054D01*
X1776Y1054D02*
X1783Y1054D01*
X0Y1053D02*
X7Y1053D01*
X1776Y1053D02*
X1783Y1053D01*
X0Y1052D02*
X7Y1052D01*
X1776Y1052D02*
X1783Y1052D01*
X0Y1051D02*
X7Y1051D01*
X1776Y1051D02*
X1783Y1051D01*
X0Y1050D02*
X7Y1050D01*
X1776Y1050D02*
X1783Y1050D01*
X0Y1049D02*
X7Y1049D01*
X1776Y1049D02*
X1783Y1049D01*
X0Y1048D02*
X7Y1048D01*
X1776Y1048D02*
X1783Y1048D01*
X0Y1047D02*
X7Y1047D01*
X1776Y1047D02*
X1783Y1047D01*
X0Y1046D02*
X7Y1046D01*
X1776Y1046D02*
X1783Y1046D01*
X0Y1045D02*
X7Y1045D01*
X1776Y1045D02*
X1783Y1045D01*
X0Y1044D02*
X7Y1044D01*
X1776Y1044D02*
X1783Y1044D01*
X0Y1043D02*
X7Y1043D01*
X1776Y1043D02*
X1783Y1043D01*
X0Y1042D02*
X7Y1042D01*
X1776Y1042D02*
X1783Y1042D01*
X0Y1041D02*
X7Y1041D01*
X1776Y1041D02*
X1783Y1041D01*
X0Y1040D02*
X7Y1040D01*
X1776Y1040D02*
X1783Y1040D01*
X0Y1039D02*
X7Y1039D01*
X1776Y1039D02*
X1783Y1039D01*
X0Y1038D02*
X7Y1038D01*
X1776Y1038D02*
X1783Y1038D01*
X0Y1037D02*
X7Y1037D01*
X1776Y1037D02*
X1783Y1037D01*
X0Y1036D02*
X7Y1036D01*
X1776Y1036D02*
X1783Y1036D01*
X0Y1035D02*
X7Y1035D01*
X1776Y1035D02*
X1783Y1035D01*
X0Y1034D02*
X7Y1034D01*
X1776Y1034D02*
X1783Y1034D01*
X0Y1033D02*
X7Y1033D01*
X1776Y1033D02*
X1783Y1033D01*
X0Y1032D02*
X7Y1032D01*
X1776Y1032D02*
X1783Y1032D01*
X0Y1031D02*
X7Y1031D01*
X1776Y1031D02*
X1783Y1031D01*
X0Y1030D02*
X7Y1030D01*
X1776Y1030D02*
X1783Y1030D01*
X0Y1029D02*
X7Y1029D01*
X1776Y1029D02*
X1783Y1029D01*
X0Y1028D02*
X7Y1028D01*
X1776Y1028D02*
X1783Y1028D01*
X0Y1027D02*
X7Y1027D01*
X1776Y1027D02*
X1783Y1027D01*
X0Y1026D02*
X7Y1026D01*
X1776Y1026D02*
X1783Y1026D01*
X0Y1025D02*
X7Y1025D01*
X1776Y1025D02*
X1783Y1025D01*
X0Y1024D02*
X7Y1024D01*
X1776Y1024D02*
X1783Y1024D01*
X0Y1023D02*
X7Y1023D01*
X1776Y1023D02*
X1783Y1023D01*
X0Y1022D02*
X7Y1022D01*
X1776Y1022D02*
X1783Y1022D01*
X0Y1021D02*
X7Y1021D01*
X1776Y1021D02*
X1783Y1021D01*
X0Y1020D02*
X7Y1020D01*
X1776Y1020D02*
X1783Y1020D01*
X0Y1019D02*
X7Y1019D01*
X1776Y1019D02*
X1783Y1019D01*
X0Y1018D02*
X7Y1018D01*
X1776Y1018D02*
X1783Y1018D01*
X0Y1017D02*
X7Y1017D01*
X1776Y1017D02*
X1783Y1017D01*
X0Y1016D02*
X7Y1016D01*
X1776Y1016D02*
X1783Y1016D01*
X0Y1015D02*
X7Y1015D01*
X1776Y1015D02*
X1783Y1015D01*
X0Y1014D02*
X7Y1014D01*
X1776Y1014D02*
X1783Y1014D01*
X0Y1013D02*
X7Y1013D01*
X1776Y1013D02*
X1783Y1013D01*
X0Y1012D02*
X7Y1012D01*
X1776Y1012D02*
X1783Y1012D01*
X0Y1011D02*
X7Y1011D01*
X1776Y1011D02*
X1783Y1011D01*
X0Y1010D02*
X7Y1010D01*
X1776Y1010D02*
X1783Y1010D01*
X0Y1009D02*
X7Y1009D01*
X1776Y1009D02*
X1783Y1009D01*
X0Y1008D02*
X7Y1008D01*
X1776Y1008D02*
X1783Y1008D01*
X0Y1007D02*
X7Y1007D01*
X1776Y1007D02*
X1783Y1007D01*
X0Y1006D02*
X7Y1006D01*
X1776Y1006D02*
X1783Y1006D01*
X0Y1005D02*
X7Y1005D01*
X1776Y1005D02*
X1783Y1005D01*
X0Y1004D02*
X7Y1004D01*
X1776Y1004D02*
X1783Y1004D01*
X0Y1003D02*
X7Y1003D01*
X1776Y1003D02*
X1783Y1003D01*
X0Y1002D02*
X7Y1002D01*
X1776Y1002D02*
X1783Y1002D01*
X0Y1001D02*
X7Y1001D01*
X1776Y1001D02*
X1783Y1001D01*
X0Y1000D02*
X7Y1000D01*
X1776Y1000D02*
X1783Y1000D01*
X0Y999D02*
X7Y999D01*
X1776Y999D02*
X1783Y999D01*
X0Y998D02*
X7Y998D01*
X1776Y998D02*
X1783Y998D01*
X0Y997D02*
X7Y997D01*
X1776Y997D02*
X1783Y997D01*
X0Y996D02*
X7Y996D01*
X1776Y996D02*
X1783Y996D01*
X0Y995D02*
X7Y995D01*
X1776Y995D02*
X1783Y995D01*
X0Y994D02*
X7Y994D01*
X1776Y994D02*
X1783Y994D01*
X0Y993D02*
X7Y993D01*
X1776Y993D02*
X1783Y993D01*
X0Y992D02*
X7Y992D01*
X1776Y992D02*
X1783Y992D01*
X0Y991D02*
X7Y991D01*
X1776Y991D02*
X1783Y991D01*
X0Y990D02*
X7Y990D01*
X1776Y990D02*
X1783Y990D01*
X0Y989D02*
X7Y989D01*
X1776Y989D02*
X1783Y989D01*
X0Y988D02*
X7Y988D01*
X1776Y988D02*
X1783Y988D01*
X0Y987D02*
X7Y987D01*
X1776Y987D02*
X1783Y987D01*
X0Y986D02*
X7Y986D01*
X1776Y986D02*
X1783Y986D01*
X0Y985D02*
X7Y985D01*
X1776Y985D02*
X1783Y985D01*
X0Y984D02*
X7Y984D01*
X1776Y984D02*
X1783Y984D01*
X0Y983D02*
X7Y983D01*
X1776Y983D02*
X1783Y983D01*
X0Y982D02*
X7Y982D01*
X1776Y982D02*
X1783Y982D01*
X0Y981D02*
X7Y981D01*
X1776Y981D02*
X1783Y981D01*
X0Y980D02*
X7Y980D01*
X1776Y980D02*
X1783Y980D01*
X0Y979D02*
X7Y979D01*
X1776Y979D02*
X1783Y979D01*
X0Y978D02*
X7Y978D01*
X1776Y978D02*
X1783Y978D01*
X0Y977D02*
X7Y977D01*
X1776Y977D02*
X1783Y977D01*
X0Y976D02*
X7Y976D01*
X1776Y976D02*
X1783Y976D01*
X0Y975D02*
X7Y975D01*
X1776Y975D02*
X1783Y975D01*
X0Y974D02*
X7Y974D01*
X1776Y974D02*
X1783Y974D01*
X0Y973D02*
X7Y973D01*
X1776Y973D02*
X1783Y973D01*
X0Y972D02*
X7Y972D01*
X1776Y972D02*
X1783Y972D01*
X0Y971D02*
X7Y971D01*
X1776Y971D02*
X1783Y971D01*
X0Y970D02*
X7Y970D01*
X1776Y970D02*
X1783Y970D01*
X0Y969D02*
X7Y969D01*
X1776Y969D02*
X1783Y969D01*
X0Y968D02*
X7Y968D01*
X1776Y968D02*
X1783Y968D01*
X0Y967D02*
X7Y967D01*
X1776Y967D02*
X1783Y967D01*
X0Y966D02*
X7Y966D01*
X1776Y966D02*
X1783Y966D01*
X0Y965D02*
X7Y965D01*
X1776Y965D02*
X1783Y965D01*
X0Y964D02*
X7Y964D01*
X1776Y964D02*
X1783Y964D01*
X0Y963D02*
X7Y963D01*
X1776Y963D02*
X1783Y963D01*
X0Y962D02*
X7Y962D01*
X1776Y962D02*
X1783Y962D01*
X0Y961D02*
X7Y961D01*
X1776Y961D02*
X1783Y961D01*
X0Y960D02*
X7Y960D01*
X1776Y960D02*
X1783Y960D01*
X0Y959D02*
X7Y959D01*
X1776Y959D02*
X1783Y959D01*
X0Y958D02*
X7Y958D01*
X1776Y958D02*
X1783Y958D01*
X0Y957D02*
X7Y957D01*
X1776Y957D02*
X1783Y957D01*
X0Y956D02*
X7Y956D01*
X1776Y956D02*
X1783Y956D01*
X0Y955D02*
X7Y955D01*
X1776Y955D02*
X1783Y955D01*
X0Y954D02*
X7Y954D01*
X1776Y954D02*
X1783Y954D01*
X0Y953D02*
X7Y953D01*
X1776Y953D02*
X1783Y953D01*
X0Y952D02*
X7Y952D01*
X1776Y952D02*
X1783Y952D01*
X0Y951D02*
X7Y951D01*
X1776Y951D02*
X1783Y951D01*
X0Y950D02*
X7Y950D01*
X1776Y950D02*
X1783Y950D01*
X0Y949D02*
X7Y949D01*
X1776Y949D02*
X1783Y949D01*
X0Y948D02*
X7Y948D01*
X1776Y948D02*
X1783Y948D01*
X0Y947D02*
X7Y947D01*
X1776Y947D02*
X1783Y947D01*
X0Y946D02*
X7Y946D01*
X1776Y946D02*
X1783Y946D01*
X0Y945D02*
X7Y945D01*
X1776Y945D02*
X1783Y945D01*
X0Y944D02*
X7Y944D01*
X1776Y944D02*
X1783Y944D01*
X0Y943D02*
X7Y943D01*
X1776Y943D02*
X1783Y943D01*
X0Y942D02*
X7Y942D01*
X1776Y942D02*
X1783Y942D01*
X0Y941D02*
X7Y941D01*
X1776Y941D02*
X1783Y941D01*
X0Y940D02*
X7Y940D01*
X1776Y940D02*
X1783Y940D01*
X0Y939D02*
X7Y939D01*
X1776Y939D02*
X1783Y939D01*
X0Y938D02*
X7Y938D01*
X1776Y938D02*
X1783Y938D01*
X0Y937D02*
X7Y937D01*
X1776Y937D02*
X1783Y937D01*
X0Y936D02*
X7Y936D01*
X1776Y936D02*
X1783Y936D01*
X0Y935D02*
X7Y935D01*
X1776Y935D02*
X1783Y935D01*
X0Y934D02*
X7Y934D01*
X1776Y934D02*
X1783Y934D01*
X0Y933D02*
X7Y933D01*
X1776Y933D02*
X1783Y933D01*
X0Y932D02*
X7Y932D01*
X1776Y932D02*
X1783Y932D01*
X0Y931D02*
X7Y931D01*
X1776Y931D02*
X1783Y931D01*
X0Y930D02*
X7Y930D01*
X1776Y930D02*
X1783Y930D01*
X0Y929D02*
X7Y929D01*
X1776Y929D02*
X1783Y929D01*
X0Y928D02*
X7Y928D01*
X1776Y928D02*
X1783Y928D01*
X0Y927D02*
X7Y927D01*
X1776Y927D02*
X1783Y927D01*
X0Y926D02*
X7Y926D01*
X1776Y926D02*
X1783Y926D01*
X0Y925D02*
X7Y925D01*
X1776Y925D02*
X1783Y925D01*
X0Y924D02*
X7Y924D01*
X1776Y924D02*
X1783Y924D01*
X0Y923D02*
X7Y923D01*
X1776Y923D02*
X1783Y923D01*
X0Y922D02*
X7Y922D01*
X1776Y922D02*
X1783Y922D01*
X0Y921D02*
X7Y921D01*
X1776Y921D02*
X1783Y921D01*
X0Y920D02*
X7Y920D01*
X1776Y920D02*
X1783Y920D01*
X0Y919D02*
X7Y919D01*
X1776Y919D02*
X1783Y919D01*
X0Y918D02*
X7Y918D01*
X1776Y918D02*
X1783Y918D01*
X0Y917D02*
X7Y917D01*
X1776Y917D02*
X1783Y917D01*
X0Y916D02*
X7Y916D01*
X1776Y916D02*
X1783Y916D01*
X0Y915D02*
X7Y915D01*
X1776Y915D02*
X1783Y915D01*
X0Y914D02*
X7Y914D01*
X1776Y914D02*
X1783Y914D01*
X0Y913D02*
X7Y913D01*
X1776Y913D02*
X1783Y913D01*
X0Y912D02*
X7Y912D01*
X1776Y912D02*
X1783Y912D01*
X0Y911D02*
X7Y911D01*
X1776Y911D02*
X1783Y911D01*
X0Y910D02*
X7Y910D01*
X1776Y910D02*
X1783Y910D01*
X0Y909D02*
X7Y909D01*
X1776Y909D02*
X1783Y909D01*
X0Y908D02*
X7Y908D01*
X1776Y908D02*
X1783Y908D01*
X0Y907D02*
X7Y907D01*
X1776Y907D02*
X1783Y907D01*
X0Y906D02*
X7Y906D01*
X1776Y906D02*
X1783Y906D01*
X0Y905D02*
X7Y905D01*
X1776Y905D02*
X1783Y905D01*
X0Y904D02*
X7Y904D01*
X1776Y904D02*
X1783Y904D01*
X0Y903D02*
X7Y903D01*
X1776Y903D02*
X1783Y903D01*
X0Y902D02*
X7Y902D01*
X1776Y902D02*
X1783Y902D01*
X0Y901D02*
X7Y901D01*
X1776Y901D02*
X1783Y901D01*
X0Y900D02*
X7Y900D01*
X1776Y900D02*
X1783Y900D01*
X0Y899D02*
X7Y899D01*
X1776Y899D02*
X1783Y899D01*
X0Y898D02*
X7Y898D01*
X1776Y898D02*
X1783Y898D01*
X0Y897D02*
X7Y897D01*
X1776Y897D02*
X1783Y897D01*
X0Y896D02*
X7Y896D01*
X1776Y896D02*
X1783Y896D01*
X0Y895D02*
X7Y895D01*
X1776Y895D02*
X1783Y895D01*
X0Y894D02*
X7Y894D01*
X1776Y894D02*
X1783Y894D01*
X0Y893D02*
X7Y893D01*
X1776Y893D02*
X1783Y893D01*
X0Y892D02*
X7Y892D01*
X1776Y892D02*
X1783Y892D01*
X0Y891D02*
X7Y891D01*
X1776Y891D02*
X1783Y891D01*
X0Y890D02*
X7Y890D01*
X1776Y890D02*
X1783Y890D01*
X0Y889D02*
X7Y889D01*
X1776Y889D02*
X1783Y889D01*
X0Y888D02*
X7Y888D01*
X1776Y888D02*
X1783Y888D01*
X0Y887D02*
X7Y887D01*
X1776Y887D02*
X1783Y887D01*
X0Y886D02*
X7Y886D01*
X1776Y886D02*
X1783Y886D01*
X0Y885D02*
X7Y885D01*
X1776Y885D02*
X1783Y885D01*
X0Y884D02*
X7Y884D01*
X1776Y884D02*
X1783Y884D01*
X0Y883D02*
X7Y883D01*
X1776Y883D02*
X1783Y883D01*
X0Y882D02*
X7Y882D01*
X1776Y882D02*
X1783Y882D01*
X0Y881D02*
X7Y881D01*
X1776Y881D02*
X1783Y881D01*
X0Y880D02*
X7Y880D01*
X1776Y880D02*
X1783Y880D01*
X0Y879D02*
X7Y879D01*
X1776Y879D02*
X1783Y879D01*
X0Y878D02*
X7Y878D01*
X1776Y878D02*
X1783Y878D01*
X0Y877D02*
X7Y877D01*
X1776Y877D02*
X1783Y877D01*
X0Y876D02*
X7Y876D01*
X1776Y876D02*
X1783Y876D01*
X0Y875D02*
X7Y875D01*
X1776Y875D02*
X1783Y875D01*
X0Y874D02*
X7Y874D01*
X1776Y874D02*
X1783Y874D01*
X0Y873D02*
X7Y873D01*
X1776Y873D02*
X1783Y873D01*
X0Y872D02*
X7Y872D01*
X1776Y872D02*
X1783Y872D01*
X0Y871D02*
X7Y871D01*
X1776Y871D02*
X1783Y871D01*
X0Y870D02*
X7Y870D01*
X1776Y870D02*
X1783Y870D01*
X0Y869D02*
X7Y869D01*
X1776Y869D02*
X1783Y869D01*
X0Y868D02*
X7Y868D01*
X1776Y868D02*
X1783Y868D01*
X0Y867D02*
X7Y867D01*
X1776Y867D02*
X1783Y867D01*
X0Y866D02*
X7Y866D01*
X1776Y866D02*
X1783Y866D01*
X0Y865D02*
X7Y865D01*
X1776Y865D02*
X1783Y865D01*
X0Y864D02*
X7Y864D01*
X1776Y864D02*
X1783Y864D01*
X0Y863D02*
X7Y863D01*
X1776Y863D02*
X1783Y863D01*
X0Y862D02*
X7Y862D01*
X1776Y862D02*
X1783Y862D01*
X0Y861D02*
X7Y861D01*
X1776Y861D02*
X1783Y861D01*
X0Y860D02*
X7Y860D01*
X1776Y860D02*
X1783Y860D01*
X0Y859D02*
X7Y859D01*
X1776Y859D02*
X1783Y859D01*
X0Y858D02*
X7Y858D01*
X1776Y858D02*
X1783Y858D01*
X0Y857D02*
X7Y857D01*
X1776Y857D02*
X1783Y857D01*
X0Y856D02*
X7Y856D01*
X1776Y856D02*
X1783Y856D01*
X0Y855D02*
X7Y855D01*
X1776Y855D02*
X1783Y855D01*
X0Y854D02*
X7Y854D01*
X1776Y854D02*
X1783Y854D01*
X0Y853D02*
X7Y853D01*
X1776Y853D02*
X1783Y853D01*
X0Y852D02*
X7Y852D01*
X1776Y852D02*
X1783Y852D01*
X0Y851D02*
X7Y851D01*
X1776Y851D02*
X1783Y851D01*
X0Y850D02*
X7Y850D01*
X1776Y850D02*
X1783Y850D01*
X0Y849D02*
X7Y849D01*
X1776Y849D02*
X1783Y849D01*
X0Y848D02*
X7Y848D01*
X1776Y848D02*
X1783Y848D01*
X0Y847D02*
X7Y847D01*
X1776Y847D02*
X1783Y847D01*
X0Y846D02*
X7Y846D01*
X1776Y846D02*
X1783Y846D01*
X0Y845D02*
X7Y845D01*
X1776Y845D02*
X1783Y845D01*
X0Y844D02*
X7Y844D01*
X1776Y844D02*
X1783Y844D01*
X0Y843D02*
X7Y843D01*
X1776Y843D02*
X1783Y843D01*
X0Y842D02*
X7Y842D01*
X1776Y842D02*
X1783Y842D01*
X0Y841D02*
X7Y841D01*
X1776Y841D02*
X1783Y841D01*
X0Y840D02*
X7Y840D01*
X1776Y840D02*
X1783Y840D01*
X0Y839D02*
X7Y839D01*
X1776Y839D02*
X1783Y839D01*
X0Y838D02*
X7Y838D01*
X1776Y838D02*
X1783Y838D01*
X0Y837D02*
X7Y837D01*
X1776Y837D02*
X1783Y837D01*
X0Y836D02*
X7Y836D01*
X1776Y836D02*
X1783Y836D01*
X0Y835D02*
X7Y835D01*
X1776Y835D02*
X1783Y835D01*
X0Y834D02*
X7Y834D01*
X1776Y834D02*
X1783Y834D01*
X0Y833D02*
X7Y833D01*
X1776Y833D02*
X1783Y833D01*
X0Y832D02*
X7Y832D01*
X1776Y832D02*
X1783Y832D01*
X0Y831D02*
X7Y831D01*
X1776Y831D02*
X1783Y831D01*
X0Y830D02*
X7Y830D01*
X1776Y830D02*
X1783Y830D01*
X0Y829D02*
X7Y829D01*
X1776Y829D02*
X1783Y829D01*
X0Y828D02*
X7Y828D01*
X1776Y828D02*
X1783Y828D01*
X0Y827D02*
X7Y827D01*
X1776Y827D02*
X1783Y827D01*
X0Y826D02*
X7Y826D01*
X1776Y826D02*
X1783Y826D01*
X0Y825D02*
X7Y825D01*
X1776Y825D02*
X1783Y825D01*
X0Y824D02*
X7Y824D01*
X1776Y824D02*
X1783Y824D01*
X0Y823D02*
X7Y823D01*
X1776Y823D02*
X1783Y823D01*
X0Y822D02*
X7Y822D01*
X1776Y822D02*
X1783Y822D01*
X0Y821D02*
X7Y821D01*
X1776Y821D02*
X1783Y821D01*
X0Y820D02*
X7Y820D01*
X1776Y820D02*
X1783Y820D01*
X0Y819D02*
X7Y819D01*
X1776Y819D02*
X1783Y819D01*
X0Y818D02*
X7Y818D01*
X1776Y818D02*
X1783Y818D01*
X0Y817D02*
X7Y817D01*
X1776Y817D02*
X1783Y817D01*
X0Y816D02*
X7Y816D01*
X1776Y816D02*
X1783Y816D01*
X0Y815D02*
X7Y815D01*
X1776Y815D02*
X1783Y815D01*
X0Y814D02*
X7Y814D01*
X1776Y814D02*
X1783Y814D01*
X0Y813D02*
X7Y813D01*
X1776Y813D02*
X1783Y813D01*
X0Y812D02*
X7Y812D01*
X1776Y812D02*
X1783Y812D01*
X0Y811D02*
X7Y811D01*
X1776Y811D02*
X1783Y811D01*
X0Y810D02*
X7Y810D01*
X1776Y810D02*
X1783Y810D01*
X0Y809D02*
X7Y809D01*
X1776Y809D02*
X1783Y809D01*
X0Y808D02*
X7Y808D01*
X1776Y808D02*
X1783Y808D01*
X0Y807D02*
X7Y807D01*
X1776Y807D02*
X1783Y807D01*
X0Y806D02*
X7Y806D01*
X1776Y806D02*
X1783Y806D01*
X0Y805D02*
X7Y805D01*
X1776Y805D02*
X1783Y805D01*
X0Y804D02*
X7Y804D01*
X1776Y804D02*
X1783Y804D01*
X0Y803D02*
X7Y803D01*
X1776Y803D02*
X1783Y803D01*
X0Y802D02*
X7Y802D01*
X1776Y802D02*
X1783Y802D01*
X0Y801D02*
X7Y801D01*
X1776Y801D02*
X1783Y801D01*
X0Y800D02*
X7Y800D01*
X1776Y800D02*
X1783Y800D01*
X0Y799D02*
X7Y799D01*
X1776Y799D02*
X1783Y799D01*
X0Y798D02*
X7Y798D01*
X1776Y798D02*
X1783Y798D01*
X0Y797D02*
X7Y797D01*
X1776Y797D02*
X1783Y797D01*
X0Y796D02*
X7Y796D01*
X1776Y796D02*
X1783Y796D01*
X0Y795D02*
X7Y795D01*
X1776Y795D02*
X1783Y795D01*
X0Y794D02*
X7Y794D01*
X1776Y794D02*
X1783Y794D01*
X0Y793D02*
X7Y793D01*
X1776Y793D02*
X1783Y793D01*
X0Y792D02*
X7Y792D01*
X1776Y792D02*
X1783Y792D01*
X0Y791D02*
X7Y791D01*
X1776Y791D02*
X1783Y791D01*
X0Y790D02*
X7Y790D01*
X1776Y790D02*
X1783Y790D01*
X0Y789D02*
X7Y789D01*
X1776Y789D02*
X1783Y789D01*
X0Y788D02*
X7Y788D01*
X1776Y788D02*
X1783Y788D01*
X0Y787D02*
X7Y787D01*
X1776Y787D02*
X1783Y787D01*
X0Y786D02*
X7Y786D01*
X1776Y786D02*
X1783Y786D01*
X0Y785D02*
X7Y785D01*
X1776Y785D02*
X1783Y785D01*
X0Y784D02*
X7Y784D01*
X1776Y784D02*
X1783Y784D01*
X0Y783D02*
X7Y783D01*
X1776Y783D02*
X1783Y783D01*
X0Y782D02*
X7Y782D01*
X1776Y782D02*
X1783Y782D01*
X0Y781D02*
X7Y781D01*
X1776Y781D02*
X1783Y781D01*
X0Y780D02*
X7Y780D01*
X1776Y780D02*
X1783Y780D01*
X0Y779D02*
X7Y779D01*
X1776Y779D02*
X1783Y779D01*
X0Y778D02*
X7Y778D01*
X1776Y778D02*
X1783Y778D01*
X0Y777D02*
X7Y777D01*
X1776Y777D02*
X1783Y777D01*
X0Y776D02*
X7Y776D01*
X1776Y776D02*
X1783Y776D01*
X0Y775D02*
X7Y775D01*
X1776Y775D02*
X1783Y775D01*
X0Y774D02*
X7Y774D01*
X1776Y774D02*
X1783Y774D01*
X0Y773D02*
X7Y773D01*
X1776Y773D02*
X1783Y773D01*
X0Y772D02*
X7Y772D01*
X1776Y772D02*
X1783Y772D01*
X0Y771D02*
X7Y771D01*
X1776Y771D02*
X1783Y771D01*
X0Y770D02*
X7Y770D01*
X1776Y770D02*
X1783Y770D01*
X0Y769D02*
X7Y769D01*
X1776Y769D02*
X1783Y769D01*
X0Y768D02*
X7Y768D01*
X1776Y768D02*
X1783Y768D01*
X0Y767D02*
X7Y767D01*
X1776Y767D02*
X1783Y767D01*
X0Y766D02*
X7Y766D01*
X1776Y766D02*
X1783Y766D01*
X0Y765D02*
X7Y765D01*
X1776Y765D02*
X1783Y765D01*
X0Y764D02*
X7Y764D01*
X1776Y764D02*
X1783Y764D01*
X0Y763D02*
X7Y763D01*
X1776Y763D02*
X1783Y763D01*
X0Y762D02*
X7Y762D01*
X1776Y762D02*
X1783Y762D01*
X0Y761D02*
X7Y761D01*
X1776Y761D02*
X1783Y761D01*
X0Y760D02*
X7Y760D01*
X1776Y760D02*
X1783Y760D01*
X0Y759D02*
X7Y759D01*
X1776Y759D02*
X1783Y759D01*
X0Y758D02*
X7Y758D01*
X1776Y758D02*
X1783Y758D01*
X0Y757D02*
X7Y757D01*
X1776Y757D02*
X1783Y757D01*
X0Y756D02*
X7Y756D01*
X1776Y756D02*
X1783Y756D01*
X0Y755D02*
X7Y755D01*
X1776Y755D02*
X1783Y755D01*
X0Y754D02*
X7Y754D01*
X1776Y754D02*
X1783Y754D01*
X0Y753D02*
X7Y753D01*
X1776Y753D02*
X1783Y753D01*
X0Y752D02*
X7Y752D01*
X1776Y752D02*
X1783Y752D01*
X0Y751D02*
X7Y751D01*
X1776Y751D02*
X1783Y751D01*
X0Y750D02*
X7Y750D01*
X1776Y750D02*
X1783Y750D01*
X0Y749D02*
X7Y749D01*
X1776Y749D02*
X1783Y749D01*
X0Y748D02*
X7Y748D01*
X1776Y748D02*
X1783Y748D01*
X0Y747D02*
X7Y747D01*
X1776Y747D02*
X1783Y747D01*
X0Y746D02*
X7Y746D01*
X1776Y746D02*
X1783Y746D01*
X0Y745D02*
X7Y745D01*
X1776Y745D02*
X1783Y745D01*
X0Y744D02*
X7Y744D01*
X1776Y744D02*
X1783Y744D01*
X0Y743D02*
X7Y743D01*
X1776Y743D02*
X1783Y743D01*
X0Y742D02*
X7Y742D01*
X1776Y742D02*
X1783Y742D01*
X0Y741D02*
X7Y741D01*
X1776Y741D02*
X1783Y741D01*
X0Y740D02*
X7Y740D01*
X1776Y740D02*
X1783Y740D01*
X0Y739D02*
X7Y739D01*
X1776Y739D02*
X1783Y739D01*
X0Y738D02*
X7Y738D01*
X1776Y738D02*
X1783Y738D01*
X0Y737D02*
X7Y737D01*
X1776Y737D02*
X1783Y737D01*
X0Y736D02*
X7Y736D01*
X1776Y736D02*
X1783Y736D01*
X0Y735D02*
X7Y735D01*
X1776Y735D02*
X1783Y735D01*
X0Y734D02*
X7Y734D01*
X1776Y734D02*
X1783Y734D01*
X0Y733D02*
X7Y733D01*
X1776Y733D02*
X1783Y733D01*
X0Y732D02*
X7Y732D01*
X1776Y732D02*
X1783Y732D01*
X0Y731D02*
X7Y731D01*
X1776Y731D02*
X1783Y731D01*
X0Y730D02*
X7Y730D01*
X1776Y730D02*
X1783Y730D01*
X0Y729D02*
X7Y729D01*
X1776Y729D02*
X1783Y729D01*
X0Y728D02*
X7Y728D01*
X1776Y728D02*
X1783Y728D01*
X0Y727D02*
X7Y727D01*
X1776Y727D02*
X1783Y727D01*
X0Y726D02*
X7Y726D01*
X1776Y726D02*
X1783Y726D01*
X0Y725D02*
X7Y725D01*
X1776Y725D02*
X1783Y725D01*
X0Y724D02*
X7Y724D01*
X1776Y724D02*
X1783Y724D01*
X0Y723D02*
X7Y723D01*
X1776Y723D02*
X1783Y723D01*
X0Y722D02*
X7Y722D01*
X1776Y722D02*
X1783Y722D01*
X0Y721D02*
X7Y721D01*
X1776Y721D02*
X1783Y721D01*
X0Y720D02*
X7Y720D01*
X1776Y720D02*
X1783Y720D01*
X0Y719D02*
X7Y719D01*
X1776Y719D02*
X1783Y719D01*
X0Y718D02*
X7Y718D01*
X1776Y718D02*
X1783Y718D01*
X0Y717D02*
X7Y717D01*
X1776Y717D02*
X1783Y717D01*
X0Y716D02*
X7Y716D01*
X1776Y716D02*
X1783Y716D01*
X0Y715D02*
X7Y715D01*
X1776Y715D02*
X1783Y715D01*
X0Y714D02*
X7Y714D01*
X1776Y714D02*
X1783Y714D01*
X0Y713D02*
X7Y713D01*
X1776Y713D02*
X1783Y713D01*
X0Y712D02*
X7Y712D01*
X1776Y712D02*
X1783Y712D01*
X0Y711D02*
X7Y711D01*
X1776Y711D02*
X1783Y711D01*
X0Y710D02*
X7Y710D01*
X1776Y710D02*
X1783Y710D01*
X0Y709D02*
X7Y709D01*
X1776Y709D02*
X1783Y709D01*
X0Y708D02*
X7Y708D01*
X1776Y708D02*
X1783Y708D01*
X0Y707D02*
X7Y707D01*
X1776Y707D02*
X1783Y707D01*
X0Y706D02*
X7Y706D01*
X1776Y706D02*
X1783Y706D01*
X0Y705D02*
X7Y705D01*
X1776Y705D02*
X1783Y705D01*
X0Y704D02*
X7Y704D01*
X1776Y704D02*
X1783Y704D01*
X0Y703D02*
X7Y703D01*
X1776Y703D02*
X1783Y703D01*
X0Y702D02*
X7Y702D01*
X1776Y702D02*
X1783Y702D01*
X0Y701D02*
X7Y701D01*
X1776Y701D02*
X1783Y701D01*
X0Y700D02*
X7Y700D01*
X1776Y700D02*
X1783Y700D01*
X0Y699D02*
X7Y699D01*
X1776Y699D02*
X1783Y699D01*
X0Y698D02*
X7Y698D01*
X1776Y698D02*
X1783Y698D01*
X0Y697D02*
X7Y697D01*
X1776Y697D02*
X1783Y697D01*
X0Y696D02*
X7Y696D01*
X1776Y696D02*
X1783Y696D01*
X0Y695D02*
X7Y695D01*
X1776Y695D02*
X1783Y695D01*
X0Y694D02*
X7Y694D01*
X1776Y694D02*
X1783Y694D01*
X0Y693D02*
X7Y693D01*
X1776Y693D02*
X1783Y693D01*
X0Y692D02*
X7Y692D01*
X1776Y692D02*
X1783Y692D01*
X0Y691D02*
X7Y691D01*
X1776Y691D02*
X1783Y691D01*
X0Y690D02*
X7Y690D01*
X1776Y690D02*
X1783Y690D01*
X0Y689D02*
X7Y689D01*
X1776Y689D02*
X1783Y689D01*
X0Y688D02*
X7Y688D01*
X1776Y688D02*
X1783Y688D01*
X0Y687D02*
X7Y687D01*
X1776Y687D02*
X1783Y687D01*
X0Y686D02*
X7Y686D01*
X1776Y686D02*
X1783Y686D01*
X0Y685D02*
X7Y685D01*
X1776Y685D02*
X1783Y685D01*
X0Y684D02*
X7Y684D01*
X1776Y684D02*
X1783Y684D01*
X0Y683D02*
X7Y683D01*
X1776Y683D02*
X1783Y683D01*
X0Y682D02*
X7Y682D01*
X1776Y682D02*
X1783Y682D01*
X0Y681D02*
X7Y681D01*
X1776Y681D02*
X1783Y681D01*
X0Y680D02*
X7Y680D01*
X1776Y680D02*
X1783Y680D01*
X0Y679D02*
X7Y679D01*
X1776Y679D02*
X1783Y679D01*
X0Y678D02*
X7Y678D01*
X1776Y678D02*
X1783Y678D01*
X0Y677D02*
X7Y677D01*
X1776Y677D02*
X1783Y677D01*
X0Y676D02*
X7Y676D01*
X1776Y676D02*
X1783Y676D01*
X0Y675D02*
X7Y675D01*
X1776Y675D02*
X1783Y675D01*
X0Y674D02*
X7Y674D01*
X1776Y674D02*
X1783Y674D01*
X0Y673D02*
X7Y673D01*
X1776Y673D02*
X1783Y673D01*
X0Y672D02*
X7Y672D01*
X1776Y672D02*
X1783Y672D01*
X0Y671D02*
X7Y671D01*
X1776Y671D02*
X1783Y671D01*
X0Y670D02*
X7Y670D01*
X1776Y670D02*
X1783Y670D01*
X0Y669D02*
X7Y669D01*
X1776Y669D02*
X1783Y669D01*
X0Y668D02*
X7Y668D01*
X1776Y668D02*
X1783Y668D01*
X0Y667D02*
X7Y667D01*
X1776Y667D02*
X1783Y667D01*
X0Y666D02*
X7Y666D01*
X1776Y666D02*
X1783Y666D01*
X0Y665D02*
X7Y665D01*
X1776Y665D02*
X1783Y665D01*
X0Y664D02*
X7Y664D01*
X1776Y664D02*
X1783Y664D01*
X0Y663D02*
X7Y663D01*
X1776Y663D02*
X1783Y663D01*
X0Y662D02*
X7Y662D01*
X1776Y662D02*
X1783Y662D01*
X0Y661D02*
X7Y661D01*
X1776Y661D02*
X1783Y661D01*
X0Y660D02*
X7Y660D01*
X1776Y660D02*
X1783Y660D01*
X0Y659D02*
X7Y659D01*
X1776Y659D02*
X1783Y659D01*
X0Y658D02*
X7Y658D01*
X1776Y658D02*
X1783Y658D01*
X0Y657D02*
X7Y657D01*
X1776Y657D02*
X1783Y657D01*
X0Y656D02*
X7Y656D01*
X1776Y656D02*
X1783Y656D01*
X0Y655D02*
X7Y655D01*
X1776Y655D02*
X1783Y655D01*
X0Y654D02*
X7Y654D01*
X1776Y654D02*
X1783Y654D01*
X0Y653D02*
X7Y653D01*
X1776Y653D02*
X1783Y653D01*
X0Y652D02*
X7Y652D01*
X1776Y652D02*
X1783Y652D01*
X0Y651D02*
X7Y651D01*
X1776Y651D02*
X1783Y651D01*
X0Y650D02*
X7Y650D01*
X1776Y650D02*
X1783Y650D01*
X0Y649D02*
X7Y649D01*
X1776Y649D02*
X1783Y649D01*
X0Y648D02*
X7Y648D01*
X1776Y648D02*
X1783Y648D01*
X0Y647D02*
X7Y647D01*
X1776Y647D02*
X1783Y647D01*
X0Y646D02*
X7Y646D01*
X1776Y646D02*
X1783Y646D01*
X0Y645D02*
X7Y645D01*
X1776Y645D02*
X1783Y645D01*
X0Y644D02*
X7Y644D01*
X1776Y644D02*
X1783Y644D01*
X0Y643D02*
X7Y643D01*
X1776Y643D02*
X1783Y643D01*
X0Y642D02*
X7Y642D01*
X1776Y642D02*
X1783Y642D01*
X0Y641D02*
X7Y641D01*
X1776Y641D02*
X1783Y641D01*
X0Y640D02*
X7Y640D01*
X1776Y640D02*
X1783Y640D01*
X0Y639D02*
X7Y639D01*
X1776Y639D02*
X1783Y639D01*
X0Y638D02*
X7Y638D01*
X1776Y638D02*
X1783Y638D01*
X0Y637D02*
X7Y637D01*
X1776Y637D02*
X1783Y637D01*
X0Y636D02*
X7Y636D01*
X1776Y636D02*
X1783Y636D01*
X0Y635D02*
X7Y635D01*
X1776Y635D02*
X1783Y635D01*
X0Y634D02*
X7Y634D01*
X1776Y634D02*
X1783Y634D01*
X0Y633D02*
X7Y633D01*
X1776Y633D02*
X1783Y633D01*
X0Y632D02*
X7Y632D01*
X1776Y632D02*
X1783Y632D01*
X0Y631D02*
X7Y631D01*
X1776Y631D02*
X1783Y631D01*
X0Y630D02*
X7Y630D01*
X1776Y630D02*
X1783Y630D01*
X0Y629D02*
X7Y629D01*
X1776Y629D02*
X1783Y629D01*
X0Y628D02*
X7Y628D01*
X1776Y628D02*
X1783Y628D01*
X0Y627D02*
X7Y627D01*
X1776Y627D02*
X1783Y627D01*
X0Y626D02*
X7Y626D01*
X1776Y626D02*
X1783Y626D01*
X0Y625D02*
X7Y625D01*
X1776Y625D02*
X1783Y625D01*
X0Y624D02*
X7Y624D01*
X1776Y624D02*
X1783Y624D01*
X0Y623D02*
X7Y623D01*
X1776Y623D02*
X1783Y623D01*
X0Y622D02*
X7Y622D01*
X1776Y622D02*
X1783Y622D01*
X0Y621D02*
X7Y621D01*
X1776Y621D02*
X1783Y621D01*
X0Y620D02*
X7Y620D01*
X1776Y620D02*
X1783Y620D01*
X0Y619D02*
X7Y619D01*
X1776Y619D02*
X1783Y619D01*
X0Y618D02*
X7Y618D01*
X1776Y618D02*
X1783Y618D01*
X0Y617D02*
X7Y617D01*
X1776Y617D02*
X1783Y617D01*
X0Y616D02*
X7Y616D01*
X1776Y616D02*
X1783Y616D01*
X0Y615D02*
X7Y615D01*
X1776Y615D02*
X1783Y615D01*
X0Y614D02*
X7Y614D01*
X1776Y614D02*
X1783Y614D01*
X0Y613D02*
X7Y613D01*
X1776Y613D02*
X1783Y613D01*
X0Y612D02*
X7Y612D01*
X1776Y612D02*
X1783Y612D01*
X0Y611D02*
X7Y611D01*
X1776Y611D02*
X1783Y611D01*
X0Y610D02*
X7Y610D01*
X1776Y610D02*
X1783Y610D01*
X0Y609D02*
X7Y609D01*
X1776Y609D02*
X1783Y609D01*
X0Y608D02*
X7Y608D01*
X1776Y608D02*
X1783Y608D01*
X0Y607D02*
X7Y607D01*
X1776Y607D02*
X1783Y607D01*
X0Y606D02*
X7Y606D01*
X1776Y606D02*
X1783Y606D01*
X0Y605D02*
X7Y605D01*
X1776Y605D02*
X1783Y605D01*
X0Y604D02*
X7Y604D01*
X1776Y604D02*
X1783Y604D01*
X0Y603D02*
X7Y603D01*
X1776Y603D02*
X1783Y603D01*
X0Y602D02*
X7Y602D01*
X1776Y602D02*
X1783Y602D01*
X0Y601D02*
X7Y601D01*
X1776Y601D02*
X1783Y601D01*
X0Y600D02*
X7Y600D01*
X1776Y600D02*
X1783Y600D01*
X0Y599D02*
X7Y599D01*
X1776Y599D02*
X1783Y599D01*
X0Y598D02*
X7Y598D01*
X1776Y598D02*
X1783Y598D01*
X0Y597D02*
X7Y597D01*
X1776Y597D02*
X1783Y597D01*
X0Y596D02*
X7Y596D01*
X1776Y596D02*
X1783Y596D01*
X0Y595D02*
X7Y595D01*
X1776Y595D02*
X1783Y595D01*
X0Y594D02*
X7Y594D01*
X1776Y594D02*
X1783Y594D01*
X0Y593D02*
X7Y593D01*
X1776Y593D02*
X1783Y593D01*
X0Y592D02*
X7Y592D01*
X1776Y592D02*
X1783Y592D01*
X0Y591D02*
X7Y591D01*
X1776Y591D02*
X1783Y591D01*
X0Y590D02*
X7Y590D01*
X1776Y590D02*
X1783Y590D01*
X0Y589D02*
X7Y589D01*
X1776Y589D02*
X1783Y589D01*
X0Y588D02*
X7Y588D01*
X1776Y588D02*
X1783Y588D01*
X0Y587D02*
X7Y587D01*
X1776Y587D02*
X1783Y587D01*
X0Y586D02*
X7Y586D01*
X1776Y586D02*
X1783Y586D01*
X0Y585D02*
X7Y585D01*
X1776Y585D02*
X1783Y585D01*
X0Y584D02*
X7Y584D01*
X1776Y584D02*
X1783Y584D01*
X0Y583D02*
X7Y583D01*
X1776Y583D02*
X1783Y583D01*
X0Y582D02*
X7Y582D01*
X1776Y582D02*
X1783Y582D01*
X0Y581D02*
X7Y581D01*
X1776Y581D02*
X1783Y581D01*
X0Y580D02*
X7Y580D01*
X1776Y580D02*
X1783Y580D01*
X0Y579D02*
X7Y579D01*
X1776Y579D02*
X1783Y579D01*
X0Y578D02*
X7Y578D01*
X1776Y578D02*
X1783Y578D01*
X0Y577D02*
X7Y577D01*
X1776Y577D02*
X1783Y577D01*
X0Y576D02*
X7Y576D01*
X1776Y576D02*
X1783Y576D01*
X0Y575D02*
X7Y575D01*
X1776Y575D02*
X1783Y575D01*
X0Y574D02*
X7Y574D01*
X1776Y574D02*
X1783Y574D01*
X0Y573D02*
X7Y573D01*
X1776Y573D02*
X1783Y573D01*
X0Y572D02*
X7Y572D01*
X1776Y572D02*
X1783Y572D01*
X0Y571D02*
X7Y571D01*
X1776Y571D02*
X1783Y571D01*
X0Y570D02*
X7Y570D01*
X1776Y570D02*
X1783Y570D01*
X0Y569D02*
X7Y569D01*
X1776Y569D02*
X1783Y569D01*
X0Y568D02*
X7Y568D01*
X1776Y568D02*
X1783Y568D01*
X0Y567D02*
X7Y567D01*
X1776Y567D02*
X1783Y567D01*
X0Y566D02*
X7Y566D01*
X1776Y566D02*
X1783Y566D01*
X0Y565D02*
X7Y565D01*
X1776Y565D02*
X1783Y565D01*
X0Y564D02*
X7Y564D01*
X1776Y564D02*
X1783Y564D01*
X0Y563D02*
X7Y563D01*
X1776Y563D02*
X1783Y563D01*
X0Y562D02*
X7Y562D01*
X1776Y562D02*
X1783Y562D01*
X0Y561D02*
X7Y561D01*
X1776Y561D02*
X1783Y561D01*
X0Y560D02*
X7Y560D01*
X1776Y560D02*
X1783Y560D01*
X0Y559D02*
X7Y559D01*
X1776Y559D02*
X1783Y559D01*
X0Y558D02*
X7Y558D01*
X1776Y558D02*
X1783Y558D01*
X0Y557D02*
X7Y557D01*
X1776Y557D02*
X1783Y557D01*
X0Y556D02*
X7Y556D01*
X1776Y556D02*
X1783Y556D01*
X0Y555D02*
X7Y555D01*
X1776Y555D02*
X1783Y555D01*
X0Y554D02*
X7Y554D01*
X1776Y554D02*
X1783Y554D01*
X0Y553D02*
X7Y553D01*
X1776Y553D02*
X1783Y553D01*
X0Y552D02*
X7Y552D01*
X1776Y552D02*
X1783Y552D01*
X0Y551D02*
X7Y551D01*
X1776Y551D02*
X1783Y551D01*
X0Y550D02*
X7Y550D01*
X1776Y550D02*
X1783Y550D01*
X0Y549D02*
X7Y549D01*
X1776Y549D02*
X1783Y549D01*
X0Y548D02*
X7Y548D01*
X1776Y548D02*
X1783Y548D01*
X0Y547D02*
X7Y547D01*
X1776Y547D02*
X1783Y547D01*
X0Y546D02*
X7Y546D01*
X1776Y546D02*
X1783Y546D01*
X0Y545D02*
X7Y545D01*
X1776Y545D02*
X1783Y545D01*
X0Y544D02*
X7Y544D01*
X1776Y544D02*
X1783Y544D01*
X0Y543D02*
X7Y543D01*
X1776Y543D02*
X1783Y543D01*
X0Y542D02*
X7Y542D01*
X1776Y542D02*
X1783Y542D01*
X0Y541D02*
X7Y541D01*
X1776Y541D02*
X1783Y541D01*
X0Y540D02*
X7Y540D01*
X1776Y540D02*
X1783Y540D01*
X0Y539D02*
X7Y539D01*
X1776Y539D02*
X1783Y539D01*
X0Y538D02*
X7Y538D01*
X1776Y538D02*
X1783Y538D01*
X0Y537D02*
X7Y537D01*
X1776Y537D02*
X1783Y537D01*
X0Y536D02*
X7Y536D01*
X1776Y536D02*
X1783Y536D01*
X0Y535D02*
X7Y535D01*
X1776Y535D02*
X1783Y535D01*
X0Y534D02*
X7Y534D01*
X1776Y534D02*
X1783Y534D01*
X0Y533D02*
X7Y533D01*
X1776Y533D02*
X1783Y533D01*
X0Y532D02*
X7Y532D01*
X1776Y532D02*
X1783Y532D01*
X0Y531D02*
X7Y531D01*
X1776Y531D02*
X1783Y531D01*
X0Y530D02*
X7Y530D01*
X1776Y530D02*
X1783Y530D01*
X0Y529D02*
X7Y529D01*
X1776Y529D02*
X1783Y529D01*
X0Y528D02*
X7Y528D01*
X1776Y528D02*
X1783Y528D01*
X0Y527D02*
X7Y527D01*
X1776Y527D02*
X1783Y527D01*
X0Y526D02*
X7Y526D01*
X1776Y526D02*
X1783Y526D01*
X0Y525D02*
X7Y525D01*
X1776Y525D02*
X1783Y525D01*
X0Y524D02*
X7Y524D01*
X1776Y524D02*
X1783Y524D01*
X0Y523D02*
X7Y523D01*
X1776Y523D02*
X1783Y523D01*
X0Y522D02*
X7Y522D01*
X1776Y522D02*
X1783Y522D01*
X0Y521D02*
X7Y521D01*
X1776Y521D02*
X1783Y521D01*
X0Y520D02*
X7Y520D01*
X1776Y520D02*
X1783Y520D01*
X0Y519D02*
X7Y519D01*
X1776Y519D02*
X1783Y519D01*
X0Y518D02*
X7Y518D01*
X1776Y518D02*
X1783Y518D01*
X0Y517D02*
X7Y517D01*
X1776Y517D02*
X1783Y517D01*
X0Y516D02*
X7Y516D01*
X1776Y516D02*
X1783Y516D01*
X0Y515D02*
X7Y515D01*
X1776Y515D02*
X1783Y515D01*
X0Y514D02*
X7Y514D01*
X1776Y514D02*
X1783Y514D01*
X0Y513D02*
X7Y513D01*
X1776Y513D02*
X1783Y513D01*
X0Y512D02*
X7Y512D01*
X1776Y512D02*
X1783Y512D01*
X0Y511D02*
X7Y511D01*
X1776Y511D02*
X1783Y511D01*
X0Y510D02*
X7Y510D01*
X1776Y510D02*
X1783Y510D01*
X0Y509D02*
X7Y509D01*
X1776Y509D02*
X1783Y509D01*
X0Y508D02*
X7Y508D01*
X1776Y508D02*
X1783Y508D01*
X0Y507D02*
X7Y507D01*
X1776Y507D02*
X1783Y507D01*
X0Y506D02*
X7Y506D01*
X1776Y506D02*
X1783Y506D01*
X0Y505D02*
X7Y505D01*
X1776Y505D02*
X1783Y505D01*
X0Y504D02*
X7Y504D01*
X1776Y504D02*
X1783Y504D01*
X0Y503D02*
X7Y503D01*
X1776Y503D02*
X1783Y503D01*
X0Y502D02*
X7Y502D01*
X1776Y502D02*
X1783Y502D01*
X0Y501D02*
X7Y501D01*
X1776Y501D02*
X1783Y501D01*
X0Y500D02*
X7Y500D01*
X1776Y500D02*
X1783Y500D01*
X0Y499D02*
X7Y499D01*
X1776Y499D02*
X1783Y499D01*
X0Y498D02*
X7Y498D01*
X1776Y498D02*
X1783Y498D01*
X0Y497D02*
X7Y497D01*
X1776Y497D02*
X1783Y497D01*
X0Y496D02*
X7Y496D01*
X1776Y496D02*
X1783Y496D01*
X0Y495D02*
X7Y495D01*
X1776Y495D02*
X1783Y495D01*
X0Y494D02*
X7Y494D01*
X1776Y494D02*
X1783Y494D01*
X0Y493D02*
X7Y493D01*
X1776Y493D02*
X1783Y493D01*
X0Y492D02*
X7Y492D01*
X1776Y492D02*
X1783Y492D01*
X0Y491D02*
X7Y491D01*
X1776Y491D02*
X1783Y491D01*
X0Y490D02*
X7Y490D01*
X1776Y490D02*
X1783Y490D01*
X0Y489D02*
X7Y489D01*
X1776Y489D02*
X1783Y489D01*
X0Y488D02*
X7Y488D01*
X1776Y488D02*
X1783Y488D01*
X0Y487D02*
X7Y487D01*
X1776Y487D02*
X1783Y487D01*
X0Y486D02*
X7Y486D01*
X1776Y486D02*
X1783Y486D01*
X0Y485D02*
X7Y485D01*
X1776Y485D02*
X1783Y485D01*
X0Y484D02*
X7Y484D01*
X1776Y484D02*
X1783Y484D01*
X0Y483D02*
X7Y483D01*
X1776Y483D02*
X1783Y483D01*
X0Y482D02*
X7Y482D01*
X1776Y482D02*
X1783Y482D01*
X0Y481D02*
X7Y481D01*
X1776Y481D02*
X1783Y481D01*
X0Y480D02*
X7Y480D01*
X1776Y480D02*
X1783Y480D01*
X0Y479D02*
X7Y479D01*
X1776Y479D02*
X1783Y479D01*
X0Y478D02*
X7Y478D01*
X1776Y478D02*
X1783Y478D01*
X0Y477D02*
X7Y477D01*
X1776Y477D02*
X1783Y477D01*
X0Y476D02*
X7Y476D01*
X1776Y476D02*
X1783Y476D01*
X0Y475D02*
X7Y475D01*
X1776Y475D02*
X1783Y475D01*
X0Y474D02*
X7Y474D01*
X1776Y474D02*
X1783Y474D01*
X0Y473D02*
X7Y473D01*
X1776Y473D02*
X1783Y473D01*
X0Y472D02*
X7Y472D01*
X1776Y472D02*
X1783Y472D01*
X0Y471D02*
X7Y471D01*
X1776Y471D02*
X1783Y471D01*
X0Y470D02*
X7Y470D01*
X1776Y470D02*
X1783Y470D01*
X0Y469D02*
X7Y469D01*
X1776Y469D02*
X1783Y469D01*
X0Y468D02*
X7Y468D01*
X1776Y468D02*
X1783Y468D01*
X0Y467D02*
X7Y467D01*
X1776Y467D02*
X1783Y467D01*
X0Y466D02*
X7Y466D01*
X1776Y466D02*
X1783Y466D01*
X0Y465D02*
X7Y465D01*
X1776Y465D02*
X1783Y465D01*
X0Y464D02*
X7Y464D01*
X1776Y464D02*
X1783Y464D01*
X0Y463D02*
X7Y463D01*
X1776Y463D02*
X1783Y463D01*
X0Y462D02*
X7Y462D01*
X1776Y462D02*
X1783Y462D01*
X0Y461D02*
X7Y461D01*
X1776Y461D02*
X1783Y461D01*
X0Y460D02*
X7Y460D01*
X1776Y460D02*
X1783Y460D01*
X0Y459D02*
X7Y459D01*
X1776Y459D02*
X1783Y459D01*
X0Y458D02*
X7Y458D01*
X1776Y458D02*
X1783Y458D01*
X0Y457D02*
X7Y457D01*
X1776Y457D02*
X1783Y457D01*
X0Y456D02*
X7Y456D01*
X1776Y456D02*
X1783Y456D01*
X0Y455D02*
X7Y455D01*
X1776Y455D02*
X1783Y455D01*
X0Y454D02*
X7Y454D01*
X1776Y454D02*
X1783Y454D01*
X0Y453D02*
X7Y453D01*
X1776Y453D02*
X1783Y453D01*
X0Y452D02*
X7Y452D01*
X1776Y452D02*
X1783Y452D01*
X0Y451D02*
X7Y451D01*
X1776Y451D02*
X1783Y451D01*
X0Y450D02*
X7Y450D01*
X1776Y450D02*
X1783Y450D01*
X0Y449D02*
X7Y449D01*
X1776Y449D02*
X1783Y449D01*
X0Y448D02*
X7Y448D01*
X1776Y448D02*
X1783Y448D01*
X0Y447D02*
X7Y447D01*
X1776Y447D02*
X1783Y447D01*
X0Y446D02*
X7Y446D01*
X1776Y446D02*
X1783Y446D01*
X0Y445D02*
X7Y445D01*
X1776Y445D02*
X1783Y445D01*
X0Y444D02*
X7Y444D01*
X1776Y444D02*
X1783Y444D01*
X0Y443D02*
X7Y443D01*
X1776Y443D02*
X1783Y443D01*
X0Y442D02*
X7Y442D01*
X1776Y442D02*
X1783Y442D01*
X0Y441D02*
X7Y441D01*
X1776Y441D02*
X1783Y441D01*
X0Y440D02*
X7Y440D01*
X1776Y440D02*
X1783Y440D01*
X0Y439D02*
X7Y439D01*
X1776Y439D02*
X1783Y439D01*
X0Y438D02*
X7Y438D01*
X1776Y438D02*
X1783Y438D01*
X0Y437D02*
X7Y437D01*
X1776Y437D02*
X1783Y437D01*
X0Y436D02*
X7Y436D01*
X1776Y436D02*
X1783Y436D01*
X0Y435D02*
X7Y435D01*
X1776Y435D02*
X1783Y435D01*
X0Y434D02*
X7Y434D01*
X1776Y434D02*
X1783Y434D01*
X0Y433D02*
X7Y433D01*
X1776Y433D02*
X1783Y433D01*
X0Y432D02*
X7Y432D01*
X1776Y432D02*
X1783Y432D01*
X0Y431D02*
X7Y431D01*
X1776Y431D02*
X1783Y431D01*
X0Y430D02*
X7Y430D01*
X1776Y430D02*
X1783Y430D01*
X0Y429D02*
X7Y429D01*
X1776Y429D02*
X1783Y429D01*
X0Y428D02*
X7Y428D01*
X1776Y428D02*
X1783Y428D01*
X0Y427D02*
X7Y427D01*
X1776Y427D02*
X1783Y427D01*
X0Y426D02*
X7Y426D01*
X1776Y426D02*
X1783Y426D01*
X0Y425D02*
X7Y425D01*
X1776Y425D02*
X1783Y425D01*
X0Y424D02*
X7Y424D01*
X1776Y424D02*
X1783Y424D01*
X0Y423D02*
X7Y423D01*
X1776Y423D02*
X1783Y423D01*
X0Y422D02*
X7Y422D01*
X1776Y422D02*
X1783Y422D01*
X0Y421D02*
X7Y421D01*
X1776Y421D02*
X1783Y421D01*
X0Y420D02*
X7Y420D01*
X1776Y420D02*
X1783Y420D01*
X0Y419D02*
X7Y419D01*
X1776Y419D02*
X1783Y419D01*
X0Y418D02*
X7Y418D01*
X1776Y418D02*
X1783Y418D01*
X0Y417D02*
X7Y417D01*
X1776Y417D02*
X1783Y417D01*
X0Y416D02*
X7Y416D01*
X1776Y416D02*
X1783Y416D01*
X0Y415D02*
X7Y415D01*
X1776Y415D02*
X1783Y415D01*
X0Y414D02*
X7Y414D01*
X1776Y414D02*
X1783Y414D01*
X0Y413D02*
X7Y413D01*
X1776Y413D02*
X1783Y413D01*
X0Y412D02*
X7Y412D01*
X1776Y412D02*
X1783Y412D01*
X0Y411D02*
X7Y411D01*
X1776Y411D02*
X1783Y411D01*
X0Y410D02*
X7Y410D01*
X1776Y410D02*
X1783Y410D01*
X0Y409D02*
X7Y409D01*
X1776Y409D02*
X1783Y409D01*
X0Y408D02*
X7Y408D01*
X1776Y408D02*
X1783Y408D01*
X0Y407D02*
X7Y407D01*
X1776Y407D02*
X1783Y407D01*
X0Y406D02*
X7Y406D01*
X1776Y406D02*
X1783Y406D01*
X0Y405D02*
X7Y405D01*
X1776Y405D02*
X1783Y405D01*
X0Y404D02*
X7Y404D01*
X1776Y404D02*
X1783Y404D01*
X0Y403D02*
X7Y403D01*
X1776Y403D02*
X1783Y403D01*
X0Y402D02*
X7Y402D01*
X1776Y402D02*
X1783Y402D01*
X0Y401D02*
X7Y401D01*
X1776Y401D02*
X1783Y401D01*
X0Y400D02*
X7Y400D01*
X1776Y400D02*
X1783Y400D01*
X0Y399D02*
X7Y399D01*
X1776Y399D02*
X1783Y399D01*
X0Y398D02*
X7Y398D01*
X1776Y398D02*
X1783Y398D01*
X0Y397D02*
X7Y397D01*
X1776Y397D02*
X1783Y397D01*
X0Y396D02*
X7Y396D01*
X1776Y396D02*
X1783Y396D01*
X0Y395D02*
X7Y395D01*
X1776Y395D02*
X1783Y395D01*
X0Y394D02*
X7Y394D01*
X1776Y394D02*
X1783Y394D01*
X0Y393D02*
X7Y393D01*
X1776Y393D02*
X1783Y393D01*
X0Y392D02*
X7Y392D01*
X1776Y392D02*
X1783Y392D01*
X0Y391D02*
X7Y391D01*
X1776Y391D02*
X1783Y391D01*
X0Y390D02*
X7Y390D01*
X1776Y390D02*
X1783Y390D01*
X0Y389D02*
X7Y389D01*
X1776Y389D02*
X1783Y389D01*
X0Y388D02*
X7Y388D01*
X1776Y388D02*
X1783Y388D01*
X0Y387D02*
X7Y387D01*
X1776Y387D02*
X1783Y387D01*
X0Y386D02*
X7Y386D01*
X1776Y386D02*
X1783Y386D01*
X0Y385D02*
X7Y385D01*
X1776Y385D02*
X1783Y385D01*
X0Y384D02*
X7Y384D01*
X1776Y384D02*
X1783Y384D01*
X0Y383D02*
X7Y383D01*
X1776Y383D02*
X1783Y383D01*
X0Y382D02*
X7Y382D01*
X1776Y382D02*
X1783Y382D01*
X0Y381D02*
X7Y381D01*
X1776Y381D02*
X1783Y381D01*
X0Y380D02*
X7Y380D01*
X1776Y380D02*
X1783Y380D01*
X0Y379D02*
X7Y379D01*
X1776Y379D02*
X1783Y379D01*
X0Y378D02*
X7Y378D01*
X1776Y378D02*
X1783Y378D01*
X0Y377D02*
X7Y377D01*
X1776Y377D02*
X1783Y377D01*
X0Y376D02*
X7Y376D01*
X1776Y376D02*
X1783Y376D01*
X0Y375D02*
X7Y375D01*
X1776Y375D02*
X1783Y375D01*
X0Y374D02*
X7Y374D01*
X1776Y374D02*
X1783Y374D01*
X0Y373D02*
X7Y373D01*
X1776Y373D02*
X1783Y373D01*
X0Y372D02*
X7Y372D01*
X1776Y372D02*
X1783Y372D01*
X0Y371D02*
X7Y371D01*
X1776Y371D02*
X1783Y371D01*
X0Y370D02*
X7Y370D01*
X1776Y370D02*
X1783Y370D01*
X0Y369D02*
X7Y369D01*
X1776Y369D02*
X1783Y369D01*
X0Y368D02*
X7Y368D01*
X1776Y368D02*
X1783Y368D01*
X0Y367D02*
X7Y367D01*
X1776Y367D02*
X1783Y367D01*
X0Y366D02*
X7Y366D01*
X1776Y366D02*
X1783Y366D01*
X0Y365D02*
X7Y365D01*
X1776Y365D02*
X1783Y365D01*
X0Y364D02*
X7Y364D01*
X1776Y364D02*
X1783Y364D01*
X0Y363D02*
X7Y363D01*
X1776Y363D02*
X1783Y363D01*
X0Y362D02*
X7Y362D01*
X1776Y362D02*
X1783Y362D01*
X0Y361D02*
X7Y361D01*
X1776Y361D02*
X1783Y361D01*
X0Y360D02*
X7Y360D01*
X1776Y360D02*
X1783Y360D01*
X0Y359D02*
X7Y359D01*
X1776Y359D02*
X1783Y359D01*
X0Y358D02*
X7Y358D01*
X1776Y358D02*
X1783Y358D01*
X0Y357D02*
X7Y357D01*
X1776Y357D02*
X1783Y357D01*
X0Y356D02*
X7Y356D01*
X1776Y356D02*
X1783Y356D01*
X0Y355D02*
X7Y355D01*
X1776Y355D02*
X1783Y355D01*
X0Y354D02*
X7Y354D01*
X1776Y354D02*
X1783Y354D01*
X0Y353D02*
X7Y353D01*
X1776Y353D02*
X1783Y353D01*
X0Y352D02*
X7Y352D01*
X1776Y352D02*
X1783Y352D01*
X0Y351D02*
X7Y351D01*
X1776Y351D02*
X1783Y351D01*
X0Y350D02*
X7Y350D01*
X1776Y350D02*
X1783Y350D01*
X0Y349D02*
X7Y349D01*
X1776Y349D02*
X1783Y349D01*
X0Y348D02*
X7Y348D01*
X1776Y348D02*
X1783Y348D01*
X0Y347D02*
X7Y347D01*
X1776Y347D02*
X1783Y347D01*
X0Y346D02*
X7Y346D01*
X1776Y346D02*
X1783Y346D01*
X0Y345D02*
X7Y345D01*
X1776Y345D02*
X1783Y345D01*
X0Y344D02*
X7Y344D01*
X1776Y344D02*
X1783Y344D01*
X0Y343D02*
X7Y343D01*
X1776Y343D02*
X1783Y343D01*
X0Y342D02*
X7Y342D01*
X1776Y342D02*
X1783Y342D01*
X0Y341D02*
X7Y341D01*
X1776Y341D02*
X1783Y341D01*
X0Y340D02*
X7Y340D01*
X1776Y340D02*
X1783Y340D01*
X0Y339D02*
X7Y339D01*
X1776Y339D02*
X1783Y339D01*
X0Y338D02*
X7Y338D01*
X1776Y338D02*
X1783Y338D01*
X0Y337D02*
X7Y337D01*
X1776Y337D02*
X1783Y337D01*
X0Y336D02*
X7Y336D01*
X1776Y336D02*
X1783Y336D01*
X0Y335D02*
X7Y335D01*
X1776Y335D02*
X1783Y335D01*
X0Y334D02*
X7Y334D01*
X1776Y334D02*
X1783Y334D01*
X0Y333D02*
X7Y333D01*
X1776Y333D02*
X1783Y333D01*
X0Y332D02*
X7Y332D01*
X1776Y332D02*
X1783Y332D01*
X0Y331D02*
X7Y331D01*
X1776Y331D02*
X1783Y331D01*
X0Y330D02*
X7Y330D01*
X1776Y330D02*
X1783Y330D01*
X0Y329D02*
X7Y329D01*
X1776Y329D02*
X1783Y329D01*
X0Y328D02*
X7Y328D01*
X1776Y328D02*
X1783Y328D01*
X0Y327D02*
X7Y327D01*
X1776Y327D02*
X1783Y327D01*
X0Y326D02*
X7Y326D01*
X1776Y326D02*
X1783Y326D01*
X0Y325D02*
X7Y325D01*
X1776Y325D02*
X1783Y325D01*
X0Y324D02*
X7Y324D01*
X1776Y324D02*
X1783Y324D01*
X0Y323D02*
X7Y323D01*
X1776Y323D02*
X1783Y323D01*
X0Y322D02*
X7Y322D01*
X1776Y322D02*
X1783Y322D01*
X0Y321D02*
X7Y321D01*
X1776Y321D02*
X1783Y321D01*
X0Y320D02*
X7Y320D01*
X1776Y320D02*
X1783Y320D01*
X0Y319D02*
X7Y319D01*
X1776Y319D02*
X1783Y319D01*
X0Y318D02*
X7Y318D01*
X1776Y318D02*
X1783Y318D01*
X0Y317D02*
X7Y317D01*
X1776Y317D02*
X1783Y317D01*
X0Y316D02*
X7Y316D01*
X1776Y316D02*
X1783Y316D01*
X0Y315D02*
X7Y315D01*
X1776Y315D02*
X1783Y315D01*
X0Y314D02*
X7Y314D01*
X1776Y314D02*
X1783Y314D01*
X0Y313D02*
X7Y313D01*
X1776Y313D02*
X1783Y313D01*
X0Y312D02*
X7Y312D01*
X1776Y312D02*
X1783Y312D01*
X0Y311D02*
X7Y311D01*
X1776Y311D02*
X1783Y311D01*
X0Y310D02*
X7Y310D01*
X1776Y310D02*
X1783Y310D01*
X0Y309D02*
X7Y309D01*
X1776Y309D02*
X1783Y309D01*
X0Y308D02*
X7Y308D01*
X1776Y308D02*
X1783Y308D01*
X0Y307D02*
X7Y307D01*
X1776Y307D02*
X1783Y307D01*
X0Y306D02*
X7Y306D01*
X1776Y306D02*
X1783Y306D01*
X0Y305D02*
X7Y305D01*
X1776Y305D02*
X1783Y305D01*
X0Y304D02*
X7Y304D01*
X1776Y304D02*
X1783Y304D01*
X0Y303D02*
X7Y303D01*
X1776Y303D02*
X1783Y303D01*
X0Y302D02*
X7Y302D01*
X1776Y302D02*
X1783Y302D01*
X0Y301D02*
X7Y301D01*
X1776Y301D02*
X1783Y301D01*
X0Y300D02*
X7Y300D01*
X1776Y300D02*
X1783Y300D01*
X0Y299D02*
X7Y299D01*
X1776Y299D02*
X1783Y299D01*
X0Y298D02*
X7Y298D01*
X1776Y298D02*
X1783Y298D01*
X0Y297D02*
X7Y297D01*
X1776Y297D02*
X1783Y297D01*
X0Y296D02*
X7Y296D01*
X1776Y296D02*
X1783Y296D01*
X0Y295D02*
X7Y295D01*
X1776Y295D02*
X1783Y295D01*
X0Y294D02*
X7Y294D01*
X1776Y294D02*
X1783Y294D01*
X0Y293D02*
X7Y293D01*
X1776Y293D02*
X1783Y293D01*
X0Y292D02*
X7Y292D01*
X1776Y292D02*
X1783Y292D01*
X0Y291D02*
X7Y291D01*
X1776Y291D02*
X1783Y291D01*
X0Y290D02*
X7Y290D01*
X1776Y290D02*
X1783Y290D01*
X0Y289D02*
X7Y289D01*
X1776Y289D02*
X1783Y289D01*
X0Y288D02*
X7Y288D01*
X1776Y288D02*
X1783Y288D01*
X0Y287D02*
X7Y287D01*
X107Y287D02*
X116Y287D01*
X1776Y287D02*
X1783Y287D01*
X0Y286D02*
X7Y286D01*
X111Y286D02*
X111Y286D01*
X116Y286D02*
X116Y286D01*
X1776Y286D02*
X1783Y286D01*
X0Y285D02*
X7Y285D01*
X111Y285D02*
X111Y285D01*
X116Y285D02*
X116Y285D01*
X1776Y285D02*
X1783Y285D01*
X0Y284D02*
X7Y284D01*
X111Y284D02*
X111Y284D01*
X116Y284D02*
X116Y284D01*
X1776Y284D02*
X1783Y284D01*
X0Y283D02*
X7Y283D01*
X111Y283D02*
X112Y283D01*
X115Y283D02*
X116Y283D01*
X1776Y283D02*
X1783Y283D01*
X0Y282D02*
X7Y282D01*
X112Y282D02*
X115Y282D01*
X1776Y282D02*
X1783Y282D01*
X0Y281D02*
X7Y281D01*
X1776Y281D02*
X1783Y281D01*
X0Y280D02*
X7Y280D01*
X523Y280D02*
X589Y280D01*
X791Y280D02*
X838Y280D01*
X1776Y280D02*
X1783Y280D01*
X0Y279D02*
X7Y279D01*
X523Y279D02*
X589Y279D01*
X790Y279D02*
X838Y279D01*
X1776Y279D02*
X1783Y279D01*
X0Y278D02*
X7Y278D01*
X110Y278D02*
X113Y278D01*
X523Y278D02*
X589Y278D01*
X790Y278D02*
X838Y278D01*
X1776Y278D02*
X1783Y278D01*
X0Y277D02*
X7Y277D01*
X108Y277D02*
X110Y277D01*
X113Y277D02*
X115Y277D01*
X523Y277D02*
X589Y277D01*
X790Y277D02*
X838Y277D01*
X1776Y277D02*
X1783Y277D01*
X0Y276D02*
X7Y276D01*
X107Y276D02*
X108Y276D01*
X115Y276D02*
X116Y276D01*
X523Y276D02*
X589Y276D01*
X790Y276D02*
X837Y276D01*
X1776Y276D02*
X1783Y276D01*
X0Y275D02*
X7Y275D01*
X107Y275D02*
X108Y275D01*
X115Y275D02*
X116Y275D01*
X523Y275D02*
X589Y275D01*
X790Y275D02*
X837Y275D01*
X1776Y275D02*
X1783Y275D01*
X0Y274D02*
X7Y274D01*
X108Y274D02*
X110Y274D01*
X114Y274D02*
X115Y274D01*
X523Y274D02*
X589Y274D01*
X790Y274D02*
X837Y274D01*
X1776Y274D02*
X1783Y274D01*
X0Y273D02*
X7Y273D01*
X110Y273D02*
X114Y273D01*
X523Y273D02*
X589Y273D01*
X790Y273D02*
X838Y273D01*
X1776Y273D02*
X1783Y273D01*
X0Y272D02*
X7Y272D01*
X523Y272D02*
X589Y272D01*
X790Y272D02*
X838Y272D01*
X1776Y272D02*
X1783Y272D01*
X0Y271D02*
X7Y271D01*
X523Y271D02*
X589Y271D01*
X790Y271D02*
X838Y271D01*
X1776Y271D02*
X1783Y271D01*
X0Y270D02*
X7Y270D01*
X1776Y270D02*
X1783Y270D01*
X0Y269D02*
X7Y269D01*
X108Y269D02*
X108Y269D01*
X115Y269D02*
X115Y269D01*
X1776Y269D02*
X1783Y269D01*
X0Y268D02*
X7Y268D01*
X107Y268D02*
X108Y268D01*
X114Y268D02*
X116Y268D01*
X1776Y268D02*
X1783Y268D01*
X0Y267D02*
X7Y267D01*
X107Y267D02*
X107Y267D01*
X112Y267D02*
X114Y267D01*
X116Y267D02*
X116Y267D01*
X1776Y267D02*
X1783Y267D01*
X0Y266D02*
X7Y266D01*
X107Y266D02*
X107Y266D01*
X111Y266D02*
X112Y266D01*
X116Y266D02*
X116Y266D01*
X1776Y266D02*
X1783Y266D01*
X0Y265D02*
X7Y265D01*
X107Y265D02*
X107Y265D01*
X110Y265D02*
X111Y265D01*
X116Y265D02*
X116Y265D01*
X1776Y265D02*
X1783Y265D01*
X0Y264D02*
X7Y264D01*
X107Y264D02*
X110Y264D01*
X115Y264D02*
X116Y264D01*
X1776Y264D02*
X1783Y264D01*
X0Y263D02*
X7Y263D01*
X108Y263D02*
X108Y263D01*
X115Y263D02*
X115Y263D01*
X1776Y263D02*
X1783Y263D01*
X0Y262D02*
X7Y262D01*
X1776Y262D02*
X1783Y262D01*
X0Y261D02*
X7Y261D01*
X1776Y261D02*
X1783Y261D01*
X0Y260D02*
X7Y260D01*
X1776Y260D02*
X1783Y260D01*
X0Y259D02*
X7Y259D01*
X1776Y259D02*
X1783Y259D01*
X0Y258D02*
X7Y258D01*
X1776Y258D02*
X1783Y258D01*
X0Y257D02*
X7Y257D01*
X1776Y257D02*
X1783Y257D01*
X0Y256D02*
X7Y256D01*
X1776Y256D02*
X1783Y256D01*
X0Y255D02*
X7Y255D01*
X1776Y255D02*
X1783Y255D01*
X0Y254D02*
X7Y254D01*
X1776Y254D02*
X1783Y254D01*
X0Y253D02*
X7Y253D01*
X1776Y253D02*
X1783Y253D01*
X0Y252D02*
X7Y252D01*
X1776Y252D02*
X1783Y252D01*
X0Y251D02*
X7Y251D01*
X1776Y251D02*
X1783Y251D01*
X0Y250D02*
X7Y250D01*
X1776Y250D02*
X1783Y250D01*
X0Y249D02*
X7Y249D01*
X1776Y249D02*
X1783Y249D01*
X0Y248D02*
X7Y248D01*
X1776Y248D02*
X1783Y248D01*
X0Y247D02*
X7Y247D01*
X1776Y247D02*
X1783Y247D01*
X0Y246D02*
X7Y246D01*
X1776Y246D02*
X1783Y246D01*
X0Y245D02*
X7Y245D01*
X1776Y245D02*
X1783Y245D01*
X0Y244D02*
X7Y244D01*
X1776Y244D02*
X1783Y244D01*
X0Y243D02*
X7Y243D01*
X1776Y243D02*
X1783Y243D01*
X0Y242D02*
X7Y242D01*
X1776Y242D02*
X1783Y242D01*
X0Y241D02*
X7Y241D01*
X1776Y241D02*
X1783Y241D01*
X0Y240D02*
X7Y240D01*
X1776Y240D02*
X1783Y240D01*
X0Y239D02*
X7Y239D01*
X1776Y239D02*
X1783Y239D01*
X0Y238D02*
X7Y238D01*
X1776Y238D02*
X1783Y238D01*
X0Y237D02*
X7Y237D01*
X1776Y237D02*
X1783Y237D01*
X0Y236D02*
X7Y236D01*
X1776Y236D02*
X1783Y236D01*
X0Y235D02*
X7Y235D01*
X1776Y235D02*
X1783Y235D01*
X0Y234D02*
X7Y234D01*
X1776Y234D02*
X1783Y234D01*
X0Y233D02*
X7Y233D01*
X1776Y233D02*
X1783Y233D01*
X0Y232D02*
X7Y232D01*
X1776Y232D02*
X1783Y232D01*
X0Y231D02*
X7Y231D01*
X1776Y231D02*
X1783Y231D01*
X0Y230D02*
X7Y230D01*
X1776Y230D02*
X1783Y230D01*
X0Y229D02*
X7Y229D01*
X1776Y229D02*
X1783Y229D01*
X0Y228D02*
X7Y228D01*
X1776Y228D02*
X1783Y228D01*
X0Y227D02*
X7Y227D01*
X1776Y227D02*
X1783Y227D01*
X0Y226D02*
X7Y226D01*
X1776Y226D02*
X1783Y226D01*
X0Y225D02*
X7Y225D01*
X1776Y225D02*
X1783Y225D01*
X0Y224D02*
X7Y224D01*
X1776Y224D02*
X1783Y224D01*
X0Y223D02*
X7Y223D01*
X1776Y223D02*
X1783Y223D01*
X0Y222D02*
X7Y222D01*
X1776Y222D02*
X1783Y222D01*
X0Y221D02*
X7Y221D01*
X1776Y221D02*
X1783Y221D01*
X0Y220D02*
X7Y220D01*
X1776Y220D02*
X1783Y220D01*
X0Y219D02*
X7Y219D01*
X1776Y219D02*
X1783Y219D01*
X0Y218D02*
X7Y218D01*
X1776Y218D02*
X1783Y218D01*
X0Y217D02*
X7Y217D01*
X1776Y217D02*
X1783Y217D01*
X0Y216D02*
X7Y216D01*
X1776Y216D02*
X1783Y216D01*
X0Y215D02*
X7Y215D01*
X1776Y215D02*
X1783Y215D01*
X0Y214D02*
X7Y214D01*
X1776Y214D02*
X1783Y214D01*
X0Y213D02*
X7Y213D01*
X1776Y213D02*
X1783Y213D01*
X0Y212D02*
X7Y212D01*
X1776Y212D02*
X1783Y212D01*
X0Y211D02*
X7Y211D01*
X1776Y211D02*
X1783Y211D01*
X0Y210D02*
X7Y210D01*
X1776Y210D02*
X1783Y210D01*
X0Y209D02*
X7Y209D01*
X1776Y209D02*
X1783Y209D01*
X0Y208D02*
X7Y208D01*
X1776Y208D02*
X1783Y208D01*
X0Y207D02*
X7Y207D01*
X1776Y207D02*
X1783Y207D01*
X0Y206D02*
X7Y206D01*
X1776Y206D02*
X1783Y206D01*
X0Y205D02*
X7Y205D01*
X1776Y205D02*
X1783Y205D01*
X0Y204D02*
X7Y204D01*
X1776Y204D02*
X1783Y204D01*
X0Y203D02*
X7Y203D01*
X1776Y203D02*
X1783Y203D01*
X0Y202D02*
X7Y202D01*
X1776Y202D02*
X1783Y202D01*
X0Y201D02*
X7Y201D01*
X1776Y201D02*
X1783Y201D01*
X0Y200D02*
X7Y200D01*
X1776Y200D02*
X1783Y200D01*
X0Y199D02*
X7Y199D01*
X1776Y199D02*
X1783Y199D01*
X0Y198D02*
X7Y198D01*
X1776Y198D02*
X1783Y198D01*
X0Y197D02*
X7Y197D01*
X1776Y197D02*
X1783Y197D01*
X0Y196D02*
X7Y196D01*
X1776Y196D02*
X1783Y196D01*
X0Y195D02*
X7Y195D01*
X1776Y195D02*
X1783Y195D01*
X0Y194D02*
X7Y194D01*
X1776Y194D02*
X1783Y194D01*
X0Y193D02*
X7Y193D01*
X1776Y193D02*
X1783Y193D01*
X0Y192D02*
X7Y192D01*
X1776Y192D02*
X1783Y192D01*
X0Y191D02*
X7Y191D01*
X1776Y191D02*
X1783Y191D01*
X0Y190D02*
X7Y190D01*
X1776Y190D02*
X1783Y190D01*
X0Y189D02*
X7Y189D01*
X1776Y189D02*
X1783Y189D01*
X0Y188D02*
X7Y188D01*
X107Y188D02*
X115Y188D01*
X1776Y188D02*
X1783Y188D01*
X0Y187D02*
X7Y187D01*
X107Y187D02*
X116Y187D01*
X1776Y187D02*
X1783Y187D01*
X0Y186D02*
X7Y186D01*
X113Y186D02*
X115Y186D01*
X1776Y186D02*
X1783Y186D01*
X0Y185D02*
X7Y185D01*
X110Y185D02*
X113Y185D01*
X1776Y185D02*
X1783Y185D01*
X0Y184D02*
X7Y184D01*
X108Y184D02*
X110Y184D01*
X1776Y184D02*
X1783Y184D01*
X0Y183D02*
X7Y183D01*
X107Y183D02*
X109Y183D01*
X1776Y183D02*
X1783Y183D01*
X0Y182D02*
X7Y182D01*
X107Y182D02*
X115Y182D01*
X1776Y182D02*
X1783Y182D01*
X0Y181D02*
X7Y181D01*
X1776Y181D02*
X1783Y181D01*
X0Y180D02*
X7Y180D01*
X523Y180D02*
X589Y180D01*
X790Y180D02*
X838Y180D01*
X1776Y180D02*
X1783Y180D01*
X0Y179D02*
X7Y179D01*
X523Y179D02*
X589Y179D01*
X790Y179D02*
X838Y179D01*
X1776Y179D02*
X1783Y179D01*
X0Y178D02*
X7Y178D01*
X106Y178D02*
X116Y178D01*
X523Y178D02*
X589Y178D01*
X790Y178D02*
X838Y178D01*
X1776Y178D02*
X1783Y178D01*
X0Y177D02*
X7Y177D01*
X106Y177D02*
X107Y177D01*
X111Y177D02*
X111Y177D01*
X115Y177D02*
X116Y177D01*
X523Y177D02*
X589Y177D01*
X790Y177D02*
X838Y177D01*
X1776Y177D02*
X1783Y177D01*
X0Y176D02*
X7Y176D01*
X106Y176D02*
X107Y176D01*
X111Y176D02*
X111Y176D01*
X115Y176D02*
X116Y176D01*
X523Y176D02*
X589Y176D01*
X790Y176D02*
X837Y176D01*
X1776Y176D02*
X1783Y176D01*
X0Y175D02*
X7Y175D01*
X106Y175D02*
X107Y175D01*
X111Y175D02*
X111Y175D01*
X115Y175D02*
X116Y175D01*
X523Y175D02*
X589Y175D01*
X790Y175D02*
X837Y175D01*
X1776Y175D02*
X1783Y175D01*
X0Y174D02*
X7Y174D01*
X106Y174D02*
X107Y174D01*
X115Y174D02*
X116Y174D01*
X523Y174D02*
X589Y174D01*
X790Y174D02*
X838Y174D01*
X1776Y174D02*
X1783Y174D01*
X0Y173D02*
X7Y173D01*
X107Y173D02*
X107Y173D01*
X115Y173D02*
X116Y173D01*
X523Y173D02*
X589Y173D01*
X790Y173D02*
X838Y173D01*
X1776Y173D02*
X1783Y173D01*
X0Y172D02*
X7Y172D01*
X523Y172D02*
X589Y172D01*
X790Y172D02*
X838Y172D01*
X1776Y172D02*
X1783Y172D01*
X0Y171D02*
X7Y171D01*
X523Y171D02*
X589Y171D01*
X790Y171D02*
X838Y171D01*
X1776Y171D02*
X1783Y171D01*
X0Y170D02*
X7Y170D01*
X1776Y170D02*
X1783Y170D01*
X0Y169D02*
X7Y169D01*
X108Y169D02*
X112Y169D01*
X1776Y169D02*
X1783Y169D01*
X0Y168D02*
X7Y168D01*
X107Y168D02*
X113Y168D01*
X1776Y168D02*
X1783Y168D01*
X0Y167D02*
X7Y167D01*
X106Y167D02*
X107Y167D01*
X114Y167D02*
X115Y167D01*
X1776Y167D02*
X1783Y167D01*
X0Y166D02*
X7Y166D01*
X106Y166D02*
X107Y166D01*
X115Y166D02*
X115Y166D01*
X1776Y166D02*
X1783Y166D01*
X0Y165D02*
X7Y165D01*
X106Y165D02*
X107Y165D01*
X110Y165D02*
X110Y165D01*
X115Y165D02*
X116Y165D01*
X1776Y165D02*
X1783Y165D01*
X0Y164D02*
X7Y164D01*
X107Y164D02*
X110Y164D01*
X115Y164D02*
X116Y164D01*
X1776Y164D02*
X1783Y164D01*
X0Y163D02*
X7Y163D01*
X108Y163D02*
X110Y163D01*
X1776Y163D02*
X1783Y163D01*
X0Y162D02*
X7Y162D01*
X1776Y162D02*
X1783Y162D01*
X0Y161D02*
X7Y161D01*
X1776Y161D02*
X1783Y161D01*
X0Y160D02*
X7Y160D01*
X1776Y160D02*
X1783Y160D01*
X0Y159D02*
X7Y159D01*
X1776Y159D02*
X1783Y159D01*
X0Y158D02*
X7Y158D01*
X1776Y158D02*
X1783Y158D01*
X0Y157D02*
X7Y157D01*
X1776Y157D02*
X1783Y157D01*
X0Y156D02*
X7Y156D01*
X1776Y156D02*
X1783Y156D01*
X0Y155D02*
X7Y155D01*
X1776Y155D02*
X1783Y155D01*
X0Y154D02*
X7Y154D01*
X1776Y154D02*
X1783Y154D01*
X0Y153D02*
X7Y153D01*
X1776Y153D02*
X1783Y153D01*
X0Y152D02*
X7Y152D01*
X1776Y152D02*
X1783Y152D01*
X0Y151D02*
X7Y151D01*
X1776Y151D02*
X1783Y151D01*
X0Y150D02*
X7Y150D01*
X1776Y150D02*
X1783Y150D01*
X0Y149D02*
X7Y149D01*
X1776Y149D02*
X1783Y149D01*
X0Y148D02*
X7Y148D01*
X1776Y148D02*
X1783Y148D01*
X0Y147D02*
X7Y147D01*
X1776Y147D02*
X1783Y147D01*
X0Y146D02*
X7Y146D01*
X1776Y146D02*
X1783Y146D01*
X0Y145D02*
X7Y145D01*
X1776Y145D02*
X1783Y145D01*
X0Y144D02*
X7Y144D01*
X1776Y144D02*
X1783Y144D01*
X0Y143D02*
X7Y143D01*
X1776Y143D02*
X1783Y143D01*
X0Y142D02*
X7Y142D01*
X1776Y142D02*
X1783Y142D01*
X0Y141D02*
X7Y141D01*
X1776Y141D02*
X1783Y141D01*
X0Y140D02*
X7Y140D01*
X1776Y140D02*
X1783Y140D01*
X0Y139D02*
X7Y139D01*
X1776Y139D02*
X1783Y139D01*
X0Y138D02*
X7Y138D01*
X1776Y138D02*
X1783Y138D01*
X0Y137D02*
X7Y137D01*
X1776Y137D02*
X1783Y137D01*
X0Y136D02*
X7Y136D01*
X1776Y136D02*
X1783Y136D01*
X0Y135D02*
X7Y135D01*
X1776Y135D02*
X1783Y135D01*
X0Y134D02*
X7Y134D01*
X1776Y134D02*
X1783Y134D01*
X0Y133D02*
X7Y133D01*
X1776Y133D02*
X1783Y133D01*
X0Y132D02*
X7Y132D01*
X1776Y132D02*
X1783Y132D01*
X0Y131D02*
X7Y131D01*
X1776Y131D02*
X1783Y131D01*
X0Y130D02*
X7Y130D01*
X1776Y130D02*
X1783Y130D01*
X0Y129D02*
X7Y129D01*
X1776Y129D02*
X1783Y129D01*
X0Y128D02*
X7Y128D01*
X1776Y128D02*
X1783Y128D01*
X0Y127D02*
X7Y127D01*
X1776Y127D02*
X1783Y127D01*
X0Y126D02*
X7Y126D01*
X1776Y126D02*
X1783Y126D01*
X0Y125D02*
X7Y125D01*
X1776Y125D02*
X1783Y125D01*
X0Y124D02*
X7Y124D01*
X1776Y124D02*
X1783Y124D01*
X0Y123D02*
X7Y123D01*
X1776Y123D02*
X1783Y123D01*
X0Y122D02*
X7Y122D01*
X1776Y122D02*
X1783Y122D01*
X0Y121D02*
X7Y121D01*
X1776Y121D02*
X1783Y121D01*
X0Y120D02*
X7Y120D01*
X1776Y120D02*
X1783Y120D01*
X0Y119D02*
X7Y119D01*
X1776Y119D02*
X1783Y119D01*
X0Y118D02*
X7Y118D01*
X1776Y118D02*
X1783Y118D01*
X0Y117D02*
X7Y117D01*
X1776Y117D02*
X1783Y117D01*
X0Y116D02*
X7Y116D01*
X1776Y116D02*
X1783Y116D01*
X0Y115D02*
X7Y115D01*
X1776Y115D02*
X1783Y115D01*
X0Y114D02*
X7Y114D01*
X1776Y114D02*
X1783Y114D01*
X0Y113D02*
X7Y113D01*
X1776Y113D02*
X1783Y113D01*
X0Y112D02*
X7Y112D01*
X1776Y112D02*
X1783Y112D01*
X0Y111D02*
X7Y111D01*
X1776Y111D02*
X1783Y111D01*
X0Y110D02*
X7Y110D01*
X1776Y110D02*
X1783Y110D01*
X0Y109D02*
X7Y109D01*
X1776Y109D02*
X1783Y109D01*
X0Y108D02*
X7Y108D01*
X1776Y108D02*
X1783Y108D01*
X0Y107D02*
X7Y107D01*
X1776Y107D02*
X1783Y107D01*
X0Y106D02*
X7Y106D01*
X1776Y106D02*
X1783Y106D01*
X0Y105D02*
X7Y105D01*
X1776Y105D02*
X1783Y105D01*
X0Y104D02*
X7Y104D01*
X1776Y104D02*
X1783Y104D01*
X0Y103D02*
X7Y103D01*
X1776Y103D02*
X1783Y103D01*
X0Y102D02*
X7Y102D01*
X1776Y102D02*
X1783Y102D01*
X0Y101D02*
X7Y101D01*
X1776Y101D02*
X1783Y101D01*
X0Y100D02*
X7Y100D01*
X1776Y100D02*
X1783Y100D01*
X0Y99D02*
X7Y99D01*
X1776Y99D02*
X1783Y99D01*
X0Y98D02*
X7Y98D01*
X1776Y98D02*
X1783Y98D01*
X0Y97D02*
X7Y97D01*
X1776Y97D02*
X1783Y97D01*
X0Y96D02*
X7Y96D01*
X1776Y96D02*
X1783Y96D01*
X0Y95D02*
X7Y95D01*
X1776Y95D02*
X1783Y95D01*
X0Y94D02*
X7Y94D01*
X1776Y94D02*
X1783Y94D01*
X0Y93D02*
X7Y93D01*
X1776Y93D02*
X1783Y93D01*
X0Y92D02*
X7Y92D01*
X1776Y92D02*
X1783Y92D01*
X0Y91D02*
X7Y91D01*
X1776Y91D02*
X1783Y91D01*
X0Y90D02*
X7Y90D01*
X1776Y90D02*
X1783Y90D01*
X0Y89D02*
X7Y89D01*
X1776Y89D02*
X1783Y89D01*
X0Y88D02*
X7Y88D01*
X1776Y88D02*
X1783Y88D01*
X0Y87D02*
X7Y87D01*
X1776Y87D02*
X1783Y87D01*
X0Y86D02*
X7Y86D01*
X1776Y86D02*
X1783Y86D01*
X0Y85D02*
X7Y85D01*
X1776Y85D02*
X1783Y85D01*
X0Y84D02*
X7Y84D01*
X1776Y84D02*
X1783Y84D01*
X0Y83D02*
X7Y83D01*
X1776Y83D02*
X1783Y83D01*
X0Y82D02*
X7Y82D01*
X1776Y82D02*
X1783Y82D01*
X0Y81D02*
X7Y81D01*
X1776Y81D02*
X1783Y81D01*
X0Y80D02*
X7Y80D01*
X1776Y80D02*
X1783Y80D01*
X0Y79D02*
X7Y79D01*
X1776Y79D02*
X1783Y79D01*
X0Y78D02*
X7Y78D01*
X1776Y78D02*
X1783Y78D01*
X0Y77D02*
X7Y77D01*
X1776Y77D02*
X1783Y77D01*
X0Y76D02*
X7Y76D01*
X1776Y76D02*
X1783Y76D01*
X0Y75D02*
X7Y75D01*
X1776Y75D02*
X1783Y75D01*
X0Y74D02*
X7Y74D01*
X1776Y74D02*
X1783Y74D01*
X0Y73D02*
X7Y73D01*
X1776Y73D02*
X1783Y73D01*
X0Y72D02*
X7Y72D01*
X1776Y72D02*
X1783Y72D01*
X0Y71D02*
X7Y71D01*
X1776Y71D02*
X1783Y71D01*
X0Y70D02*
X7Y70D01*
X1776Y70D02*
X1783Y70D01*
X0Y69D02*
X7Y69D01*
X1776Y69D02*
X1783Y69D01*
X0Y68D02*
X7Y68D01*
X1776Y68D02*
X1783Y68D01*
X0Y67D02*
X7Y67D01*
X1776Y67D02*
X1783Y67D01*
X0Y66D02*
X7Y66D01*
X1776Y66D02*
X1783Y66D01*
X0Y65D02*
X7Y65D01*
X1776Y65D02*
X1783Y65D01*
X0Y64D02*
X7Y64D01*
X1776Y64D02*
X1783Y64D01*
X0Y63D02*
X7Y63D01*
X1776Y63D02*
X1783Y63D01*
X0Y62D02*
X7Y62D01*
X1776Y62D02*
X1783Y62D01*
X0Y61D02*
X7Y61D01*
X1776Y61D02*
X1783Y61D01*
X0Y60D02*
X7Y60D01*
X1776Y60D02*
X1783Y60D01*
X0Y59D02*
X7Y59D01*
X1776Y59D02*
X1783Y59D01*
X0Y58D02*
X7Y58D01*
X1776Y58D02*
X1783Y58D01*
X0Y57D02*
X7Y57D01*
X1776Y57D02*
X1783Y57D01*
X0Y56D02*
X7Y56D01*
X1776Y56D02*
X1783Y56D01*
X0Y55D02*
X7Y55D01*
X1776Y55D02*
X1783Y55D01*
X0Y54D02*
X7Y54D01*
X1776Y54D02*
X1783Y54D01*
X0Y53D02*
X7Y53D01*
X1776Y53D02*
X1783Y53D01*
X0Y52D02*
X7Y52D01*
X1776Y52D02*
X1783Y52D01*
X0Y51D02*
X7Y51D01*
X1776Y51D02*
X1783Y51D01*
X0Y50D02*
X7Y50D01*
X1776Y50D02*
X1783Y50D01*
X0Y49D02*
X7Y49D01*
X1776Y49D02*
X1783Y49D01*
X0Y48D02*
X7Y48D01*
X1776Y48D02*
X1783Y48D01*
X0Y47D02*
X7Y47D01*
X1776Y47D02*
X1783Y47D01*
X0Y46D02*
X7Y46D01*
X1776Y46D02*
X1783Y46D01*
X0Y45D02*
X7Y45D01*
X1776Y45D02*
X1783Y45D01*
X0Y44D02*
X7Y44D01*
X1776Y44D02*
X1783Y44D01*
X0Y43D02*
X7Y43D01*
X1776Y43D02*
X1783Y43D01*
X0Y42D02*
X7Y42D01*
X1776Y42D02*
X1783Y42D01*
X0Y41D02*
X7Y41D01*
X1776Y41D02*
X1783Y41D01*
X0Y40D02*
X7Y40D01*
X1776Y40D02*
X1783Y40D01*
X0Y39D02*
X7Y39D01*
X1776Y39D02*
X1783Y39D01*
X0Y38D02*
X7Y38D01*
X1776Y38D02*
X1783Y38D01*
X0Y37D02*
X7Y37D01*
X1776Y37D02*
X1783Y37D01*
X0Y36D02*
X7Y36D01*
X1776Y36D02*
X1783Y36D01*
X0Y35D02*
X7Y35D01*
X1776Y35D02*
X1783Y35D01*
X0Y34D02*
X7Y34D01*
X1776Y34D02*
X1783Y34D01*
X0Y33D02*
X7Y33D01*
X1776Y33D02*
X1783Y33D01*
X0Y32D02*
X7Y32D01*
X1776Y32D02*
X1783Y32D01*
X0Y31D02*
X7Y31D01*
X1776Y31D02*
X1783Y31D01*
X0Y30D02*
X7Y30D01*
X1776Y30D02*
X1783Y30D01*
X0Y29D02*
X7Y29D01*
X1776Y29D02*
X1783Y29D01*
X0Y28D02*
X7Y28D01*
X1776Y28D02*
X1783Y28D01*
X0Y27D02*
X7Y27D01*
X1776Y27D02*
X1783Y27D01*
X0Y26D02*
X7Y26D01*
X1776Y26D02*
X1783Y26D01*
X0Y25D02*
X7Y25D01*
X1776Y25D02*
X1783Y25D01*
X0Y24D02*
X7Y24D01*
X1776Y24D02*
X1783Y24D01*
X0Y23D02*
X7Y23D01*
X1776Y23D02*
X1783Y23D01*
X0Y22D02*
X7Y22D01*
X1776Y22D02*
X1783Y22D01*
X0Y21D02*
X7Y21D01*
X1776Y21D02*
X1783Y21D01*
X0Y20D02*
X7Y20D01*
X1776Y20D02*
X1783Y20D01*
X0Y19D02*
X7Y19D01*
X1776Y19D02*
X1783Y19D01*
X0Y18D02*
X7Y18D01*
X1776Y18D02*
X1783Y18D01*
X0Y17D02*
X7Y17D01*
X1776Y17D02*
X1783Y17D01*
X0Y16D02*
X7Y16D01*
X1776Y16D02*
X1783Y16D01*
X0Y15D02*
X7Y15D01*
X1776Y15D02*
X1783Y15D01*
X0Y14D02*
X7Y14D01*
X1776Y14D02*
X1783Y14D01*
X0Y13D02*
X7Y13D01*
X1776Y13D02*
X1783Y13D01*
X0Y12D02*
X7Y12D01*
X1776Y12D02*
X1783Y12D01*
X0Y11D02*
X7Y11D01*
X1776Y11D02*
X1783Y11D01*
X0Y10D02*
X7Y10D01*
X1776Y10D02*
X1783Y10D01*
X0Y9D02*
X1783Y9D01*
X0Y8D02*
X1783Y8D01*
X0Y7D02*
X1783Y7D01*
X0Y6D02*
X1783Y6D01*
X0Y5D02*
X1783Y5D01*
X0Y4D02*
X1783Y4D01*
X0Y3D02*
X1783Y3D01*
X0Y2D02*
X1783Y2D01*
D02*
G04 End of Silk1*
M02*