G04 MADE WITH FRITZING*
G04 WWW.FRITZING.ORG*
G04 DOUBLE SIDED*
G04 HOLES PLATED*
G04 CONTOUR ON CENTER OF CONTOUR VECTOR*
%ASAXBY*%
%FSLAX23Y23*%
%MOIN*%
%OFA0B0*%
%SFA1.0B1.0*%
%ADD10C,0.083307*%
%ADD11R,0.083307X0.083307*%
%ADD12C,0.048000*%
%ADD13C,0.024000*%
%LNCOPPER1*%
G90*
G70*
G54D10*
X644Y871D03*
X544Y871D03*
X444Y871D03*
X1344Y871D03*
X1244Y871D03*
X1144Y871D03*
X1144Y1471D03*
X1244Y1471D03*
X1344Y1471D03*
X444Y1471D03*
X544Y1471D03*
X644Y1471D03*
X1544Y871D03*
X1544Y771D03*
X244Y221D03*
X244Y321D03*
X244Y1871D03*
X244Y1971D03*
G54D11*
X644Y871D03*
X1344Y871D03*
X1144Y1471D03*
X444Y1471D03*
X1544Y871D03*
X244Y221D03*
X244Y1871D03*
G54D12*
X1445Y120D02*
X94Y120D01*
D02*
X395Y221D02*
X277Y221D01*
D02*
X1044Y1621D02*
X1445Y1621D01*
D02*
X1044Y871D02*
X1044Y1621D01*
D02*
X1445Y1621D02*
X1445Y120D01*
D02*
X94Y120D02*
X94Y422D01*
D02*
X294Y871D02*
X412Y871D01*
D02*
X94Y422D02*
X294Y871D01*
D02*
X1112Y871D02*
X1044Y871D01*
D02*
X745Y871D02*
X677Y871D01*
D02*
X1044Y771D02*
X745Y871D01*
D02*
X1344Y772D02*
X1044Y771D01*
D02*
X1344Y838D02*
X1344Y772D01*
D02*
X444Y1570D02*
X444Y1504D01*
D02*
X345Y1971D02*
X444Y1570D01*
D02*
X277Y1971D02*
X345Y1971D01*
D02*
X444Y1446D02*
X444Y896D01*
D02*
X345Y320D02*
X277Y321D01*
D02*
X444Y772D02*
X345Y320D01*
D02*
X444Y838D02*
X444Y772D01*
D02*
X644Y1570D02*
X644Y1504D01*
D02*
X395Y2070D02*
X644Y1570D01*
D02*
X94Y2070D02*
X395Y2070D01*
D02*
X644Y1446D02*
X644Y1121D01*
D02*
X644Y1121D02*
X644Y896D01*
D02*
X644Y772D02*
X395Y221D01*
D02*
X644Y838D02*
X644Y772D01*
D02*
X544Y1446D02*
X544Y896D01*
D02*
X94Y1872D02*
X94Y2070D01*
D02*
X212Y1871D02*
X94Y1872D01*
G54D13*
D02*
X1344Y896D02*
X1344Y1446D01*
G54D12*
D02*
X1144Y1446D02*
X1144Y896D01*
D02*
X1544Y846D02*
X1544Y796D01*
D02*
X1244Y1446D02*
X1244Y896D01*
G04 End of Copper1*
M02*