G04 MADE WITH FRITZING*
G04 WWW.FRITZING.ORG*
G04 DOUBLE SIDED*
G04 HOLES PLATED*
G04 CONTOUR ON CENTER OF CONTOUR VECTOR*
%ASAXBY*%
%FSLAX23Y23*%
%MOIN*%
%OFA0B0*%
%SFA1.0B1.0*%
%ADD10R,1.732280X2.165350X1.716280X2.149350*%
%ADD11C,0.008000*%
%ADD12C,0.010000*%
%ADD13C,0.005000*%
%ADD14R,0.001000X0.001000*%
%LNSILK1*%
G90*
G70*
G54D11*
X4Y2161D02*
X1728Y2161D01*
X1728Y4D01*
X4Y4D01*
X4Y2161D01*
D02*
G54D12*
X699Y959D02*
X389Y959D01*
D02*
X389Y959D02*
X389Y743D01*
D02*
X389Y743D02*
X699Y743D01*
D02*
X699Y743D02*
X699Y959D01*
G54D13*
D02*
X389Y783D02*
X699Y783D01*
G54D12*
D02*
X1399Y959D02*
X1089Y959D01*
D02*
X1089Y959D02*
X1089Y743D01*
D02*
X1089Y743D02*
X1399Y743D01*
D02*
X1399Y743D02*
X1399Y959D01*
G54D13*
D02*
X1089Y783D02*
X1399Y783D01*
G54D12*
D02*
X1089Y1383D02*
X1399Y1383D01*
D02*
X1399Y1383D02*
X1399Y1599D01*
D02*
X1399Y1599D02*
X1089Y1599D01*
D02*
X1089Y1599D02*
X1089Y1383D01*
G54D13*
D02*
X1399Y1559D02*
X1089Y1559D01*
G54D12*
D02*
X389Y1383D02*
X699Y1383D01*
D02*
X699Y1383D02*
X699Y1599D01*
D02*
X699Y1599D02*
X389Y1599D01*
D02*
X389Y1599D02*
X389Y1383D01*
G54D13*
D02*
X699Y1559D02*
X389Y1559D01*
G54D12*
D02*
X1456Y926D02*
X1456Y716D01*
D02*
X1456Y716D02*
X1672Y716D01*
D02*
X1672Y716D02*
X1672Y926D01*
D02*
X1672Y926D02*
X1456Y926D01*
G54D13*
D02*
X1632Y716D02*
X1632Y926D01*
G54D12*
D02*
X332Y166D02*
X332Y376D01*
D02*
X332Y376D02*
X116Y376D01*
D02*
X116Y376D02*
X116Y166D01*
D02*
X116Y166D02*
X332Y166D01*
G54D13*
D02*
X156Y376D02*
X156Y166D01*
G54D12*
D02*
X332Y1816D02*
X332Y2026D01*
D02*
X332Y2026D02*
X116Y2026D01*
D02*
X116Y2026D02*
X116Y1816D01*
D02*
X116Y1816D02*
X332Y1816D01*
G54D13*
D02*
X156Y2026D02*
X156Y1816D01*
G54D14*
X386Y2115D02*
X389Y2115D01*
X412Y2115D02*
X430Y2115D01*
X464Y2115D02*
X467Y2115D01*
X385Y2114D02*
X390Y2114D01*
X411Y2114D02*
X430Y2114D01*
X463Y2114D02*
X468Y2114D01*
X384Y2113D02*
X390Y2113D01*
X411Y2113D02*
X430Y2113D01*
X462Y2113D02*
X468Y2113D01*
X384Y2112D02*
X390Y2112D01*
X411Y2112D02*
X430Y2112D01*
X462Y2112D02*
X468Y2112D01*
X384Y2111D02*
X390Y2111D01*
X411Y2111D02*
X430Y2111D01*
X462Y2111D02*
X468Y2111D01*
X384Y2110D02*
X390Y2110D01*
X411Y2110D02*
X430Y2110D01*
X462Y2110D02*
X468Y2110D01*
X384Y2109D02*
X390Y2109D01*
X413Y2109D02*
X430Y2109D01*
X462Y2109D02*
X468Y2109D01*
X484Y2109D02*
X488Y2109D01*
X384Y2108D02*
X390Y2108D01*
X424Y2108D02*
X430Y2108D01*
X462Y2108D02*
X468Y2108D01*
X483Y2108D02*
X489Y2108D01*
X384Y2107D02*
X390Y2107D01*
X424Y2107D02*
X430Y2107D01*
X462Y2107D02*
X468Y2107D01*
X483Y2107D02*
X489Y2107D01*
X384Y2106D02*
X390Y2106D01*
X424Y2106D02*
X430Y2106D01*
X462Y2106D02*
X468Y2106D01*
X483Y2106D02*
X489Y2106D01*
X384Y2105D02*
X390Y2105D01*
X424Y2105D02*
X430Y2105D01*
X462Y2105D02*
X468Y2105D01*
X483Y2105D02*
X489Y2105D01*
X384Y2104D02*
X390Y2104D01*
X424Y2104D02*
X430Y2104D01*
X462Y2104D02*
X468Y2104D01*
X483Y2104D02*
X489Y2104D01*
X384Y2103D02*
X390Y2103D01*
X424Y2103D02*
X430Y2103D01*
X462Y2103D02*
X468Y2103D01*
X483Y2103D02*
X489Y2103D01*
X384Y2102D02*
X390Y2102D01*
X424Y2102D02*
X430Y2102D01*
X462Y2102D02*
X468Y2102D01*
X483Y2102D02*
X489Y2102D01*
X384Y2101D02*
X390Y2101D01*
X424Y2101D02*
X430Y2101D01*
X462Y2101D02*
X468Y2101D01*
X483Y2101D02*
X489Y2101D01*
X384Y2100D02*
X390Y2100D01*
X424Y2100D02*
X430Y2100D01*
X462Y2100D02*
X468Y2100D01*
X483Y2100D02*
X489Y2100D01*
X384Y2099D02*
X390Y2099D01*
X424Y2099D02*
X430Y2099D01*
X462Y2099D02*
X468Y2099D01*
X483Y2099D02*
X489Y2099D01*
X384Y2098D02*
X390Y2098D01*
X424Y2098D02*
X430Y2098D01*
X462Y2098D02*
X468Y2098D01*
X483Y2098D02*
X489Y2098D01*
X384Y2097D02*
X390Y2097D01*
X424Y2097D02*
X430Y2097D01*
X462Y2097D02*
X468Y2097D01*
X483Y2097D02*
X489Y2097D01*
X384Y2096D02*
X390Y2096D01*
X424Y2096D02*
X430Y2096D01*
X462Y2096D02*
X468Y2096D01*
X483Y2096D02*
X489Y2096D01*
X384Y2095D02*
X390Y2095D01*
X424Y2095D02*
X430Y2095D01*
X462Y2095D02*
X468Y2095D01*
X483Y2095D02*
X489Y2095D01*
X384Y2094D02*
X390Y2094D01*
X424Y2094D02*
X430Y2094D01*
X462Y2094D02*
X468Y2094D01*
X483Y2094D02*
X489Y2094D01*
X384Y2093D02*
X390Y2093D01*
X424Y2093D02*
X430Y2093D01*
X462Y2093D02*
X468Y2093D01*
X483Y2093D02*
X489Y2093D01*
X384Y2092D02*
X390Y2092D01*
X424Y2092D02*
X430Y2092D01*
X462Y2092D02*
X468Y2092D01*
X483Y2092D02*
X489Y2092D01*
X384Y2091D02*
X390Y2091D01*
X424Y2091D02*
X430Y2091D01*
X462Y2091D02*
X468Y2091D01*
X483Y2091D02*
X489Y2091D01*
X384Y2090D02*
X390Y2090D01*
X424Y2090D02*
X430Y2090D01*
X462Y2090D02*
X468Y2090D01*
X483Y2090D02*
X489Y2090D01*
X384Y2089D02*
X390Y2089D01*
X424Y2089D02*
X430Y2089D01*
X462Y2089D02*
X468Y2089D01*
X483Y2089D02*
X489Y2089D01*
X384Y2088D02*
X390Y2088D01*
X424Y2088D02*
X430Y2088D01*
X462Y2088D02*
X468Y2088D01*
X483Y2088D02*
X489Y2088D01*
X384Y2087D02*
X390Y2087D01*
X424Y2087D02*
X430Y2087D01*
X462Y2087D02*
X468Y2087D01*
X483Y2087D02*
X489Y2087D01*
X366Y2086D02*
X368Y2086D01*
X384Y2086D02*
X390Y2086D01*
X424Y2086D02*
X430Y2086D01*
X440Y2086D02*
X442Y2086D01*
X462Y2086D02*
X491Y2086D01*
X364Y2085D02*
X369Y2085D01*
X384Y2085D02*
X390Y2085D01*
X424Y2085D02*
X430Y2085D01*
X439Y2085D02*
X443Y2085D01*
X462Y2085D02*
X492Y2085D01*
X364Y2084D02*
X369Y2084D01*
X384Y2084D02*
X390Y2084D01*
X424Y2084D02*
X430Y2084D01*
X438Y2084D02*
X444Y2084D01*
X462Y2084D02*
X492Y2084D01*
X364Y2083D02*
X370Y2083D01*
X384Y2083D02*
X390Y2083D01*
X424Y2083D02*
X430Y2083D01*
X438Y2083D02*
X444Y2083D01*
X462Y2083D02*
X492Y2083D01*
X364Y2082D02*
X370Y2082D01*
X384Y2082D02*
X390Y2082D01*
X424Y2082D02*
X430Y2082D01*
X438Y2082D02*
X444Y2082D01*
X462Y2082D02*
X492Y2082D01*
X364Y2081D02*
X370Y2081D01*
X384Y2081D02*
X390Y2081D01*
X424Y2081D02*
X430Y2081D01*
X438Y2081D02*
X444Y2081D01*
X462Y2081D02*
X492Y2081D01*
X364Y2080D02*
X370Y2080D01*
X384Y2080D02*
X390Y2080D01*
X424Y2080D02*
X430Y2080D01*
X438Y2080D02*
X444Y2080D01*
X462Y2080D02*
X491Y2080D01*
X364Y2079D02*
X370Y2079D01*
X384Y2079D02*
X390Y2079D01*
X424Y2079D02*
X430Y2079D01*
X438Y2079D02*
X444Y2079D01*
X483Y2079D02*
X489Y2079D01*
X364Y2078D02*
X370Y2078D01*
X384Y2078D02*
X390Y2078D01*
X424Y2078D02*
X430Y2078D01*
X438Y2078D02*
X444Y2078D01*
X483Y2078D02*
X489Y2078D01*
X364Y2077D02*
X370Y2077D01*
X384Y2077D02*
X390Y2077D01*
X424Y2077D02*
X430Y2077D01*
X438Y2077D02*
X444Y2077D01*
X483Y2077D02*
X489Y2077D01*
X364Y2076D02*
X370Y2076D01*
X384Y2076D02*
X390Y2076D01*
X424Y2076D02*
X430Y2076D01*
X438Y2076D02*
X444Y2076D01*
X483Y2076D02*
X489Y2076D01*
X364Y2075D02*
X370Y2075D01*
X384Y2075D02*
X390Y2075D01*
X424Y2075D02*
X430Y2075D01*
X438Y2075D02*
X444Y2075D01*
X483Y2075D02*
X489Y2075D01*
X364Y2074D02*
X370Y2074D01*
X384Y2074D02*
X390Y2074D01*
X424Y2074D02*
X430Y2074D01*
X438Y2074D02*
X444Y2074D01*
X483Y2074D02*
X489Y2074D01*
X364Y2073D02*
X370Y2073D01*
X384Y2073D02*
X390Y2073D01*
X424Y2073D02*
X430Y2073D01*
X438Y2073D02*
X444Y2073D01*
X483Y2073D02*
X489Y2073D01*
X364Y2072D02*
X370Y2072D01*
X384Y2072D02*
X390Y2072D01*
X424Y2072D02*
X430Y2072D01*
X438Y2072D02*
X444Y2072D01*
X483Y2072D02*
X489Y2072D01*
X364Y2071D02*
X370Y2071D01*
X384Y2071D02*
X390Y2071D01*
X424Y2071D02*
X430Y2071D01*
X438Y2071D02*
X444Y2071D01*
X483Y2071D02*
X489Y2071D01*
X364Y2070D02*
X371Y2070D01*
X383Y2070D02*
X390Y2070D01*
X424Y2070D02*
X430Y2070D01*
X438Y2070D02*
X444Y2070D01*
X483Y2070D02*
X489Y2070D01*
X364Y2069D02*
X372Y2069D01*
X382Y2069D02*
X390Y2069D01*
X424Y2069D02*
X430Y2069D01*
X438Y2069D02*
X444Y2069D01*
X483Y2069D02*
X489Y2069D01*
X365Y2068D02*
X389Y2068D01*
X412Y2068D02*
X444Y2068D01*
X483Y2068D02*
X489Y2068D01*
X365Y2067D02*
X389Y2067D01*
X411Y2067D02*
X444Y2067D01*
X483Y2067D02*
X489Y2067D01*
X366Y2066D02*
X388Y2066D01*
X411Y2066D02*
X444Y2066D01*
X483Y2066D02*
X489Y2066D01*
X367Y2065D02*
X387Y2065D01*
X410Y2065D02*
X444Y2065D01*
X483Y2065D02*
X489Y2065D01*
X368Y2064D02*
X386Y2064D01*
X411Y2064D02*
X444Y2064D01*
X483Y2064D02*
X489Y2064D01*
X369Y2063D02*
X385Y2063D01*
X411Y2063D02*
X443Y2063D01*
X484Y2063D02*
X488Y2063D01*
X372Y2062D02*
X382Y2062D01*
X413Y2062D02*
X442Y2062D01*
X485Y2062D02*
X487Y2062D01*
X700Y1740D02*
X704Y1740D01*
X732Y1740D02*
X758Y1740D01*
X1400Y1740D02*
X1404Y1740D01*
X1426Y1740D02*
X1434Y1740D01*
X700Y1739D02*
X705Y1739D01*
X732Y1739D02*
X759Y1739D01*
X1400Y1739D02*
X1405Y1739D01*
X1426Y1739D02*
X1434Y1739D01*
X699Y1738D02*
X705Y1738D01*
X732Y1738D02*
X759Y1738D01*
X1399Y1738D02*
X1405Y1738D01*
X1425Y1738D02*
X1435Y1738D01*
X699Y1737D02*
X705Y1737D01*
X732Y1737D02*
X759Y1737D01*
X1399Y1737D02*
X1405Y1737D01*
X1425Y1737D02*
X1435Y1737D01*
X699Y1736D02*
X705Y1736D01*
X732Y1736D02*
X759Y1736D01*
X1399Y1736D02*
X1405Y1736D01*
X1425Y1736D02*
X1434Y1736D01*
X699Y1735D02*
X705Y1735D01*
X732Y1735D02*
X758Y1735D01*
X1399Y1735D02*
X1405Y1735D01*
X1425Y1735D02*
X1434Y1735D01*
X699Y1734D02*
X705Y1734D01*
X732Y1734D02*
X756Y1734D01*
X1399Y1734D02*
X1405Y1734D01*
X1425Y1734D02*
X1432Y1734D01*
X699Y1733D02*
X705Y1733D01*
X732Y1733D02*
X738Y1733D01*
X1399Y1733D02*
X1405Y1733D01*
X1425Y1733D02*
X1431Y1733D01*
X699Y1732D02*
X705Y1732D01*
X732Y1732D02*
X738Y1732D01*
X1399Y1732D02*
X1405Y1732D01*
X1425Y1732D02*
X1431Y1732D01*
X699Y1731D02*
X705Y1731D01*
X732Y1731D02*
X738Y1731D01*
X1399Y1731D02*
X1405Y1731D01*
X1425Y1731D02*
X1431Y1731D01*
X699Y1730D02*
X705Y1730D01*
X732Y1730D02*
X738Y1730D01*
X1399Y1730D02*
X1405Y1730D01*
X1425Y1730D02*
X1431Y1730D01*
X699Y1729D02*
X705Y1729D01*
X732Y1729D02*
X738Y1729D01*
X1399Y1729D02*
X1405Y1729D01*
X1425Y1729D02*
X1431Y1729D01*
X699Y1728D02*
X705Y1728D01*
X732Y1728D02*
X738Y1728D01*
X1399Y1728D02*
X1405Y1728D01*
X1425Y1728D02*
X1431Y1728D01*
X699Y1727D02*
X705Y1727D01*
X732Y1727D02*
X738Y1727D01*
X1399Y1727D02*
X1405Y1727D01*
X1425Y1727D02*
X1431Y1727D01*
X699Y1726D02*
X705Y1726D01*
X732Y1726D02*
X738Y1726D01*
X1399Y1726D02*
X1405Y1726D01*
X1425Y1726D02*
X1431Y1726D01*
X699Y1725D02*
X705Y1725D01*
X732Y1725D02*
X738Y1725D01*
X1399Y1725D02*
X1405Y1725D01*
X1425Y1725D02*
X1431Y1725D01*
X699Y1724D02*
X705Y1724D01*
X732Y1724D02*
X738Y1724D01*
X1399Y1724D02*
X1405Y1724D01*
X1425Y1724D02*
X1431Y1724D01*
X699Y1723D02*
X705Y1723D01*
X732Y1723D02*
X738Y1723D01*
X1399Y1723D02*
X1405Y1723D01*
X1425Y1723D02*
X1431Y1723D01*
X699Y1722D02*
X705Y1722D01*
X732Y1722D02*
X738Y1722D01*
X1399Y1722D02*
X1405Y1722D01*
X1425Y1722D02*
X1431Y1722D01*
X699Y1721D02*
X705Y1721D01*
X732Y1721D02*
X738Y1721D01*
X1399Y1721D02*
X1405Y1721D01*
X1425Y1721D02*
X1431Y1721D01*
X699Y1720D02*
X705Y1720D01*
X732Y1720D02*
X738Y1720D01*
X1399Y1720D02*
X1405Y1720D01*
X1425Y1720D02*
X1431Y1720D01*
X699Y1719D02*
X705Y1719D01*
X732Y1719D02*
X738Y1719D01*
X1399Y1719D02*
X1405Y1719D01*
X1425Y1719D02*
X1431Y1719D01*
X699Y1718D02*
X705Y1718D01*
X732Y1718D02*
X738Y1718D01*
X1399Y1718D02*
X1405Y1718D01*
X1425Y1718D02*
X1431Y1718D01*
X699Y1717D02*
X705Y1717D01*
X732Y1717D02*
X754Y1717D01*
X1399Y1717D02*
X1405Y1717D01*
X1425Y1717D02*
X1431Y1717D01*
X699Y1716D02*
X705Y1716D01*
X732Y1716D02*
X756Y1716D01*
X1399Y1716D02*
X1405Y1716D01*
X1425Y1716D02*
X1431Y1716D01*
X699Y1715D02*
X705Y1715D01*
X732Y1715D02*
X757Y1715D01*
X1399Y1715D02*
X1405Y1715D01*
X1425Y1715D02*
X1431Y1715D01*
X699Y1714D02*
X705Y1714D01*
X732Y1714D02*
X758Y1714D01*
X1399Y1714D02*
X1405Y1714D01*
X1425Y1714D02*
X1431Y1714D01*
X699Y1713D02*
X705Y1713D01*
X732Y1713D02*
X758Y1713D01*
X1399Y1713D02*
X1405Y1713D01*
X1425Y1713D02*
X1431Y1713D01*
X699Y1712D02*
X705Y1712D01*
X732Y1712D02*
X759Y1712D01*
X1399Y1712D02*
X1405Y1712D01*
X1425Y1712D02*
X1431Y1712D01*
X680Y1711D02*
X683Y1711D01*
X699Y1711D02*
X705Y1711D01*
X732Y1711D02*
X759Y1711D01*
X1380Y1711D02*
X1383Y1711D01*
X1399Y1711D02*
X1405Y1711D01*
X1425Y1711D02*
X1457Y1711D01*
X679Y1710D02*
X684Y1710D01*
X699Y1710D02*
X705Y1710D01*
X753Y1710D02*
X759Y1710D01*
X1379Y1710D02*
X1384Y1710D01*
X1399Y1710D02*
X1405Y1710D01*
X1425Y1710D02*
X1458Y1710D01*
X679Y1709D02*
X684Y1709D01*
X699Y1709D02*
X705Y1709D01*
X753Y1709D02*
X759Y1709D01*
X1379Y1709D02*
X1384Y1709D01*
X1399Y1709D02*
X1405Y1709D01*
X1425Y1709D02*
X1459Y1709D01*
X679Y1708D02*
X685Y1708D01*
X699Y1708D02*
X705Y1708D01*
X753Y1708D02*
X759Y1708D01*
X1378Y1708D02*
X1384Y1708D01*
X1399Y1708D02*
X1405Y1708D01*
X1425Y1708D02*
X1459Y1708D01*
X679Y1707D02*
X685Y1707D01*
X699Y1707D02*
X705Y1707D01*
X753Y1707D02*
X759Y1707D01*
X1378Y1707D02*
X1384Y1707D01*
X1399Y1707D02*
X1405Y1707D01*
X1425Y1707D02*
X1459Y1707D01*
X679Y1706D02*
X685Y1706D01*
X699Y1706D02*
X705Y1706D01*
X753Y1706D02*
X759Y1706D01*
X1378Y1706D02*
X1384Y1706D01*
X1399Y1706D02*
X1405Y1706D01*
X1425Y1706D02*
X1459Y1706D01*
X679Y1705D02*
X685Y1705D01*
X699Y1705D02*
X705Y1705D01*
X753Y1705D02*
X759Y1705D01*
X1378Y1705D02*
X1384Y1705D01*
X1399Y1705D02*
X1405Y1705D01*
X1425Y1705D02*
X1459Y1705D01*
X679Y1704D02*
X685Y1704D01*
X699Y1704D02*
X705Y1704D01*
X753Y1704D02*
X759Y1704D01*
X1378Y1704D02*
X1384Y1704D01*
X1399Y1704D02*
X1405Y1704D01*
X1425Y1704D02*
X1431Y1704D01*
X1453Y1704D02*
X1459Y1704D01*
X679Y1703D02*
X685Y1703D01*
X699Y1703D02*
X705Y1703D01*
X753Y1703D02*
X759Y1703D01*
X1378Y1703D02*
X1384Y1703D01*
X1399Y1703D02*
X1405Y1703D01*
X1425Y1703D02*
X1431Y1703D01*
X1453Y1703D02*
X1459Y1703D01*
X679Y1702D02*
X685Y1702D01*
X699Y1702D02*
X705Y1702D01*
X753Y1702D02*
X759Y1702D01*
X1378Y1702D02*
X1384Y1702D01*
X1399Y1702D02*
X1405Y1702D01*
X1425Y1702D02*
X1431Y1702D01*
X1453Y1702D02*
X1459Y1702D01*
X679Y1701D02*
X685Y1701D01*
X699Y1701D02*
X705Y1701D01*
X753Y1701D02*
X759Y1701D01*
X1378Y1701D02*
X1384Y1701D01*
X1399Y1701D02*
X1405Y1701D01*
X1425Y1701D02*
X1431Y1701D01*
X1453Y1701D02*
X1459Y1701D01*
X679Y1700D02*
X685Y1700D01*
X699Y1700D02*
X705Y1700D01*
X753Y1700D02*
X759Y1700D01*
X1378Y1700D02*
X1384Y1700D01*
X1399Y1700D02*
X1405Y1700D01*
X1425Y1700D02*
X1431Y1700D01*
X1453Y1700D02*
X1459Y1700D01*
X679Y1699D02*
X685Y1699D01*
X699Y1699D02*
X705Y1699D01*
X753Y1699D02*
X759Y1699D01*
X1378Y1699D02*
X1384Y1699D01*
X1399Y1699D02*
X1405Y1699D01*
X1425Y1699D02*
X1431Y1699D01*
X1453Y1699D02*
X1459Y1699D01*
X679Y1698D02*
X685Y1698D01*
X699Y1698D02*
X705Y1698D01*
X753Y1698D02*
X759Y1698D01*
X1378Y1698D02*
X1384Y1698D01*
X1399Y1698D02*
X1405Y1698D01*
X1425Y1698D02*
X1431Y1698D01*
X1453Y1698D02*
X1459Y1698D01*
X679Y1697D02*
X685Y1697D01*
X699Y1697D02*
X705Y1697D01*
X753Y1697D02*
X759Y1697D01*
X1378Y1697D02*
X1385Y1697D01*
X1399Y1697D02*
X1405Y1697D01*
X1425Y1697D02*
X1431Y1697D01*
X1453Y1697D02*
X1459Y1697D01*
X679Y1696D02*
X685Y1696D01*
X699Y1696D02*
X705Y1696D01*
X727Y1696D02*
X730Y1696D01*
X753Y1696D02*
X759Y1696D01*
X1379Y1696D02*
X1385Y1696D01*
X1399Y1696D02*
X1405Y1696D01*
X1425Y1696D02*
X1431Y1696D01*
X1453Y1696D02*
X1459Y1696D01*
X679Y1695D02*
X686Y1695D01*
X698Y1695D02*
X705Y1695D01*
X726Y1695D02*
X733Y1695D01*
X753Y1695D02*
X759Y1695D01*
X1379Y1695D02*
X1385Y1695D01*
X1398Y1695D02*
X1405Y1695D01*
X1425Y1695D02*
X1431Y1695D01*
X1453Y1695D02*
X1459Y1695D01*
X679Y1694D02*
X687Y1694D01*
X697Y1694D02*
X705Y1694D01*
X726Y1694D02*
X735Y1694D01*
X753Y1694D02*
X759Y1694D01*
X1379Y1694D02*
X1387Y1694D01*
X1396Y1694D02*
X1405Y1694D01*
X1425Y1694D02*
X1431Y1694D01*
X1453Y1694D02*
X1459Y1694D01*
X680Y1693D02*
X704Y1693D01*
X725Y1693D02*
X759Y1693D01*
X1379Y1693D02*
X1404Y1693D01*
X1425Y1693D02*
X1459Y1693D01*
X680Y1692D02*
X704Y1692D01*
X726Y1692D02*
X759Y1692D01*
X1380Y1692D02*
X1404Y1692D01*
X1425Y1692D02*
X1459Y1692D01*
X681Y1691D02*
X703Y1691D01*
X726Y1691D02*
X758Y1691D01*
X1381Y1691D02*
X1403Y1691D01*
X1425Y1691D02*
X1459Y1691D01*
X682Y1690D02*
X702Y1690D01*
X728Y1690D02*
X758Y1690D01*
X1382Y1690D02*
X1402Y1690D01*
X1425Y1690D02*
X1459Y1690D01*
X683Y1689D02*
X701Y1689D01*
X730Y1689D02*
X757Y1689D01*
X1383Y1689D02*
X1401Y1689D01*
X1426Y1689D02*
X1459Y1689D01*
X684Y1688D02*
X699Y1688D01*
X732Y1688D02*
X756Y1688D01*
X1384Y1688D02*
X1399Y1688D01*
X1426Y1688D02*
X1458Y1688D01*
X687Y1687D02*
X697Y1687D01*
X736Y1687D02*
X753Y1687D01*
X1387Y1687D02*
X1396Y1687D01*
X1428Y1687D02*
X1456Y1687D01*
X712Y1101D02*
X712Y1101D01*
X740Y1101D02*
X740Y1101D01*
X1412Y1101D02*
X1412Y1101D01*
X1438Y1101D02*
X1463Y1101D01*
X710Y1100D02*
X714Y1100D01*
X738Y1100D02*
X742Y1100D01*
X1410Y1100D02*
X1414Y1100D01*
X1436Y1100D02*
X1465Y1100D01*
X710Y1099D02*
X715Y1099D01*
X737Y1099D02*
X743Y1099D01*
X1409Y1099D02*
X1415Y1099D01*
X1436Y1099D02*
X1467Y1099D01*
X709Y1098D02*
X715Y1098D01*
X737Y1098D02*
X743Y1098D01*
X1409Y1098D02*
X1415Y1098D01*
X1435Y1098D02*
X1468Y1098D01*
X709Y1097D02*
X715Y1097D01*
X737Y1097D02*
X743Y1097D01*
X1409Y1097D02*
X1415Y1097D01*
X1435Y1097D02*
X1468Y1097D01*
X709Y1096D02*
X715Y1096D01*
X737Y1096D02*
X743Y1096D01*
X1409Y1096D02*
X1415Y1096D01*
X1436Y1096D02*
X1469Y1096D01*
X709Y1095D02*
X715Y1095D01*
X737Y1095D02*
X743Y1095D01*
X760Y1095D02*
X761Y1095D01*
X1409Y1095D02*
X1415Y1095D01*
X1436Y1095D02*
X1469Y1095D01*
X709Y1094D02*
X715Y1094D01*
X737Y1094D02*
X743Y1094D01*
X759Y1094D02*
X763Y1094D01*
X1409Y1094D02*
X1415Y1094D01*
X1462Y1094D02*
X1469Y1094D01*
X709Y1093D02*
X715Y1093D01*
X737Y1093D02*
X743Y1093D01*
X758Y1093D02*
X763Y1093D01*
X1409Y1093D02*
X1415Y1093D01*
X1463Y1093D02*
X1469Y1093D01*
X709Y1092D02*
X715Y1092D01*
X737Y1092D02*
X743Y1092D01*
X758Y1092D02*
X764Y1092D01*
X1409Y1092D02*
X1415Y1092D01*
X1463Y1092D02*
X1469Y1092D01*
X709Y1091D02*
X715Y1091D01*
X737Y1091D02*
X743Y1091D01*
X758Y1091D02*
X764Y1091D01*
X1409Y1091D02*
X1415Y1091D01*
X1463Y1091D02*
X1469Y1091D01*
X709Y1090D02*
X715Y1090D01*
X737Y1090D02*
X743Y1090D01*
X758Y1090D02*
X764Y1090D01*
X1409Y1090D02*
X1415Y1090D01*
X1463Y1090D02*
X1469Y1090D01*
X709Y1089D02*
X715Y1089D01*
X737Y1089D02*
X743Y1089D01*
X758Y1089D02*
X764Y1089D01*
X1409Y1089D02*
X1415Y1089D01*
X1463Y1089D02*
X1469Y1089D01*
X709Y1088D02*
X715Y1088D01*
X737Y1088D02*
X743Y1088D01*
X758Y1088D02*
X764Y1088D01*
X1409Y1088D02*
X1415Y1088D01*
X1463Y1088D02*
X1469Y1088D01*
X709Y1087D02*
X715Y1087D01*
X737Y1087D02*
X743Y1087D01*
X758Y1087D02*
X764Y1087D01*
X1409Y1087D02*
X1415Y1087D01*
X1463Y1087D02*
X1469Y1087D01*
X709Y1086D02*
X715Y1086D01*
X737Y1086D02*
X743Y1086D01*
X758Y1086D02*
X764Y1086D01*
X1409Y1086D02*
X1415Y1086D01*
X1463Y1086D02*
X1469Y1086D01*
X709Y1085D02*
X715Y1085D01*
X737Y1085D02*
X743Y1085D01*
X758Y1085D02*
X764Y1085D01*
X1409Y1085D02*
X1415Y1085D01*
X1463Y1085D02*
X1469Y1085D01*
X709Y1084D02*
X715Y1084D01*
X737Y1084D02*
X743Y1084D01*
X758Y1084D02*
X764Y1084D01*
X1409Y1084D02*
X1415Y1084D01*
X1463Y1084D02*
X1469Y1084D01*
X709Y1083D02*
X715Y1083D01*
X737Y1083D02*
X743Y1083D01*
X758Y1083D02*
X764Y1083D01*
X1409Y1083D02*
X1415Y1083D01*
X1463Y1083D02*
X1469Y1083D01*
X709Y1082D02*
X715Y1082D01*
X737Y1082D02*
X743Y1082D01*
X758Y1082D02*
X764Y1082D01*
X1409Y1082D02*
X1415Y1082D01*
X1463Y1082D02*
X1469Y1082D01*
X709Y1081D02*
X715Y1081D01*
X737Y1081D02*
X743Y1081D01*
X758Y1081D02*
X764Y1081D01*
X1409Y1081D02*
X1415Y1081D01*
X1463Y1081D02*
X1469Y1081D01*
X709Y1080D02*
X715Y1080D01*
X737Y1080D02*
X743Y1080D01*
X758Y1080D02*
X764Y1080D01*
X1409Y1080D02*
X1415Y1080D01*
X1463Y1080D02*
X1469Y1080D01*
X709Y1079D02*
X715Y1079D01*
X737Y1079D02*
X743Y1079D01*
X758Y1079D02*
X764Y1079D01*
X1409Y1079D02*
X1415Y1079D01*
X1462Y1079D02*
X1469Y1079D01*
X709Y1078D02*
X715Y1078D01*
X737Y1078D02*
X743Y1078D01*
X758Y1078D02*
X764Y1078D01*
X1409Y1078D02*
X1415Y1078D01*
X1461Y1078D02*
X1468Y1078D01*
X709Y1077D02*
X715Y1077D01*
X737Y1077D02*
X743Y1077D01*
X758Y1077D02*
X764Y1077D01*
X1409Y1077D02*
X1415Y1077D01*
X1444Y1077D02*
X1468Y1077D01*
X709Y1076D02*
X715Y1076D01*
X737Y1076D02*
X743Y1076D01*
X758Y1076D02*
X764Y1076D01*
X1409Y1076D02*
X1415Y1076D01*
X1443Y1076D02*
X1468Y1076D01*
X709Y1075D02*
X715Y1075D01*
X737Y1075D02*
X743Y1075D01*
X758Y1075D02*
X764Y1075D01*
X1409Y1075D02*
X1415Y1075D01*
X1442Y1075D02*
X1467Y1075D01*
X709Y1074D02*
X715Y1074D01*
X737Y1074D02*
X743Y1074D01*
X758Y1074D02*
X764Y1074D01*
X1409Y1074D02*
X1415Y1074D01*
X1442Y1074D02*
X1466Y1074D01*
X709Y1073D02*
X715Y1073D01*
X737Y1073D02*
X743Y1073D01*
X758Y1073D02*
X764Y1073D01*
X1409Y1073D02*
X1415Y1073D01*
X1442Y1073D02*
X1467Y1073D01*
X709Y1072D02*
X715Y1072D01*
X737Y1072D02*
X743Y1072D01*
X758Y1072D02*
X764Y1072D01*
X1409Y1072D02*
X1415Y1072D01*
X1443Y1072D02*
X1468Y1072D01*
X690Y1071D02*
X693Y1071D01*
X709Y1071D02*
X715Y1071D01*
X737Y1071D02*
X766Y1071D01*
X1390Y1071D02*
X1393Y1071D01*
X1409Y1071D02*
X1415Y1071D01*
X1444Y1071D02*
X1468Y1071D01*
X689Y1070D02*
X694Y1070D01*
X709Y1070D02*
X715Y1070D01*
X737Y1070D02*
X767Y1070D01*
X1389Y1070D02*
X1394Y1070D01*
X1409Y1070D02*
X1415Y1070D01*
X1461Y1070D02*
X1468Y1070D01*
X689Y1069D02*
X694Y1069D01*
X709Y1069D02*
X715Y1069D01*
X737Y1069D02*
X767Y1069D01*
X1389Y1069D02*
X1394Y1069D01*
X1409Y1069D02*
X1415Y1069D01*
X1462Y1069D02*
X1469Y1069D01*
X689Y1068D02*
X695Y1068D01*
X709Y1068D02*
X715Y1068D01*
X737Y1068D02*
X767Y1068D01*
X1388Y1068D02*
X1394Y1068D01*
X1409Y1068D02*
X1415Y1068D01*
X1463Y1068D02*
X1469Y1068D01*
X689Y1067D02*
X695Y1067D01*
X709Y1067D02*
X715Y1067D01*
X737Y1067D02*
X767Y1067D01*
X1388Y1067D02*
X1394Y1067D01*
X1409Y1067D02*
X1415Y1067D01*
X1463Y1067D02*
X1469Y1067D01*
X689Y1066D02*
X695Y1066D01*
X709Y1066D02*
X715Y1066D01*
X737Y1066D02*
X766Y1066D01*
X1388Y1066D02*
X1394Y1066D01*
X1409Y1066D02*
X1415Y1066D01*
X1463Y1066D02*
X1469Y1066D01*
X689Y1065D02*
X695Y1065D01*
X709Y1065D02*
X715Y1065D01*
X737Y1065D02*
X765Y1065D01*
X1388Y1065D02*
X1394Y1065D01*
X1409Y1065D02*
X1415Y1065D01*
X1463Y1065D02*
X1469Y1065D01*
X689Y1064D02*
X695Y1064D01*
X709Y1064D02*
X715Y1064D01*
X758Y1064D02*
X764Y1064D01*
X1388Y1064D02*
X1394Y1064D01*
X1409Y1064D02*
X1415Y1064D01*
X1463Y1064D02*
X1469Y1064D01*
X689Y1063D02*
X695Y1063D01*
X709Y1063D02*
X715Y1063D01*
X758Y1063D02*
X764Y1063D01*
X1388Y1063D02*
X1394Y1063D01*
X1409Y1063D02*
X1415Y1063D01*
X1463Y1063D02*
X1469Y1063D01*
X689Y1062D02*
X695Y1062D01*
X709Y1062D02*
X715Y1062D01*
X758Y1062D02*
X764Y1062D01*
X1388Y1062D02*
X1394Y1062D01*
X1409Y1062D02*
X1415Y1062D01*
X1463Y1062D02*
X1469Y1062D01*
X689Y1061D02*
X695Y1061D01*
X709Y1061D02*
X715Y1061D01*
X758Y1061D02*
X764Y1061D01*
X1388Y1061D02*
X1394Y1061D01*
X1409Y1061D02*
X1415Y1061D01*
X1463Y1061D02*
X1469Y1061D01*
X689Y1060D02*
X695Y1060D01*
X709Y1060D02*
X715Y1060D01*
X758Y1060D02*
X764Y1060D01*
X1388Y1060D02*
X1394Y1060D01*
X1409Y1060D02*
X1415Y1060D01*
X1463Y1060D02*
X1469Y1060D01*
X689Y1059D02*
X695Y1059D01*
X709Y1059D02*
X715Y1059D01*
X758Y1059D02*
X764Y1059D01*
X1388Y1059D02*
X1394Y1059D01*
X1409Y1059D02*
X1415Y1059D01*
X1463Y1059D02*
X1469Y1059D01*
X689Y1058D02*
X695Y1058D01*
X709Y1058D02*
X715Y1058D01*
X758Y1058D02*
X764Y1058D01*
X1388Y1058D02*
X1394Y1058D01*
X1409Y1058D02*
X1415Y1058D01*
X1463Y1058D02*
X1469Y1058D01*
X689Y1057D02*
X695Y1057D01*
X709Y1057D02*
X715Y1057D01*
X758Y1057D02*
X764Y1057D01*
X1389Y1057D02*
X1395Y1057D01*
X1409Y1057D02*
X1415Y1057D01*
X1463Y1057D02*
X1469Y1057D01*
X689Y1056D02*
X695Y1056D01*
X709Y1056D02*
X715Y1056D01*
X758Y1056D02*
X764Y1056D01*
X1389Y1056D02*
X1395Y1056D01*
X1409Y1056D02*
X1415Y1056D01*
X1463Y1056D02*
X1469Y1056D01*
X689Y1055D02*
X696Y1055D01*
X708Y1055D02*
X715Y1055D01*
X758Y1055D02*
X764Y1055D01*
X1389Y1055D02*
X1396Y1055D01*
X1408Y1055D02*
X1415Y1055D01*
X1463Y1055D02*
X1469Y1055D01*
X689Y1054D02*
X698Y1054D01*
X706Y1054D02*
X715Y1054D01*
X758Y1054D02*
X764Y1054D01*
X1389Y1054D02*
X1398Y1054D01*
X1406Y1054D02*
X1415Y1054D01*
X1462Y1054D02*
X1469Y1054D01*
X690Y1053D02*
X714Y1053D01*
X758Y1053D02*
X764Y1053D01*
X1389Y1053D02*
X1414Y1053D01*
X1436Y1053D02*
X1469Y1053D01*
X690Y1052D02*
X714Y1052D01*
X758Y1052D02*
X764Y1052D01*
X1390Y1052D02*
X1414Y1052D01*
X1436Y1052D02*
X1469Y1052D01*
X691Y1051D02*
X713Y1051D01*
X758Y1051D02*
X764Y1051D01*
X1391Y1051D02*
X1413Y1051D01*
X1435Y1051D02*
X1468Y1051D01*
X692Y1050D02*
X712Y1050D01*
X758Y1050D02*
X764Y1050D01*
X1392Y1050D02*
X1412Y1050D01*
X1435Y1050D02*
X1468Y1050D01*
X693Y1049D02*
X711Y1049D01*
X758Y1049D02*
X763Y1049D01*
X1393Y1049D02*
X1411Y1049D01*
X1436Y1049D02*
X1467Y1049D01*
X695Y1048D02*
X709Y1048D01*
X759Y1048D02*
X763Y1048D01*
X1394Y1048D02*
X1409Y1048D01*
X1436Y1048D02*
X1465Y1048D01*
X698Y1047D02*
X706Y1047D01*
X761Y1047D02*
X761Y1047D01*
X1398Y1047D02*
X1405Y1047D01*
X1438Y1047D02*
X1463Y1047D01*
X1727Y1026D02*
X1727Y1026D01*
X1725Y1025D02*
X1729Y1025D01*
X1724Y1024D02*
X1730Y1024D01*
X1724Y1023D02*
X1730Y1023D01*
X1724Y1022D02*
X1730Y1022D01*
X1724Y1021D02*
X1730Y1021D01*
X1724Y1020D02*
X1730Y1020D01*
X1724Y1019D02*
X1730Y1019D01*
X1724Y1018D02*
X1730Y1018D01*
X1724Y1017D02*
X1730Y1017D01*
X1724Y1016D02*
X1730Y1016D01*
X1724Y1015D02*
X1730Y1015D01*
X1724Y1014D02*
X1730Y1014D01*
X1724Y1013D02*
X1730Y1013D01*
X1724Y1012D02*
X1730Y1012D01*
X1724Y1011D02*
X1730Y1011D01*
X1724Y1010D02*
X1730Y1010D01*
X1724Y1009D02*
X1730Y1009D01*
X1724Y1008D02*
X1730Y1008D01*
X1724Y1007D02*
X1730Y1007D01*
X1724Y1006D02*
X1730Y1006D01*
X1724Y1005D02*
X1730Y1005D01*
X1724Y1004D02*
X1730Y1004D01*
X1724Y1003D02*
X1730Y1003D01*
X1724Y1002D02*
X1730Y1002D01*
X1724Y1001D02*
X1730Y1001D01*
X1724Y1000D02*
X1730Y1000D01*
X1724Y999D02*
X1730Y999D01*
X1724Y998D02*
X1730Y998D01*
X1724Y997D02*
X1730Y997D01*
X1705Y996D02*
X1708Y996D01*
X1724Y996D02*
X1730Y996D01*
X1704Y995D02*
X1709Y995D01*
X1724Y995D02*
X1730Y995D01*
X1704Y994D02*
X1709Y994D01*
X1724Y994D02*
X1730Y994D01*
X1703Y993D02*
X1709Y993D01*
X1724Y993D02*
X1730Y993D01*
X1703Y992D02*
X1709Y992D01*
X1724Y992D02*
X1730Y992D01*
X1703Y991D02*
X1709Y991D01*
X1724Y991D02*
X1730Y991D01*
X1703Y990D02*
X1709Y990D01*
X1724Y990D02*
X1730Y990D01*
X1703Y989D02*
X1709Y989D01*
X1724Y989D02*
X1730Y989D01*
X1703Y988D02*
X1709Y988D01*
X1724Y988D02*
X1730Y988D01*
X1703Y987D02*
X1709Y987D01*
X1724Y987D02*
X1730Y987D01*
X1703Y986D02*
X1709Y986D01*
X1724Y986D02*
X1730Y986D01*
X1703Y985D02*
X1709Y985D01*
X1724Y985D02*
X1730Y985D01*
X1703Y984D02*
X1709Y984D01*
X1724Y984D02*
X1730Y984D01*
X1703Y983D02*
X1709Y983D01*
X1724Y983D02*
X1730Y983D01*
X1703Y982D02*
X1710Y982D01*
X1724Y982D02*
X1730Y982D01*
X1704Y981D02*
X1710Y981D01*
X1724Y981D02*
X1730Y981D01*
X1704Y980D02*
X1711Y980D01*
X1723Y980D02*
X1730Y980D01*
X1704Y979D02*
X1713Y979D01*
X1721Y979D02*
X1730Y979D01*
X1704Y978D02*
X1729Y978D01*
X1705Y977D02*
X1729Y977D01*
X1706Y976D02*
X1728Y976D01*
X1707Y975D02*
X1727Y975D01*
X1708Y974D02*
X1726Y974D01*
X1709Y973D02*
X1724Y973D01*
X1713Y972D02*
X1720Y972D01*
X387Y466D02*
X388Y466D01*
X413Y466D02*
X439Y466D01*
X385Y465D02*
X389Y465D01*
X411Y465D02*
X441Y465D01*
X385Y464D02*
X390Y464D01*
X411Y464D02*
X442Y464D01*
X384Y463D02*
X390Y463D01*
X410Y463D02*
X443Y463D01*
X384Y462D02*
X390Y462D01*
X411Y462D02*
X443Y462D01*
X384Y461D02*
X390Y461D01*
X411Y461D02*
X444Y461D01*
X384Y460D02*
X390Y460D01*
X412Y460D02*
X444Y460D01*
X384Y459D02*
X390Y459D01*
X438Y459D02*
X444Y459D01*
X384Y458D02*
X390Y458D01*
X438Y458D02*
X444Y458D01*
X384Y457D02*
X390Y457D01*
X438Y457D02*
X444Y457D01*
X384Y456D02*
X390Y456D01*
X438Y456D02*
X444Y456D01*
X384Y455D02*
X390Y455D01*
X438Y455D02*
X444Y455D01*
X384Y454D02*
X390Y454D01*
X438Y454D02*
X444Y454D01*
X384Y453D02*
X390Y453D01*
X438Y453D02*
X444Y453D01*
X384Y452D02*
X390Y452D01*
X438Y452D02*
X444Y452D01*
X384Y451D02*
X390Y451D01*
X438Y451D02*
X444Y451D01*
X384Y450D02*
X390Y450D01*
X438Y450D02*
X444Y450D01*
X384Y449D02*
X390Y449D01*
X438Y449D02*
X444Y449D01*
X384Y448D02*
X390Y448D01*
X438Y448D02*
X444Y448D01*
X384Y447D02*
X390Y447D01*
X438Y447D02*
X444Y447D01*
X384Y446D02*
X390Y446D01*
X438Y446D02*
X444Y446D01*
X384Y445D02*
X390Y445D01*
X438Y445D02*
X444Y445D01*
X384Y444D02*
X390Y444D01*
X438Y444D02*
X444Y444D01*
X384Y443D02*
X390Y443D01*
X438Y443D02*
X444Y443D01*
X384Y442D02*
X390Y442D01*
X415Y442D02*
X444Y442D01*
X384Y441D02*
X390Y441D01*
X413Y441D02*
X444Y441D01*
X384Y440D02*
X390Y440D01*
X412Y440D02*
X443Y440D01*
X384Y439D02*
X390Y439D01*
X411Y439D02*
X443Y439D01*
X384Y438D02*
X390Y438D01*
X411Y438D02*
X442Y438D01*
X384Y437D02*
X390Y437D01*
X411Y437D02*
X441Y437D01*
X365Y436D02*
X368Y436D01*
X384Y436D02*
X390Y436D01*
X410Y436D02*
X439Y436D01*
X364Y435D02*
X369Y435D01*
X384Y435D02*
X390Y435D01*
X410Y435D02*
X416Y435D01*
X364Y434D02*
X369Y434D01*
X384Y434D02*
X390Y434D01*
X410Y434D02*
X416Y434D01*
X364Y433D02*
X370Y433D01*
X384Y433D02*
X390Y433D01*
X410Y433D02*
X416Y433D01*
X364Y432D02*
X370Y432D01*
X384Y432D02*
X390Y432D01*
X410Y432D02*
X416Y432D01*
X364Y431D02*
X370Y431D01*
X384Y431D02*
X390Y431D01*
X410Y431D02*
X416Y431D01*
X364Y430D02*
X370Y430D01*
X384Y430D02*
X390Y430D01*
X410Y430D02*
X416Y430D01*
X364Y429D02*
X370Y429D01*
X384Y429D02*
X390Y429D01*
X410Y429D02*
X416Y429D01*
X364Y428D02*
X370Y428D01*
X384Y428D02*
X390Y428D01*
X410Y428D02*
X416Y428D01*
X364Y427D02*
X370Y427D01*
X384Y427D02*
X390Y427D01*
X410Y427D02*
X416Y427D01*
X364Y426D02*
X370Y426D01*
X384Y426D02*
X390Y426D01*
X410Y426D02*
X416Y426D01*
X364Y425D02*
X370Y425D01*
X384Y425D02*
X390Y425D01*
X410Y425D02*
X416Y425D01*
X364Y424D02*
X370Y424D01*
X384Y424D02*
X390Y424D01*
X410Y424D02*
X416Y424D01*
X364Y423D02*
X370Y423D01*
X384Y423D02*
X390Y423D01*
X410Y423D02*
X416Y423D01*
X364Y422D02*
X370Y422D01*
X384Y422D02*
X390Y422D01*
X410Y422D02*
X416Y422D01*
X364Y421D02*
X370Y421D01*
X384Y421D02*
X390Y421D01*
X410Y421D02*
X416Y421D01*
X364Y420D02*
X371Y420D01*
X383Y420D02*
X390Y420D01*
X410Y420D02*
X416Y420D01*
X364Y419D02*
X390Y419D01*
X410Y419D02*
X441Y419D01*
X365Y418D02*
X389Y418D01*
X410Y418D02*
X443Y418D01*
X365Y417D02*
X389Y417D01*
X410Y417D02*
X444Y417D01*
X366Y416D02*
X388Y416D01*
X410Y416D02*
X444Y416D01*
X367Y415D02*
X387Y415D01*
X410Y415D02*
X444Y415D01*
X368Y414D02*
X386Y414D01*
X410Y414D02*
X444Y414D01*
X370Y413D02*
X384Y413D01*
X410Y413D02*
X443Y413D01*
D02*
G04 End of Silk1*
M02*