; NON-PLATED HOLES START AT T1
; THROUGH (PLATED) HOLES START AT T100
M48
INCH
T1C0.125984
T100C0.027559
%
T1
X001444Y011209
X015437Y011209
T100
X015444Y008709
X012444Y014709
X006444Y008709
X004444Y014709
X005444Y014709
X013444Y014709
X006444Y014709
X002444Y018709
X011444Y008709
X012444Y008709
X002444Y002209
X002444Y019709
X004444Y008709
X002444Y003209
X015444Y007709
X005444Y008709
X013444Y008709
X011444Y014709
T00
M30
