G04 MADE WITH FRITZING*
G04 WWW.FRITZING.ORG*
G04 DOUBLE SIDED*
G04 HOLES PLATED*
G04 CONTOUR ON CENTER OF CONTOUR VECTOR*
%ASAXBY*%
%FSLAX23Y23*%
%MOIN*%
%OFA0B0*%
%SFA1.0B1.0*%
%ADD10R,1.732280X2.165350X1.716280X2.149350*%
%ADD11C,0.008000*%
%ADD12C,0.010000*%
%ADD13C,0.005000*%
%ADD14R,0.001000X0.001000*%
%LNSILK1*%
G90*
G70*
G54D11*
X4Y2161D02*
X1728Y2161D01*
X1728Y4D01*
X4Y4D01*
X4Y2161D01*
D02*
G54D12*
X1456Y876D02*
X1456Y666D01*
D02*
X1456Y666D02*
X1672Y666D01*
D02*
X1672Y666D02*
X1672Y876D01*
D02*
X1672Y876D02*
X1456Y876D01*
G54D13*
D02*
X1632Y666D02*
X1632Y876D01*
G54D12*
D02*
X1089Y1333D02*
X1399Y1333D01*
D02*
X1399Y1333D02*
X1399Y1549D01*
D02*
X1399Y1549D02*
X1089Y1549D01*
D02*
X1089Y1549D02*
X1089Y1333D01*
G54D13*
D02*
X1399Y1509D02*
X1089Y1509D01*
G54D12*
D02*
X1399Y909D02*
X1089Y909D01*
D02*
X1089Y909D02*
X1089Y693D01*
D02*
X1089Y693D02*
X1399Y693D01*
D02*
X1399Y693D02*
X1399Y909D01*
G54D13*
D02*
X1089Y733D02*
X1399Y733D01*
G54D12*
D02*
X332Y1766D02*
X332Y1976D01*
D02*
X332Y1976D02*
X116Y1976D01*
D02*
X116Y1976D02*
X116Y1766D01*
D02*
X116Y1766D02*
X332Y1766D01*
G54D13*
D02*
X156Y1976D02*
X156Y1766D01*
G54D12*
D02*
X332Y166D02*
X332Y376D01*
D02*
X332Y376D02*
X116Y376D01*
D02*
X116Y376D02*
X116Y166D01*
D02*
X116Y166D02*
X332Y166D01*
G54D13*
D02*
X156Y376D02*
X156Y166D01*
G54D12*
D02*
X949Y909D02*
X439Y909D01*
D02*
X439Y909D02*
X439Y693D01*
D02*
X439Y693D02*
X949Y693D01*
D02*
X949Y693D02*
X949Y909D01*
G54D13*
D02*
X439Y733D02*
X949Y733D01*
G54D12*
D02*
X439Y1333D02*
X949Y1333D01*
D02*
X949Y1333D02*
X949Y1549D01*
D02*
X949Y1549D02*
X439Y1549D01*
D02*
X439Y1549D02*
X439Y1333D01*
G54D13*
D02*
X949Y1509D02*
X439Y1509D01*
G54D14*
X386Y2065D02*
X389Y2065D01*
X412Y2065D02*
X430Y2065D01*
X464Y2065D02*
X467Y2065D01*
X385Y2064D02*
X390Y2064D01*
X411Y2064D02*
X430Y2064D01*
X463Y2064D02*
X468Y2064D01*
X384Y2063D02*
X390Y2063D01*
X411Y2063D02*
X430Y2063D01*
X462Y2063D02*
X468Y2063D01*
X384Y2062D02*
X390Y2062D01*
X411Y2062D02*
X430Y2062D01*
X462Y2062D02*
X468Y2062D01*
X384Y2061D02*
X390Y2061D01*
X411Y2061D02*
X430Y2061D01*
X462Y2061D02*
X468Y2061D01*
X384Y2060D02*
X390Y2060D01*
X411Y2060D02*
X430Y2060D01*
X462Y2060D02*
X468Y2060D01*
X384Y2059D02*
X390Y2059D01*
X413Y2059D02*
X430Y2059D01*
X462Y2059D02*
X468Y2059D01*
X484Y2059D02*
X488Y2059D01*
X384Y2058D02*
X390Y2058D01*
X424Y2058D02*
X430Y2058D01*
X462Y2058D02*
X468Y2058D01*
X483Y2058D02*
X489Y2058D01*
X384Y2057D02*
X390Y2057D01*
X424Y2057D02*
X430Y2057D01*
X462Y2057D02*
X468Y2057D01*
X483Y2057D02*
X489Y2057D01*
X384Y2056D02*
X390Y2056D01*
X424Y2056D02*
X430Y2056D01*
X462Y2056D02*
X468Y2056D01*
X483Y2056D02*
X489Y2056D01*
X384Y2055D02*
X390Y2055D01*
X424Y2055D02*
X430Y2055D01*
X462Y2055D02*
X468Y2055D01*
X483Y2055D02*
X489Y2055D01*
X384Y2054D02*
X390Y2054D01*
X424Y2054D02*
X430Y2054D01*
X462Y2054D02*
X468Y2054D01*
X483Y2054D02*
X489Y2054D01*
X384Y2053D02*
X390Y2053D01*
X424Y2053D02*
X430Y2053D01*
X462Y2053D02*
X468Y2053D01*
X483Y2053D02*
X489Y2053D01*
X384Y2052D02*
X390Y2052D01*
X424Y2052D02*
X430Y2052D01*
X462Y2052D02*
X468Y2052D01*
X483Y2052D02*
X489Y2052D01*
X384Y2051D02*
X390Y2051D01*
X424Y2051D02*
X430Y2051D01*
X462Y2051D02*
X468Y2051D01*
X483Y2051D02*
X489Y2051D01*
X384Y2050D02*
X390Y2050D01*
X424Y2050D02*
X430Y2050D01*
X462Y2050D02*
X468Y2050D01*
X483Y2050D02*
X489Y2050D01*
X384Y2049D02*
X390Y2049D01*
X424Y2049D02*
X430Y2049D01*
X462Y2049D02*
X468Y2049D01*
X483Y2049D02*
X489Y2049D01*
X384Y2048D02*
X390Y2048D01*
X424Y2048D02*
X430Y2048D01*
X462Y2048D02*
X468Y2048D01*
X483Y2048D02*
X489Y2048D01*
X384Y2047D02*
X390Y2047D01*
X424Y2047D02*
X430Y2047D01*
X462Y2047D02*
X468Y2047D01*
X483Y2047D02*
X489Y2047D01*
X384Y2046D02*
X390Y2046D01*
X424Y2046D02*
X430Y2046D01*
X462Y2046D02*
X468Y2046D01*
X483Y2046D02*
X489Y2046D01*
X384Y2045D02*
X390Y2045D01*
X424Y2045D02*
X430Y2045D01*
X462Y2045D02*
X468Y2045D01*
X483Y2045D02*
X489Y2045D01*
X384Y2044D02*
X390Y2044D01*
X424Y2044D02*
X430Y2044D01*
X462Y2044D02*
X468Y2044D01*
X483Y2044D02*
X489Y2044D01*
X384Y2043D02*
X390Y2043D01*
X424Y2043D02*
X430Y2043D01*
X462Y2043D02*
X468Y2043D01*
X483Y2043D02*
X489Y2043D01*
X384Y2042D02*
X390Y2042D01*
X424Y2042D02*
X430Y2042D01*
X462Y2042D02*
X468Y2042D01*
X483Y2042D02*
X489Y2042D01*
X384Y2041D02*
X390Y2041D01*
X424Y2041D02*
X430Y2041D01*
X462Y2041D02*
X468Y2041D01*
X483Y2041D02*
X489Y2041D01*
X384Y2040D02*
X390Y2040D01*
X424Y2040D02*
X430Y2040D01*
X462Y2040D02*
X468Y2040D01*
X483Y2040D02*
X489Y2040D01*
X384Y2039D02*
X390Y2039D01*
X424Y2039D02*
X430Y2039D01*
X462Y2039D02*
X468Y2039D01*
X483Y2039D02*
X489Y2039D01*
X384Y2038D02*
X390Y2038D01*
X424Y2038D02*
X430Y2038D01*
X462Y2038D02*
X468Y2038D01*
X483Y2038D02*
X489Y2038D01*
X384Y2037D02*
X390Y2037D01*
X424Y2037D02*
X430Y2037D01*
X462Y2037D02*
X468Y2037D01*
X483Y2037D02*
X489Y2037D01*
X365Y2036D02*
X368Y2036D01*
X384Y2036D02*
X390Y2036D01*
X424Y2036D02*
X430Y2036D01*
X440Y2036D02*
X442Y2036D01*
X462Y2036D02*
X491Y2036D01*
X364Y2035D02*
X369Y2035D01*
X384Y2035D02*
X390Y2035D01*
X424Y2035D02*
X430Y2035D01*
X439Y2035D02*
X443Y2035D01*
X462Y2035D02*
X492Y2035D01*
X364Y2034D02*
X369Y2034D01*
X384Y2034D02*
X390Y2034D01*
X424Y2034D02*
X430Y2034D01*
X438Y2034D02*
X444Y2034D01*
X462Y2034D02*
X492Y2034D01*
X364Y2033D02*
X370Y2033D01*
X384Y2033D02*
X390Y2033D01*
X424Y2033D02*
X430Y2033D01*
X438Y2033D02*
X444Y2033D01*
X462Y2033D02*
X492Y2033D01*
X364Y2032D02*
X370Y2032D01*
X384Y2032D02*
X390Y2032D01*
X424Y2032D02*
X430Y2032D01*
X438Y2032D02*
X444Y2032D01*
X462Y2032D02*
X492Y2032D01*
X364Y2031D02*
X370Y2031D01*
X384Y2031D02*
X390Y2031D01*
X424Y2031D02*
X430Y2031D01*
X438Y2031D02*
X444Y2031D01*
X462Y2031D02*
X492Y2031D01*
X364Y2030D02*
X370Y2030D01*
X384Y2030D02*
X390Y2030D01*
X424Y2030D02*
X430Y2030D01*
X438Y2030D02*
X444Y2030D01*
X462Y2030D02*
X491Y2030D01*
X364Y2029D02*
X370Y2029D01*
X384Y2029D02*
X390Y2029D01*
X424Y2029D02*
X430Y2029D01*
X438Y2029D02*
X444Y2029D01*
X483Y2029D02*
X489Y2029D01*
X364Y2028D02*
X370Y2028D01*
X384Y2028D02*
X390Y2028D01*
X424Y2028D02*
X430Y2028D01*
X438Y2028D02*
X444Y2028D01*
X483Y2028D02*
X489Y2028D01*
X364Y2027D02*
X370Y2027D01*
X384Y2027D02*
X390Y2027D01*
X424Y2027D02*
X430Y2027D01*
X438Y2027D02*
X444Y2027D01*
X483Y2027D02*
X489Y2027D01*
X364Y2026D02*
X370Y2026D01*
X384Y2026D02*
X390Y2026D01*
X424Y2026D02*
X430Y2026D01*
X438Y2026D02*
X444Y2026D01*
X483Y2026D02*
X489Y2026D01*
X364Y2025D02*
X370Y2025D01*
X384Y2025D02*
X390Y2025D01*
X424Y2025D02*
X430Y2025D01*
X438Y2025D02*
X444Y2025D01*
X483Y2025D02*
X489Y2025D01*
X364Y2024D02*
X370Y2024D01*
X384Y2024D02*
X390Y2024D01*
X424Y2024D02*
X430Y2024D01*
X438Y2024D02*
X444Y2024D01*
X483Y2024D02*
X489Y2024D01*
X364Y2023D02*
X370Y2023D01*
X384Y2023D02*
X390Y2023D01*
X424Y2023D02*
X430Y2023D01*
X438Y2023D02*
X444Y2023D01*
X483Y2023D02*
X489Y2023D01*
X364Y2022D02*
X370Y2022D01*
X384Y2022D02*
X390Y2022D01*
X424Y2022D02*
X430Y2022D01*
X438Y2022D02*
X444Y2022D01*
X483Y2022D02*
X489Y2022D01*
X364Y2021D02*
X370Y2021D01*
X384Y2021D02*
X390Y2021D01*
X424Y2021D02*
X430Y2021D01*
X438Y2021D02*
X444Y2021D01*
X483Y2021D02*
X489Y2021D01*
X364Y2020D02*
X371Y2020D01*
X383Y2020D02*
X390Y2020D01*
X424Y2020D02*
X430Y2020D01*
X438Y2020D02*
X444Y2020D01*
X483Y2020D02*
X489Y2020D01*
X364Y2019D02*
X372Y2019D01*
X382Y2019D02*
X390Y2019D01*
X424Y2019D02*
X430Y2019D01*
X438Y2019D02*
X444Y2019D01*
X483Y2019D02*
X489Y2019D01*
X365Y2018D02*
X389Y2018D01*
X412Y2018D02*
X444Y2018D01*
X483Y2018D02*
X489Y2018D01*
X365Y2017D02*
X389Y2017D01*
X411Y2017D02*
X444Y2017D01*
X483Y2017D02*
X489Y2017D01*
X366Y2016D02*
X388Y2016D01*
X411Y2016D02*
X444Y2016D01*
X483Y2016D02*
X489Y2016D01*
X367Y2015D02*
X387Y2015D01*
X410Y2015D02*
X444Y2015D01*
X483Y2015D02*
X489Y2015D01*
X368Y2014D02*
X386Y2014D01*
X411Y2014D02*
X444Y2014D01*
X483Y2014D02*
X489Y2014D01*
X369Y2013D02*
X385Y2013D01*
X411Y2013D02*
X443Y2013D01*
X484Y2013D02*
X488Y2013D01*
X372Y2012D02*
X382Y2012D01*
X413Y2012D02*
X442Y2012D01*
X485Y2012D02*
X487Y2012D01*
X850Y1790D02*
X854Y1790D01*
X882Y1790D02*
X908Y1790D01*
X850Y1789D02*
X855Y1789D01*
X882Y1789D02*
X909Y1789D01*
X849Y1788D02*
X855Y1788D01*
X882Y1788D02*
X909Y1788D01*
X849Y1787D02*
X855Y1787D01*
X882Y1787D02*
X909Y1787D01*
X849Y1786D02*
X855Y1786D01*
X882Y1786D02*
X909Y1786D01*
X849Y1785D02*
X855Y1785D01*
X882Y1785D02*
X908Y1785D01*
X849Y1784D02*
X855Y1784D01*
X882Y1784D02*
X905Y1784D01*
X849Y1783D02*
X855Y1783D01*
X882Y1783D02*
X888Y1783D01*
X849Y1782D02*
X855Y1782D01*
X882Y1782D02*
X888Y1782D01*
X849Y1781D02*
X855Y1781D01*
X882Y1781D02*
X888Y1781D01*
X849Y1780D02*
X855Y1780D01*
X882Y1780D02*
X888Y1780D01*
X849Y1779D02*
X855Y1779D01*
X882Y1779D02*
X888Y1779D01*
X849Y1778D02*
X855Y1778D01*
X882Y1778D02*
X888Y1778D01*
X849Y1777D02*
X855Y1777D01*
X882Y1777D02*
X888Y1777D01*
X849Y1776D02*
X855Y1776D01*
X882Y1776D02*
X888Y1776D01*
X849Y1775D02*
X855Y1775D01*
X882Y1775D02*
X888Y1775D01*
X849Y1774D02*
X855Y1774D01*
X882Y1774D02*
X888Y1774D01*
X849Y1773D02*
X855Y1773D01*
X882Y1773D02*
X888Y1773D01*
X849Y1772D02*
X855Y1772D01*
X882Y1772D02*
X888Y1772D01*
X849Y1771D02*
X855Y1771D01*
X882Y1771D02*
X888Y1771D01*
X849Y1770D02*
X855Y1770D01*
X882Y1770D02*
X888Y1770D01*
X849Y1769D02*
X855Y1769D01*
X882Y1769D02*
X888Y1769D01*
X849Y1768D02*
X855Y1768D01*
X882Y1768D02*
X888Y1768D01*
X849Y1767D02*
X855Y1767D01*
X882Y1767D02*
X904Y1767D01*
X849Y1766D02*
X855Y1766D01*
X882Y1766D02*
X906Y1766D01*
X849Y1765D02*
X855Y1765D01*
X882Y1765D02*
X907Y1765D01*
X849Y1764D02*
X855Y1764D01*
X882Y1764D02*
X908Y1764D01*
X849Y1763D02*
X855Y1763D01*
X882Y1763D02*
X908Y1763D01*
X849Y1762D02*
X855Y1762D01*
X882Y1762D02*
X909Y1762D01*
X830Y1761D02*
X833Y1761D01*
X849Y1761D02*
X855Y1761D01*
X882Y1761D02*
X909Y1761D01*
X829Y1760D02*
X834Y1760D01*
X849Y1760D02*
X855Y1760D01*
X903Y1760D02*
X909Y1760D01*
X829Y1759D02*
X834Y1759D01*
X849Y1759D02*
X855Y1759D01*
X903Y1759D02*
X909Y1759D01*
X829Y1758D02*
X835Y1758D01*
X849Y1758D02*
X855Y1758D01*
X903Y1758D02*
X909Y1758D01*
X829Y1757D02*
X835Y1757D01*
X849Y1757D02*
X855Y1757D01*
X903Y1757D02*
X909Y1757D01*
X829Y1756D02*
X835Y1756D01*
X849Y1756D02*
X855Y1756D01*
X903Y1756D02*
X909Y1756D01*
X829Y1755D02*
X835Y1755D01*
X849Y1755D02*
X855Y1755D01*
X903Y1755D02*
X909Y1755D01*
X829Y1754D02*
X835Y1754D01*
X849Y1754D02*
X855Y1754D01*
X903Y1754D02*
X909Y1754D01*
X829Y1753D02*
X835Y1753D01*
X849Y1753D02*
X855Y1753D01*
X903Y1753D02*
X909Y1753D01*
X829Y1752D02*
X835Y1752D01*
X849Y1752D02*
X855Y1752D01*
X903Y1752D02*
X909Y1752D01*
X829Y1751D02*
X835Y1751D01*
X849Y1751D02*
X855Y1751D01*
X903Y1751D02*
X909Y1751D01*
X829Y1750D02*
X835Y1750D01*
X849Y1750D02*
X855Y1750D01*
X903Y1750D02*
X909Y1750D01*
X829Y1749D02*
X835Y1749D01*
X849Y1749D02*
X855Y1749D01*
X903Y1749D02*
X909Y1749D01*
X829Y1748D02*
X835Y1748D01*
X849Y1748D02*
X855Y1748D01*
X903Y1748D02*
X909Y1748D01*
X829Y1747D02*
X835Y1747D01*
X849Y1747D02*
X855Y1747D01*
X903Y1747D02*
X909Y1747D01*
X829Y1746D02*
X835Y1746D01*
X849Y1746D02*
X855Y1746D01*
X877Y1746D02*
X880Y1746D01*
X903Y1746D02*
X909Y1746D01*
X829Y1745D02*
X836Y1745D01*
X848Y1745D02*
X855Y1745D01*
X876Y1745D02*
X883Y1745D01*
X903Y1745D02*
X909Y1745D01*
X829Y1744D02*
X837Y1744D01*
X847Y1744D02*
X855Y1744D01*
X875Y1744D02*
X885Y1744D01*
X903Y1744D02*
X909Y1744D01*
X829Y1743D02*
X854Y1743D01*
X875Y1743D02*
X909Y1743D01*
X830Y1742D02*
X854Y1742D01*
X876Y1742D02*
X909Y1742D01*
X831Y1741D02*
X853Y1741D01*
X876Y1741D02*
X908Y1741D01*
X832Y1740D02*
X852Y1740D01*
X877Y1740D02*
X908Y1740D01*
X833Y1739D02*
X851Y1739D01*
X880Y1739D02*
X907Y1739D01*
X834Y1738D02*
X849Y1738D01*
X882Y1738D02*
X906Y1738D01*
X837Y1737D02*
X847Y1737D01*
X886Y1737D02*
X903Y1737D01*
X1429Y1691D02*
X1431Y1691D01*
X1400Y1690D02*
X1404Y1690D01*
X1426Y1690D02*
X1434Y1690D01*
X1400Y1689D02*
X1405Y1689D01*
X1426Y1689D02*
X1434Y1689D01*
X1399Y1688D02*
X1405Y1688D01*
X1425Y1688D02*
X1435Y1688D01*
X1399Y1687D02*
X1405Y1687D01*
X1425Y1687D02*
X1435Y1687D01*
X1399Y1686D02*
X1405Y1686D01*
X1425Y1686D02*
X1434Y1686D01*
X1399Y1685D02*
X1405Y1685D01*
X1425Y1685D02*
X1434Y1685D01*
X1399Y1684D02*
X1405Y1684D01*
X1425Y1684D02*
X1432Y1684D01*
X1399Y1683D02*
X1405Y1683D01*
X1425Y1683D02*
X1431Y1683D01*
X1399Y1682D02*
X1405Y1682D01*
X1425Y1682D02*
X1431Y1682D01*
X1399Y1681D02*
X1405Y1681D01*
X1425Y1681D02*
X1431Y1681D01*
X1399Y1680D02*
X1405Y1680D01*
X1425Y1680D02*
X1431Y1680D01*
X1399Y1679D02*
X1405Y1679D01*
X1425Y1679D02*
X1431Y1679D01*
X1399Y1678D02*
X1405Y1678D01*
X1425Y1678D02*
X1431Y1678D01*
X1399Y1677D02*
X1405Y1677D01*
X1425Y1677D02*
X1431Y1677D01*
X1399Y1676D02*
X1405Y1676D01*
X1425Y1676D02*
X1431Y1676D01*
X1399Y1675D02*
X1405Y1675D01*
X1425Y1675D02*
X1431Y1675D01*
X1399Y1674D02*
X1405Y1674D01*
X1425Y1674D02*
X1431Y1674D01*
X1399Y1673D02*
X1405Y1673D01*
X1425Y1673D02*
X1431Y1673D01*
X1399Y1672D02*
X1405Y1672D01*
X1425Y1672D02*
X1431Y1672D01*
X1399Y1671D02*
X1405Y1671D01*
X1425Y1671D02*
X1431Y1671D01*
X1399Y1670D02*
X1405Y1670D01*
X1425Y1670D02*
X1431Y1670D01*
X1399Y1669D02*
X1405Y1669D01*
X1425Y1669D02*
X1431Y1669D01*
X1399Y1668D02*
X1405Y1668D01*
X1425Y1668D02*
X1431Y1668D01*
X1399Y1667D02*
X1405Y1667D01*
X1425Y1667D02*
X1431Y1667D01*
X1399Y1666D02*
X1405Y1666D01*
X1425Y1666D02*
X1431Y1666D01*
X1399Y1665D02*
X1405Y1665D01*
X1425Y1665D02*
X1431Y1665D01*
X1399Y1664D02*
X1405Y1664D01*
X1425Y1664D02*
X1431Y1664D01*
X1399Y1663D02*
X1405Y1663D01*
X1425Y1663D02*
X1431Y1663D01*
X1399Y1662D02*
X1405Y1662D01*
X1425Y1662D02*
X1431Y1662D01*
X1380Y1661D02*
X1383Y1661D01*
X1399Y1661D02*
X1405Y1661D01*
X1425Y1661D02*
X1457Y1661D01*
X1379Y1660D02*
X1384Y1660D01*
X1399Y1660D02*
X1405Y1660D01*
X1425Y1660D02*
X1458Y1660D01*
X1379Y1659D02*
X1384Y1659D01*
X1399Y1659D02*
X1405Y1659D01*
X1425Y1659D02*
X1459Y1659D01*
X1378Y1658D02*
X1384Y1658D01*
X1399Y1658D02*
X1405Y1658D01*
X1425Y1658D02*
X1459Y1658D01*
X1378Y1657D02*
X1384Y1657D01*
X1399Y1657D02*
X1405Y1657D01*
X1425Y1657D02*
X1459Y1657D01*
X1378Y1656D02*
X1384Y1656D01*
X1399Y1656D02*
X1405Y1656D01*
X1425Y1656D02*
X1459Y1656D01*
X1378Y1655D02*
X1384Y1655D01*
X1399Y1655D02*
X1405Y1655D01*
X1425Y1655D02*
X1459Y1655D01*
X1378Y1654D02*
X1384Y1654D01*
X1399Y1654D02*
X1405Y1654D01*
X1425Y1654D02*
X1431Y1654D01*
X1453Y1654D02*
X1459Y1654D01*
X1378Y1653D02*
X1384Y1653D01*
X1399Y1653D02*
X1405Y1653D01*
X1425Y1653D02*
X1431Y1653D01*
X1453Y1653D02*
X1459Y1653D01*
X1378Y1652D02*
X1384Y1652D01*
X1399Y1652D02*
X1405Y1652D01*
X1425Y1652D02*
X1431Y1652D01*
X1453Y1652D02*
X1459Y1652D01*
X1378Y1651D02*
X1384Y1651D01*
X1399Y1651D02*
X1405Y1651D01*
X1425Y1651D02*
X1431Y1651D01*
X1453Y1651D02*
X1459Y1651D01*
X1378Y1650D02*
X1384Y1650D01*
X1399Y1650D02*
X1405Y1650D01*
X1425Y1650D02*
X1431Y1650D01*
X1453Y1650D02*
X1459Y1650D01*
X1378Y1649D02*
X1384Y1649D01*
X1399Y1649D02*
X1405Y1649D01*
X1425Y1649D02*
X1431Y1649D01*
X1453Y1649D02*
X1459Y1649D01*
X1378Y1648D02*
X1384Y1648D01*
X1399Y1648D02*
X1405Y1648D01*
X1425Y1648D02*
X1431Y1648D01*
X1453Y1648D02*
X1459Y1648D01*
X1378Y1647D02*
X1385Y1647D01*
X1399Y1647D02*
X1405Y1647D01*
X1425Y1647D02*
X1431Y1647D01*
X1453Y1647D02*
X1459Y1647D01*
X1379Y1646D02*
X1385Y1646D01*
X1399Y1646D02*
X1405Y1646D01*
X1425Y1646D02*
X1431Y1646D01*
X1453Y1646D02*
X1459Y1646D01*
X1379Y1645D02*
X1385Y1645D01*
X1398Y1645D02*
X1405Y1645D01*
X1425Y1645D02*
X1431Y1645D01*
X1453Y1645D02*
X1459Y1645D01*
X1379Y1644D02*
X1387Y1644D01*
X1396Y1644D02*
X1405Y1644D01*
X1425Y1644D02*
X1431Y1644D01*
X1453Y1644D02*
X1459Y1644D01*
X1379Y1643D02*
X1404Y1643D01*
X1425Y1643D02*
X1459Y1643D01*
X1380Y1642D02*
X1404Y1642D01*
X1425Y1642D02*
X1459Y1642D01*
X1381Y1641D02*
X1403Y1641D01*
X1425Y1641D02*
X1459Y1641D01*
X1382Y1640D02*
X1402Y1640D01*
X1425Y1640D02*
X1459Y1640D01*
X1383Y1639D02*
X1401Y1639D01*
X1426Y1639D02*
X1459Y1639D01*
X1384Y1638D02*
X1399Y1638D01*
X1426Y1638D02*
X1458Y1638D01*
X1387Y1637D02*
X1396Y1637D01*
X1428Y1637D02*
X1456Y1637D01*
X862Y1151D02*
X862Y1151D01*
X890Y1151D02*
X890Y1151D01*
X860Y1150D02*
X864Y1150D01*
X888Y1150D02*
X892Y1150D01*
X860Y1149D02*
X865Y1149D01*
X887Y1149D02*
X893Y1149D01*
X859Y1148D02*
X865Y1148D01*
X887Y1148D02*
X893Y1148D01*
X859Y1147D02*
X865Y1147D01*
X887Y1147D02*
X893Y1147D01*
X859Y1146D02*
X865Y1146D01*
X887Y1146D02*
X893Y1146D01*
X859Y1145D02*
X865Y1145D01*
X887Y1145D02*
X893Y1145D01*
X910Y1145D02*
X911Y1145D01*
X859Y1144D02*
X865Y1144D01*
X887Y1144D02*
X893Y1144D01*
X909Y1144D02*
X913Y1144D01*
X859Y1143D02*
X865Y1143D01*
X887Y1143D02*
X893Y1143D01*
X908Y1143D02*
X913Y1143D01*
X859Y1142D02*
X865Y1142D01*
X887Y1142D02*
X893Y1142D01*
X908Y1142D02*
X914Y1142D01*
X859Y1141D02*
X865Y1141D01*
X887Y1141D02*
X893Y1141D01*
X908Y1141D02*
X914Y1141D01*
X859Y1140D02*
X865Y1140D01*
X887Y1140D02*
X893Y1140D01*
X908Y1140D02*
X914Y1140D01*
X859Y1139D02*
X865Y1139D01*
X887Y1139D02*
X893Y1139D01*
X908Y1139D02*
X914Y1139D01*
X859Y1138D02*
X865Y1138D01*
X887Y1138D02*
X893Y1138D01*
X908Y1138D02*
X914Y1138D01*
X859Y1137D02*
X865Y1137D01*
X887Y1137D02*
X893Y1137D01*
X908Y1137D02*
X914Y1137D01*
X859Y1136D02*
X865Y1136D01*
X887Y1136D02*
X893Y1136D01*
X908Y1136D02*
X914Y1136D01*
X859Y1135D02*
X865Y1135D01*
X887Y1135D02*
X893Y1135D01*
X908Y1135D02*
X914Y1135D01*
X859Y1134D02*
X865Y1134D01*
X887Y1134D02*
X893Y1134D01*
X908Y1134D02*
X914Y1134D01*
X859Y1133D02*
X865Y1133D01*
X887Y1133D02*
X893Y1133D01*
X908Y1133D02*
X914Y1133D01*
X859Y1132D02*
X865Y1132D01*
X887Y1132D02*
X893Y1132D01*
X908Y1132D02*
X914Y1132D01*
X859Y1131D02*
X865Y1131D01*
X887Y1131D02*
X893Y1131D01*
X908Y1131D02*
X914Y1131D01*
X859Y1130D02*
X865Y1130D01*
X887Y1130D02*
X893Y1130D01*
X908Y1130D02*
X914Y1130D01*
X859Y1129D02*
X865Y1129D01*
X887Y1129D02*
X893Y1129D01*
X908Y1129D02*
X914Y1129D01*
X859Y1128D02*
X865Y1128D01*
X887Y1128D02*
X893Y1128D01*
X908Y1128D02*
X914Y1128D01*
X859Y1127D02*
X865Y1127D01*
X887Y1127D02*
X893Y1127D01*
X908Y1127D02*
X914Y1127D01*
X859Y1126D02*
X865Y1126D01*
X887Y1126D02*
X893Y1126D01*
X908Y1126D02*
X914Y1126D01*
X859Y1125D02*
X865Y1125D01*
X887Y1125D02*
X893Y1125D01*
X908Y1125D02*
X914Y1125D01*
X859Y1124D02*
X865Y1124D01*
X887Y1124D02*
X893Y1124D01*
X908Y1124D02*
X914Y1124D01*
X859Y1123D02*
X865Y1123D01*
X887Y1123D02*
X893Y1123D01*
X908Y1123D02*
X914Y1123D01*
X859Y1122D02*
X865Y1122D01*
X887Y1122D02*
X893Y1122D01*
X908Y1122D02*
X914Y1122D01*
X840Y1121D02*
X843Y1121D01*
X859Y1121D02*
X865Y1121D01*
X887Y1121D02*
X916Y1121D01*
X839Y1120D02*
X844Y1120D01*
X859Y1120D02*
X865Y1120D01*
X887Y1120D02*
X917Y1120D01*
X839Y1119D02*
X844Y1119D01*
X859Y1119D02*
X865Y1119D01*
X887Y1119D02*
X917Y1119D01*
X839Y1118D02*
X845Y1118D01*
X859Y1118D02*
X865Y1118D01*
X887Y1118D02*
X917Y1118D01*
X839Y1117D02*
X845Y1117D01*
X859Y1117D02*
X865Y1117D01*
X887Y1117D02*
X917Y1117D01*
X839Y1116D02*
X845Y1116D01*
X859Y1116D02*
X865Y1116D01*
X887Y1116D02*
X916Y1116D01*
X839Y1115D02*
X845Y1115D01*
X859Y1115D02*
X865Y1115D01*
X887Y1115D02*
X915Y1115D01*
X839Y1114D02*
X845Y1114D01*
X859Y1114D02*
X865Y1114D01*
X908Y1114D02*
X914Y1114D01*
X839Y1113D02*
X845Y1113D01*
X859Y1113D02*
X865Y1113D01*
X908Y1113D02*
X914Y1113D01*
X839Y1112D02*
X845Y1112D01*
X859Y1112D02*
X865Y1112D01*
X908Y1112D02*
X914Y1112D01*
X839Y1111D02*
X845Y1111D01*
X859Y1111D02*
X865Y1111D01*
X908Y1111D02*
X914Y1111D01*
X839Y1110D02*
X845Y1110D01*
X859Y1110D02*
X865Y1110D01*
X908Y1110D02*
X914Y1110D01*
X839Y1109D02*
X845Y1109D01*
X859Y1109D02*
X865Y1109D01*
X908Y1109D02*
X914Y1109D01*
X839Y1108D02*
X845Y1108D01*
X859Y1108D02*
X865Y1108D01*
X908Y1108D02*
X914Y1108D01*
X839Y1107D02*
X845Y1107D01*
X859Y1107D02*
X865Y1107D01*
X908Y1107D02*
X914Y1107D01*
X839Y1106D02*
X845Y1106D01*
X859Y1106D02*
X865Y1106D01*
X908Y1106D02*
X914Y1106D01*
X839Y1105D02*
X846Y1105D01*
X858Y1105D02*
X865Y1105D01*
X908Y1105D02*
X914Y1105D01*
X839Y1104D02*
X848Y1104D01*
X856Y1104D02*
X865Y1104D01*
X908Y1104D02*
X914Y1104D01*
X840Y1103D02*
X864Y1103D01*
X908Y1103D02*
X914Y1103D01*
X840Y1102D02*
X864Y1102D01*
X908Y1102D02*
X914Y1102D01*
X841Y1101D02*
X863Y1101D01*
X908Y1101D02*
X914Y1101D01*
X842Y1100D02*
X862Y1100D01*
X908Y1100D02*
X914Y1100D01*
X843Y1099D02*
X861Y1099D01*
X908Y1099D02*
X913Y1099D01*
X845Y1098D02*
X859Y1098D01*
X909Y1098D02*
X913Y1098D01*
X848Y1097D02*
X856Y1097D01*
X911Y1097D02*
X911Y1097D01*
X1412Y1051D02*
X1412Y1051D01*
X1438Y1051D02*
X1463Y1051D01*
X1410Y1050D02*
X1414Y1050D01*
X1436Y1050D02*
X1465Y1050D01*
X1409Y1049D02*
X1415Y1049D01*
X1436Y1049D02*
X1467Y1049D01*
X1409Y1048D02*
X1415Y1048D01*
X1435Y1048D02*
X1468Y1048D01*
X1409Y1047D02*
X1415Y1047D01*
X1435Y1047D02*
X1468Y1047D01*
X1409Y1046D02*
X1415Y1046D01*
X1436Y1046D02*
X1469Y1046D01*
X1409Y1045D02*
X1415Y1045D01*
X1436Y1045D02*
X1469Y1045D01*
X1409Y1044D02*
X1415Y1044D01*
X1462Y1044D02*
X1469Y1044D01*
X1409Y1043D02*
X1415Y1043D01*
X1463Y1043D02*
X1469Y1043D01*
X1409Y1042D02*
X1415Y1042D01*
X1463Y1042D02*
X1469Y1042D01*
X1409Y1041D02*
X1415Y1041D01*
X1463Y1041D02*
X1469Y1041D01*
X1409Y1040D02*
X1415Y1040D01*
X1463Y1040D02*
X1469Y1040D01*
X1409Y1039D02*
X1415Y1039D01*
X1463Y1039D02*
X1469Y1039D01*
X1409Y1038D02*
X1415Y1038D01*
X1463Y1038D02*
X1469Y1038D01*
X1409Y1037D02*
X1415Y1037D01*
X1463Y1037D02*
X1469Y1037D01*
X1409Y1036D02*
X1415Y1036D01*
X1463Y1036D02*
X1469Y1036D01*
X1409Y1035D02*
X1415Y1035D01*
X1463Y1035D02*
X1469Y1035D01*
X1409Y1034D02*
X1415Y1034D01*
X1463Y1034D02*
X1469Y1034D01*
X1409Y1033D02*
X1415Y1033D01*
X1463Y1033D02*
X1469Y1033D01*
X1409Y1032D02*
X1415Y1032D01*
X1463Y1032D02*
X1469Y1032D01*
X1409Y1031D02*
X1415Y1031D01*
X1463Y1031D02*
X1469Y1031D01*
X1409Y1030D02*
X1415Y1030D01*
X1463Y1030D02*
X1469Y1030D01*
X1409Y1029D02*
X1415Y1029D01*
X1462Y1029D02*
X1469Y1029D01*
X1409Y1028D02*
X1415Y1028D01*
X1461Y1028D02*
X1468Y1028D01*
X1409Y1027D02*
X1415Y1027D01*
X1444Y1027D02*
X1468Y1027D01*
X1409Y1026D02*
X1415Y1026D01*
X1443Y1026D02*
X1467Y1026D01*
X1409Y1025D02*
X1415Y1025D01*
X1442Y1025D02*
X1467Y1025D01*
X1409Y1024D02*
X1415Y1024D01*
X1442Y1024D02*
X1466Y1024D01*
X1409Y1023D02*
X1415Y1023D01*
X1442Y1023D02*
X1467Y1023D01*
X1409Y1022D02*
X1415Y1022D01*
X1443Y1022D02*
X1468Y1022D01*
X1390Y1021D02*
X1393Y1021D01*
X1409Y1021D02*
X1415Y1021D01*
X1444Y1021D02*
X1468Y1021D01*
X1389Y1020D02*
X1394Y1020D01*
X1409Y1020D02*
X1415Y1020D01*
X1461Y1020D02*
X1468Y1020D01*
X1389Y1019D02*
X1394Y1019D01*
X1409Y1019D02*
X1415Y1019D01*
X1462Y1019D02*
X1469Y1019D01*
X1388Y1018D02*
X1394Y1018D01*
X1409Y1018D02*
X1415Y1018D01*
X1463Y1018D02*
X1469Y1018D01*
X1388Y1017D02*
X1394Y1017D01*
X1409Y1017D02*
X1415Y1017D01*
X1463Y1017D02*
X1469Y1017D01*
X1388Y1016D02*
X1394Y1016D01*
X1409Y1016D02*
X1415Y1016D01*
X1463Y1016D02*
X1469Y1016D01*
X1388Y1015D02*
X1394Y1015D01*
X1409Y1015D02*
X1415Y1015D01*
X1463Y1015D02*
X1469Y1015D01*
X1388Y1014D02*
X1394Y1014D01*
X1409Y1014D02*
X1415Y1014D01*
X1463Y1014D02*
X1469Y1014D01*
X1388Y1013D02*
X1394Y1013D01*
X1409Y1013D02*
X1415Y1013D01*
X1463Y1013D02*
X1469Y1013D01*
X1388Y1012D02*
X1394Y1012D01*
X1409Y1012D02*
X1415Y1012D01*
X1463Y1012D02*
X1469Y1012D01*
X1388Y1011D02*
X1394Y1011D01*
X1409Y1011D02*
X1415Y1011D01*
X1463Y1011D02*
X1469Y1011D01*
X1388Y1010D02*
X1394Y1010D01*
X1409Y1010D02*
X1415Y1010D01*
X1463Y1010D02*
X1469Y1010D01*
X1388Y1009D02*
X1394Y1009D01*
X1409Y1009D02*
X1415Y1009D01*
X1463Y1009D02*
X1469Y1009D01*
X1388Y1008D02*
X1394Y1008D01*
X1409Y1008D02*
X1415Y1008D01*
X1463Y1008D02*
X1469Y1008D01*
X1388Y1007D02*
X1395Y1007D01*
X1409Y1007D02*
X1415Y1007D01*
X1463Y1007D02*
X1469Y1007D01*
X1389Y1006D02*
X1395Y1006D01*
X1409Y1006D02*
X1415Y1006D01*
X1463Y1006D02*
X1469Y1006D01*
X1389Y1005D02*
X1396Y1005D01*
X1408Y1005D02*
X1415Y1005D01*
X1463Y1005D02*
X1469Y1005D01*
X1389Y1004D02*
X1398Y1004D01*
X1406Y1004D02*
X1415Y1004D01*
X1462Y1004D02*
X1469Y1004D01*
X1389Y1003D02*
X1414Y1003D01*
X1436Y1003D02*
X1469Y1003D01*
X1390Y1002D02*
X1414Y1002D01*
X1436Y1002D02*
X1469Y1002D01*
X1391Y1001D02*
X1413Y1001D01*
X1435Y1001D02*
X1468Y1001D01*
X1392Y1000D02*
X1412Y1000D01*
X1435Y1000D02*
X1468Y1000D01*
X1393Y999D02*
X1411Y999D01*
X1436Y999D02*
X1467Y999D01*
X1394Y998D02*
X1409Y998D01*
X1436Y998D02*
X1465Y998D01*
X1398Y997D02*
X1405Y997D01*
X1438Y997D02*
X1462Y997D01*
X1727Y976D02*
X1727Y976D01*
X1725Y975D02*
X1729Y975D01*
X1724Y974D02*
X1730Y974D01*
X1724Y973D02*
X1730Y973D01*
X1724Y972D02*
X1730Y972D01*
X1724Y971D02*
X1730Y971D01*
X1724Y970D02*
X1730Y970D01*
X1724Y969D02*
X1730Y969D01*
X1724Y968D02*
X1730Y968D01*
X1724Y967D02*
X1730Y967D01*
X1724Y966D02*
X1730Y966D01*
X1724Y965D02*
X1730Y965D01*
X1724Y964D02*
X1730Y964D01*
X1724Y963D02*
X1730Y963D01*
X1724Y962D02*
X1730Y962D01*
X1724Y961D02*
X1730Y961D01*
X1724Y960D02*
X1730Y960D01*
X1724Y959D02*
X1730Y959D01*
X1724Y958D02*
X1730Y958D01*
X1724Y957D02*
X1730Y957D01*
X1724Y956D02*
X1730Y956D01*
X1724Y955D02*
X1730Y955D01*
X1724Y954D02*
X1730Y954D01*
X1724Y953D02*
X1730Y953D01*
X1724Y952D02*
X1730Y952D01*
X1724Y951D02*
X1730Y951D01*
X1724Y950D02*
X1730Y950D01*
X1724Y949D02*
X1730Y949D01*
X1724Y948D02*
X1730Y948D01*
X1724Y947D02*
X1730Y947D01*
X1705Y946D02*
X1708Y946D01*
X1724Y946D02*
X1730Y946D01*
X1704Y945D02*
X1709Y945D01*
X1724Y945D02*
X1730Y945D01*
X1704Y944D02*
X1709Y944D01*
X1724Y944D02*
X1730Y944D01*
X1703Y943D02*
X1709Y943D01*
X1724Y943D02*
X1730Y943D01*
X1703Y942D02*
X1709Y942D01*
X1724Y942D02*
X1730Y942D01*
X1703Y941D02*
X1709Y941D01*
X1724Y941D02*
X1730Y941D01*
X1703Y940D02*
X1709Y940D01*
X1724Y940D02*
X1730Y940D01*
X1703Y939D02*
X1709Y939D01*
X1724Y939D02*
X1730Y939D01*
X1703Y938D02*
X1709Y938D01*
X1724Y938D02*
X1730Y938D01*
X1703Y937D02*
X1709Y937D01*
X1724Y937D02*
X1730Y937D01*
X1703Y936D02*
X1709Y936D01*
X1724Y936D02*
X1730Y936D01*
X1703Y935D02*
X1709Y935D01*
X1724Y935D02*
X1730Y935D01*
X1703Y934D02*
X1709Y934D01*
X1724Y934D02*
X1730Y934D01*
X1703Y933D02*
X1709Y933D01*
X1724Y933D02*
X1730Y933D01*
X1703Y932D02*
X1710Y932D01*
X1724Y932D02*
X1730Y932D01*
X1704Y931D02*
X1710Y931D01*
X1724Y931D02*
X1730Y931D01*
X1704Y930D02*
X1711Y930D01*
X1723Y930D02*
X1730Y930D01*
X1704Y929D02*
X1713Y929D01*
X1721Y929D02*
X1730Y929D01*
X1704Y928D02*
X1729Y928D01*
X1705Y927D02*
X1729Y927D01*
X1706Y926D02*
X1728Y926D01*
X1707Y925D02*
X1727Y925D01*
X1708Y924D02*
X1726Y924D01*
X1709Y923D02*
X1724Y923D01*
X1713Y922D02*
X1720Y922D01*
X387Y466D02*
X388Y466D01*
X413Y466D02*
X439Y466D01*
X385Y465D02*
X389Y465D01*
X411Y465D02*
X441Y465D01*
X385Y464D02*
X390Y464D01*
X411Y464D02*
X442Y464D01*
X384Y463D02*
X390Y463D01*
X410Y463D02*
X443Y463D01*
X384Y462D02*
X390Y462D01*
X411Y462D02*
X443Y462D01*
X384Y461D02*
X390Y461D01*
X411Y461D02*
X444Y461D01*
X384Y460D02*
X390Y460D01*
X412Y460D02*
X444Y460D01*
X384Y459D02*
X390Y459D01*
X438Y459D02*
X444Y459D01*
X384Y458D02*
X390Y458D01*
X438Y458D02*
X444Y458D01*
X384Y457D02*
X390Y457D01*
X438Y457D02*
X444Y457D01*
X384Y456D02*
X390Y456D01*
X438Y456D02*
X444Y456D01*
X384Y455D02*
X390Y455D01*
X438Y455D02*
X444Y455D01*
X384Y454D02*
X390Y454D01*
X438Y454D02*
X444Y454D01*
X384Y453D02*
X390Y453D01*
X438Y453D02*
X444Y453D01*
X384Y452D02*
X390Y452D01*
X438Y452D02*
X444Y452D01*
X384Y451D02*
X390Y451D01*
X438Y451D02*
X444Y451D01*
X384Y450D02*
X390Y450D01*
X438Y450D02*
X444Y450D01*
X384Y449D02*
X390Y449D01*
X438Y449D02*
X444Y449D01*
X384Y448D02*
X390Y448D01*
X438Y448D02*
X444Y448D01*
X384Y447D02*
X390Y447D01*
X438Y447D02*
X444Y447D01*
X384Y446D02*
X390Y446D01*
X438Y446D02*
X444Y446D01*
X384Y445D02*
X390Y445D01*
X438Y445D02*
X444Y445D01*
X384Y444D02*
X390Y444D01*
X438Y444D02*
X444Y444D01*
X384Y443D02*
X390Y443D01*
X438Y443D02*
X444Y443D01*
X384Y442D02*
X390Y442D01*
X415Y442D02*
X444Y442D01*
X384Y441D02*
X390Y441D01*
X413Y441D02*
X444Y441D01*
X384Y440D02*
X390Y440D01*
X412Y440D02*
X443Y440D01*
X384Y439D02*
X390Y439D01*
X411Y439D02*
X443Y439D01*
X384Y438D02*
X390Y438D01*
X411Y438D02*
X442Y438D01*
X384Y437D02*
X390Y437D01*
X411Y437D02*
X441Y437D01*
X365Y436D02*
X368Y436D01*
X384Y436D02*
X390Y436D01*
X410Y436D02*
X439Y436D01*
X364Y435D02*
X369Y435D01*
X384Y435D02*
X390Y435D01*
X410Y435D02*
X416Y435D01*
X364Y434D02*
X369Y434D01*
X384Y434D02*
X390Y434D01*
X410Y434D02*
X416Y434D01*
X364Y433D02*
X370Y433D01*
X384Y433D02*
X390Y433D01*
X410Y433D02*
X416Y433D01*
X364Y432D02*
X370Y432D01*
X384Y432D02*
X390Y432D01*
X410Y432D02*
X416Y432D01*
X364Y431D02*
X370Y431D01*
X384Y431D02*
X390Y431D01*
X410Y431D02*
X416Y431D01*
X364Y430D02*
X370Y430D01*
X384Y430D02*
X390Y430D01*
X410Y430D02*
X416Y430D01*
X364Y429D02*
X370Y429D01*
X384Y429D02*
X390Y429D01*
X410Y429D02*
X416Y429D01*
X364Y428D02*
X370Y428D01*
X384Y428D02*
X390Y428D01*
X410Y428D02*
X416Y428D01*
X364Y427D02*
X370Y427D01*
X384Y427D02*
X390Y427D01*
X410Y427D02*
X416Y427D01*
X364Y426D02*
X370Y426D01*
X384Y426D02*
X390Y426D01*
X410Y426D02*
X416Y426D01*
X364Y425D02*
X370Y425D01*
X384Y425D02*
X390Y425D01*
X410Y425D02*
X416Y425D01*
X364Y424D02*
X370Y424D01*
X384Y424D02*
X390Y424D01*
X410Y424D02*
X416Y424D01*
X364Y423D02*
X370Y423D01*
X384Y423D02*
X390Y423D01*
X410Y423D02*
X416Y423D01*
X364Y422D02*
X370Y422D01*
X384Y422D02*
X390Y422D01*
X410Y422D02*
X416Y422D01*
X364Y421D02*
X370Y421D01*
X384Y421D02*
X390Y421D01*
X410Y421D02*
X416Y421D01*
X364Y420D02*
X371Y420D01*
X383Y420D02*
X390Y420D01*
X410Y420D02*
X416Y420D01*
X364Y419D02*
X390Y419D01*
X410Y419D02*
X441Y419D01*
X365Y418D02*
X389Y418D01*
X410Y418D02*
X443Y418D01*
X365Y417D02*
X389Y417D01*
X410Y417D02*
X444Y417D01*
X366Y416D02*
X388Y416D01*
X410Y416D02*
X444Y416D01*
X367Y415D02*
X387Y415D01*
X410Y415D02*
X444Y415D01*
X368Y414D02*
X386Y414D01*
X410Y414D02*
X444Y414D01*
X370Y413D02*
X384Y413D01*
X410Y413D02*
X443Y413D01*
D02*
G04 End of Silk1*
M02*