G04 MADE WITH FRITZING*
G04 WWW.FRITZING.ORG*
G04 DOUBLE SIDED*
G04 HOLES PLATED*
G04 CONTOUR ON CENTER OF CONTOUR VECTOR*
%ASAXBY*%
%FSLAX23Y23*%
%MOIN*%
%OFA0B0*%
%SFA1.0B1.0*%
%ADD10C,0.067559*%
%ADD11R,0.067559X0.067559*%
%ADD12C,0.024000*%
%LNCOPPER1*%
G90*
G70*
G54D10*
X1544Y821D03*
X1544Y721D03*
X1144Y1421D03*
X1244Y1421D03*
X1344Y1421D03*
X1344Y821D03*
X1244Y821D03*
X1144Y821D03*
X244Y1821D03*
X244Y1921D03*
X244Y221D03*
X244Y321D03*
X894Y821D03*
X794Y821D03*
X694Y821D03*
X594Y821D03*
X494Y821D03*
X494Y1421D03*
X594Y1421D03*
X694Y1421D03*
X794Y1421D03*
X894Y1421D03*
G54D11*
X1544Y821D03*
X1144Y1421D03*
X1344Y821D03*
X244Y1821D03*
X244Y221D03*
X894Y821D03*
X494Y1421D03*
G54D12*
X345Y221D02*
X269Y221D01*
D02*
X994Y820D02*
X919Y821D01*
D02*
X1094Y721D02*
X994Y820D01*
D02*
X1345Y721D02*
X1094Y721D01*
D02*
X1345Y796D02*
X1345Y721D01*
D02*
X345Y1920D02*
X494Y1522D01*
D02*
X494Y1522D02*
X494Y1446D01*
D02*
X269Y1921D02*
X345Y1920D01*
D02*
X895Y796D02*
X895Y721D01*
D02*
X895Y721D02*
X345Y221D01*
D02*
X1344Y846D02*
X1344Y1396D01*
D02*
X1144Y1396D02*
X1144Y846D01*
D02*
X1544Y796D02*
X1544Y746D01*
D02*
X1244Y1396D02*
X1244Y846D01*
D02*
X1295Y1522D02*
X1445Y1522D01*
D02*
X395Y820D02*
X470Y821D01*
D02*
X1143Y1522D02*
X1295Y1522D01*
D02*
X1445Y1522D02*
X1445Y120D01*
D02*
X94Y422D02*
X395Y820D01*
D02*
X1144Y1446D02*
X1143Y1522D01*
D02*
X94Y120D02*
X94Y422D01*
D02*
X1445Y120D02*
X94Y120D01*
D02*
X895Y1522D02*
X345Y2022D01*
D02*
X345Y2022D02*
X94Y2022D01*
D02*
X94Y2022D02*
X94Y1821D01*
D02*
X94Y1821D02*
X220Y1821D01*
D02*
X895Y1446D02*
X895Y1522D01*
D02*
X345Y320D02*
X269Y321D01*
D02*
X494Y796D02*
X494Y721D01*
D02*
X494Y721D02*
X345Y320D01*
D02*
X594Y846D02*
X594Y1396D01*
D02*
X694Y1396D02*
X694Y846D01*
D02*
X794Y1396D02*
X794Y846D01*
D02*
X494Y846D02*
X494Y1396D01*
D02*
X894Y846D02*
X894Y1396D01*
G04 End of Copper1*
M02*