; NON-PLATED HOLES START AT T1
; THROUGH (PLATED) HOLES START AT T100
M48
INCH
T1C0.125984
T100C0.027559
%
T1
X015438Y011709
X001444Y011709
T100
X005944Y008209
X004944Y008209
X002444Y019209
X011444Y014209
X015444Y008209
X008944Y014209
X013444Y008209
X012444Y008209
X005944Y014209
X002444Y003209
X004944Y014209
X007944Y008209
X006944Y008209
X002444Y018209
X015444Y007209
X013444Y014209
X012444Y014209
X002444Y002209
X007944Y014209
X006944Y014209
X011444Y008209
X008944Y008209
T00
M30
