G04 MADE WITH FRITZING*
G04 WWW.FRITZING.ORG*
G04 DOUBLE SIDED*
G04 HOLES PLATED*
G04 CONTOUR ON CENTER OF CONTOUR VECTOR*
%ASAXBY*%
%FSLAX23Y23*%
%MOIN*%
%OFA0B0*%
%SFA1.0B1.0*%
%ADD10C,0.067559*%
%ADD11C,0.075000*%
%ADD12C,0.070000*%
%ADD13R,0.067559X0.067559*%
%ADD14R,0.075000X0.075000*%
%ADD15R,0.001000X0.001000*%
%LNCOPPER0*%
G90*
G70*
G54D10*
X2372Y522D03*
X2272Y522D03*
X2172Y522D03*
X2072Y522D03*
X1972Y522D03*
X1872Y522D03*
X1772Y522D03*
X1672Y522D03*
X1572Y522D03*
X1472Y522D03*
X1472Y1272D03*
X1572Y1272D03*
X1672Y1272D03*
X1772Y1272D03*
X1872Y1272D03*
X1972Y1272D03*
X2072Y1272D03*
X2172Y1272D03*
X2272Y1272D03*
X2372Y1272D03*
G54D11*
X422Y1722D03*
X822Y1722D03*
X422Y1622D03*
X822Y1622D03*
X422Y1522D03*
X822Y1522D03*
X422Y1422D03*
X822Y1422D03*
X622Y372D03*
X1022Y372D03*
X622Y172D03*
X1022Y172D03*
X622Y272D03*
X1022Y272D03*
G54D12*
X322Y272D03*
X322Y172D03*
G54D11*
X422Y772D03*
X322Y772D03*
G54D13*
X2372Y522D03*
X1472Y1272D03*
G54D14*
X422Y772D03*
G54D15*
X317Y307D02*
X326Y307D01*
X313Y306D02*
X330Y306D01*
X310Y305D02*
X333Y305D01*
X308Y304D02*
X336Y304D01*
X305Y303D02*
X338Y303D01*
X304Y302D02*
X340Y302D01*
X302Y301D02*
X341Y301D01*
X301Y300D02*
X343Y300D01*
X299Y299D02*
X344Y299D01*
X298Y298D02*
X345Y298D01*
X297Y297D02*
X346Y297D01*
X296Y296D02*
X347Y296D01*
X295Y295D02*
X348Y295D01*
X295Y294D02*
X349Y294D01*
X294Y293D02*
X349Y293D01*
X293Y292D02*
X350Y292D01*
X293Y291D02*
X351Y291D01*
X292Y290D02*
X351Y290D01*
X292Y289D02*
X352Y289D01*
X291Y288D02*
X352Y288D01*
X291Y287D02*
X317Y287D01*
X326Y287D02*
X353Y287D01*
X290Y286D02*
X315Y286D01*
X329Y286D02*
X353Y286D01*
X290Y285D02*
X313Y285D01*
X331Y285D02*
X354Y285D01*
X289Y284D02*
X312Y284D01*
X332Y284D02*
X354Y284D01*
X289Y283D02*
X311Y283D01*
X333Y283D02*
X354Y283D01*
X289Y282D02*
X310Y282D01*
X334Y282D02*
X355Y282D01*
X288Y281D02*
X309Y281D01*
X335Y281D02*
X355Y281D01*
X288Y280D02*
X308Y280D01*
X335Y280D02*
X355Y280D01*
X288Y279D02*
X308Y279D01*
X336Y279D02*
X355Y279D01*
X288Y278D02*
X307Y278D01*
X336Y278D02*
X356Y278D01*
X288Y277D02*
X307Y277D01*
X337Y277D02*
X356Y277D01*
X287Y276D02*
X307Y276D01*
X337Y276D02*
X356Y276D01*
X287Y275D02*
X306Y275D01*
X337Y275D02*
X356Y275D01*
X287Y274D02*
X306Y274D01*
X337Y274D02*
X356Y274D01*
X287Y273D02*
X306Y273D01*
X337Y273D02*
X356Y273D01*
X287Y272D02*
X306Y272D01*
X337Y272D02*
X356Y272D01*
X287Y271D02*
X306Y271D01*
X337Y271D02*
X356Y271D01*
X287Y270D02*
X306Y270D01*
X337Y270D02*
X356Y270D01*
X287Y269D02*
X306Y269D01*
X337Y269D02*
X356Y269D01*
X288Y268D02*
X307Y268D01*
X337Y268D02*
X356Y268D01*
X288Y267D02*
X307Y267D01*
X336Y267D02*
X356Y267D01*
X288Y266D02*
X307Y266D01*
X336Y266D02*
X355Y266D01*
X288Y265D02*
X308Y265D01*
X335Y265D02*
X355Y265D01*
X288Y264D02*
X309Y264D01*
X335Y264D02*
X355Y264D01*
X289Y263D02*
X310Y263D01*
X334Y263D02*
X355Y263D01*
X289Y262D02*
X310Y262D01*
X333Y262D02*
X354Y262D01*
X289Y261D02*
X312Y261D01*
X332Y261D02*
X354Y261D01*
X290Y260D02*
X313Y260D01*
X331Y260D02*
X354Y260D01*
X290Y259D02*
X314Y259D01*
X329Y259D02*
X353Y259D01*
X291Y258D02*
X317Y258D01*
X327Y258D02*
X353Y258D01*
X291Y257D02*
X352Y257D01*
X291Y256D02*
X352Y256D01*
X292Y255D02*
X351Y255D01*
X293Y254D02*
X351Y254D01*
X293Y253D02*
X350Y253D01*
X294Y252D02*
X349Y252D01*
X295Y251D02*
X349Y251D01*
X295Y250D02*
X348Y250D01*
X296Y249D02*
X347Y249D01*
X297Y248D02*
X346Y248D01*
X298Y247D02*
X345Y247D01*
X299Y246D02*
X344Y246D01*
X301Y245D02*
X343Y245D01*
X302Y244D02*
X341Y244D01*
X304Y243D02*
X340Y243D01*
X305Y242D02*
X338Y242D01*
X307Y241D02*
X336Y241D01*
X310Y240D02*
X334Y240D01*
X312Y239D02*
X331Y239D01*
X317Y238D02*
X327Y238D01*
X317Y207D02*
X326Y207D01*
X313Y206D02*
X331Y206D01*
X310Y205D02*
X333Y205D01*
X308Y204D02*
X336Y204D01*
X305Y203D02*
X338Y203D01*
X304Y202D02*
X340Y202D01*
X302Y201D02*
X341Y201D01*
X301Y200D02*
X343Y200D01*
X299Y199D02*
X344Y199D01*
X298Y198D02*
X345Y198D01*
X297Y197D02*
X346Y197D01*
X296Y196D02*
X347Y196D01*
X295Y195D02*
X348Y195D01*
X295Y194D02*
X349Y194D01*
X294Y193D02*
X349Y193D01*
X293Y192D02*
X350Y192D01*
X293Y191D02*
X351Y191D01*
X292Y190D02*
X351Y190D01*
X292Y189D02*
X352Y189D01*
X291Y188D02*
X352Y188D01*
X291Y187D02*
X317Y187D01*
X326Y187D02*
X353Y187D01*
X290Y186D02*
X314Y186D01*
X329Y186D02*
X353Y186D01*
X290Y185D02*
X313Y185D01*
X331Y185D02*
X354Y185D01*
X289Y184D02*
X312Y184D01*
X332Y184D02*
X354Y184D01*
X289Y183D02*
X311Y183D01*
X333Y183D02*
X354Y183D01*
X289Y182D02*
X310Y182D01*
X334Y182D02*
X355Y182D01*
X288Y181D02*
X309Y181D01*
X335Y181D02*
X355Y181D01*
X288Y180D02*
X308Y180D01*
X335Y180D02*
X355Y180D01*
X288Y179D02*
X308Y179D01*
X336Y179D02*
X355Y179D01*
X288Y178D02*
X307Y178D01*
X336Y178D02*
X356Y178D01*
X288Y177D02*
X307Y177D01*
X337Y177D02*
X356Y177D01*
X287Y176D02*
X307Y176D01*
X337Y176D02*
X356Y176D01*
X287Y175D02*
X306Y175D01*
X337Y175D02*
X356Y175D01*
X287Y174D02*
X306Y174D01*
X337Y174D02*
X356Y174D01*
X287Y173D02*
X306Y173D01*
X337Y173D02*
X356Y173D01*
X287Y172D02*
X306Y172D01*
X337Y172D02*
X356Y172D01*
X287Y171D02*
X306Y171D01*
X337Y171D02*
X356Y171D01*
X287Y170D02*
X306Y170D01*
X337Y170D02*
X356Y170D01*
X287Y169D02*
X307Y169D01*
X337Y169D02*
X356Y169D01*
X288Y168D02*
X307Y168D01*
X337Y168D02*
X356Y168D01*
X288Y167D02*
X307Y167D01*
X336Y167D02*
X356Y167D01*
X288Y166D02*
X308Y166D01*
X336Y166D02*
X355Y166D01*
X288Y165D02*
X308Y165D01*
X335Y165D02*
X355Y165D01*
X288Y164D02*
X309Y164D01*
X335Y164D02*
X355Y164D01*
X289Y163D02*
X310Y163D01*
X334Y163D02*
X355Y163D01*
X289Y162D02*
X310Y162D01*
X333Y162D02*
X354Y162D01*
X289Y161D02*
X312Y161D01*
X332Y161D02*
X354Y161D01*
X290Y160D02*
X313Y160D01*
X331Y160D02*
X354Y160D01*
X290Y159D02*
X314Y159D01*
X329Y159D02*
X353Y159D01*
X291Y158D02*
X317Y158D01*
X326Y158D02*
X353Y158D01*
X291Y157D02*
X352Y157D01*
X291Y156D02*
X352Y156D01*
X292Y155D02*
X351Y155D01*
X293Y154D02*
X351Y154D01*
X293Y153D02*
X350Y153D01*
X294Y152D02*
X349Y152D01*
X295Y151D02*
X349Y151D01*
X295Y150D02*
X348Y150D01*
X296Y149D02*
X347Y149D01*
X297Y148D02*
X346Y148D01*
X298Y147D02*
X345Y147D01*
X299Y146D02*
X344Y146D01*
X301Y145D02*
X343Y145D01*
X302Y144D02*
X341Y144D01*
X304Y143D02*
X340Y143D01*
X305Y142D02*
X338Y142D01*
X307Y141D02*
X336Y141D01*
X310Y140D02*
X334Y140D01*
X313Y139D02*
X331Y139D01*
X317Y138D02*
X327Y138D01*
D02*
G04 End of Copper0*
M02*