G04 MADE WITH FRITZING*
G04 WWW.FRITZING.ORG*
G04 DOUBLE SIDED*
G04 HOLES PLATED*
G04 CONTOUR ON CENTER OF CONTOUR VECTOR*
%ASAXBY*%
%FSLAX23Y23*%
%MOIN*%
%OFA0B0*%
%SFA1.0B1.0*%
%ADD10C,0.135984*%
%ADD11C,0.093307*%
%ADD12C,0.085000*%
%ADD13R,0.093307X0.093307*%
%ADD14R,0.085000X0.085000*%
%ADD15R,0.001000X0.001000*%
%LNMASK0*%
G90*
G70*
G54D10*
X2441Y469D03*
G54D11*
X2241Y519D03*
X2141Y519D03*
X2041Y519D03*
X1941Y519D03*
X1841Y519D03*
X1741Y519D03*
X1641Y519D03*
X1541Y519D03*
X1441Y519D03*
X1341Y519D03*
X1341Y1269D03*
X1441Y1269D03*
X1541Y1269D03*
X1641Y1269D03*
X1741Y1269D03*
X1841Y1269D03*
X1941Y1269D03*
X2041Y1269D03*
X2141Y1269D03*
X2241Y1269D03*
G54D12*
X291Y1719D03*
X691Y1719D03*
X291Y1619D03*
X691Y1619D03*
X291Y1519D03*
X691Y1519D03*
X291Y1419D03*
X691Y1419D03*
X491Y369D03*
X891Y369D03*
X491Y169D03*
X891Y169D03*
X491Y269D03*
X891Y269D03*
X291Y1269D03*
X191Y1269D03*
G54D13*
X2241Y519D03*
X1341Y1269D03*
G54D14*
X291Y1269D03*
G54D15*
X188Y309D02*
X194Y309D01*
X182Y308D02*
X200Y308D01*
X178Y307D02*
X203Y307D01*
X176Y306D02*
X206Y306D01*
X174Y305D02*
X208Y305D01*
X172Y304D02*
X210Y304D01*
X170Y303D02*
X211Y303D01*
X169Y302D02*
X213Y302D01*
X167Y301D02*
X214Y301D01*
X166Y300D02*
X216Y300D01*
X165Y299D02*
X217Y299D01*
X164Y298D02*
X218Y298D01*
X163Y297D02*
X219Y297D01*
X162Y296D02*
X220Y296D01*
X161Y295D02*
X221Y295D01*
X160Y294D02*
X222Y294D01*
X159Y293D02*
X222Y293D01*
X159Y292D02*
X223Y292D01*
X158Y291D02*
X224Y291D01*
X157Y290D02*
X224Y290D01*
X157Y289D02*
X225Y289D01*
X156Y288D02*
X226Y288D01*
X156Y287D02*
X226Y287D01*
X155Y286D02*
X227Y286D01*
X155Y285D02*
X227Y285D01*
X154Y284D02*
X227Y284D01*
X154Y283D02*
X228Y283D01*
X153Y282D02*
X228Y282D01*
X153Y281D02*
X228Y281D01*
X153Y280D02*
X229Y280D01*
X153Y279D02*
X229Y279D01*
X152Y278D02*
X229Y278D01*
X152Y277D02*
X229Y277D01*
X152Y276D02*
X230Y276D01*
X152Y275D02*
X230Y275D01*
X152Y274D02*
X230Y274D01*
X152Y273D02*
X230Y273D01*
X151Y272D02*
X230Y272D01*
X151Y271D02*
X230Y271D01*
X151Y270D02*
X230Y270D01*
X151Y269D02*
X230Y269D01*
X151Y268D02*
X230Y268D01*
X151Y267D02*
X230Y267D01*
X151Y266D02*
X230Y266D01*
X152Y265D02*
X230Y265D01*
X152Y264D02*
X230Y264D01*
X152Y263D02*
X230Y263D01*
X152Y262D02*
X230Y262D01*
X152Y261D02*
X229Y261D01*
X152Y260D02*
X229Y260D01*
X153Y259D02*
X229Y259D01*
X153Y258D02*
X229Y258D01*
X153Y257D02*
X228Y257D01*
X154Y256D02*
X228Y256D01*
X154Y255D02*
X228Y255D01*
X154Y254D02*
X227Y254D01*
X155Y253D02*
X227Y253D01*
X155Y252D02*
X226Y252D01*
X156Y251D02*
X226Y251D01*
X156Y250D02*
X225Y250D01*
X157Y249D02*
X225Y249D01*
X157Y248D02*
X224Y248D01*
X158Y247D02*
X223Y247D01*
X159Y246D02*
X223Y246D01*
X160Y245D02*
X222Y245D01*
X160Y244D02*
X221Y244D01*
X161Y243D02*
X220Y243D01*
X162Y242D02*
X220Y242D01*
X163Y241D02*
X219Y241D01*
X164Y240D02*
X218Y240D01*
X165Y239D02*
X216Y239D01*
X166Y238D02*
X215Y238D01*
X168Y237D02*
X214Y237D01*
X169Y236D02*
X212Y236D01*
X171Y235D02*
X211Y235D01*
X172Y234D02*
X209Y234D01*
X174Y233D02*
X207Y233D01*
X177Y232D02*
X205Y232D01*
X180Y231D02*
X202Y231D01*
X184Y230D02*
X198Y230D01*
X188Y209D02*
X194Y209D01*
X182Y208D02*
X200Y208D01*
X178Y207D02*
X203Y207D01*
X176Y206D02*
X206Y206D01*
X174Y205D02*
X208Y205D01*
X172Y204D02*
X210Y204D01*
X170Y203D02*
X212Y203D01*
X169Y202D02*
X213Y202D01*
X167Y201D02*
X214Y201D01*
X166Y200D02*
X216Y200D01*
X165Y199D02*
X217Y199D01*
X164Y198D02*
X218Y198D01*
X163Y197D02*
X219Y197D01*
X162Y196D02*
X220Y196D01*
X161Y195D02*
X221Y195D01*
X160Y194D02*
X222Y194D01*
X159Y193D02*
X222Y193D01*
X159Y192D02*
X223Y192D01*
X158Y191D02*
X224Y191D01*
X157Y190D02*
X224Y190D01*
X157Y189D02*
X225Y189D01*
X156Y188D02*
X226Y188D01*
X156Y187D02*
X226Y187D01*
X155Y186D02*
X227Y186D01*
X155Y185D02*
X227Y185D01*
X154Y184D02*
X227Y184D01*
X154Y183D02*
X228Y183D01*
X153Y182D02*
X228Y182D01*
X153Y181D02*
X228Y181D01*
X153Y180D02*
X229Y180D01*
X153Y179D02*
X229Y179D01*
X152Y178D02*
X229Y178D01*
X152Y177D02*
X229Y177D01*
X152Y176D02*
X230Y176D01*
X152Y175D02*
X230Y175D01*
X152Y174D02*
X230Y174D01*
X152Y173D02*
X230Y173D01*
X151Y172D02*
X230Y172D01*
X151Y171D02*
X230Y171D01*
X151Y170D02*
X230Y170D01*
X151Y169D02*
X230Y169D01*
X151Y168D02*
X230Y168D01*
X151Y167D02*
X230Y167D01*
X151Y166D02*
X230Y166D01*
X152Y165D02*
X230Y165D01*
X152Y164D02*
X230Y164D01*
X152Y163D02*
X230Y163D01*
X152Y162D02*
X230Y162D01*
X152Y161D02*
X229Y161D01*
X152Y160D02*
X229Y160D01*
X153Y159D02*
X229Y159D01*
X153Y158D02*
X229Y158D01*
X153Y157D02*
X228Y157D01*
X154Y156D02*
X228Y156D01*
X154Y155D02*
X228Y155D01*
X154Y154D02*
X227Y154D01*
X155Y153D02*
X227Y153D01*
X155Y152D02*
X226Y152D01*
X156Y151D02*
X226Y151D01*
X156Y150D02*
X225Y150D01*
X157Y149D02*
X225Y149D01*
X158Y148D02*
X224Y148D01*
X158Y147D02*
X223Y147D01*
X159Y146D02*
X223Y146D01*
X160Y145D02*
X222Y145D01*
X160Y144D02*
X221Y144D01*
X161Y143D02*
X220Y143D01*
X162Y142D02*
X220Y142D01*
X163Y141D02*
X219Y141D01*
X164Y140D02*
X218Y140D01*
X165Y139D02*
X216Y139D01*
X166Y138D02*
X215Y138D01*
X168Y137D02*
X214Y137D01*
X169Y136D02*
X212Y136D01*
X171Y135D02*
X211Y135D01*
X172Y134D02*
X209Y134D01*
X174Y133D02*
X207Y133D01*
X177Y132D02*
X205Y132D01*
X180Y131D02*
X202Y131D01*
X184Y130D02*
X198Y130D01*
D02*
G04 End of Mask0*
M02*