; NON-PLATED HOLES START AT T1
; THROUGH (PLATED) HOLES START AT T100
M48
INCH
T1C0.125984
T100C0.030000
T101C0.035000
T102C0.043307
%
T1
X024413Y004687
T100
X001913Y001687
X001913Y002687
T101
X002913Y012687
X006913Y014187
X004913Y001687
X006913Y015187
X004913Y002687
X006913Y016187
X004913Y003687
X002913Y014187
X008913Y001687
X006913Y017187
X002913Y015187
X008913Y002687
X002913Y016187
X008913Y003687
X001913Y012687
X002913Y017187
T102
X017413Y005187
X020413Y005187
X016413Y005187
X019413Y012687
X014413Y005187
X022413Y012687
X018413Y012687
X013413Y005187
X021413Y012687
X015413Y012687
X019413Y005187
X022413Y005187
X018413Y005187
X021413Y005187
X015413Y005187
X017413Y012687
X020413Y012687
X016413Y012687
X014413Y012687
X013413Y012687
T00
M30
