; NON-PLATED HOLES START AT T1
; THROUGH (PLATED) HOLES START AT T100
M48
INCH
T1C0.086614
T100C0.030000
T101C0.027559
T102C0.035000
%
T1
X001222Y007219
T100
X003222Y001719
X003222Y002719
T101
X018722Y005219
X021722Y005219
X017722Y005219
X020722Y005219
X015722Y005219
X023722Y012719
X019722Y012719
X014722Y005219
X022722Y012719
X016722Y012719
X023722Y005219
X019722Y005219
X022722Y005219
X016722Y005219
X018722Y012719
X021722Y012719
X017722Y012719
X020722Y012719
X015722Y012719
X014722Y012719
T102
X008222Y015219
X006222Y002719
X010222Y001719
X008222Y016219
X006222Y003719
X004222Y014219
X010222Y002719
X008222Y017219
X004222Y015219
X010222Y003719
X003222Y007719
X004222Y007719
X004222Y016219
X004222Y017219
X008222Y014219
X006222Y001719
T00
M30
