; NON-PLATED HOLES START AT T1
; THROUGH (PLATED) HOLES START AT T100
M48
INCH
T1C0.086614
T100C0.027559
%
T1
X001091Y011500
X016092Y011500
T100
X011614Y014789
X007930Y008978
X012614Y014789
X002841Y002340
X013614Y014789
X002841Y003340
X015863Y007336
X011612Y008977
X006026Y014789
X007026Y014789
X015863Y008336
X002905Y017406
X005930Y008978
X006930Y008978
X012612Y008977
X002905Y018406
X013612Y008977
X008026Y014789
T00
M30
