G04 MADE WITH FRITZING*
G04 WWW.FRITZING.ORG*
G04 DOUBLE SIDED*
G04 HOLES PLATED*
G04 CONTOUR ON CENTER OF CONTOUR VECTOR*
%ASAXBY*%
%FSLAX23Y23*%
%MOIN*%
%OFA0B0*%
%SFA1.0B1.0*%
%ADD10C,0.067559*%
%ADD11R,0.067559X0.067559*%
%ADD12C,0.024000*%
%LNCOPPER1*%
G90*
G70*
G54D10*
X1586Y834D03*
X1586Y734D03*
X1161Y1479D03*
X1261Y1479D03*
X1361Y1479D03*
X603Y1479D03*
X703Y1479D03*
X803Y1479D03*
X793Y898D03*
X693Y898D03*
X593Y898D03*
X1361Y898D03*
X1261Y898D03*
X1161Y898D03*
X291Y1741D03*
X291Y1841D03*
X284Y234D03*
X284Y334D03*
G54D11*
X1586Y834D03*
X1161Y1479D03*
X603Y1479D03*
X793Y898D03*
X1361Y898D03*
X291Y1741D03*
X284Y234D03*
G54D12*
X1465Y65D02*
X70Y67D01*
D02*
X802Y234D02*
X309Y234D01*
D02*
X992Y2083D02*
X1465Y2083D01*
D02*
X992Y898D02*
X992Y2083D01*
D02*
X1465Y2083D02*
X1465Y65D01*
D02*
X70Y67D02*
X72Y902D01*
D02*
X72Y902D02*
X568Y898D01*
D02*
X1136Y898D02*
X992Y898D01*
D02*
X1089Y731D02*
X815Y886D01*
D02*
X1361Y731D02*
X1089Y731D01*
D02*
X1361Y873D02*
X1361Y731D01*
D02*
X603Y1841D02*
X603Y1504D01*
D02*
X315Y1841D02*
X603Y1841D01*
D02*
X602Y1454D02*
X593Y923D01*
D02*
X602Y334D02*
X309Y334D01*
D02*
X593Y873D02*
X602Y334D01*
D02*
X803Y2100D02*
X803Y1504D01*
D02*
X57Y2100D02*
X803Y2100D01*
D02*
X802Y1454D02*
X793Y1120D01*
D02*
X793Y1120D02*
X793Y923D01*
D02*
X793Y873D02*
X802Y234D01*
D02*
X702Y1454D02*
X693Y923D01*
D02*
X57Y1741D02*
X57Y2100D01*
D02*
X266Y1741D02*
X57Y1741D01*
D02*
X1361Y923D02*
X1361Y1454D01*
D02*
X1161Y1454D02*
X1161Y923D01*
D02*
X1586Y809D02*
X1586Y759D01*
D02*
X1261Y1454D02*
X1261Y923D01*
G04 End of Copper1*
M02*